  0
SECTION
  2
HEADER
  9
$ANGBASE
  50
0.0
  9
$ANGDIR
  70
1
  9
$MEASUREMENT
  70
1
  0
ENDSEC
  0
SECTION
  2
TABLES
  0
TABLE
  2
LTYPE
  70
4
  0
LTYPE
  5
40F
  2
CONTINUOUS
  70
0
  3
Solid line
  72
65
  73
0
  40
0.0
  0
LTYPE
  5
410
  2
DASHDOT
 70
0
  3
Dash Dot ____ _ ____ _
 72
65
 73
4
 40
2.0
 49
1.25
 49
-0.25
 49
0.25
 49
-0.25
  0
LTYPE
  5
411
  2
DASHED
 70
0
  3
Dashed __ __ __ __ __
 72
65
 73
2
 40
0.75
 49
0.5
 49
-0.25
  0
LTYPE
  5
43B
  2
DOTTED
 70
0
  3
Dotted .  .  .  .
 72
65
 73
2
 40
0.2
 49
0.0
 49
-0.2
  0
ENDTAB
  0
TABLE
  2
STYLE
  70
4
  0
STYLE
  2
KICAD
  70
0
  40
0
  41
1
  42
1
  50
0
  71
0
  3
isocp.shx
  0
STYLE
  2
KICADB
  70
0
  40
0
  41
1
  42
1
  50
0
  71
0
  3
isocp.shx
  0
STYLE
  2
KICADI
  70
0
  40
0
  41
1
  42
1
  50
15
  71
0
  3
isocp.shx
  0
STYLE
  2
KICADBI
  70
0
  40
0
  41
1
  42
1
  50
15
  71
0
  3
isocp.shx
  0
ENDTAB
  0
TABLE
  2
LAYER
  70
1
  0
LAYER
  2
BLACK
  70
0
  62
7
  6
CONTINUOUS
  0
ENDTAB
  0
ENDSEC
  0
SECTION
  2
ENTITIES
0
LINE
8
BLACK
6
CONTINUOUS
10
157.944
20
-88.9072
11
158.844
21
-89.8072
0
LINE
8
BLACK
6
CONTINUOUS
10
158.844
20
-88.9072
11
157.944
21
-89.8072
0
LINE
8
BLACK
6
CONTINUOUS
10
160.933
20
-88.6457
11
161.833
21
-89.5457
0
LINE
8
BLACK
6
CONTINUOUS
10
161.833
20
-88.6457
11
160.933
21
-89.5457
0
LINE
8
BLACK
6
CONTINUOUS
10
103.279
20
-134.65
11
103.279
21
-132.65
0
LINE
8
BLACK
6
CONTINUOUS
10
103.279
20
-132.65
11
103.755
21
-132.65
0
LINE
8
BLACK
6
CONTINUOUS
10
103.755
20
-132.65
11
104.041
21
-132.745
0
LINE
8
BLACK
6
CONTINUOUS
10
104.041
20
-132.745
11
104.231
21
-132.935
0
LINE
8
BLACK
6
CONTINUOUS
10
104.231
20
-132.935
11
104.326
21
-133.126
0
LINE
8
BLACK
6
CONTINUOUS
10
104.326
20
-133.126
11
104.422
21
-133.507
0
LINE
8
BLACK
6
CONTINUOUS
10
104.422
20
-133.507
11
104.422
21
-133.792
0
LINE
8
BLACK
6
CONTINUOUS
10
104.422
20
-133.792
11
104.326
21
-134.173
0
LINE
8
BLACK
6
CONTINUOUS
10
104.326
20
-134.173
11
104.231
21
-134.364
0
LINE
8
BLACK
6
CONTINUOUS
10
104.231
20
-134.364
11
104.041
21
-134.554
0
LINE
8
BLACK
6
CONTINUOUS
10
104.041
20
-134.554
11
103.755
21
-134.65
0
LINE
8
BLACK
6
CONTINUOUS
10
103.755
20
-134.65
11
103.279
21
-134.65
0
LINE
8
BLACK
6
CONTINUOUS
10
105.279
20
-134.65
11
105.279
21
-133.316
0
LINE
8
BLACK
6
CONTINUOUS
10
105.279
20
-133.697
11
105.374
21
-133.507
0
LINE
8
BLACK
6
CONTINUOUS
10
105.374
20
-133.507
11
105.469
21
-133.411
0
LINE
8
BLACK
6
CONTINUOUS
10
105.469
20
-133.411
11
105.66
21
-133.316
0
LINE
8
BLACK
6
CONTINUOUS
10
105.66
20
-133.316
11
105.85
21
-133.316
0
LINE
8
BLACK
6
CONTINUOUS
10
106.517
20
-134.65
11
106.517
21
-133.316
0
LINE
8
BLACK
6
CONTINUOUS
10
106.517
20
-132.65
11
106.422
21
-132.745
0
LINE
8
BLACK
6
CONTINUOUS
10
106.422
20
-132.745
11
106.517
21
-132.84
0
LINE
8
BLACK
6
CONTINUOUS
10
106.517
20
-132.84
11
106.612
21
-132.745
0
LINE
8
BLACK
6
CONTINUOUS
10
106.612
20
-132.745
11
106.517
21
-132.65
0
LINE
8
BLACK
6
CONTINUOUS
10
106.517
20
-132.65
11
106.517
21
-132.84
0
LINE
8
BLACK
6
CONTINUOUS
10
107.755
20
-134.65
11
107.564
21
-134.554
0
LINE
8
BLACK
6
CONTINUOUS
10
107.564
20
-134.554
11
107.469
21
-134.364
0
LINE
8
BLACK
6
CONTINUOUS
10
107.469
20
-134.364
11
107.469
21
-132.65
0
LINE
8
BLACK
6
CONTINUOUS
10
108.803
20
-134.65
11
108.612
21
-134.554
0
LINE
8
BLACK
6
CONTINUOUS
10
108.612
20
-134.554
11
108.517
21
-134.364
0
LINE
8
BLACK
6
CONTINUOUS
10
108.517
20
-134.364
11
108.517
21
-132.65
0
LINE
8
BLACK
6
CONTINUOUS
10
111.088
20
-134.65
11
111.088
21
-132.65
0
LINE
8
BLACK
6
CONTINUOUS
10
111.088
20
-132.65
11
111.755
21
-134.078
0
LINE
8
BLACK
6
CONTINUOUS
10
111.755
20
-134.078
11
112.422
21
-132.65
0
LINE
8
BLACK
6
CONTINUOUS
10
112.422
20
-132.65
11
112.422
21
-134.65
0
LINE
8
BLACK
6
CONTINUOUS
10
114.231
20
-134.65
11
114.231
21
-133.602
0
LINE
8
BLACK
6
CONTINUOUS
10
114.231
20
-133.602
11
114.136
21
-133.411
0
LINE
8
BLACK
6
CONTINUOUS
10
114.136
20
-133.411
11
113.945
21
-133.316
0
LINE
8
BLACK
6
CONTINUOUS
10
113.945
20
-133.316
11
113.564
21
-133.316
0
LINE
8
BLACK
6
CONTINUOUS
10
113.564
20
-133.316
11
113.374
21
-133.411
0
LINE
8
BLACK
6
CONTINUOUS
10
114.231
20
-134.554
11
114.041
21
-134.65
0
LINE
8
BLACK
6
CONTINUOUS
10
114.041
20
-134.65
11
113.564
21
-134.65
0
LINE
8
BLACK
6
CONTINUOUS
10
113.564
20
-134.65
11
113.374
21
-134.554
0
LINE
8
BLACK
6
CONTINUOUS
10
113.374
20
-134.554
11
113.279
21
-134.364
0
LINE
8
BLACK
6
CONTINUOUS
10
113.279
20
-134.364
11
113.279
21
-134.173
0
LINE
8
BLACK
6
CONTINUOUS
10
113.279
20
-134.173
11
113.374
21
-133.983
0
LINE
8
BLACK
6
CONTINUOUS
10
113.374
20
-133.983
11
113.564
21
-133.888
0
LINE
8
BLACK
6
CONTINUOUS
10
113.564
20
-133.888
11
114.041
21
-133.888
0
LINE
8
BLACK
6
CONTINUOUS
10
114.041
20
-133.888
11
114.231
21
-133.792
0
LINE
8
BLACK
6
CONTINUOUS
10
115.184
20
-133.316
11
115.184
21
-135.316
0
LINE
8
BLACK
6
CONTINUOUS
10
115.184
20
-133.411
11
115.374
21
-133.316
0
LINE
8
BLACK
6
CONTINUOUS
10
115.374
20
-133.316
11
115.755
21
-133.316
0
LINE
8
BLACK
6
CONTINUOUS
10
115.755
20
-133.316
11
115.945
21
-133.411
0
LINE
8
BLACK
6
CONTINUOUS
10
115.945
20
-133.411
11
116.041
21
-133.507
0
LINE
8
BLACK
6
CONTINUOUS
10
116.041
20
-133.507
11
116.136
21
-133.697
0
LINE
8
BLACK
6
CONTINUOUS
10
116.136
20
-133.697
11
116.136
21
-134.269
0
LINE
8
BLACK
6
CONTINUOUS
10
116.136
20
-134.269
11
116.041
21
-134.459
0
LINE
8
BLACK
6
CONTINUOUS
10
116.041
20
-134.459
11
115.945
21
-134.554
0
LINE
8
BLACK
6
CONTINUOUS
10
115.945
20
-134.554
11
115.755
21
-134.65
0
LINE
8
BLACK
6
CONTINUOUS
10
115.755
20
-134.65
11
115.374
21
-134.65
0
LINE
8
BLACK
6
CONTINUOUS
10
115.374
20
-134.65
11
115.184
21
-134.554
0
LINE
8
BLACK
6
CONTINUOUS
10
116.993
20
-134.459
11
117.088
21
-134.554
0
LINE
8
BLACK
6
CONTINUOUS
10
117.088
20
-134.554
11
116.993
21
-134.65
0
LINE
8
BLACK
6
CONTINUOUS
10
116.993
20
-134.65
11
116.898
21
-134.554
0
LINE
8
BLACK
6
CONTINUOUS
10
116.898
20
-134.554
11
116.993
21
-134.459
0
LINE
8
BLACK
6
CONTINUOUS
10
116.993
20
-134.459
11
116.993
21
-134.65
0
LINE
8
BLACK
6
CONTINUOUS
10
116.993
20
-133.411
11
117.088
21
-133.507
0
LINE
8
BLACK
6
CONTINUOUS
10
117.088
20
-133.507
11
116.993
21
-133.602
0
LINE
8
BLACK
6
CONTINUOUS
10
116.993
20
-133.602
11
116.898
21
-133.507
0
LINE
8
BLACK
6
CONTINUOUS
10
116.898
20
-133.507
11
116.993
21
-133.411
0
LINE
8
BLACK
6
CONTINUOUS
10
116.993
20
-133.411
11
116.993
21
-133.602
0
LINE
8
BLACK
6
CONTINUOUS
10
99.771
20
-137.485
11
100.671
21
-138.385
0
LINE
8
BLACK
6
CONTINUOUS
10
100.671
20
-137.485
11
99.771
21
-138.385
0
LINE
8
BLACK
6
CONTINUOUS
10
103.66
20
-136.85
11
103.85
21
-136.85
0
LINE
8
BLACK
6
CONTINUOUS
10
103.85
20
-136.85
11
104.041
21
-136.945
0
LINE
8
BLACK
6
CONTINUOUS
10
104.041
20
-136.945
11
104.136
21
-137.04
0
LINE
8
BLACK
6
CONTINUOUS
10
104.136
20
-137.04
11
104.231
21
-137.23
0
LINE
8
BLACK
6
CONTINUOUS
10
104.231
20
-137.23
11
104.326
21
-137.611
0
LINE
8
BLACK
6
CONTINUOUS
10
104.326
20
-137.611
11
104.326
21
-138.088
0
LINE
8
BLACK
6
CONTINUOUS
10
104.326
20
-138.088
11
104.231
21
-138.469
0
LINE
8
BLACK
6
CONTINUOUS
10
104.231
20
-138.469
11
104.136
21
-138.659
0
LINE
8
BLACK
6
CONTINUOUS
10
104.136
20
-138.659
11
104.041
21
-138.754
0
LINE
8
BLACK
6
CONTINUOUS
10
104.041
20
-138.754
11
103.85
21
-138.85
0
LINE
8
BLACK
6
CONTINUOUS
10
103.85
20
-138.85
11
103.66
21
-138.85
0
LINE
8
BLACK
6
CONTINUOUS
10
103.66
20
-138.85
11
103.469
21
-138.754
0
LINE
8
BLACK
6
CONTINUOUS
10
103.469
20
-138.754
11
103.374
21
-138.659
0
LINE
8
BLACK
6
CONTINUOUS
10
103.374
20
-138.659
11
103.279
21
-138.469
0
LINE
8
BLACK
6
CONTINUOUS
10
103.279
20
-138.469
11
103.184
21
-138.088
0
LINE
8
BLACK
6
CONTINUOUS
10
103.184
20
-138.088
11
103.184
21
-137.611
0
LINE
8
BLACK
6
CONTINUOUS
10
103.184
20
-137.611
11
103.279
21
-137.23
0
LINE
8
BLACK
6
CONTINUOUS
10
103.279
20
-137.23
11
103.374
21
-137.04
0
LINE
8
BLACK
6
CONTINUOUS
10
103.374
20
-137.04
11
103.469
21
-136.945
0
LINE
8
BLACK
6
CONTINUOUS
10
103.469
20
-136.945
11
103.66
21
-136.85
0
LINE
8
BLACK
6
CONTINUOUS
10
105.184
20
-138.659
11
105.279
21
-138.754
0
LINE
8
BLACK
6
CONTINUOUS
10
105.279
20
-138.754
11
105.184
21
-138.85
0
LINE
8
BLACK
6
CONTINUOUS
10
105.184
20
-138.85
11
105.088
21
-138.754
0
LINE
8
BLACK
6
CONTINUOUS
10
105.088
20
-138.754
11
105.184
21
-138.659
0
LINE
8
BLACK
6
CONTINUOUS
10
105.184
20
-138.659
11
105.184
21
-138.85
0
LINE
8
BLACK
6
CONTINUOUS
10
106.231
20
-138.85
11
106.612
21
-138.85
0
LINE
8
BLACK
6
CONTINUOUS
10
106.612
20
-138.85
11
106.803
21
-138.754
0
LINE
8
BLACK
6
CONTINUOUS
10
106.803
20
-138.754
11
106.898
21
-138.659
0
LINE
8
BLACK
6
CONTINUOUS
10
106.898
20
-138.659
11
107.088
21
-138.373
0
LINE
8
BLACK
6
CONTINUOUS
10
107.088
20
-138.373
11
107.184
21
-137.992
0
LINE
8
BLACK
6
CONTINUOUS
10
107.184
20
-137.992
11
107.184
21
-137.23
0
LINE
8
BLACK
6
CONTINUOUS
10
107.184
20
-137.23
11
107.088
21
-137.04
0
LINE
8
BLACK
6
CONTINUOUS
10
107.088
20
-137.04
11
106.993
21
-136.945
0
LINE
8
BLACK
6
CONTINUOUS
10
106.993
20
-136.945
11
106.803
21
-136.85
0
LINE
8
BLACK
6
CONTINUOUS
10
106.803
20
-136.85
11
106.422
21
-136.85
0
LINE
8
BLACK
6
CONTINUOUS
10
106.422
20
-136.85
11
106.231
21
-136.945
0
LINE
8
BLACK
6
CONTINUOUS
10
106.231
20
-136.945
11
106.136
21
-137.04
0
LINE
8
BLACK
6
CONTINUOUS
10
106.136
20
-137.04
11
106.041
21
-137.23
0
LINE
8
BLACK
6
CONTINUOUS
10
106.041
20
-137.23
11
106.041
21
-137.707
0
LINE
8
BLACK
6
CONTINUOUS
10
106.041
20
-137.707
11
106.136
21
-137.897
0
LINE
8
BLACK
6
CONTINUOUS
10
106.136
20
-137.897
11
106.231
21
-137.992
0
LINE
8
BLACK
6
CONTINUOUS
10
106.231
20
-137.992
11
106.422
21
-138.088
0
LINE
8
BLACK
6
CONTINUOUS
10
106.422
20
-138.088
11
106.803
21
-138.088
0
LINE
8
BLACK
6
CONTINUOUS
10
106.803
20
-138.088
11
106.993
21
-137.992
0
LINE
8
BLACK
6
CONTINUOUS
10
106.993
20
-137.992
11
107.088
21
-137.897
0
LINE
8
BLACK
6
CONTINUOUS
10
107.088
20
-137.897
11
107.184
21
-137.707
0
LINE
8
BLACK
6
CONTINUOUS
10
108.422
20
-136.85
11
108.612
21
-136.85
0
LINE
8
BLACK
6
CONTINUOUS
10
108.612
20
-136.85
11
108.803
21
-136.945
0
LINE
8
BLACK
6
CONTINUOUS
10
108.803
20
-136.945
11
108.898
21
-137.04
0
LINE
8
BLACK
6
CONTINUOUS
10
108.898
20
-137.04
11
108.993
21
-137.23
0
LINE
8
BLACK
6
CONTINUOUS
10
108.993
20
-137.23
11
109.088
21
-137.611
0
LINE
8
BLACK
6
CONTINUOUS
10
109.088
20
-137.611
11
109.088
21
-138.088
0
LINE
8
BLACK
6
CONTINUOUS
10
109.088
20
-138.088
11
108.993
21
-138.469
0
LINE
8
BLACK
6
CONTINUOUS
10
108.993
20
-138.469
11
108.898
21
-138.659
0
LINE
8
BLACK
6
CONTINUOUS
10
108.898
20
-138.659
11
108.803
21
-138.754
0
LINE
8
BLACK
6
CONTINUOUS
10
108.803
20
-138.754
11
108.612
21
-138.85
0
LINE
8
BLACK
6
CONTINUOUS
10
108.612
20
-138.85
11
108.422
21
-138.85
0
LINE
8
BLACK
6
CONTINUOUS
10
108.422
20
-138.85
11
108.231
21
-138.754
0
LINE
8
BLACK
6
CONTINUOUS
10
108.231
20
-138.754
11
108.136
21
-138.659
0
LINE
8
BLACK
6
CONTINUOUS
10
108.136
20
-138.659
11
108.041
21
-138.469
0
LINE
8
BLACK
6
CONTINUOUS
10
108.041
20
-138.469
11
107.945
21
-138.088
0
LINE
8
BLACK
6
CONTINUOUS
10
107.945
20
-138.088
11
107.945
21
-137.611
0
LINE
8
BLACK
6
CONTINUOUS
10
107.945
20
-137.611
11
108.041
21
-137.23
0
LINE
8
BLACK
6
CONTINUOUS
10
108.041
20
-137.23
11
108.136
21
-137.04
0
LINE
8
BLACK
6
CONTINUOUS
10
108.136
20
-137.04
11
108.231
21
-136.945
0
LINE
8
BLACK
6
CONTINUOUS
10
108.231
20
-136.945
11
108.422
21
-136.85
0
LINE
8
BLACK
6
CONTINUOUS
10
110.326
20
-136.85
11
110.517
21
-136.85
0
LINE
8
BLACK
6
CONTINUOUS
10
110.517
20
-136.85
11
110.707
21
-136.945
0
LINE
8
BLACK
6
CONTINUOUS
10
110.707
20
-136.945
11
110.803
21
-137.04
0
LINE
8
BLACK
6
CONTINUOUS
10
110.803
20
-137.04
11
110.898
21
-137.23
0
LINE
8
BLACK
6
CONTINUOUS
10
110.898
20
-137.23
11
110.993
21
-137.611
0
LINE
8
BLACK
6
CONTINUOUS
10
110.993
20
-137.611
11
110.993
21
-138.088
0
LINE
8
BLACK
6
CONTINUOUS
10
110.993
20
-138.088
11
110.898
21
-138.469
0
LINE
8
BLACK
6
CONTINUOUS
10
110.898
20
-138.469
11
110.803
21
-138.659
0
LINE
8
BLACK
6
CONTINUOUS
10
110.803
20
-138.659
11
110.707
21
-138.754
0
LINE
8
BLACK
6
CONTINUOUS
10
110.707
20
-138.754
11
110.517
21
-138.85
0
LINE
8
BLACK
6
CONTINUOUS
10
110.517
20
-138.85
11
110.326
21
-138.85
0
LINE
8
BLACK
6
CONTINUOUS
10
110.326
20
-138.85
11
110.136
21
-138.754
0
LINE
8
BLACK
6
CONTINUOUS
10
110.136
20
-138.754
11
110.041
21
-138.659
0
LINE
8
BLACK
6
CONTINUOUS
10
110.041
20
-138.659
11
109.945
21
-138.469
0
LINE
8
BLACK
6
CONTINUOUS
10
109.945
20
-138.469
11
109.85
21
-138.088
0
LINE
8
BLACK
6
CONTINUOUS
10
109.85
20
-138.088
11
109.85
21
-137.611
0
LINE
8
BLACK
6
CONTINUOUS
10
109.85
20
-137.611
11
109.945
21
-137.23
0
LINE
8
BLACK
6
CONTINUOUS
10
109.945
20
-137.23
11
110.041
21
-137.04
0
LINE
8
BLACK
6
CONTINUOUS
10
110.041
20
-137.04
11
110.136
21
-136.945
0
LINE
8
BLACK
6
CONTINUOUS
10
110.136
20
-136.945
11
110.326
21
-136.85
0
LINE
8
BLACK
6
CONTINUOUS
10
111.85
20
-138.85
11
111.85
21
-137.516
0
LINE
8
BLACK
6
CONTINUOUS
10
111.85
20
-137.707
11
111.945
21
-137.611
0
LINE
8
BLACK
6
CONTINUOUS
10
111.945
20
-137.611
11
112.136
21
-137.516
0
LINE
8
BLACK
6
CONTINUOUS
10
112.136
20
-137.516
11
112.422
21
-137.516
0
LINE
8
BLACK
6
CONTINUOUS
10
112.422
20
-137.516
11
112.612
21
-137.611
0
LINE
8
BLACK
6
CONTINUOUS
10
112.612
20
-137.611
11
112.707
21
-137.802
0
LINE
8
BLACK
6
CONTINUOUS
10
112.707
20
-137.802
11
112.707
21
-138.85
0
LINE
8
BLACK
6
CONTINUOUS
10
112.707
20
-137.802
11
112.803
21
-137.611
0
LINE
8
BLACK
6
CONTINUOUS
10
112.803
20
-137.611
11
112.993
21
-137.516
0
LINE
8
BLACK
6
CONTINUOUS
10
112.993
20
-137.516
11
113.279
21
-137.516
0
LINE
8
BLACK
6
CONTINUOUS
10
113.279
20
-137.516
11
113.469
21
-137.611
0
LINE
8
BLACK
6
CONTINUOUS
10
113.469
20
-137.611
11
113.564
21
-137.802
0
LINE
8
BLACK
6
CONTINUOUS
10
113.564
20
-137.802
11
113.564
21
-138.85
0
LINE
8
BLACK
6
CONTINUOUS
10
114.517
20
-138.85
11
114.517
21
-137.516
0
LINE
8
BLACK
6
CONTINUOUS
10
114.517
20
-137.707
11
114.612
21
-137.611
0
LINE
8
BLACK
6
CONTINUOUS
10
114.612
20
-137.611
11
114.803
21
-137.516
0
LINE
8
BLACK
6
CONTINUOUS
10
114.803
20
-137.516
11
115.088
21
-137.516
0
LINE
8
BLACK
6
CONTINUOUS
10
115.088
20
-137.516
11
115.279
21
-137.611
0
LINE
8
BLACK
6
CONTINUOUS
10
115.279
20
-137.611
11
115.374
21
-137.802
0
LINE
8
BLACK
6
CONTINUOUS
10
115.374
20
-137.802
11
115.374
21
-138.85
0
LINE
8
BLACK
6
CONTINUOUS
10
115.374
20
-137.802
11
115.469
21
-137.611
0
LINE
8
BLACK
6
CONTINUOUS
10
115.469
20
-137.611
11
115.66
21
-137.516
0
LINE
8
BLACK
6
CONTINUOUS
10
115.66
20
-137.516
11
115.945
21
-137.516
0
LINE
8
BLACK
6
CONTINUOUS
10
115.945
20
-137.516
11
116.136
21
-137.611
0
LINE
8
BLACK
6
CONTINUOUS
10
116.136
20
-137.611
11
116.231
21
-137.802
0
LINE
8
BLACK
6
CONTINUOUS
10
116.231
20
-137.802
11
116.231
21
-138.85
0
LINE
8
BLACK
6
CONTINUOUS
10
120.136
20
-136.754
11
118.422
21
-139.326
0
LINE
8
BLACK
6
CONTINUOUS
10
122.707
20
-136.85
11
122.898
21
-136.85
0
LINE
8
BLACK
6
CONTINUOUS
10
122.898
20
-136.85
11
123.088
21
-136.945
0
LINE
8
BLACK
6
CONTINUOUS
10
123.088
20
-136.945
11
123.184
21
-137.04
0
LINE
8
BLACK
6
CONTINUOUS
10
123.184
20
-137.04
11
123.279
21
-137.23
0
LINE
8
BLACK
6
CONTINUOUS
10
123.279
20
-137.23
11
123.374
21
-137.611
0
LINE
8
BLACK
6
CONTINUOUS
10
123.374
20
-137.611
11
123.374
21
-138.088
0
LINE
8
BLACK
6
CONTINUOUS
10
123.374
20
-138.088
11
123.279
21
-138.469
0
LINE
8
BLACK
6
CONTINUOUS
10
123.279
20
-138.469
11
123.184
21
-138.659
0
LINE
8
BLACK
6
CONTINUOUS
10
123.184
20
-138.659
11
123.088
21
-138.754
0
LINE
8
BLACK
6
CONTINUOUS
10
123.088
20
-138.754
11
122.898
21
-138.85
0
LINE
8
BLACK
6
CONTINUOUS
10
122.898
20
-138.85
11
122.707
21
-138.85
0
LINE
8
BLACK
6
CONTINUOUS
10
122.707
20
-138.85
11
122.517
21
-138.754
0
LINE
8
BLACK
6
CONTINUOUS
10
122.517
20
-138.754
11
122.422
21
-138.659
0
LINE
8
BLACK
6
CONTINUOUS
10
122.422
20
-138.659
11
122.326
21
-138.469
0
LINE
8
BLACK
6
CONTINUOUS
10
122.326
20
-138.469
11
122.231
21
-138.088
0
LINE
8
BLACK
6
CONTINUOUS
10
122.231
20
-138.088
11
122.231
21
-137.611
0
LINE
8
BLACK
6
CONTINUOUS
10
122.231
20
-137.611
11
122.326
21
-137.23
0
LINE
8
BLACK
6
CONTINUOUS
10
122.326
20
-137.23
11
122.422
21
-137.04
0
LINE
8
BLACK
6
CONTINUOUS
10
122.422
20
-137.04
11
122.517
21
-136.945
0
LINE
8
BLACK
6
CONTINUOUS
10
122.517
20
-136.945
11
122.707
21
-136.85
0
LINE
8
BLACK
6
CONTINUOUS
10
124.231
20
-138.659
11
124.326
21
-138.754
0
LINE
8
BLACK
6
CONTINUOUS
10
124.326
20
-138.754
11
124.231
21
-138.85
0
LINE
8
BLACK
6
CONTINUOUS
10
124.231
20
-138.85
11
124.136
21
-138.754
0
LINE
8
BLACK
6
CONTINUOUS
10
124.136
20
-138.754
11
124.231
21
-138.659
0
LINE
8
BLACK
6
CONTINUOUS
10
124.231
20
-138.659
11
124.231
21
-138.85
0
LINE
8
BLACK
6
CONTINUOUS
10
125.564
20
-136.85
11
125.755
21
-136.85
0
LINE
8
BLACK
6
CONTINUOUS
10
125.755
20
-136.85
11
125.945
21
-136.945
0
LINE
8
BLACK
6
CONTINUOUS
10
125.945
20
-136.945
11
126.041
21
-137.04
0
LINE
8
BLACK
6
CONTINUOUS
10
126.041
20
-137.04
11
126.136
21
-137.23
0
LINE
8
BLACK
6
CONTINUOUS
10
126.136
20
-137.23
11
126.231
21
-137.611
0
LINE
8
BLACK
6
CONTINUOUS
10
126.231
20
-137.611
11
126.231
21
-138.088
0
LINE
8
BLACK
6
CONTINUOUS
10
126.231
20
-138.088
11
126.136
21
-138.469
0
LINE
8
BLACK
6
CONTINUOUS
10
126.136
20
-138.469
11
126.041
21
-138.659
0
LINE
8
BLACK
6
CONTINUOUS
10
126.041
20
-138.659
11
125.945
21
-138.754
0
LINE
8
BLACK
6
CONTINUOUS
10
125.945
20
-138.754
11
125.755
21
-138.85
0
LINE
8
BLACK
6
CONTINUOUS
10
125.755
20
-138.85
11
125.564
21
-138.85
0
LINE
8
BLACK
6
CONTINUOUS
10
125.564
20
-138.85
11
125.374
21
-138.754
0
LINE
8
BLACK
6
CONTINUOUS
10
125.374
20
-138.754
11
125.279
21
-138.659
0
LINE
8
BLACK
6
CONTINUOUS
10
125.279
20
-138.659
11
125.184
21
-138.469
0
LINE
8
BLACK
6
CONTINUOUS
10
125.184
20
-138.469
11
125.088
21
-138.088
0
LINE
8
BLACK
6
CONTINUOUS
10
125.088
20
-138.088
11
125.088
21
-137.611
0
LINE
8
BLACK
6
CONTINUOUS
10
125.088
20
-137.611
11
125.184
21
-137.23
0
LINE
8
BLACK
6
CONTINUOUS
10
125.184
20
-137.23
11
125.279
21
-137.04
0
LINE
8
BLACK
6
CONTINUOUS
10
125.279
20
-137.04
11
125.374
21
-136.945
0
LINE
8
BLACK
6
CONTINUOUS
10
125.374
20
-136.945
11
125.564
21
-136.85
0
LINE
8
BLACK
6
CONTINUOUS
10
126.898
20
-136.85
11
128.136
21
-136.85
0
LINE
8
BLACK
6
CONTINUOUS
10
128.136
20
-136.85
11
127.469
21
-137.611
0
LINE
8
BLACK
6
CONTINUOUS
10
127.469
20
-137.611
11
127.755
21
-137.611
0
LINE
8
BLACK
6
CONTINUOUS
10
127.755
20
-137.611
11
127.945
21
-137.707
0
LINE
8
BLACK
6
CONTINUOUS
10
127.945
20
-137.707
11
128.041
21
-137.802
0
LINE
8
BLACK
6
CONTINUOUS
10
128.041
20
-137.802
11
128.136
21
-137.992
0
LINE
8
BLACK
6
CONTINUOUS
10
128.136
20
-137.992
11
128.136
21
-138.469
0
LINE
8
BLACK
6
CONTINUOUS
10
128.136
20
-138.469
11
128.041
21
-138.659
0
LINE
8
BLACK
6
CONTINUOUS
10
128.041
20
-138.659
11
127.945
21
-138.754
0
LINE
8
BLACK
6
CONTINUOUS
10
127.945
20
-138.754
11
127.755
21
-138.85
0
LINE
8
BLACK
6
CONTINUOUS
10
127.755
20
-138.85
11
127.184
21
-138.85
0
LINE
8
BLACK
6
CONTINUOUS
10
127.184
20
-138.85
11
126.993
21
-138.754
0
LINE
8
BLACK
6
CONTINUOUS
10
126.993
20
-138.754
11
126.898
21
-138.659
0
LINE
8
BLACK
6
CONTINUOUS
10
129.945
20
-136.85
11
128.993
21
-136.85
0
LINE
8
BLACK
6
CONTINUOUS
10
128.993
20
-136.85
11
128.898
21
-137.802
0
LINE
8
BLACK
6
CONTINUOUS
10
128.898
20
-137.802
11
128.993
21
-137.707
0
LINE
8
BLACK
6
CONTINUOUS
10
128.993
20
-137.707
11
129.184
21
-137.611
0
LINE
8
BLACK
6
CONTINUOUS
10
129.184
20
-137.611
11
129.66
21
-137.611
0
LINE
8
BLACK
6
CONTINUOUS
10
129.66
20
-137.611
11
129.85
21
-137.707
0
LINE
8
BLACK
6
CONTINUOUS
10
129.85
20
-137.707
11
129.945
21
-137.802
0
LINE
8
BLACK
6
CONTINUOUS
10
129.945
20
-137.802
11
130.041
21
-137.992
0
LINE
8
BLACK
6
CONTINUOUS
10
130.041
20
-137.992
11
130.041
21
-138.469
0
LINE
8
BLACK
6
CONTINUOUS
10
130.041
20
-138.469
11
129.945
21
-138.659
0
LINE
8
BLACK
6
CONTINUOUS
10
129.945
20
-138.659
11
129.85
21
-138.754
0
LINE
8
BLACK
6
CONTINUOUS
10
129.85
20
-138.754
11
129.66
21
-138.85
0
LINE
8
BLACK
6
CONTINUOUS
10
129.66
20
-138.85
11
129.184
21
-138.85
0
LINE
8
BLACK
6
CONTINUOUS
10
129.184
20
-138.85
11
128.993
21
-138.754
0
LINE
8
BLACK
6
CONTINUOUS
10
128.993
20
-138.754
11
128.898
21
-138.659
0
LINE
8
BLACK
6
CONTINUOUS
10
131.755
20
-137.516
11
131.755
21
-138.85
0
LINE
8
BLACK
6
CONTINUOUS
10
131.279
20
-136.754
11
130.803
21
-138.183
0
LINE
8
BLACK
6
CONTINUOUS
10
130.803
20
-138.183
11
132.041
21
-138.183
0
LINE
8
BLACK
6
CONTINUOUS
10
132.707
20
-136.85
11
132.707
21
-137.23
0
LINE
8
BLACK
6
CONTINUOUS
10
133.469
20
-136.85
11
133.469
21
-137.23
0
LINE
8
BLACK
6
CONTINUOUS
10
136.422
20
-139.611
11
136.326
21
-139.516
0
LINE
8
BLACK
6
CONTINUOUS
10
136.326
20
-139.516
11
136.136
21
-139.23
0
LINE
8
BLACK
6
CONTINUOUS
10
136.136
20
-139.23
11
136.041
21
-139.04
0
LINE
8
BLACK
6
CONTINUOUS
10
136.041
20
-139.04
11
135.945
21
-138.754
0
LINE
8
BLACK
6
CONTINUOUS
10
135.945
20
-138.754
11
135.85
21
-138.278
0
LINE
8
BLACK
6
CONTINUOUS
10
135.85
20
-138.278
11
135.85
21
-137.897
0
LINE
8
BLACK
6
CONTINUOUS
10
135.85
20
-137.897
11
135.945
21
-137.421
0
LINE
8
BLACK
6
CONTINUOUS
10
135.945
20
-137.421
11
136.041
21
-137.135
0
LINE
8
BLACK
6
CONTINUOUS
10
136.041
20
-137.135
11
136.136
21
-136.945
0
LINE
8
BLACK
6
CONTINUOUS
10
136.136
20
-136.945
11
136.326
21
-136.659
0
LINE
8
BLACK
6
CONTINUOUS
10
136.326
20
-136.659
11
136.422
21
-136.564
0
LINE
8
BLACK
6
CONTINUOUS
10
137.088
20
-137.04
11
137.184
21
-136.945
0
LINE
8
BLACK
6
CONTINUOUS
10
137.184
20
-136.945
11
137.374
21
-136.85
0
LINE
8
BLACK
6
CONTINUOUS
10
137.374
20
-136.85
11
137.85
21
-136.85
0
LINE
8
BLACK
6
CONTINUOUS
10
137.85
20
-136.85
11
138.041
21
-136.945
0
LINE
8
BLACK
6
CONTINUOUS
10
138.041
20
-136.945
11
138.136
21
-137.04
0
LINE
8
BLACK
6
CONTINUOUS
10
138.136
20
-137.04
11
138.231
21
-137.23
0
LINE
8
BLACK
6
CONTINUOUS
10
138.231
20
-137.23
11
138.231
21
-137.421
0
LINE
8
BLACK
6
CONTINUOUS
10
138.231
20
-137.421
11
138.136
21
-137.707
0
LINE
8
BLACK
6
CONTINUOUS
10
138.136
20
-137.707
11
136.993
21
-138.85
0
LINE
8
BLACK
6
CONTINUOUS
10
136.993
20
-138.85
11
138.231
21
-138.85
0
LINE
8
BLACK
6
CONTINUOUS
10
140.612
20
-138.85
11
140.612
21
-136.85
0
LINE
8
BLACK
6
CONTINUOUS
10
141.469
20
-138.85
11
141.469
21
-137.802
0
LINE
8
BLACK
6
CONTINUOUS
10
141.469
20
-137.802
11
141.374
21
-137.611
0
LINE
8
BLACK
6
CONTINUOUS
10
141.374
20
-137.611
11
141.184
21
-137.516
0
LINE
8
BLACK
6
CONTINUOUS
10
141.184
20
-137.516
11
140.898
21
-137.516
0
LINE
8
BLACK
6
CONTINUOUS
10
140.898
20
-137.516
11
140.707
21
-137.611
0
LINE
8
BLACK
6
CONTINUOUS
10
140.707
20
-137.611
11
140.612
21
-137.707
0
LINE
8
BLACK
6
CONTINUOUS
10
142.707
20
-138.85
11
142.517
21
-138.754
0
LINE
8
BLACK
6
CONTINUOUS
10
142.517
20
-138.754
11
142.422
21
-138.659
0
LINE
8
BLACK
6
CONTINUOUS
10
142.422
20
-138.659
11
142.326
21
-138.469
0
LINE
8
BLACK
6
CONTINUOUS
10
142.326
20
-138.469
11
142.326
21
-137.897
0
LINE
8
BLACK
6
CONTINUOUS
10
142.326
20
-137.897
11
142.422
21
-137.707
0
LINE
8
BLACK
6
CONTINUOUS
10
142.422
20
-137.707
11
142.517
21
-137.611
0
LINE
8
BLACK
6
CONTINUOUS
10
142.517
20
-137.611
11
142.707
21
-137.516
0
LINE
8
BLACK
6
CONTINUOUS
10
142.707
20
-137.516
11
142.993
21
-137.516
0
LINE
8
BLACK
6
CONTINUOUS
10
142.993
20
-137.516
11
143.184
21
-137.611
0
LINE
8
BLACK
6
CONTINUOUS
10
143.184
20
-137.611
11
143.279
21
-137.707
0
LINE
8
BLACK
6
CONTINUOUS
10
143.279
20
-137.707
11
143.374
21
-137.897
0
LINE
8
BLACK
6
CONTINUOUS
10
143.374
20
-137.897
11
143.374
21
-138.469
0
LINE
8
BLACK
6
CONTINUOUS
10
143.374
20
-138.469
11
143.279
21
-138.659
0
LINE
8
BLACK
6
CONTINUOUS
10
143.279
20
-138.659
11
143.184
21
-138.754
0
LINE
8
BLACK
6
CONTINUOUS
10
143.184
20
-138.754
11
142.993
21
-138.85
0
LINE
8
BLACK
6
CONTINUOUS
10
142.993
20
-138.85
11
142.707
21
-138.85
0
LINE
8
BLACK
6
CONTINUOUS
10
144.517
20
-138.85
11
144.326
21
-138.754
0
LINE
8
BLACK
6
CONTINUOUS
10
144.326
20
-138.754
11
144.231
21
-138.564
0
LINE
8
BLACK
6
CONTINUOUS
10
144.231
20
-138.564
11
144.231
21
-136.85
0
LINE
8
BLACK
6
CONTINUOUS
10
146.041
20
-138.754
11
145.85
21
-138.85
0
LINE
8
BLACK
6
CONTINUOUS
10
145.85
20
-138.85
11
145.469
21
-138.85
0
LINE
8
BLACK
6
CONTINUOUS
10
145.469
20
-138.85
11
145.279
21
-138.754
0
LINE
8
BLACK
6
CONTINUOUS
10
145.279
20
-138.754
11
145.184
21
-138.564
0
LINE
8
BLACK
6
CONTINUOUS
10
145.184
20
-138.564
11
145.184
21
-137.802
0
LINE
8
BLACK
6
CONTINUOUS
10
145.184
20
-137.802
11
145.279
21
-137.611
0
LINE
8
BLACK
6
CONTINUOUS
10
145.279
20
-137.611
11
145.469
21
-137.516
0
LINE
8
BLACK
6
CONTINUOUS
10
145.469
20
-137.516
11
145.85
21
-137.516
0
LINE
8
BLACK
6
CONTINUOUS
10
145.85
20
-137.516
11
146.041
21
-137.611
0
LINE
8
BLACK
6
CONTINUOUS
10
146.041
20
-137.611
11
146.136
21
-137.802
0
LINE
8
BLACK
6
CONTINUOUS
10
146.136
20
-137.802
11
146.136
21
-137.992
0
LINE
8
BLACK
6
CONTINUOUS
10
146.136
20
-137.992
11
145.184
21
-138.183
0
LINE
8
BLACK
6
CONTINUOUS
10
146.898
20
-138.754
11
147.088
21
-138.85
0
LINE
8
BLACK
6
CONTINUOUS
10
147.088
20
-138.85
11
147.469
21
-138.85
0
LINE
8
BLACK
6
CONTINUOUS
10
147.469
20
-138.85
11
147.66
21
-138.754
0
LINE
8
BLACK
6
CONTINUOUS
10
147.66
20
-138.754
11
147.755
21
-138.564
0
LINE
8
BLACK
6
CONTINUOUS
10
147.755
20
-138.564
11
147.755
21
-138.469
0
LINE
8
BLACK
6
CONTINUOUS
10
147.755
20
-138.469
11
147.66
21
-138.278
0
LINE
8
BLACK
6
CONTINUOUS
10
147.66
20
-138.278
11
147.469
21
-138.183
0
LINE
8
BLACK
6
CONTINUOUS
10
147.469
20
-138.183
11
147.184
21
-138.183
0
LINE
8
BLACK
6
CONTINUOUS
10
147.184
20
-138.183
11
146.993
21
-138.088
0
LINE
8
BLACK
6
CONTINUOUS
10
146.993
20
-138.088
11
146.898
21
-137.897
0
LINE
8
BLACK
6
CONTINUOUS
10
146.898
20
-137.897
11
146.898
21
-137.802
0
LINE
8
BLACK
6
CONTINUOUS
10
146.898
20
-137.802
11
146.993
21
-137.611
0
LINE
8
BLACK
6
CONTINUOUS
10
146.993
20
-137.611
11
147.184
21
-137.516
0
LINE
8
BLACK
6
CONTINUOUS
10
147.184
20
-137.516
11
147.469
21
-137.516
0
LINE
8
BLACK
6
CONTINUOUS
10
147.469
20
-137.516
11
147.66
21
-137.611
0
LINE
8
BLACK
6
CONTINUOUS
10
148.422
20
-139.611
11
148.517
21
-139.516
0
LINE
8
BLACK
6
CONTINUOUS
10
148.517
20
-139.516
11
148.707
21
-139.23
0
LINE
8
BLACK
6
CONTINUOUS
10
148.707
20
-139.23
11
148.803
21
-139.04
0
LINE
8
BLACK
6
CONTINUOUS
10
148.803
20
-139.04
11
148.898
21
-138.754
0
LINE
8
BLACK
6
CONTINUOUS
10
148.898
20
-138.754
11
148.993
21
-138.278
0
LINE
8
BLACK
6
CONTINUOUS
10
148.993
20
-138.278
11
148.993
21
-137.897
0
LINE
8
BLACK
6
CONTINUOUS
10
148.993
20
-137.897
11
148.898
21
-137.421
0
LINE
8
BLACK
6
CONTINUOUS
10
148.898
20
-137.421
11
148.803
21
-137.135
0
LINE
8
BLACK
6
CONTINUOUS
10
148.803
20
-137.135
11
148.707
21
-136.945
0
LINE
8
BLACK
6
CONTINUOUS
10
148.707
20
-136.945
11
148.517
21
-136.659
0
LINE
8
BLACK
6
CONTINUOUS
10
148.517
20
-136.659
11
148.422
21
-136.564
0
LINE
8
BLACK
6
CONTINUOUS
10
152.041
20
-139.611
11
151.945
21
-139.516
0
LINE
8
BLACK
6
CONTINUOUS
10
151.945
20
-139.516
11
151.755
21
-139.23
0
LINE
8
BLACK
6
CONTINUOUS
10
151.755
20
-139.23
11
151.66
21
-139.04
0
LINE
8
BLACK
6
CONTINUOUS
10
151.66
20
-139.04
11
151.564
21
-138.754
0
LINE
8
BLACK
6
CONTINUOUS
10
151.564
20
-138.754
11
151.469
21
-138.278
0
LINE
8
BLACK
6
CONTINUOUS
10
151.469
20
-138.278
11
151.469
21
-137.897
0
LINE
8
BLACK
6
CONTINUOUS
10
151.469
20
-137.897
11
151.564
21
-137.421
0
LINE
8
BLACK
6
CONTINUOUS
10
151.564
20
-137.421
11
151.66
21
-137.135
0
LINE
8
BLACK
6
CONTINUOUS
10
151.66
20
-137.135
11
151.755
21
-136.945
0
LINE
8
BLACK
6
CONTINUOUS
10
151.755
20
-136.945
11
151.945
21
-136.659
0
LINE
8
BLACK
6
CONTINUOUS
10
151.945
20
-136.659
11
152.041
21
-136.564
0
LINE
8
BLACK
6
CONTINUOUS
10
152.803
20
-137.516
11
152.803
21
-138.85
0
LINE
8
BLACK
6
CONTINUOUS
10
152.803
20
-137.707
11
152.898
21
-137.611
0
LINE
8
BLACK
6
CONTINUOUS
10
152.898
20
-137.611
11
153.088
21
-137.516
0
LINE
8
BLACK
6
CONTINUOUS
10
153.088
20
-137.516
11
153.374
21
-137.516
0
LINE
8
BLACK
6
CONTINUOUS
10
153.374
20
-137.516
11
153.564
21
-137.611
0
LINE
8
BLACK
6
CONTINUOUS
10
153.564
20
-137.611
11
153.66
21
-137.802
0
LINE
8
BLACK
6
CONTINUOUS
10
153.66
20
-137.802
11
153.66
21
-138.85
0
LINE
8
BLACK
6
CONTINUOUS
10
154.898
20
-138.85
11
154.707
21
-138.754
0
LINE
8
BLACK
6
CONTINUOUS
10
154.707
20
-138.754
11
154.612
21
-138.659
0
LINE
8
BLACK
6
CONTINUOUS
10
154.612
20
-138.659
11
154.517
21
-138.469
0
LINE
8
BLACK
6
CONTINUOUS
10
154.517
20
-138.469
11
154.517
21
-137.897
0
LINE
8
BLACK
6
CONTINUOUS
10
154.517
20
-137.897
11
154.612
21
-137.707
0
LINE
8
BLACK
6
CONTINUOUS
10
154.612
20
-137.707
11
154.707
21
-137.611
0
LINE
8
BLACK
6
CONTINUOUS
10
154.707
20
-137.611
11
154.898
21
-137.516
0
LINE
8
BLACK
6
CONTINUOUS
10
154.898
20
-137.516
11
155.184
21
-137.516
0
LINE
8
BLACK
6
CONTINUOUS
10
155.184
20
-137.516
11
155.374
21
-137.611
0
LINE
8
BLACK
6
CONTINUOUS
10
155.374
20
-137.611
11
155.469
21
-137.707
0
LINE
8
BLACK
6
CONTINUOUS
10
155.469
20
-137.707
11
155.564
21
-137.897
0
LINE
8
BLACK
6
CONTINUOUS
10
155.564
20
-137.897
11
155.564
21
-138.469
0
LINE
8
BLACK
6
CONTINUOUS
10
155.564
20
-138.469
11
155.469
21
-138.659
0
LINE
8
BLACK
6
CONTINUOUS
10
155.469
20
-138.659
11
155.374
21
-138.754
0
LINE
8
BLACK
6
CONTINUOUS
10
155.374
20
-138.754
11
155.184
21
-138.85
0
LINE
8
BLACK
6
CONTINUOUS
10
155.184
20
-138.85
11
154.898
21
-138.85
0
LINE
8
BLACK
6
CONTINUOUS
10
156.136
20
-137.516
11
156.898
21
-137.516
0
LINE
8
BLACK
6
CONTINUOUS
10
156.422
20
-136.85
11
156.422
21
-138.564
0
LINE
8
BLACK
6
CONTINUOUS
10
156.422
20
-138.564
11
156.517
21
-138.754
0
LINE
8
BLACK
6
CONTINUOUS
10
156.517
20
-138.754
11
156.707
21
-138.85
0
LINE
8
BLACK
6
CONTINUOUS
10
156.707
20
-138.85
11
156.898
21
-138.85
0
LINE
8
BLACK
6
CONTINUOUS
10
159.088
20
-137.516
11
159.088
21
-139.516
0
LINE
8
BLACK
6
CONTINUOUS
10
159.088
20
-137.611
11
159.279
21
-137.516
0
LINE
8
BLACK
6
CONTINUOUS
10
159.279
20
-137.516
11
159.66
21
-137.516
0
LINE
8
BLACK
6
CONTINUOUS
10
159.66
20
-137.516
11
159.85
21
-137.611
0
LINE
8
BLACK
6
CONTINUOUS
10
159.85
20
-137.611
11
159.945
21
-137.707
0
LINE
8
BLACK
6
CONTINUOUS
10
159.945
20
-137.707
11
160.041
21
-137.897
0
LINE
8
BLACK
6
CONTINUOUS
10
160.041
20
-137.897
11
160.041
21
-138.469
0
LINE
8
BLACK
6
CONTINUOUS
10
160.041
20
-138.469
11
159.945
21
-138.659
0
LINE
8
BLACK
6
CONTINUOUS
10
159.945
20
-138.659
11
159.85
21
-138.754
0
LINE
8
BLACK
6
CONTINUOUS
10
159.85
20
-138.754
11
159.66
21
-138.85
0
LINE
8
BLACK
6
CONTINUOUS
10
159.66
20
-138.85
11
159.279
21
-138.85
0
LINE
8
BLACK
6
CONTINUOUS
10
159.279
20
-138.85
11
159.088
21
-138.754
0
LINE
8
BLACK
6
CONTINUOUS
10
161.184
20
-138.85
11
160.993
21
-138.754
0
LINE
8
BLACK
6
CONTINUOUS
10
160.993
20
-138.754
11
160.898
21
-138.564
0
LINE
8
BLACK
6
CONTINUOUS
10
160.898
20
-138.564
11
160.898
21
-136.85
0
LINE
8
BLACK
6
CONTINUOUS
10
162.803
20
-138.85
11
162.803
21
-137.802
0
LINE
8
BLACK
6
CONTINUOUS
10
162.803
20
-137.802
11
162.707
21
-137.611
0
LINE
8
BLACK
6
CONTINUOUS
10
162.707
20
-137.611
11
162.517
21
-137.516
0
LINE
8
BLACK
6
CONTINUOUS
10
162.517
20
-137.516
11
162.136
21
-137.516
0
LINE
8
BLACK
6
CONTINUOUS
10
162.136
20
-137.516
11
161.945
21
-137.611
0
LINE
8
BLACK
6
CONTINUOUS
10
162.803
20
-138.754
11
162.612
21
-138.85
0
LINE
8
BLACK
6
CONTINUOUS
10
162.612
20
-138.85
11
162.136
21
-138.85
0
LINE
8
BLACK
6
CONTINUOUS
10
162.136
20
-138.85
11
161.945
21
-138.754
0
LINE
8
BLACK
6
CONTINUOUS
10
161.945
20
-138.754
11
161.85
21
-138.564
0
LINE
8
BLACK
6
CONTINUOUS
10
161.85
20
-138.564
11
161.85
21
-138.373
0
LINE
8
BLACK
6
CONTINUOUS
10
161.85
20
-138.373
11
161.945
21
-138.183
0
LINE
8
BLACK
6
CONTINUOUS
10
161.945
20
-138.183
11
162.136
21
-138.088
0
LINE
8
BLACK
6
CONTINUOUS
10
162.136
20
-138.088
11
162.612
21
-138.088
0
LINE
8
BLACK
6
CONTINUOUS
10
162.612
20
-138.088
11
162.803
21
-137.992
0
LINE
8
BLACK
6
CONTINUOUS
10
163.469
20
-137.516
11
164.231
21
-137.516
0
LINE
8
BLACK
6
CONTINUOUS
10
163.755
20
-136.85
11
163.755
21
-138.564
0
LINE
8
BLACK
6
CONTINUOUS
10
163.755
20
-138.564
11
163.85
21
-138.754
0
LINE
8
BLACK
6
CONTINUOUS
10
163.85
20
-138.754
11
164.041
21
-138.85
0
LINE
8
BLACK
6
CONTINUOUS
10
164.041
20
-138.85
11
164.231
21
-138.85
0
LINE
8
BLACK
6
CONTINUOUS
10
165.66
20
-138.754
11
165.469
21
-138.85
0
LINE
8
BLACK
6
CONTINUOUS
10
165.469
20
-138.85
11
165.088
21
-138.85
0
LINE
8
BLACK
6
CONTINUOUS
10
165.088
20
-138.85
11
164.898
21
-138.754
0
LINE
8
BLACK
6
CONTINUOUS
10
164.898
20
-138.754
11
164.803
21
-138.564
0
LINE
8
BLACK
6
CONTINUOUS
10
164.803
20
-138.564
11
164.803
21
-137.802
0
LINE
8
BLACK
6
CONTINUOUS
10
164.803
20
-137.802
11
164.898
21
-137.611
0
LINE
8
BLACK
6
CONTINUOUS
10
164.898
20
-137.611
11
165.088
21
-137.516
0
LINE
8
BLACK
6
CONTINUOUS
10
165.088
20
-137.516
11
165.469
21
-137.516
0
LINE
8
BLACK
6
CONTINUOUS
10
165.469
20
-137.516
11
165.66
21
-137.611
0
LINE
8
BLACK
6
CONTINUOUS
10
165.66
20
-137.611
11
165.755
21
-137.802
0
LINE
8
BLACK
6
CONTINUOUS
10
165.755
20
-137.802
11
165.755
21
-137.992
0
LINE
8
BLACK
6
CONTINUOUS
10
165.755
20
-137.992
11
164.803
21
-138.183
0
LINE
8
BLACK
6
CONTINUOUS
10
167.469
20
-138.85
11
167.469
21
-136.85
0
LINE
8
BLACK
6
CONTINUOUS
10
167.469
20
-138.754
11
167.279
21
-138.85
0
LINE
8
BLACK
6
CONTINUOUS
10
167.279
20
-138.85
11
166.898
21
-138.85
0
LINE
8
BLACK
6
CONTINUOUS
10
166.898
20
-138.85
11
166.707
21
-138.754
0
LINE
8
BLACK
6
CONTINUOUS
10
166.707
20
-138.754
11
166.612
21
-138.659
0
LINE
8
BLACK
6
CONTINUOUS
10
166.612
20
-138.659
11
166.517
21
-138.469
0
LINE
8
BLACK
6
CONTINUOUS
10
166.517
20
-138.469
11
166.517
21
-137.897
0
LINE
8
BLACK
6
CONTINUOUS
10
166.517
20
-137.897
11
166.612
21
-137.707
0
LINE
8
BLACK
6
CONTINUOUS
10
166.612
20
-137.707
11
166.707
21
-137.611
0
LINE
8
BLACK
6
CONTINUOUS
10
166.707
20
-137.611
11
166.898
21
-137.516
0
LINE
8
BLACK
6
CONTINUOUS
10
166.898
20
-137.516
11
167.279
21
-137.516
0
LINE
8
BLACK
6
CONTINUOUS
10
167.279
20
-137.516
11
167.469
21
-137.611
0
LINE
8
BLACK
6
CONTINUOUS
10
168.231
20
-139.611
11
168.326
21
-139.516
0
LINE
8
BLACK
6
CONTINUOUS
10
168.326
20
-139.516
11
168.517
21
-139.23
0
LINE
8
BLACK
6
CONTINUOUS
10
168.517
20
-139.23
11
168.612
21
-139.04
0
LINE
8
BLACK
6
CONTINUOUS
10
168.612
20
-139.04
11
168.707
21
-138.754
0
LINE
8
BLACK
6
CONTINUOUS
10
168.707
20
-138.754
11
168.803
21
-138.278
0
LINE
8
BLACK
6
CONTINUOUS
10
168.803
20
-138.278
11
168.803
21
-137.897
0
LINE
8
BLACK
6
CONTINUOUS
10
168.803
20
-137.897
11
168.707
21
-137.421
0
LINE
8
BLACK
6
CONTINUOUS
10
168.707
20
-137.421
11
168.612
21
-137.135
0
LINE
8
BLACK
6
CONTINUOUS
10
168.612
20
-137.135
11
168.517
21
-136.945
0
LINE
8
BLACK
6
CONTINUOUS
10
168.517
20
-136.945
11
168.326
21
-136.659
0
LINE
8
BLACK
6
CONTINUOUS
10
168.326
20
-136.659
11
168.231
21
-136.564
  0
ENDSEC
  0
EOF
