%TF.GenerationSoftware,KiCad,Pcbnew,7.0.7*%
%TF.CreationDate,2023-12-19T22:40:54+02:00*%
%TF.ProjectId,snowflake,736e6f77-666c-4616-9b65-2e6b69636164,rev?*%
%TF.SameCoordinates,Original*%
%TF.FileFunction,Soldermask,Bot*%
%TF.FilePolarity,Negative*%
%FSLAX46Y46*%
G04 Gerber Fmt 4.6, Leading zero omitted, Abs format (unit mm)*
G04 Created by KiCad (PCBNEW 7.0.7) date 2023-12-19 22:40:54*
%MOMM*%
%LPD*%
G01*
G04 APERTURE LIST*
G04 Aperture macros list*
%AMRoundRect*
0 Rectangle with rounded corners*
0 $1 Rounding radius*
0 $2 $3 $4 $5 $6 $7 $8 $9 X,Y pos of 4 corners*
0 Add a 4 corners polygon primitive as box body*
4,1,4,$2,$3,$4,$5,$6,$7,$8,$9,$2,$3,0*
0 Add four circle primitives for the rounded corners*
1,1,$1+$1,$2,$3*
1,1,$1+$1,$4,$5*
1,1,$1+$1,$6,$7*
1,1,$1+$1,$8,$9*
0 Add four rect primitives between the rounded corners*
20,1,$1+$1,$2,$3,$4,$5,0*
20,1,$1+$1,$4,$5,$6,$7,0*
20,1,$1+$1,$6,$7,$8,$9,0*
20,1,$1+$1,$8,$9,$2,$3,0*%
%AMRotRect*
0 Rectangle, with rotation*
0 The origin of the aperture is its center*
0 $1 length*
0 $2 width*
0 $3 Rotation angle, in degrees counterclockwise*
0 Add horizontal line*
21,1,$1,$2,0,0,$3*%
G04 Aperture macros list end*
%ADD10RoundRect,0.062500X0.375000X0.062500X-0.375000X0.062500X-0.375000X-0.062500X0.375000X-0.062500X0*%
%ADD11RoundRect,0.062500X0.062500X0.375000X-0.062500X0.375000X-0.062500X-0.375000X0.062500X-0.375000X0*%
%ADD12R,2.100000X2.100000*%
%ADD13RotRect,3.810000X7.620000X30.000000*%
%ADD14RoundRect,0.237500X0.237500X-0.300000X0.237500X0.300000X-0.237500X0.300000X-0.237500X-0.300000X0*%
%ADD15RoundRect,0.237500X-0.237500X0.300000X-0.237500X-0.300000X0.237500X-0.300000X0.237500X0.300000X0*%
%ADD16RoundRect,0.237500X-0.237500X0.250000X-0.237500X-0.250000X0.237500X-0.250000X0.237500X0.250000X0*%
%ADD17RoundRect,0.237500X0.300000X0.237500X-0.300000X0.237500X-0.300000X-0.237500X0.300000X-0.237500X0*%
%ADD18RoundRect,0.062500X0.350000X0.062500X-0.350000X0.062500X-0.350000X-0.062500X0.350000X-0.062500X0*%
%ADD19RoundRect,0.062500X0.062500X0.350000X-0.062500X0.350000X-0.062500X-0.350000X0.062500X-0.350000X0*%
%ADD20R,2.700000X2.700000*%
%ADD21R,1.270000X5.080000*%
%ADD22C,17.800000*%
%ADD23RoundRect,0.237500X-0.300000X-0.237500X0.300000X-0.237500X0.300000X0.237500X-0.300000X0.237500X0*%
%ADD24RoundRect,0.062500X0.062500X-0.375000X0.062500X0.375000X-0.062500X0.375000X-0.062500X-0.375000X0*%
%ADD25RoundRect,0.062500X0.375000X-0.062500X0.375000X0.062500X-0.375000X0.062500X-0.375000X-0.062500X0*%
%ADD26R,2.600000X2.600000*%
%ADD27R,1.600000X1.400000*%
%ADD28RoundRect,0.237500X0.237500X-0.250000X0.237500X0.250000X-0.237500X0.250000X-0.237500X-0.250000X0*%
%ADD29R,1.000000X1.000000*%
%ADD30O,1.000000X1.000000*%
%ADD31RotRect,0.900000X0.800000X315.000000*%
%ADD32RoundRect,0.237500X0.237500X-0.287500X0.237500X0.287500X-0.237500X0.287500X-0.237500X-0.287500X0*%
%ADD33C,0.255000*%
%ADD34RoundRect,0.237500X0.141058X0.355681X-0.378558X0.055681X-0.141058X-0.355681X0.378558X-0.055681X0*%
%ADD35RoundRect,0.237500X-0.250000X-0.237500X0.250000X-0.237500X0.250000X0.237500X-0.250000X0.237500X0*%
%ADD36R,1.560000X0.650000*%
%ADD37RotRect,1.000000X0.800000X185.000000*%
%ADD38C,0.900000*%
%ADD39RotRect,0.700000X1.500000X185.000000*%
G04 APERTURE END LIST*
D10*
%TO.C,U2*%
X122288100Y-81569000D03*
X122288100Y-82069000D03*
X122288100Y-82569000D03*
X122288100Y-83069000D03*
X122288100Y-83569000D03*
X122288100Y-84069000D03*
D11*
X121600600Y-84756500D03*
X121100600Y-84756500D03*
X120600600Y-84756500D03*
X120100600Y-84756500D03*
X119600600Y-84756500D03*
X119100600Y-84756500D03*
D10*
X118413100Y-84069000D03*
X118413100Y-83569000D03*
X118413100Y-83069000D03*
X118413100Y-82569000D03*
X118413100Y-82069000D03*
X118413100Y-81569000D03*
D11*
X119100600Y-80881500D03*
X119600600Y-80881500D03*
X120100600Y-80881500D03*
X120600600Y-80881500D03*
X121100600Y-80881500D03*
X121600600Y-80881500D03*
D12*
X120350600Y-82819000D03*
%TD*%
D13*
%TO.C,AE1*%
X106702038Y-109448600D03*
%TD*%
D14*
%TO.C,C5*%
X163322000Y-84936500D03*
X163322000Y-83211500D03*
%TD*%
D15*
%TO.C,C11*%
X119913400Y-105918000D03*
X119913400Y-107643000D03*
%TD*%
D16*
%TO.C,R2*%
X142671800Y-78487900D03*
X142671800Y-80312900D03*
%TD*%
D14*
%TO.C,C21*%
X113842800Y-99034600D03*
X113842800Y-97309600D03*
%TD*%
D17*
%TO.C,C1*%
X158825100Y-101549200D03*
X157100100Y-101549200D03*
%TD*%
D18*
%TO.C,U1*%
X121113900Y-100680200D03*
X121113900Y-101180200D03*
X121113900Y-101680200D03*
X121113900Y-102180200D03*
X121113900Y-102680200D03*
X121113900Y-103180200D03*
D19*
X120401400Y-103892700D03*
X119901400Y-103892700D03*
X119401400Y-103892700D03*
X118901400Y-103892700D03*
X118401400Y-103892700D03*
X117901400Y-103892700D03*
D18*
X117188900Y-103180200D03*
X117188900Y-102680200D03*
X117188900Y-102180200D03*
X117188900Y-101680200D03*
X117188900Y-101180200D03*
X117188900Y-100680200D03*
D19*
X117901400Y-99967700D03*
X118401400Y-99967700D03*
X118901400Y-99967700D03*
X119401400Y-99967700D03*
X119901400Y-99967700D03*
X120401400Y-99967700D03*
D20*
X119151400Y-101930200D03*
%TD*%
D21*
%TO.C,BT1*%
X148639800Y-93675200D03*
X126669800Y-93675200D03*
D22*
X137654800Y-93675200D03*
%TD*%
D23*
%TO.C,C13*%
X122632300Y-97688400D03*
X124357300Y-97688400D03*
%TD*%
D15*
%TO.C,C6*%
X161798000Y-83212600D03*
X161798000Y-84937600D03*
%TD*%
D23*
%TO.C,C7*%
X160859300Y-81610200D03*
X162584300Y-81610200D03*
%TD*%
D24*
%TO.C,U5*%
X156987800Y-84756500D03*
X156487800Y-84756500D03*
X155987800Y-84756500D03*
X155487800Y-84756500D03*
X154987800Y-84756500D03*
X154487800Y-84756500D03*
D25*
X153800300Y-84069000D03*
X153800300Y-83569000D03*
X153800300Y-83069000D03*
X153800300Y-82569000D03*
X153800300Y-82069000D03*
X153800300Y-81569000D03*
D24*
X154487800Y-80881500D03*
X154987800Y-80881500D03*
X155487800Y-80881500D03*
X155987800Y-80881500D03*
X156487800Y-80881500D03*
X156987800Y-80881500D03*
D25*
X157675300Y-81569000D03*
X157675300Y-82069000D03*
X157675300Y-82569000D03*
X157675300Y-83069000D03*
X157675300Y-83569000D03*
X157675300Y-84069000D03*
D26*
X155737800Y-82819000D03*
%TD*%
D23*
%TO.C,C26*%
X127864700Y-116306600D03*
X129589700Y-116306600D03*
%TD*%
%TO.C,C20*%
X129515700Y-81737200D03*
X131240700Y-81737200D03*
%TD*%
D15*
%TO.C,C3*%
X154381200Y-87098800D03*
X154381200Y-88823800D03*
%TD*%
D27*
%TO.C,SW2*%
X140906000Y-71054400D03*
X132906000Y-71054400D03*
X140906000Y-75554400D03*
X132906000Y-75554400D03*
%TD*%
D28*
%TO.C,R5*%
X132892800Y-80844400D03*
X132892800Y-79019400D03*
%TD*%
D15*
%TO.C,C18*%
X124206000Y-83948100D03*
X124206000Y-85673100D03*
%TD*%
D29*
%TO.C,J2*%
X118110000Y-75488800D03*
D30*
X119380000Y-75488800D03*
%TD*%
D14*
%TO.C,C17*%
X110109000Y-81253500D03*
X110109000Y-79528500D03*
%TD*%
D29*
%TO.C,J1*%
X115036600Y-89509600D03*
D30*
X115036600Y-88239600D03*
X113766600Y-89509600D03*
X113766600Y-88239600D03*
X112496600Y-89509600D03*
X112496600Y-88239600D03*
X111226600Y-89509600D03*
X111226600Y-88239600D03*
X109956600Y-89509600D03*
X109956600Y-88239600D03*
%TD*%
D31*
%TO.C,Y1*%
X124938134Y-101097117D03*
X125928083Y-102087066D03*
X125150266Y-102864883D03*
X124160317Y-101874934D03*
%TD*%
D17*
%TO.C,C14*%
X117957600Y-106121200D03*
X116232600Y-106121200D03*
%TD*%
%TO.C,C12*%
X116915100Y-107797600D03*
X115190100Y-107797600D03*
%TD*%
D23*
%TO.C,C16*%
X124358400Y-104775000D03*
X126083400Y-104775000D03*
%TD*%
D15*
%TO.C,C10*%
X121437400Y-105919100D03*
X121437400Y-107644100D03*
%TD*%
D16*
%TO.C,R3*%
X141122400Y-78487900D03*
X141122400Y-80312900D03*
%TD*%
D15*
%TO.C,C8*%
X118719600Y-111101800D03*
X118719600Y-112826800D03*
%TD*%
D14*
%TO.C,C22*%
X112293400Y-99034600D03*
X112293400Y-97309600D03*
%TD*%
D23*
%TO.C,C2*%
X152578900Y-98602800D03*
X154303900Y-98602800D03*
%TD*%
%TO.C,C15*%
X123851500Y-99339400D03*
X125576500Y-99339400D03*
%TD*%
%TO.C,C25*%
X127865800Y-117830600D03*
X129590800Y-117830600D03*
%TD*%
D32*
%TO.C,L1*%
X127711200Y-105294400D03*
X127711200Y-103544400D03*
%TD*%
D23*
%TO.C,C4*%
X154737900Y-76327000D03*
X156462900Y-76327000D03*
%TD*%
D17*
%TO.C,C19*%
X116965900Y-78867000D03*
X115240900Y-78867000D03*
%TD*%
D15*
%TO.C,C9*%
X123139200Y-107468500D03*
X123139200Y-109193500D03*
%TD*%
D33*
%TO.C,U3*%
X113824200Y-103057000D03*
X113824200Y-104267000D03*
X113824200Y-104767000D03*
X114884200Y-103057000D03*
X114884200Y-104267000D03*
X114884200Y-104767000D03*
%TD*%
D16*
%TO.C,R4*%
X125679200Y-83898100D03*
X125679200Y-85723100D03*
%TD*%
D23*
%TO.C,C24*%
X127841500Y-114757200D03*
X129566500Y-114757200D03*
%TD*%
D32*
%TO.C,L2*%
X120294400Y-112812800D03*
X120294400Y-111062800D03*
%TD*%
D34*
%TO.C,C27*%
X111770347Y-106731350D03*
X110276453Y-107593850D03*
%TD*%
D35*
%TO.C,R1*%
X106580300Y-81838800D03*
X108405300Y-81838800D03*
%TD*%
D36*
%TO.C,U4*%
X154842200Y-100599200D03*
X154842200Y-101549200D03*
X154842200Y-102499200D03*
X152142200Y-102499200D03*
X152142200Y-100599200D03*
%TD*%
D14*
%TO.C,C23*%
X110769400Y-99034600D03*
X110769400Y-97309600D03*
%TD*%
D37*
%TO.C,SW1*%
X163620674Y-90004162D03*
X163428060Y-87802572D03*
D38*
X161382984Y-89095733D03*
X158394400Y-89357200D03*
D37*
X156348453Y-90640399D03*
X156155839Y-88438809D03*
D39*
X161976736Y-87277063D03*
X158988152Y-87538530D03*
X157493860Y-87669264D03*
%TD*%
M02*
