%TF.GenerationSoftware,KiCad,Pcbnew,7.0.7*%
%TF.CreationDate,2023-12-19T22:40:54+02:00*%
%TF.ProjectId,snowflake,736e6f77-666c-4616-9b65-2e6b69636164,rev?*%
%TF.SameCoordinates,Original*%
%TF.FileFunction,Legend,Bot*%
%TF.FilePolarity,Positive*%
%FSLAX46Y46*%
G04 Gerber Fmt 4.6, Leading zero omitted, Abs format (unit mm)*
G04 Created by KiCad (PCBNEW 7.0.7) date 2023-12-19 22:40:54*
%MOMM*%
%LPD*%
G01*
G04 APERTURE LIST*
%ADD10C,0.427868*%
%ADD11C,0.125000*%
%ADD12C,0.150000*%
%ADD13C,0.120000*%
%ADD14C,0.310000*%
G04 APERTURE END LIST*
D10*
X157871734Y-86156800D02*
G75*
G03*
X157871734Y-86156800I-213934J0D01*
G01*
X122641934Y-99517200D02*
G75*
G03*
X122641934Y-99517200I-213934J0D01*
G01*
X123581734Y-79959200D02*
G75*
G03*
X123581734Y-79959200I-213934J0D01*
G01*
D11*
X151936083Y-107807595D02*
X151936083Y-108379023D01*
X151936083Y-108379023D02*
X151897988Y-108493309D01*
X151897988Y-108493309D02*
X151821797Y-108569500D01*
X151821797Y-108569500D02*
X151707512Y-108607595D01*
X151707512Y-108607595D02*
X151631321Y-108607595D01*
X152697988Y-108607595D02*
X152317036Y-108607595D01*
X152317036Y-108607595D02*
X152317036Y-107807595D01*
X153421798Y-108531404D02*
X153383702Y-108569500D01*
X153383702Y-108569500D02*
X153269417Y-108607595D01*
X153269417Y-108607595D02*
X153193226Y-108607595D01*
X153193226Y-108607595D02*
X153078940Y-108569500D01*
X153078940Y-108569500D02*
X153002750Y-108493309D01*
X153002750Y-108493309D02*
X152964655Y-108417119D01*
X152964655Y-108417119D02*
X152926559Y-108264738D01*
X152926559Y-108264738D02*
X152926559Y-108150452D01*
X152926559Y-108150452D02*
X152964655Y-107998071D01*
X152964655Y-107998071D02*
X153002750Y-107921880D01*
X153002750Y-107921880D02*
X153078940Y-107845690D01*
X153078940Y-107845690D02*
X153193226Y-107807595D01*
X153193226Y-107807595D02*
X153269417Y-107807595D01*
X153269417Y-107807595D02*
X153383702Y-107845690D01*
X153383702Y-107845690D02*
X153421798Y-107883785D01*
X153993226Y-107807595D02*
X153993226Y-108379023D01*
X153993226Y-108379023D02*
X153955131Y-108493309D01*
X153955131Y-108493309D02*
X153878940Y-108569500D01*
X153878940Y-108569500D02*
X153764655Y-108607595D01*
X153764655Y-108607595D02*
X153688464Y-108607595D01*
X154755131Y-108607595D02*
X154374179Y-108607595D01*
X154374179Y-108607595D02*
X154374179Y-107807595D01*
X155478941Y-108531404D02*
X155440845Y-108569500D01*
X155440845Y-108569500D02*
X155326560Y-108607595D01*
X155326560Y-108607595D02*
X155250369Y-108607595D01*
X155250369Y-108607595D02*
X155136083Y-108569500D01*
X155136083Y-108569500D02*
X155059893Y-108493309D01*
X155059893Y-108493309D02*
X155021798Y-108417119D01*
X155021798Y-108417119D02*
X154983702Y-108264738D01*
X154983702Y-108264738D02*
X154983702Y-108150452D01*
X154983702Y-108150452D02*
X155021798Y-107998071D01*
X155021798Y-107998071D02*
X155059893Y-107921880D01*
X155059893Y-107921880D02*
X155136083Y-107845690D01*
X155136083Y-107845690D02*
X155250369Y-107807595D01*
X155250369Y-107807595D02*
X155326560Y-107807595D01*
X155326560Y-107807595D02*
X155440845Y-107845690D01*
X155440845Y-107845690D02*
X155478941Y-107883785D01*
X156050369Y-107807595D02*
X156050369Y-108379023D01*
X156050369Y-108379023D02*
X156012274Y-108493309D01*
X156012274Y-108493309D02*
X155936083Y-108569500D01*
X155936083Y-108569500D02*
X155821798Y-108607595D01*
X155821798Y-108607595D02*
X155745607Y-108607595D01*
X156812274Y-108607595D02*
X156431322Y-108607595D01*
X156431322Y-108607595D02*
X156431322Y-107807595D01*
X157536084Y-108531404D02*
X157497988Y-108569500D01*
X157497988Y-108569500D02*
X157383703Y-108607595D01*
X157383703Y-108607595D02*
X157307512Y-108607595D01*
X157307512Y-108607595D02*
X157193226Y-108569500D01*
X157193226Y-108569500D02*
X157117036Y-108493309D01*
X157117036Y-108493309D02*
X157078941Y-108417119D01*
X157078941Y-108417119D02*
X157040845Y-108264738D01*
X157040845Y-108264738D02*
X157040845Y-108150452D01*
X157040845Y-108150452D02*
X157078941Y-107998071D01*
X157078941Y-107998071D02*
X157117036Y-107921880D01*
X157117036Y-107921880D02*
X157193226Y-107845690D01*
X157193226Y-107845690D02*
X157307512Y-107807595D01*
X157307512Y-107807595D02*
X157383703Y-107807595D01*
X157383703Y-107807595D02*
X157497988Y-107845690D01*
X157497988Y-107845690D02*
X157536084Y-107883785D01*
X158107512Y-107807595D02*
X158107512Y-108379023D01*
X158107512Y-108379023D02*
X158069417Y-108493309D01*
X158069417Y-108493309D02*
X157993226Y-108569500D01*
X157993226Y-108569500D02*
X157878941Y-108607595D01*
X157878941Y-108607595D02*
X157802750Y-108607595D01*
X158869417Y-108607595D02*
X158488465Y-108607595D01*
X158488465Y-108607595D02*
X158488465Y-107807595D01*
X159593227Y-108531404D02*
X159555131Y-108569500D01*
X159555131Y-108569500D02*
X159440846Y-108607595D01*
X159440846Y-108607595D02*
X159364655Y-108607595D01*
X159364655Y-108607595D02*
X159250369Y-108569500D01*
X159250369Y-108569500D02*
X159174179Y-108493309D01*
X159174179Y-108493309D02*
X159136084Y-108417119D01*
X159136084Y-108417119D02*
X159097988Y-108264738D01*
X159097988Y-108264738D02*
X159097988Y-108150452D01*
X159097988Y-108150452D02*
X159136084Y-107998071D01*
X159136084Y-107998071D02*
X159174179Y-107921880D01*
X159174179Y-107921880D02*
X159250369Y-107845690D01*
X159250369Y-107845690D02*
X159364655Y-107807595D01*
X159364655Y-107807595D02*
X159440846Y-107807595D01*
X159440846Y-107807595D02*
X159555131Y-107845690D01*
X159555131Y-107845690D02*
X159593227Y-107883785D01*
X160164655Y-107807595D02*
X160164655Y-108379023D01*
X160164655Y-108379023D02*
X160126560Y-108493309D01*
X160126560Y-108493309D02*
X160050369Y-108569500D01*
X160050369Y-108569500D02*
X159936084Y-108607595D01*
X159936084Y-108607595D02*
X159859893Y-108607595D01*
X160926560Y-108607595D02*
X160545608Y-108607595D01*
X160545608Y-108607595D02*
X160545608Y-107807595D01*
X161650370Y-108531404D02*
X161612274Y-108569500D01*
X161612274Y-108569500D02*
X161497989Y-108607595D01*
X161497989Y-108607595D02*
X161421798Y-108607595D01*
X161421798Y-108607595D02*
X161307512Y-108569500D01*
X161307512Y-108569500D02*
X161231322Y-108493309D01*
X161231322Y-108493309D02*
X161193227Y-108417119D01*
X161193227Y-108417119D02*
X161155131Y-108264738D01*
X161155131Y-108264738D02*
X161155131Y-108150452D01*
X161155131Y-108150452D02*
X161193227Y-107998071D01*
X161193227Y-107998071D02*
X161231322Y-107921880D01*
X161231322Y-107921880D02*
X161307512Y-107845690D01*
X161307512Y-107845690D02*
X161421798Y-107807595D01*
X161421798Y-107807595D02*
X161497989Y-107807595D01*
X161497989Y-107807595D02*
X161612274Y-107845690D01*
X161612274Y-107845690D02*
X161650370Y-107883785D01*
D12*
X121112504Y-78953819D02*
X121112504Y-79763342D01*
X121112504Y-79763342D02*
X121064885Y-79858580D01*
X121064885Y-79858580D02*
X121017266Y-79906200D01*
X121017266Y-79906200D02*
X120922028Y-79953819D01*
X120922028Y-79953819D02*
X120731552Y-79953819D01*
X120731552Y-79953819D02*
X120636314Y-79906200D01*
X120636314Y-79906200D02*
X120588695Y-79858580D01*
X120588695Y-79858580D02*
X120541076Y-79763342D01*
X120541076Y-79763342D02*
X120541076Y-78953819D01*
X120112504Y-79049057D02*
X120064885Y-79001438D01*
X120064885Y-79001438D02*
X119969647Y-78953819D01*
X119969647Y-78953819D02*
X119731552Y-78953819D01*
X119731552Y-78953819D02*
X119636314Y-79001438D01*
X119636314Y-79001438D02*
X119588695Y-79049057D01*
X119588695Y-79049057D02*
X119541076Y-79144295D01*
X119541076Y-79144295D02*
X119541076Y-79239533D01*
X119541076Y-79239533D02*
X119588695Y-79382390D01*
X119588695Y-79382390D02*
X120160123Y-79953819D01*
X120160123Y-79953819D02*
X119541076Y-79953819D01*
X165484980Y-82510333D02*
X165532600Y-82462714D01*
X165532600Y-82462714D02*
X165580219Y-82319857D01*
X165580219Y-82319857D02*
X165580219Y-82224619D01*
X165580219Y-82224619D02*
X165532600Y-82081762D01*
X165532600Y-82081762D02*
X165437361Y-81986524D01*
X165437361Y-81986524D02*
X165342123Y-81938905D01*
X165342123Y-81938905D02*
X165151647Y-81891286D01*
X165151647Y-81891286D02*
X165008790Y-81891286D01*
X165008790Y-81891286D02*
X164818314Y-81938905D01*
X164818314Y-81938905D02*
X164723076Y-81986524D01*
X164723076Y-81986524D02*
X164627838Y-82081762D01*
X164627838Y-82081762D02*
X164580219Y-82224619D01*
X164580219Y-82224619D02*
X164580219Y-82319857D01*
X164580219Y-82319857D02*
X164627838Y-82462714D01*
X164627838Y-82462714D02*
X164675457Y-82510333D01*
X164580219Y-83415095D02*
X164580219Y-82938905D01*
X164580219Y-82938905D02*
X165056409Y-82891286D01*
X165056409Y-82891286D02*
X165008790Y-82938905D01*
X165008790Y-82938905D02*
X164961171Y-83034143D01*
X164961171Y-83034143D02*
X164961171Y-83272238D01*
X164961171Y-83272238D02*
X165008790Y-83367476D01*
X165008790Y-83367476D02*
X165056409Y-83415095D01*
X165056409Y-83415095D02*
X165151647Y-83462714D01*
X165151647Y-83462714D02*
X165389742Y-83462714D01*
X165389742Y-83462714D02*
X165484980Y-83415095D01*
X165484980Y-83415095D02*
X165532600Y-83367476D01*
X165532600Y-83367476D02*
X165580219Y-83272238D01*
X165580219Y-83272238D02*
X165580219Y-83034143D01*
X165580219Y-83034143D02*
X165532600Y-82938905D01*
X165532600Y-82938905D02*
X165484980Y-82891286D01*
X118905257Y-109782780D02*
X118952876Y-109830400D01*
X118952876Y-109830400D02*
X119095733Y-109878019D01*
X119095733Y-109878019D02*
X119190971Y-109878019D01*
X119190971Y-109878019D02*
X119333828Y-109830400D01*
X119333828Y-109830400D02*
X119429066Y-109735161D01*
X119429066Y-109735161D02*
X119476685Y-109639923D01*
X119476685Y-109639923D02*
X119524304Y-109449447D01*
X119524304Y-109449447D02*
X119524304Y-109306590D01*
X119524304Y-109306590D02*
X119476685Y-109116114D01*
X119476685Y-109116114D02*
X119429066Y-109020876D01*
X119429066Y-109020876D02*
X119333828Y-108925638D01*
X119333828Y-108925638D02*
X119190971Y-108878019D01*
X119190971Y-108878019D02*
X119095733Y-108878019D01*
X119095733Y-108878019D02*
X118952876Y-108925638D01*
X118952876Y-108925638D02*
X118905257Y-108973257D01*
X117952876Y-109878019D02*
X118524304Y-109878019D01*
X118238590Y-109878019D02*
X118238590Y-108878019D01*
X118238590Y-108878019D02*
X118333828Y-109020876D01*
X118333828Y-109020876D02*
X118429066Y-109116114D01*
X118429066Y-109116114D02*
X118524304Y-109163733D01*
X117000495Y-109878019D02*
X117571923Y-109878019D01*
X117286209Y-109878019D02*
X117286209Y-108878019D01*
X117286209Y-108878019D02*
X117381447Y-109020876D01*
X117381447Y-109020876D02*
X117476685Y-109116114D01*
X117476685Y-109116114D02*
X117571923Y-109163733D01*
X143152019Y-82027733D02*
X142675828Y-81694400D01*
X143152019Y-81456305D02*
X142152019Y-81456305D01*
X142152019Y-81456305D02*
X142152019Y-81837257D01*
X142152019Y-81837257D02*
X142199638Y-81932495D01*
X142199638Y-81932495D02*
X142247257Y-81980114D01*
X142247257Y-81980114D02*
X142342495Y-82027733D01*
X142342495Y-82027733D02*
X142485352Y-82027733D01*
X142485352Y-82027733D02*
X142580590Y-81980114D01*
X142580590Y-81980114D02*
X142628209Y-81932495D01*
X142628209Y-81932495D02*
X142675828Y-81837257D01*
X142675828Y-81837257D02*
X142675828Y-81456305D01*
X142247257Y-82408686D02*
X142199638Y-82456305D01*
X142199638Y-82456305D02*
X142152019Y-82551543D01*
X142152019Y-82551543D02*
X142152019Y-82789638D01*
X142152019Y-82789638D02*
X142199638Y-82884876D01*
X142199638Y-82884876D02*
X142247257Y-82932495D01*
X142247257Y-82932495D02*
X142342495Y-82980114D01*
X142342495Y-82980114D02*
X142437733Y-82980114D01*
X142437733Y-82980114D02*
X142580590Y-82932495D01*
X142580590Y-82932495D02*
X143152019Y-82361067D01*
X143152019Y-82361067D02*
X143152019Y-82980114D01*
X114405580Y-100550742D02*
X114453200Y-100503123D01*
X114453200Y-100503123D02*
X114500819Y-100360266D01*
X114500819Y-100360266D02*
X114500819Y-100265028D01*
X114500819Y-100265028D02*
X114453200Y-100122171D01*
X114453200Y-100122171D02*
X114357961Y-100026933D01*
X114357961Y-100026933D02*
X114262723Y-99979314D01*
X114262723Y-99979314D02*
X114072247Y-99931695D01*
X114072247Y-99931695D02*
X113929390Y-99931695D01*
X113929390Y-99931695D02*
X113738914Y-99979314D01*
X113738914Y-99979314D02*
X113643676Y-100026933D01*
X113643676Y-100026933D02*
X113548438Y-100122171D01*
X113548438Y-100122171D02*
X113500819Y-100265028D01*
X113500819Y-100265028D02*
X113500819Y-100360266D01*
X113500819Y-100360266D02*
X113548438Y-100503123D01*
X113548438Y-100503123D02*
X113596057Y-100550742D01*
X113596057Y-100931695D02*
X113548438Y-100979314D01*
X113548438Y-100979314D02*
X113500819Y-101074552D01*
X113500819Y-101074552D02*
X113500819Y-101312647D01*
X113500819Y-101312647D02*
X113548438Y-101407885D01*
X113548438Y-101407885D02*
X113596057Y-101455504D01*
X113596057Y-101455504D02*
X113691295Y-101503123D01*
X113691295Y-101503123D02*
X113786533Y-101503123D01*
X113786533Y-101503123D02*
X113929390Y-101455504D01*
X113929390Y-101455504D02*
X114500819Y-100884076D01*
X114500819Y-100884076D02*
X114500819Y-101503123D01*
X114500819Y-102455504D02*
X114500819Y-101884076D01*
X114500819Y-102169790D02*
X113500819Y-102169790D01*
X113500819Y-102169790D02*
X113643676Y-102074552D01*
X113643676Y-102074552D02*
X113738914Y-101979314D01*
X113738914Y-101979314D02*
X113786533Y-101884076D01*
X158129266Y-100478780D02*
X158176885Y-100526400D01*
X158176885Y-100526400D02*
X158319742Y-100574019D01*
X158319742Y-100574019D02*
X158414980Y-100574019D01*
X158414980Y-100574019D02*
X158557837Y-100526400D01*
X158557837Y-100526400D02*
X158653075Y-100431161D01*
X158653075Y-100431161D02*
X158700694Y-100335923D01*
X158700694Y-100335923D02*
X158748313Y-100145447D01*
X158748313Y-100145447D02*
X158748313Y-100002590D01*
X158748313Y-100002590D02*
X158700694Y-99812114D01*
X158700694Y-99812114D02*
X158653075Y-99716876D01*
X158653075Y-99716876D02*
X158557837Y-99621638D01*
X158557837Y-99621638D02*
X158414980Y-99574019D01*
X158414980Y-99574019D02*
X158319742Y-99574019D01*
X158319742Y-99574019D02*
X158176885Y-99621638D01*
X158176885Y-99621638D02*
X158129266Y-99669257D01*
X157176885Y-100574019D02*
X157748313Y-100574019D01*
X157462599Y-100574019D02*
X157462599Y-99574019D01*
X157462599Y-99574019D02*
X157557837Y-99716876D01*
X157557837Y-99716876D02*
X157653075Y-99812114D01*
X157653075Y-99812114D02*
X157748313Y-99859733D01*
X119913304Y-98065019D02*
X119913304Y-98874542D01*
X119913304Y-98874542D02*
X119865685Y-98969780D01*
X119865685Y-98969780D02*
X119818066Y-99017400D01*
X119818066Y-99017400D02*
X119722828Y-99065019D01*
X119722828Y-99065019D02*
X119532352Y-99065019D01*
X119532352Y-99065019D02*
X119437114Y-99017400D01*
X119437114Y-99017400D02*
X119389495Y-98969780D01*
X119389495Y-98969780D02*
X119341876Y-98874542D01*
X119341876Y-98874542D02*
X119341876Y-98065019D01*
X118341876Y-99065019D02*
X118913304Y-99065019D01*
X118627590Y-99065019D02*
X118627590Y-98065019D01*
X118627590Y-98065019D02*
X118722828Y-98207876D01*
X118722828Y-98207876D02*
X118818066Y-98303114D01*
X118818066Y-98303114D02*
X118913304Y-98350733D01*
X124823457Y-96549380D02*
X124871076Y-96597000D01*
X124871076Y-96597000D02*
X125013933Y-96644619D01*
X125013933Y-96644619D02*
X125109171Y-96644619D01*
X125109171Y-96644619D02*
X125252028Y-96597000D01*
X125252028Y-96597000D02*
X125347266Y-96501761D01*
X125347266Y-96501761D02*
X125394885Y-96406523D01*
X125394885Y-96406523D02*
X125442504Y-96216047D01*
X125442504Y-96216047D02*
X125442504Y-96073190D01*
X125442504Y-96073190D02*
X125394885Y-95882714D01*
X125394885Y-95882714D02*
X125347266Y-95787476D01*
X125347266Y-95787476D02*
X125252028Y-95692238D01*
X125252028Y-95692238D02*
X125109171Y-95644619D01*
X125109171Y-95644619D02*
X125013933Y-95644619D01*
X125013933Y-95644619D02*
X124871076Y-95692238D01*
X124871076Y-95692238D02*
X124823457Y-95739857D01*
X123871076Y-96644619D02*
X124442504Y-96644619D01*
X124156790Y-96644619D02*
X124156790Y-95644619D01*
X124156790Y-95644619D02*
X124252028Y-95787476D01*
X124252028Y-95787476D02*
X124347266Y-95882714D01*
X124347266Y-95882714D02*
X124442504Y-95930333D01*
X123537742Y-95644619D02*
X122918695Y-95644619D01*
X122918695Y-95644619D02*
X123252028Y-96025571D01*
X123252028Y-96025571D02*
X123109171Y-96025571D01*
X123109171Y-96025571D02*
X123013933Y-96073190D01*
X123013933Y-96073190D02*
X122966314Y-96120809D01*
X122966314Y-96120809D02*
X122918695Y-96216047D01*
X122918695Y-96216047D02*
X122918695Y-96454142D01*
X122918695Y-96454142D02*
X122966314Y-96549380D01*
X122966314Y-96549380D02*
X123013933Y-96597000D01*
X123013933Y-96597000D02*
X123109171Y-96644619D01*
X123109171Y-96644619D02*
X123394885Y-96644619D01*
X123394885Y-96644619D02*
X123490123Y-96597000D01*
X123490123Y-96597000D02*
X123537742Y-96549380D01*
X160727580Y-83908433D02*
X160775200Y-83860814D01*
X160775200Y-83860814D02*
X160822819Y-83717957D01*
X160822819Y-83717957D02*
X160822819Y-83622719D01*
X160822819Y-83622719D02*
X160775200Y-83479862D01*
X160775200Y-83479862D02*
X160679961Y-83384624D01*
X160679961Y-83384624D02*
X160584723Y-83337005D01*
X160584723Y-83337005D02*
X160394247Y-83289386D01*
X160394247Y-83289386D02*
X160251390Y-83289386D01*
X160251390Y-83289386D02*
X160060914Y-83337005D01*
X160060914Y-83337005D02*
X159965676Y-83384624D01*
X159965676Y-83384624D02*
X159870438Y-83479862D01*
X159870438Y-83479862D02*
X159822819Y-83622719D01*
X159822819Y-83622719D02*
X159822819Y-83717957D01*
X159822819Y-83717957D02*
X159870438Y-83860814D01*
X159870438Y-83860814D02*
X159918057Y-83908433D01*
X159822819Y-84765576D02*
X159822819Y-84575100D01*
X159822819Y-84575100D02*
X159870438Y-84479862D01*
X159870438Y-84479862D02*
X159918057Y-84432243D01*
X159918057Y-84432243D02*
X160060914Y-84337005D01*
X160060914Y-84337005D02*
X160251390Y-84289386D01*
X160251390Y-84289386D02*
X160632342Y-84289386D01*
X160632342Y-84289386D02*
X160727580Y-84337005D01*
X160727580Y-84337005D02*
X160775200Y-84384624D01*
X160775200Y-84384624D02*
X160822819Y-84479862D01*
X160822819Y-84479862D02*
X160822819Y-84670338D01*
X160822819Y-84670338D02*
X160775200Y-84765576D01*
X160775200Y-84765576D02*
X160727580Y-84813195D01*
X160727580Y-84813195D02*
X160632342Y-84860814D01*
X160632342Y-84860814D02*
X160394247Y-84860814D01*
X160394247Y-84860814D02*
X160299009Y-84813195D01*
X160299009Y-84813195D02*
X160251390Y-84765576D01*
X160251390Y-84765576D02*
X160203771Y-84670338D01*
X160203771Y-84670338D02*
X160203771Y-84479862D01*
X160203771Y-84479862D02*
X160251390Y-84384624D01*
X160251390Y-84384624D02*
X160299009Y-84337005D01*
X160299009Y-84337005D02*
X160394247Y-84289386D01*
X162040866Y-80445780D02*
X162088485Y-80493400D01*
X162088485Y-80493400D02*
X162231342Y-80541019D01*
X162231342Y-80541019D02*
X162326580Y-80541019D01*
X162326580Y-80541019D02*
X162469437Y-80493400D01*
X162469437Y-80493400D02*
X162564675Y-80398161D01*
X162564675Y-80398161D02*
X162612294Y-80302923D01*
X162612294Y-80302923D02*
X162659913Y-80112447D01*
X162659913Y-80112447D02*
X162659913Y-79969590D01*
X162659913Y-79969590D02*
X162612294Y-79779114D01*
X162612294Y-79779114D02*
X162564675Y-79683876D01*
X162564675Y-79683876D02*
X162469437Y-79588638D01*
X162469437Y-79588638D02*
X162326580Y-79541019D01*
X162326580Y-79541019D02*
X162231342Y-79541019D01*
X162231342Y-79541019D02*
X162088485Y-79588638D01*
X162088485Y-79588638D02*
X162040866Y-79636257D01*
X161707532Y-79541019D02*
X161040866Y-79541019D01*
X161040866Y-79541019D02*
X161469437Y-80541019D01*
X158512619Y-82057095D02*
X159322142Y-82057095D01*
X159322142Y-82057095D02*
X159417380Y-82104714D01*
X159417380Y-82104714D02*
X159465000Y-82152333D01*
X159465000Y-82152333D02*
X159512619Y-82247571D01*
X159512619Y-82247571D02*
X159512619Y-82438047D01*
X159512619Y-82438047D02*
X159465000Y-82533285D01*
X159465000Y-82533285D02*
X159417380Y-82580904D01*
X159417380Y-82580904D02*
X159322142Y-82628523D01*
X159322142Y-82628523D02*
X158512619Y-82628523D01*
X158512619Y-83580904D02*
X158512619Y-83104714D01*
X158512619Y-83104714D02*
X158988809Y-83057095D01*
X158988809Y-83057095D02*
X158941190Y-83104714D01*
X158941190Y-83104714D02*
X158893571Y-83199952D01*
X158893571Y-83199952D02*
X158893571Y-83438047D01*
X158893571Y-83438047D02*
X158941190Y-83533285D01*
X158941190Y-83533285D02*
X158988809Y-83580904D01*
X158988809Y-83580904D02*
X159084047Y-83628523D01*
X159084047Y-83628523D02*
X159322142Y-83628523D01*
X159322142Y-83628523D02*
X159417380Y-83580904D01*
X159417380Y-83580904D02*
X159465000Y-83533285D01*
X159465000Y-83533285D02*
X159512619Y-83438047D01*
X159512619Y-83438047D02*
X159512619Y-83199952D01*
X159512619Y-83199952D02*
X159465000Y-83104714D01*
X159465000Y-83104714D02*
X159417380Y-83057095D01*
X133049757Y-116729780D02*
X133097376Y-116777400D01*
X133097376Y-116777400D02*
X133240233Y-116825019D01*
X133240233Y-116825019D02*
X133335471Y-116825019D01*
X133335471Y-116825019D02*
X133478328Y-116777400D01*
X133478328Y-116777400D02*
X133573566Y-116682161D01*
X133573566Y-116682161D02*
X133621185Y-116586923D01*
X133621185Y-116586923D02*
X133668804Y-116396447D01*
X133668804Y-116396447D02*
X133668804Y-116253590D01*
X133668804Y-116253590D02*
X133621185Y-116063114D01*
X133621185Y-116063114D02*
X133573566Y-115967876D01*
X133573566Y-115967876D02*
X133478328Y-115872638D01*
X133478328Y-115872638D02*
X133335471Y-115825019D01*
X133335471Y-115825019D02*
X133240233Y-115825019D01*
X133240233Y-115825019D02*
X133097376Y-115872638D01*
X133097376Y-115872638D02*
X133049757Y-115920257D01*
X132668804Y-115920257D02*
X132621185Y-115872638D01*
X132621185Y-115872638D02*
X132525947Y-115825019D01*
X132525947Y-115825019D02*
X132287852Y-115825019D01*
X132287852Y-115825019D02*
X132192614Y-115872638D01*
X132192614Y-115872638D02*
X132144995Y-115920257D01*
X132144995Y-115920257D02*
X132097376Y-116015495D01*
X132097376Y-116015495D02*
X132097376Y-116110733D01*
X132097376Y-116110733D02*
X132144995Y-116253590D01*
X132144995Y-116253590D02*
X132716423Y-116825019D01*
X132716423Y-116825019D02*
X132097376Y-116825019D01*
X131240233Y-115825019D02*
X131430709Y-115825019D01*
X131430709Y-115825019D02*
X131525947Y-115872638D01*
X131525947Y-115872638D02*
X131573566Y-115920257D01*
X131573566Y-115920257D02*
X131668804Y-116063114D01*
X131668804Y-116063114D02*
X131716423Y-116253590D01*
X131716423Y-116253590D02*
X131716423Y-116634542D01*
X131716423Y-116634542D02*
X131668804Y-116729780D01*
X131668804Y-116729780D02*
X131621185Y-116777400D01*
X131621185Y-116777400D02*
X131525947Y-116825019D01*
X131525947Y-116825019D02*
X131335471Y-116825019D01*
X131335471Y-116825019D02*
X131240233Y-116777400D01*
X131240233Y-116777400D02*
X131192614Y-116729780D01*
X131192614Y-116729780D02*
X131144995Y-116634542D01*
X131144995Y-116634542D02*
X131144995Y-116396447D01*
X131144995Y-116396447D02*
X131192614Y-116301209D01*
X131192614Y-116301209D02*
X131240233Y-116253590D01*
X131240233Y-116253590D02*
X131335471Y-116205971D01*
X131335471Y-116205971D02*
X131525947Y-116205971D01*
X131525947Y-116205971D02*
X131621185Y-116253590D01*
X131621185Y-116253590D02*
X131668804Y-116301209D01*
X131668804Y-116301209D02*
X131716423Y-116396447D01*
X131021057Y-83526780D02*
X131068676Y-83574400D01*
X131068676Y-83574400D02*
X131211533Y-83622019D01*
X131211533Y-83622019D02*
X131306771Y-83622019D01*
X131306771Y-83622019D02*
X131449628Y-83574400D01*
X131449628Y-83574400D02*
X131544866Y-83479161D01*
X131544866Y-83479161D02*
X131592485Y-83383923D01*
X131592485Y-83383923D02*
X131640104Y-83193447D01*
X131640104Y-83193447D02*
X131640104Y-83050590D01*
X131640104Y-83050590D02*
X131592485Y-82860114D01*
X131592485Y-82860114D02*
X131544866Y-82764876D01*
X131544866Y-82764876D02*
X131449628Y-82669638D01*
X131449628Y-82669638D02*
X131306771Y-82622019D01*
X131306771Y-82622019D02*
X131211533Y-82622019D01*
X131211533Y-82622019D02*
X131068676Y-82669638D01*
X131068676Y-82669638D02*
X131021057Y-82717257D01*
X130640104Y-82717257D02*
X130592485Y-82669638D01*
X130592485Y-82669638D02*
X130497247Y-82622019D01*
X130497247Y-82622019D02*
X130259152Y-82622019D01*
X130259152Y-82622019D02*
X130163914Y-82669638D01*
X130163914Y-82669638D02*
X130116295Y-82717257D01*
X130116295Y-82717257D02*
X130068676Y-82812495D01*
X130068676Y-82812495D02*
X130068676Y-82907733D01*
X130068676Y-82907733D02*
X130116295Y-83050590D01*
X130116295Y-83050590D02*
X130687723Y-83622019D01*
X130687723Y-83622019D02*
X130068676Y-83622019D01*
X129449628Y-82622019D02*
X129354390Y-82622019D01*
X129354390Y-82622019D02*
X129259152Y-82669638D01*
X129259152Y-82669638D02*
X129211533Y-82717257D01*
X129211533Y-82717257D02*
X129163914Y-82812495D01*
X129163914Y-82812495D02*
X129116295Y-83002971D01*
X129116295Y-83002971D02*
X129116295Y-83241066D01*
X129116295Y-83241066D02*
X129163914Y-83431542D01*
X129163914Y-83431542D02*
X129211533Y-83526780D01*
X129211533Y-83526780D02*
X129259152Y-83574400D01*
X129259152Y-83574400D02*
X129354390Y-83622019D01*
X129354390Y-83622019D02*
X129449628Y-83622019D01*
X129449628Y-83622019D02*
X129544866Y-83574400D01*
X129544866Y-83574400D02*
X129592485Y-83526780D01*
X129592485Y-83526780D02*
X129640104Y-83431542D01*
X129640104Y-83431542D02*
X129687723Y-83241066D01*
X129687723Y-83241066D02*
X129687723Y-83002971D01*
X129687723Y-83002971D02*
X129640104Y-82812495D01*
X129640104Y-82812495D02*
X129592485Y-82717257D01*
X129592485Y-82717257D02*
X129544866Y-82669638D01*
X129544866Y-82669638D02*
X129449628Y-82622019D01*
X153310780Y-87794633D02*
X153358400Y-87747014D01*
X153358400Y-87747014D02*
X153406019Y-87604157D01*
X153406019Y-87604157D02*
X153406019Y-87508919D01*
X153406019Y-87508919D02*
X153358400Y-87366062D01*
X153358400Y-87366062D02*
X153263161Y-87270824D01*
X153263161Y-87270824D02*
X153167923Y-87223205D01*
X153167923Y-87223205D02*
X152977447Y-87175586D01*
X152977447Y-87175586D02*
X152834590Y-87175586D01*
X152834590Y-87175586D02*
X152644114Y-87223205D01*
X152644114Y-87223205D02*
X152548876Y-87270824D01*
X152548876Y-87270824D02*
X152453638Y-87366062D01*
X152453638Y-87366062D02*
X152406019Y-87508919D01*
X152406019Y-87508919D02*
X152406019Y-87604157D01*
X152406019Y-87604157D02*
X152453638Y-87747014D01*
X152453638Y-87747014D02*
X152501257Y-87794633D01*
X152406019Y-88127967D02*
X152406019Y-88747014D01*
X152406019Y-88747014D02*
X152786971Y-88413681D01*
X152786971Y-88413681D02*
X152786971Y-88556538D01*
X152786971Y-88556538D02*
X152834590Y-88651776D01*
X152834590Y-88651776D02*
X152882209Y-88699395D01*
X152882209Y-88699395D02*
X152977447Y-88747014D01*
X152977447Y-88747014D02*
X153215542Y-88747014D01*
X153215542Y-88747014D02*
X153310780Y-88699395D01*
X153310780Y-88699395D02*
X153358400Y-88651776D01*
X153358400Y-88651776D02*
X153406019Y-88556538D01*
X153406019Y-88556538D02*
X153406019Y-88270824D01*
X153406019Y-88270824D02*
X153358400Y-88175586D01*
X153358400Y-88175586D02*
X153310780Y-88127967D01*
X138239332Y-69411600D02*
X138096475Y-69459219D01*
X138096475Y-69459219D02*
X137858380Y-69459219D01*
X137858380Y-69459219D02*
X137763142Y-69411600D01*
X137763142Y-69411600D02*
X137715523Y-69363980D01*
X137715523Y-69363980D02*
X137667904Y-69268742D01*
X137667904Y-69268742D02*
X137667904Y-69173504D01*
X137667904Y-69173504D02*
X137715523Y-69078266D01*
X137715523Y-69078266D02*
X137763142Y-69030647D01*
X137763142Y-69030647D02*
X137858380Y-68983028D01*
X137858380Y-68983028D02*
X138048856Y-68935409D01*
X138048856Y-68935409D02*
X138144094Y-68887790D01*
X138144094Y-68887790D02*
X138191713Y-68840171D01*
X138191713Y-68840171D02*
X138239332Y-68744933D01*
X138239332Y-68744933D02*
X138239332Y-68649695D01*
X138239332Y-68649695D02*
X138191713Y-68554457D01*
X138191713Y-68554457D02*
X138144094Y-68506838D01*
X138144094Y-68506838D02*
X138048856Y-68459219D01*
X138048856Y-68459219D02*
X137810761Y-68459219D01*
X137810761Y-68459219D02*
X137667904Y-68506838D01*
X137334570Y-68459219D02*
X137096475Y-69459219D01*
X137096475Y-69459219D02*
X136905999Y-68744933D01*
X136905999Y-68744933D02*
X136715523Y-69459219D01*
X136715523Y-69459219D02*
X136477428Y-68459219D01*
X136144094Y-68554457D02*
X136096475Y-68506838D01*
X136096475Y-68506838D02*
X136001237Y-68459219D01*
X136001237Y-68459219D02*
X135763142Y-68459219D01*
X135763142Y-68459219D02*
X135667904Y-68506838D01*
X135667904Y-68506838D02*
X135620285Y-68554457D01*
X135620285Y-68554457D02*
X135572666Y-68649695D01*
X135572666Y-68649695D02*
X135572666Y-68744933D01*
X135572666Y-68744933D02*
X135620285Y-68887790D01*
X135620285Y-68887790D02*
X136191713Y-69459219D01*
X136191713Y-69459219D02*
X135572666Y-69459219D01*
X131849019Y-79513133D02*
X131372828Y-79179800D01*
X131849019Y-78941705D02*
X130849019Y-78941705D01*
X130849019Y-78941705D02*
X130849019Y-79322657D01*
X130849019Y-79322657D02*
X130896638Y-79417895D01*
X130896638Y-79417895D02*
X130944257Y-79465514D01*
X130944257Y-79465514D02*
X131039495Y-79513133D01*
X131039495Y-79513133D02*
X131182352Y-79513133D01*
X131182352Y-79513133D02*
X131277590Y-79465514D01*
X131277590Y-79465514D02*
X131325209Y-79417895D01*
X131325209Y-79417895D02*
X131372828Y-79322657D01*
X131372828Y-79322657D02*
X131372828Y-78941705D01*
X130849019Y-80417895D02*
X130849019Y-79941705D01*
X130849019Y-79941705D02*
X131325209Y-79894086D01*
X131325209Y-79894086D02*
X131277590Y-79941705D01*
X131277590Y-79941705D02*
X131229971Y-80036943D01*
X131229971Y-80036943D02*
X131229971Y-80275038D01*
X131229971Y-80275038D02*
X131277590Y-80370276D01*
X131277590Y-80370276D02*
X131325209Y-80417895D01*
X131325209Y-80417895D02*
X131420447Y-80465514D01*
X131420447Y-80465514D02*
X131658542Y-80465514D01*
X131658542Y-80465514D02*
X131753780Y-80417895D01*
X131753780Y-80417895D02*
X131801400Y-80370276D01*
X131801400Y-80370276D02*
X131849019Y-80275038D01*
X131849019Y-80275038D02*
X131849019Y-80036943D01*
X131849019Y-80036943D02*
X131801400Y-79941705D01*
X131801400Y-79941705D02*
X131753780Y-79894086D01*
X124667180Y-80738742D02*
X124714800Y-80691123D01*
X124714800Y-80691123D02*
X124762419Y-80548266D01*
X124762419Y-80548266D02*
X124762419Y-80453028D01*
X124762419Y-80453028D02*
X124714800Y-80310171D01*
X124714800Y-80310171D02*
X124619561Y-80214933D01*
X124619561Y-80214933D02*
X124524323Y-80167314D01*
X124524323Y-80167314D02*
X124333847Y-80119695D01*
X124333847Y-80119695D02*
X124190990Y-80119695D01*
X124190990Y-80119695D02*
X124000514Y-80167314D01*
X124000514Y-80167314D02*
X123905276Y-80214933D01*
X123905276Y-80214933D02*
X123810038Y-80310171D01*
X123810038Y-80310171D02*
X123762419Y-80453028D01*
X123762419Y-80453028D02*
X123762419Y-80548266D01*
X123762419Y-80548266D02*
X123810038Y-80691123D01*
X123810038Y-80691123D02*
X123857657Y-80738742D01*
X124762419Y-81691123D02*
X124762419Y-81119695D01*
X124762419Y-81405409D02*
X123762419Y-81405409D01*
X123762419Y-81405409D02*
X123905276Y-81310171D01*
X123905276Y-81310171D02*
X124000514Y-81214933D01*
X124000514Y-81214933D02*
X124048133Y-81119695D01*
X124190990Y-82262552D02*
X124143371Y-82167314D01*
X124143371Y-82167314D02*
X124095752Y-82119695D01*
X124095752Y-82119695D02*
X124000514Y-82072076D01*
X124000514Y-82072076D02*
X123952895Y-82072076D01*
X123952895Y-82072076D02*
X123857657Y-82119695D01*
X123857657Y-82119695D02*
X123810038Y-82167314D01*
X123810038Y-82167314D02*
X123762419Y-82262552D01*
X123762419Y-82262552D02*
X123762419Y-82453028D01*
X123762419Y-82453028D02*
X123810038Y-82548266D01*
X123810038Y-82548266D02*
X123857657Y-82595885D01*
X123857657Y-82595885D02*
X123952895Y-82643504D01*
X123952895Y-82643504D02*
X124000514Y-82643504D01*
X124000514Y-82643504D02*
X124095752Y-82595885D01*
X124095752Y-82595885D02*
X124143371Y-82548266D01*
X124143371Y-82548266D02*
X124190990Y-82453028D01*
X124190990Y-82453028D02*
X124190990Y-82262552D01*
X124190990Y-82262552D02*
X124238609Y-82167314D01*
X124238609Y-82167314D02*
X124286228Y-82119695D01*
X124286228Y-82119695D02*
X124381466Y-82072076D01*
X124381466Y-82072076D02*
X124571942Y-82072076D01*
X124571942Y-82072076D02*
X124667180Y-82119695D01*
X124667180Y-82119695D02*
X124714800Y-82167314D01*
X124714800Y-82167314D02*
X124762419Y-82262552D01*
X124762419Y-82262552D02*
X124762419Y-82453028D01*
X124762419Y-82453028D02*
X124714800Y-82548266D01*
X124714800Y-82548266D02*
X124667180Y-82595885D01*
X124667180Y-82595885D02*
X124571942Y-82643504D01*
X124571942Y-82643504D02*
X124381466Y-82643504D01*
X124381466Y-82643504D02*
X124286228Y-82595885D01*
X124286228Y-82595885D02*
X124238609Y-82548266D01*
X124238609Y-82548266D02*
X124190990Y-82453028D01*
X115869819Y-75155466D02*
X116584104Y-75155466D01*
X116584104Y-75155466D02*
X116726961Y-75107847D01*
X116726961Y-75107847D02*
X116822200Y-75012609D01*
X116822200Y-75012609D02*
X116869819Y-74869752D01*
X116869819Y-74869752D02*
X116869819Y-74774514D01*
X115965057Y-75584038D02*
X115917438Y-75631657D01*
X115917438Y-75631657D02*
X115869819Y-75726895D01*
X115869819Y-75726895D02*
X115869819Y-75964990D01*
X115869819Y-75964990D02*
X115917438Y-76060228D01*
X115917438Y-76060228D02*
X115965057Y-76107847D01*
X115965057Y-76107847D02*
X116060295Y-76155466D01*
X116060295Y-76155466D02*
X116155533Y-76155466D01*
X116155533Y-76155466D02*
X116298390Y-76107847D01*
X116298390Y-76107847D02*
X116869819Y-75536419D01*
X116869819Y-75536419D02*
X116869819Y-76155466D01*
X112043380Y-79798942D02*
X112091000Y-79751323D01*
X112091000Y-79751323D02*
X112138619Y-79608466D01*
X112138619Y-79608466D02*
X112138619Y-79513228D01*
X112138619Y-79513228D02*
X112091000Y-79370371D01*
X112091000Y-79370371D02*
X111995761Y-79275133D01*
X111995761Y-79275133D02*
X111900523Y-79227514D01*
X111900523Y-79227514D02*
X111710047Y-79179895D01*
X111710047Y-79179895D02*
X111567190Y-79179895D01*
X111567190Y-79179895D02*
X111376714Y-79227514D01*
X111376714Y-79227514D02*
X111281476Y-79275133D01*
X111281476Y-79275133D02*
X111186238Y-79370371D01*
X111186238Y-79370371D02*
X111138619Y-79513228D01*
X111138619Y-79513228D02*
X111138619Y-79608466D01*
X111138619Y-79608466D02*
X111186238Y-79751323D01*
X111186238Y-79751323D02*
X111233857Y-79798942D01*
X112138619Y-80751323D02*
X112138619Y-80179895D01*
X112138619Y-80465609D02*
X111138619Y-80465609D01*
X111138619Y-80465609D02*
X111281476Y-80370371D01*
X111281476Y-80370371D02*
X111376714Y-80275133D01*
X111376714Y-80275133D02*
X111424333Y-80179895D01*
X111138619Y-81084657D02*
X111138619Y-81751323D01*
X111138619Y-81751323D02*
X112138619Y-81322752D01*
X116186419Y-88541266D02*
X116900704Y-88541266D01*
X116900704Y-88541266D02*
X117043561Y-88493647D01*
X117043561Y-88493647D02*
X117138800Y-88398409D01*
X117138800Y-88398409D02*
X117186419Y-88255552D01*
X117186419Y-88255552D02*
X117186419Y-88160314D01*
X117186419Y-89541266D02*
X117186419Y-88969838D01*
X117186419Y-89255552D02*
X116186419Y-89255552D01*
X116186419Y-89255552D02*
X116329276Y-89160314D01*
X116329276Y-89160314D02*
X116424514Y-89065076D01*
X116424514Y-89065076D02*
X116472133Y-88969838D01*
X123981815Y-103716819D02*
X123645097Y-104053537D01*
X124587906Y-103582132D02*
X123981815Y-103716819D01*
X123981815Y-103716819D02*
X124116502Y-103110728D01*
X122803304Y-103211743D02*
X123207365Y-103615804D01*
X123005334Y-103413773D02*
X123712441Y-102706667D01*
X123712441Y-102706667D02*
X123678769Y-102875025D01*
X123678769Y-102875025D02*
X123678769Y-103009712D01*
X123678769Y-103009712D02*
X123712441Y-103110728D01*
X114384057Y-106328380D02*
X114431676Y-106376000D01*
X114431676Y-106376000D02*
X114574533Y-106423619D01*
X114574533Y-106423619D02*
X114669771Y-106423619D01*
X114669771Y-106423619D02*
X114812628Y-106376000D01*
X114812628Y-106376000D02*
X114907866Y-106280761D01*
X114907866Y-106280761D02*
X114955485Y-106185523D01*
X114955485Y-106185523D02*
X115003104Y-105995047D01*
X115003104Y-105995047D02*
X115003104Y-105852190D01*
X115003104Y-105852190D02*
X114955485Y-105661714D01*
X114955485Y-105661714D02*
X114907866Y-105566476D01*
X114907866Y-105566476D02*
X114812628Y-105471238D01*
X114812628Y-105471238D02*
X114669771Y-105423619D01*
X114669771Y-105423619D02*
X114574533Y-105423619D01*
X114574533Y-105423619D02*
X114431676Y-105471238D01*
X114431676Y-105471238D02*
X114384057Y-105518857D01*
X113431676Y-106423619D02*
X114003104Y-106423619D01*
X113717390Y-106423619D02*
X113717390Y-105423619D01*
X113717390Y-105423619D02*
X113812628Y-105566476D01*
X113812628Y-105566476D02*
X113907866Y-105661714D01*
X113907866Y-105661714D02*
X114003104Y-105709333D01*
X112574533Y-105756952D02*
X112574533Y-106423619D01*
X112812628Y-105376000D02*
X113050723Y-106090285D01*
X113050723Y-106090285D02*
X112431676Y-106090285D01*
X115654057Y-109808180D02*
X115701676Y-109855800D01*
X115701676Y-109855800D02*
X115844533Y-109903419D01*
X115844533Y-109903419D02*
X115939771Y-109903419D01*
X115939771Y-109903419D02*
X116082628Y-109855800D01*
X116082628Y-109855800D02*
X116177866Y-109760561D01*
X116177866Y-109760561D02*
X116225485Y-109665323D01*
X116225485Y-109665323D02*
X116273104Y-109474847D01*
X116273104Y-109474847D02*
X116273104Y-109331990D01*
X116273104Y-109331990D02*
X116225485Y-109141514D01*
X116225485Y-109141514D02*
X116177866Y-109046276D01*
X116177866Y-109046276D02*
X116082628Y-108951038D01*
X116082628Y-108951038D02*
X115939771Y-108903419D01*
X115939771Y-108903419D02*
X115844533Y-108903419D01*
X115844533Y-108903419D02*
X115701676Y-108951038D01*
X115701676Y-108951038D02*
X115654057Y-108998657D01*
X114701676Y-109903419D02*
X115273104Y-109903419D01*
X114987390Y-109903419D02*
X114987390Y-108903419D01*
X114987390Y-108903419D02*
X115082628Y-109046276D01*
X115082628Y-109046276D02*
X115177866Y-109141514D01*
X115177866Y-109141514D02*
X115273104Y-109189133D01*
X114320723Y-108998657D02*
X114273104Y-108951038D01*
X114273104Y-108951038D02*
X114177866Y-108903419D01*
X114177866Y-108903419D02*
X113939771Y-108903419D01*
X113939771Y-108903419D02*
X113844533Y-108951038D01*
X113844533Y-108951038D02*
X113796914Y-108998657D01*
X113796914Y-108998657D02*
X113749295Y-109093895D01*
X113749295Y-109093895D02*
X113749295Y-109189133D01*
X113749295Y-109189133D02*
X113796914Y-109331990D01*
X113796914Y-109331990D02*
X114368342Y-109903419D01*
X114368342Y-109903419D02*
X113749295Y-109903419D01*
X125863757Y-106564580D02*
X125911376Y-106612200D01*
X125911376Y-106612200D02*
X126054233Y-106659819D01*
X126054233Y-106659819D02*
X126149471Y-106659819D01*
X126149471Y-106659819D02*
X126292328Y-106612200D01*
X126292328Y-106612200D02*
X126387566Y-106516961D01*
X126387566Y-106516961D02*
X126435185Y-106421723D01*
X126435185Y-106421723D02*
X126482804Y-106231247D01*
X126482804Y-106231247D02*
X126482804Y-106088390D01*
X126482804Y-106088390D02*
X126435185Y-105897914D01*
X126435185Y-105897914D02*
X126387566Y-105802676D01*
X126387566Y-105802676D02*
X126292328Y-105707438D01*
X126292328Y-105707438D02*
X126149471Y-105659819D01*
X126149471Y-105659819D02*
X126054233Y-105659819D01*
X126054233Y-105659819D02*
X125911376Y-105707438D01*
X125911376Y-105707438D02*
X125863757Y-105755057D01*
X124911376Y-106659819D02*
X125482804Y-106659819D01*
X125197090Y-106659819D02*
X125197090Y-105659819D01*
X125197090Y-105659819D02*
X125292328Y-105802676D01*
X125292328Y-105802676D02*
X125387566Y-105897914D01*
X125387566Y-105897914D02*
X125482804Y-105945533D01*
X124054233Y-105659819D02*
X124244709Y-105659819D01*
X124244709Y-105659819D02*
X124339947Y-105707438D01*
X124339947Y-105707438D02*
X124387566Y-105755057D01*
X124387566Y-105755057D02*
X124482804Y-105897914D01*
X124482804Y-105897914D02*
X124530423Y-106088390D01*
X124530423Y-106088390D02*
X124530423Y-106469342D01*
X124530423Y-106469342D02*
X124482804Y-106564580D01*
X124482804Y-106564580D02*
X124435185Y-106612200D01*
X124435185Y-106612200D02*
X124339947Y-106659819D01*
X124339947Y-106659819D02*
X124149471Y-106659819D01*
X124149471Y-106659819D02*
X124054233Y-106612200D01*
X124054233Y-106612200D02*
X124006614Y-106564580D01*
X124006614Y-106564580D02*
X123958995Y-106469342D01*
X123958995Y-106469342D02*
X123958995Y-106231247D01*
X123958995Y-106231247D02*
X124006614Y-106136009D01*
X124006614Y-106136009D02*
X124054233Y-106088390D01*
X124054233Y-106088390D02*
X124149471Y-106040771D01*
X124149471Y-106040771D02*
X124339947Y-106040771D01*
X124339947Y-106040771D02*
X124435185Y-106088390D01*
X124435185Y-106088390D02*
X124482804Y-106136009D01*
X124482804Y-106136009D02*
X124530423Y-106231247D01*
X121648457Y-109782780D02*
X121696076Y-109830400D01*
X121696076Y-109830400D02*
X121838933Y-109878019D01*
X121838933Y-109878019D02*
X121934171Y-109878019D01*
X121934171Y-109878019D02*
X122077028Y-109830400D01*
X122077028Y-109830400D02*
X122172266Y-109735161D01*
X122172266Y-109735161D02*
X122219885Y-109639923D01*
X122219885Y-109639923D02*
X122267504Y-109449447D01*
X122267504Y-109449447D02*
X122267504Y-109306590D01*
X122267504Y-109306590D02*
X122219885Y-109116114D01*
X122219885Y-109116114D02*
X122172266Y-109020876D01*
X122172266Y-109020876D02*
X122077028Y-108925638D01*
X122077028Y-108925638D02*
X121934171Y-108878019D01*
X121934171Y-108878019D02*
X121838933Y-108878019D01*
X121838933Y-108878019D02*
X121696076Y-108925638D01*
X121696076Y-108925638D02*
X121648457Y-108973257D01*
X120696076Y-109878019D02*
X121267504Y-109878019D01*
X120981790Y-109878019D02*
X120981790Y-108878019D01*
X120981790Y-108878019D02*
X121077028Y-109020876D01*
X121077028Y-109020876D02*
X121172266Y-109116114D01*
X121172266Y-109116114D02*
X121267504Y-109163733D01*
X120077028Y-108878019D02*
X119981790Y-108878019D01*
X119981790Y-108878019D02*
X119886552Y-108925638D01*
X119886552Y-108925638D02*
X119838933Y-108973257D01*
X119838933Y-108973257D02*
X119791314Y-109068495D01*
X119791314Y-109068495D02*
X119743695Y-109258971D01*
X119743695Y-109258971D02*
X119743695Y-109497066D01*
X119743695Y-109497066D02*
X119791314Y-109687542D01*
X119791314Y-109687542D02*
X119838933Y-109782780D01*
X119838933Y-109782780D02*
X119886552Y-109830400D01*
X119886552Y-109830400D02*
X119981790Y-109878019D01*
X119981790Y-109878019D02*
X120077028Y-109878019D01*
X120077028Y-109878019D02*
X120172266Y-109830400D01*
X120172266Y-109830400D02*
X120219885Y-109782780D01*
X120219885Y-109782780D02*
X120267504Y-109687542D01*
X120267504Y-109687542D02*
X120315123Y-109497066D01*
X120315123Y-109497066D02*
X120315123Y-109258971D01*
X120315123Y-109258971D02*
X120267504Y-109068495D01*
X120267504Y-109068495D02*
X120219885Y-108973257D01*
X120219885Y-108973257D02*
X120172266Y-108925638D01*
X120172266Y-108925638D02*
X120077028Y-108878019D01*
X141678819Y-82027733D02*
X141202628Y-81694400D01*
X141678819Y-81456305D02*
X140678819Y-81456305D01*
X140678819Y-81456305D02*
X140678819Y-81837257D01*
X140678819Y-81837257D02*
X140726438Y-81932495D01*
X140726438Y-81932495D02*
X140774057Y-81980114D01*
X140774057Y-81980114D02*
X140869295Y-82027733D01*
X140869295Y-82027733D02*
X141012152Y-82027733D01*
X141012152Y-82027733D02*
X141107390Y-81980114D01*
X141107390Y-81980114D02*
X141155009Y-81932495D01*
X141155009Y-81932495D02*
X141202628Y-81837257D01*
X141202628Y-81837257D02*
X141202628Y-81456305D01*
X140678819Y-82361067D02*
X140678819Y-82980114D01*
X140678819Y-82980114D02*
X141059771Y-82646781D01*
X141059771Y-82646781D02*
X141059771Y-82789638D01*
X141059771Y-82789638D02*
X141107390Y-82884876D01*
X141107390Y-82884876D02*
X141155009Y-82932495D01*
X141155009Y-82932495D02*
X141250247Y-82980114D01*
X141250247Y-82980114D02*
X141488342Y-82980114D01*
X141488342Y-82980114D02*
X141583580Y-82932495D01*
X141583580Y-82932495D02*
X141631200Y-82884876D01*
X141631200Y-82884876D02*
X141678819Y-82789638D01*
X141678819Y-82789638D02*
X141678819Y-82503924D01*
X141678819Y-82503924D02*
X141631200Y-82408686D01*
X141631200Y-82408686D02*
X141583580Y-82361067D01*
X117649180Y-111797633D02*
X117696800Y-111750014D01*
X117696800Y-111750014D02*
X117744419Y-111607157D01*
X117744419Y-111607157D02*
X117744419Y-111511919D01*
X117744419Y-111511919D02*
X117696800Y-111369062D01*
X117696800Y-111369062D02*
X117601561Y-111273824D01*
X117601561Y-111273824D02*
X117506323Y-111226205D01*
X117506323Y-111226205D02*
X117315847Y-111178586D01*
X117315847Y-111178586D02*
X117172990Y-111178586D01*
X117172990Y-111178586D02*
X116982514Y-111226205D01*
X116982514Y-111226205D02*
X116887276Y-111273824D01*
X116887276Y-111273824D02*
X116792038Y-111369062D01*
X116792038Y-111369062D02*
X116744419Y-111511919D01*
X116744419Y-111511919D02*
X116744419Y-111607157D01*
X116744419Y-111607157D02*
X116792038Y-111750014D01*
X116792038Y-111750014D02*
X116839657Y-111797633D01*
X117172990Y-112369062D02*
X117125371Y-112273824D01*
X117125371Y-112273824D02*
X117077752Y-112226205D01*
X117077752Y-112226205D02*
X116982514Y-112178586D01*
X116982514Y-112178586D02*
X116934895Y-112178586D01*
X116934895Y-112178586D02*
X116839657Y-112226205D01*
X116839657Y-112226205D02*
X116792038Y-112273824D01*
X116792038Y-112273824D02*
X116744419Y-112369062D01*
X116744419Y-112369062D02*
X116744419Y-112559538D01*
X116744419Y-112559538D02*
X116792038Y-112654776D01*
X116792038Y-112654776D02*
X116839657Y-112702395D01*
X116839657Y-112702395D02*
X116934895Y-112750014D01*
X116934895Y-112750014D02*
X116982514Y-112750014D01*
X116982514Y-112750014D02*
X117077752Y-112702395D01*
X117077752Y-112702395D02*
X117125371Y-112654776D01*
X117125371Y-112654776D02*
X117172990Y-112559538D01*
X117172990Y-112559538D02*
X117172990Y-112369062D01*
X117172990Y-112369062D02*
X117220609Y-112273824D01*
X117220609Y-112273824D02*
X117268228Y-112226205D01*
X117268228Y-112226205D02*
X117363466Y-112178586D01*
X117363466Y-112178586D02*
X117553942Y-112178586D01*
X117553942Y-112178586D02*
X117649180Y-112226205D01*
X117649180Y-112226205D02*
X117696800Y-112273824D01*
X117696800Y-112273824D02*
X117744419Y-112369062D01*
X117744419Y-112369062D02*
X117744419Y-112559538D01*
X117744419Y-112559538D02*
X117696800Y-112654776D01*
X117696800Y-112654776D02*
X117649180Y-112702395D01*
X117649180Y-112702395D02*
X117553942Y-112750014D01*
X117553942Y-112750014D02*
X117363466Y-112750014D01*
X117363466Y-112750014D02*
X117268228Y-112702395D01*
X117268228Y-112702395D02*
X117220609Y-112654776D01*
X117220609Y-112654776D02*
X117172990Y-112559538D01*
X112779980Y-100601542D02*
X112827600Y-100553923D01*
X112827600Y-100553923D02*
X112875219Y-100411066D01*
X112875219Y-100411066D02*
X112875219Y-100315828D01*
X112875219Y-100315828D02*
X112827600Y-100172971D01*
X112827600Y-100172971D02*
X112732361Y-100077733D01*
X112732361Y-100077733D02*
X112637123Y-100030114D01*
X112637123Y-100030114D02*
X112446647Y-99982495D01*
X112446647Y-99982495D02*
X112303790Y-99982495D01*
X112303790Y-99982495D02*
X112113314Y-100030114D01*
X112113314Y-100030114D02*
X112018076Y-100077733D01*
X112018076Y-100077733D02*
X111922838Y-100172971D01*
X111922838Y-100172971D02*
X111875219Y-100315828D01*
X111875219Y-100315828D02*
X111875219Y-100411066D01*
X111875219Y-100411066D02*
X111922838Y-100553923D01*
X111922838Y-100553923D02*
X111970457Y-100601542D01*
X111970457Y-100982495D02*
X111922838Y-101030114D01*
X111922838Y-101030114D02*
X111875219Y-101125352D01*
X111875219Y-101125352D02*
X111875219Y-101363447D01*
X111875219Y-101363447D02*
X111922838Y-101458685D01*
X111922838Y-101458685D02*
X111970457Y-101506304D01*
X111970457Y-101506304D02*
X112065695Y-101553923D01*
X112065695Y-101553923D02*
X112160933Y-101553923D01*
X112160933Y-101553923D02*
X112303790Y-101506304D01*
X112303790Y-101506304D02*
X112875219Y-100934876D01*
X112875219Y-100934876D02*
X112875219Y-101553923D01*
X111970457Y-101934876D02*
X111922838Y-101982495D01*
X111922838Y-101982495D02*
X111875219Y-102077733D01*
X111875219Y-102077733D02*
X111875219Y-102315828D01*
X111875219Y-102315828D02*
X111922838Y-102411066D01*
X111922838Y-102411066D02*
X111970457Y-102458685D01*
X111970457Y-102458685D02*
X112065695Y-102506304D01*
X112065695Y-102506304D02*
X112160933Y-102506304D01*
X112160933Y-102506304D02*
X112303790Y-102458685D01*
X112303790Y-102458685D02*
X112875219Y-101887257D01*
X112875219Y-101887257D02*
X112875219Y-102506304D01*
X153684266Y-97336780D02*
X153731885Y-97384400D01*
X153731885Y-97384400D02*
X153874742Y-97432019D01*
X153874742Y-97432019D02*
X153969980Y-97432019D01*
X153969980Y-97432019D02*
X154112837Y-97384400D01*
X154112837Y-97384400D02*
X154208075Y-97289161D01*
X154208075Y-97289161D02*
X154255694Y-97193923D01*
X154255694Y-97193923D02*
X154303313Y-97003447D01*
X154303313Y-97003447D02*
X154303313Y-96860590D01*
X154303313Y-96860590D02*
X154255694Y-96670114D01*
X154255694Y-96670114D02*
X154208075Y-96574876D01*
X154208075Y-96574876D02*
X154112837Y-96479638D01*
X154112837Y-96479638D02*
X153969980Y-96432019D01*
X153969980Y-96432019D02*
X153874742Y-96432019D01*
X153874742Y-96432019D02*
X153731885Y-96479638D01*
X153731885Y-96479638D02*
X153684266Y-96527257D01*
X153303313Y-96527257D02*
X153255694Y-96479638D01*
X153255694Y-96479638D02*
X153160456Y-96432019D01*
X153160456Y-96432019D02*
X152922361Y-96432019D01*
X152922361Y-96432019D02*
X152827123Y-96479638D01*
X152827123Y-96479638D02*
X152779504Y-96527257D01*
X152779504Y-96527257D02*
X152731885Y-96622495D01*
X152731885Y-96622495D02*
X152731885Y-96717733D01*
X152731885Y-96717733D02*
X152779504Y-96860590D01*
X152779504Y-96860590D02*
X153350932Y-97432019D01*
X153350932Y-97432019D02*
X152731885Y-97432019D01*
X127308780Y-99610942D02*
X127356400Y-99563323D01*
X127356400Y-99563323D02*
X127404019Y-99420466D01*
X127404019Y-99420466D02*
X127404019Y-99325228D01*
X127404019Y-99325228D02*
X127356400Y-99182371D01*
X127356400Y-99182371D02*
X127261161Y-99087133D01*
X127261161Y-99087133D02*
X127165923Y-99039514D01*
X127165923Y-99039514D02*
X126975447Y-98991895D01*
X126975447Y-98991895D02*
X126832590Y-98991895D01*
X126832590Y-98991895D02*
X126642114Y-99039514D01*
X126642114Y-99039514D02*
X126546876Y-99087133D01*
X126546876Y-99087133D02*
X126451638Y-99182371D01*
X126451638Y-99182371D02*
X126404019Y-99325228D01*
X126404019Y-99325228D02*
X126404019Y-99420466D01*
X126404019Y-99420466D02*
X126451638Y-99563323D01*
X126451638Y-99563323D02*
X126499257Y-99610942D01*
X127404019Y-100563323D02*
X127404019Y-99991895D01*
X127404019Y-100277609D02*
X126404019Y-100277609D01*
X126404019Y-100277609D02*
X126546876Y-100182371D01*
X126546876Y-100182371D02*
X126642114Y-100087133D01*
X126642114Y-100087133D02*
X126689733Y-99991895D01*
X126404019Y-101468085D02*
X126404019Y-100991895D01*
X126404019Y-100991895D02*
X126880209Y-100944276D01*
X126880209Y-100944276D02*
X126832590Y-100991895D01*
X126832590Y-100991895D02*
X126784971Y-101087133D01*
X126784971Y-101087133D02*
X126784971Y-101325228D01*
X126784971Y-101325228D02*
X126832590Y-101420466D01*
X126832590Y-101420466D02*
X126880209Y-101468085D01*
X126880209Y-101468085D02*
X126975447Y-101515704D01*
X126975447Y-101515704D02*
X127213542Y-101515704D01*
X127213542Y-101515704D02*
X127308780Y-101468085D01*
X127308780Y-101468085D02*
X127356400Y-101420466D01*
X127356400Y-101420466D02*
X127404019Y-101325228D01*
X127404019Y-101325228D02*
X127404019Y-101087133D01*
X127404019Y-101087133D02*
X127356400Y-100991895D01*
X127356400Y-100991895D02*
X127308780Y-100944276D01*
X133049757Y-118406180D02*
X133097376Y-118453800D01*
X133097376Y-118453800D02*
X133240233Y-118501419D01*
X133240233Y-118501419D02*
X133335471Y-118501419D01*
X133335471Y-118501419D02*
X133478328Y-118453800D01*
X133478328Y-118453800D02*
X133573566Y-118358561D01*
X133573566Y-118358561D02*
X133621185Y-118263323D01*
X133621185Y-118263323D02*
X133668804Y-118072847D01*
X133668804Y-118072847D02*
X133668804Y-117929990D01*
X133668804Y-117929990D02*
X133621185Y-117739514D01*
X133621185Y-117739514D02*
X133573566Y-117644276D01*
X133573566Y-117644276D02*
X133478328Y-117549038D01*
X133478328Y-117549038D02*
X133335471Y-117501419D01*
X133335471Y-117501419D02*
X133240233Y-117501419D01*
X133240233Y-117501419D02*
X133097376Y-117549038D01*
X133097376Y-117549038D02*
X133049757Y-117596657D01*
X132668804Y-117596657D02*
X132621185Y-117549038D01*
X132621185Y-117549038D02*
X132525947Y-117501419D01*
X132525947Y-117501419D02*
X132287852Y-117501419D01*
X132287852Y-117501419D02*
X132192614Y-117549038D01*
X132192614Y-117549038D02*
X132144995Y-117596657D01*
X132144995Y-117596657D02*
X132097376Y-117691895D01*
X132097376Y-117691895D02*
X132097376Y-117787133D01*
X132097376Y-117787133D02*
X132144995Y-117929990D01*
X132144995Y-117929990D02*
X132716423Y-118501419D01*
X132716423Y-118501419D02*
X132097376Y-118501419D01*
X131192614Y-117501419D02*
X131668804Y-117501419D01*
X131668804Y-117501419D02*
X131716423Y-117977609D01*
X131716423Y-117977609D02*
X131668804Y-117929990D01*
X131668804Y-117929990D02*
X131573566Y-117882371D01*
X131573566Y-117882371D02*
X131335471Y-117882371D01*
X131335471Y-117882371D02*
X131240233Y-117929990D01*
X131240233Y-117929990D02*
X131192614Y-117977609D01*
X131192614Y-117977609D02*
X131144995Y-118072847D01*
X131144995Y-118072847D02*
X131144995Y-118310942D01*
X131144995Y-118310942D02*
X131192614Y-118406180D01*
X131192614Y-118406180D02*
X131240233Y-118453800D01*
X131240233Y-118453800D02*
X131335471Y-118501419D01*
X131335471Y-118501419D02*
X131573566Y-118501419D01*
X131573566Y-118501419D02*
X131668804Y-118453800D01*
X131668804Y-118453800D02*
X131716423Y-118406180D01*
X129596019Y-104252733D02*
X129596019Y-103776543D01*
X129596019Y-103776543D02*
X128596019Y-103776543D01*
X129596019Y-105109876D02*
X129596019Y-104538448D01*
X129596019Y-104824162D02*
X128596019Y-104824162D01*
X128596019Y-104824162D02*
X128738876Y-104728924D01*
X128738876Y-104728924D02*
X128834114Y-104633686D01*
X128834114Y-104633686D02*
X128881733Y-104538448D01*
X155767066Y-78116580D02*
X155814685Y-78164200D01*
X155814685Y-78164200D02*
X155957542Y-78211819D01*
X155957542Y-78211819D02*
X156052780Y-78211819D01*
X156052780Y-78211819D02*
X156195637Y-78164200D01*
X156195637Y-78164200D02*
X156290875Y-78068961D01*
X156290875Y-78068961D02*
X156338494Y-77973723D01*
X156338494Y-77973723D02*
X156386113Y-77783247D01*
X156386113Y-77783247D02*
X156386113Y-77640390D01*
X156386113Y-77640390D02*
X156338494Y-77449914D01*
X156338494Y-77449914D02*
X156290875Y-77354676D01*
X156290875Y-77354676D02*
X156195637Y-77259438D01*
X156195637Y-77259438D02*
X156052780Y-77211819D01*
X156052780Y-77211819D02*
X155957542Y-77211819D01*
X155957542Y-77211819D02*
X155814685Y-77259438D01*
X155814685Y-77259438D02*
X155767066Y-77307057D01*
X154909923Y-77545152D02*
X154909923Y-78211819D01*
X155148018Y-77164200D02*
X155386113Y-77878485D01*
X155386113Y-77878485D02*
X154767066Y-77878485D01*
X115501657Y-77829580D02*
X115549276Y-77877200D01*
X115549276Y-77877200D02*
X115692133Y-77924819D01*
X115692133Y-77924819D02*
X115787371Y-77924819D01*
X115787371Y-77924819D02*
X115930228Y-77877200D01*
X115930228Y-77877200D02*
X116025466Y-77781961D01*
X116025466Y-77781961D02*
X116073085Y-77686723D01*
X116073085Y-77686723D02*
X116120704Y-77496247D01*
X116120704Y-77496247D02*
X116120704Y-77353390D01*
X116120704Y-77353390D02*
X116073085Y-77162914D01*
X116073085Y-77162914D02*
X116025466Y-77067676D01*
X116025466Y-77067676D02*
X115930228Y-76972438D01*
X115930228Y-76972438D02*
X115787371Y-76924819D01*
X115787371Y-76924819D02*
X115692133Y-76924819D01*
X115692133Y-76924819D02*
X115549276Y-76972438D01*
X115549276Y-76972438D02*
X115501657Y-77020057D01*
X114549276Y-77924819D02*
X115120704Y-77924819D01*
X114834990Y-77924819D02*
X114834990Y-76924819D01*
X114834990Y-76924819D02*
X114930228Y-77067676D01*
X114930228Y-77067676D02*
X115025466Y-77162914D01*
X115025466Y-77162914D02*
X115120704Y-77210533D01*
X114073085Y-77924819D02*
X113882609Y-77924819D01*
X113882609Y-77924819D02*
X113787371Y-77877200D01*
X113787371Y-77877200D02*
X113739752Y-77829580D01*
X113739752Y-77829580D02*
X113644514Y-77686723D01*
X113644514Y-77686723D02*
X113596895Y-77496247D01*
X113596895Y-77496247D02*
X113596895Y-77115295D01*
X113596895Y-77115295D02*
X113644514Y-77020057D01*
X113644514Y-77020057D02*
X113692133Y-76972438D01*
X113692133Y-76972438D02*
X113787371Y-76924819D01*
X113787371Y-76924819D02*
X113977847Y-76924819D01*
X113977847Y-76924819D02*
X114073085Y-76972438D01*
X114073085Y-76972438D02*
X114120704Y-77020057D01*
X114120704Y-77020057D02*
X114168323Y-77115295D01*
X114168323Y-77115295D02*
X114168323Y-77353390D01*
X114168323Y-77353390D02*
X114120704Y-77448628D01*
X114120704Y-77448628D02*
X114073085Y-77496247D01*
X114073085Y-77496247D02*
X113977847Y-77543866D01*
X113977847Y-77543866D02*
X113787371Y-77543866D01*
X113787371Y-77543866D02*
X113692133Y-77496247D01*
X113692133Y-77496247D02*
X113644514Y-77448628D01*
X113644514Y-77448628D02*
X113596895Y-77353390D01*
X124819580Y-107656333D02*
X124867200Y-107608714D01*
X124867200Y-107608714D02*
X124914819Y-107465857D01*
X124914819Y-107465857D02*
X124914819Y-107370619D01*
X124914819Y-107370619D02*
X124867200Y-107227762D01*
X124867200Y-107227762D02*
X124771961Y-107132524D01*
X124771961Y-107132524D02*
X124676723Y-107084905D01*
X124676723Y-107084905D02*
X124486247Y-107037286D01*
X124486247Y-107037286D02*
X124343390Y-107037286D01*
X124343390Y-107037286D02*
X124152914Y-107084905D01*
X124152914Y-107084905D02*
X124057676Y-107132524D01*
X124057676Y-107132524D02*
X123962438Y-107227762D01*
X123962438Y-107227762D02*
X123914819Y-107370619D01*
X123914819Y-107370619D02*
X123914819Y-107465857D01*
X123914819Y-107465857D02*
X123962438Y-107608714D01*
X123962438Y-107608714D02*
X124010057Y-107656333D01*
X124914819Y-108132524D02*
X124914819Y-108323000D01*
X124914819Y-108323000D02*
X124867200Y-108418238D01*
X124867200Y-108418238D02*
X124819580Y-108465857D01*
X124819580Y-108465857D02*
X124676723Y-108561095D01*
X124676723Y-108561095D02*
X124486247Y-108608714D01*
X124486247Y-108608714D02*
X124105295Y-108608714D01*
X124105295Y-108608714D02*
X124010057Y-108561095D01*
X124010057Y-108561095D02*
X123962438Y-108513476D01*
X123962438Y-108513476D02*
X123914819Y-108418238D01*
X123914819Y-108418238D02*
X123914819Y-108227762D01*
X123914819Y-108227762D02*
X123962438Y-108132524D01*
X123962438Y-108132524D02*
X124010057Y-108084905D01*
X124010057Y-108084905D02*
X124105295Y-108037286D01*
X124105295Y-108037286D02*
X124343390Y-108037286D01*
X124343390Y-108037286D02*
X124438628Y-108084905D01*
X124438628Y-108084905D02*
X124486247Y-108132524D01*
X124486247Y-108132524D02*
X124533866Y-108227762D01*
X124533866Y-108227762D02*
X124533866Y-108418238D01*
X124533866Y-108418238D02*
X124486247Y-108513476D01*
X124486247Y-108513476D02*
X124438628Y-108561095D01*
X124438628Y-108561095D02*
X124343390Y-108608714D01*
X112078419Y-103022495D02*
X112887942Y-103022495D01*
X112887942Y-103022495D02*
X112983180Y-103070114D01*
X112983180Y-103070114D02*
X113030800Y-103117733D01*
X113030800Y-103117733D02*
X113078419Y-103212971D01*
X113078419Y-103212971D02*
X113078419Y-103403447D01*
X113078419Y-103403447D02*
X113030800Y-103498685D01*
X113030800Y-103498685D02*
X112983180Y-103546304D01*
X112983180Y-103546304D02*
X112887942Y-103593923D01*
X112887942Y-103593923D02*
X112078419Y-103593923D01*
X112078419Y-103974876D02*
X112078419Y-104593923D01*
X112078419Y-104593923D02*
X112459371Y-104260590D01*
X112459371Y-104260590D02*
X112459371Y-104403447D01*
X112459371Y-104403447D02*
X112506990Y-104498685D01*
X112506990Y-104498685D02*
X112554609Y-104546304D01*
X112554609Y-104546304D02*
X112649847Y-104593923D01*
X112649847Y-104593923D02*
X112887942Y-104593923D01*
X112887942Y-104593923D02*
X112983180Y-104546304D01*
X112983180Y-104546304D02*
X113030800Y-104498685D01*
X113030800Y-104498685D02*
X113078419Y-104403447D01*
X113078419Y-104403447D02*
X113078419Y-104117733D01*
X113078419Y-104117733D02*
X113030800Y-104022495D01*
X113030800Y-104022495D02*
X112983180Y-103974876D01*
X126210219Y-81697533D02*
X125734028Y-81364200D01*
X126210219Y-81126105D02*
X125210219Y-81126105D01*
X125210219Y-81126105D02*
X125210219Y-81507057D01*
X125210219Y-81507057D02*
X125257838Y-81602295D01*
X125257838Y-81602295D02*
X125305457Y-81649914D01*
X125305457Y-81649914D02*
X125400695Y-81697533D01*
X125400695Y-81697533D02*
X125543552Y-81697533D01*
X125543552Y-81697533D02*
X125638790Y-81649914D01*
X125638790Y-81649914D02*
X125686409Y-81602295D01*
X125686409Y-81602295D02*
X125734028Y-81507057D01*
X125734028Y-81507057D02*
X125734028Y-81126105D01*
X125543552Y-82554676D02*
X126210219Y-82554676D01*
X125162600Y-82316581D02*
X125876885Y-82078486D01*
X125876885Y-82078486D02*
X125876885Y-82697533D01*
X133049757Y-115053380D02*
X133097376Y-115101000D01*
X133097376Y-115101000D02*
X133240233Y-115148619D01*
X133240233Y-115148619D02*
X133335471Y-115148619D01*
X133335471Y-115148619D02*
X133478328Y-115101000D01*
X133478328Y-115101000D02*
X133573566Y-115005761D01*
X133573566Y-115005761D02*
X133621185Y-114910523D01*
X133621185Y-114910523D02*
X133668804Y-114720047D01*
X133668804Y-114720047D02*
X133668804Y-114577190D01*
X133668804Y-114577190D02*
X133621185Y-114386714D01*
X133621185Y-114386714D02*
X133573566Y-114291476D01*
X133573566Y-114291476D02*
X133478328Y-114196238D01*
X133478328Y-114196238D02*
X133335471Y-114148619D01*
X133335471Y-114148619D02*
X133240233Y-114148619D01*
X133240233Y-114148619D02*
X133097376Y-114196238D01*
X133097376Y-114196238D02*
X133049757Y-114243857D01*
X132668804Y-114243857D02*
X132621185Y-114196238D01*
X132621185Y-114196238D02*
X132525947Y-114148619D01*
X132525947Y-114148619D02*
X132287852Y-114148619D01*
X132287852Y-114148619D02*
X132192614Y-114196238D01*
X132192614Y-114196238D02*
X132144995Y-114243857D01*
X132144995Y-114243857D02*
X132097376Y-114339095D01*
X132097376Y-114339095D02*
X132097376Y-114434333D01*
X132097376Y-114434333D02*
X132144995Y-114577190D01*
X132144995Y-114577190D02*
X132716423Y-115148619D01*
X132716423Y-115148619D02*
X132097376Y-115148619D01*
X131240233Y-114481952D02*
X131240233Y-115148619D01*
X131478328Y-114101000D02*
X131716423Y-114815285D01*
X131716423Y-114815285D02*
X131097376Y-114815285D01*
X122179219Y-111771133D02*
X122179219Y-111294943D01*
X122179219Y-111294943D02*
X121179219Y-111294943D01*
X121274457Y-112056848D02*
X121226838Y-112104467D01*
X121226838Y-112104467D02*
X121179219Y-112199705D01*
X121179219Y-112199705D02*
X121179219Y-112437800D01*
X121179219Y-112437800D02*
X121226838Y-112533038D01*
X121226838Y-112533038D02*
X121274457Y-112580657D01*
X121274457Y-112580657D02*
X121369695Y-112628276D01*
X121369695Y-112628276D02*
X121464933Y-112628276D01*
X121464933Y-112628276D02*
X121607790Y-112580657D01*
X121607790Y-112580657D02*
X122179219Y-112009229D01*
X122179219Y-112009229D02*
X122179219Y-112628276D01*
X111044921Y-105914161D02*
X111109969Y-105931591D01*
X111109969Y-105931591D02*
X111257497Y-105901402D01*
X111257497Y-105901402D02*
X111339976Y-105853783D01*
X111339976Y-105853783D02*
X111439884Y-105741115D01*
X111439884Y-105741115D02*
X111474743Y-105611017D01*
X111474743Y-105611017D02*
X111468364Y-105504729D01*
X111468364Y-105504729D02*
X111414365Y-105315962D01*
X111414365Y-105315962D02*
X111342936Y-105192244D01*
X111342936Y-105192244D02*
X111206459Y-105051097D01*
X111206459Y-105051097D02*
X111117601Y-104992428D01*
X111117601Y-104992428D02*
X110987503Y-104957568D01*
X110987503Y-104957568D02*
X110839976Y-104987757D01*
X110839976Y-104987757D02*
X110757497Y-105035376D01*
X110757497Y-105035376D02*
X110657589Y-105148044D01*
X110657589Y-105148044D02*
X110640159Y-105213093D01*
X110310244Y-105403569D02*
X110245195Y-105386139D01*
X110245195Y-105386139D02*
X110138907Y-105392519D01*
X110138907Y-105392519D02*
X109932711Y-105511567D01*
X109932711Y-105511567D02*
X109874042Y-105600425D01*
X109874042Y-105600425D02*
X109856612Y-105665474D01*
X109856612Y-105665474D02*
X109862992Y-105771762D01*
X109862992Y-105771762D02*
X109910611Y-105854241D01*
X109910611Y-105854241D02*
X110023279Y-105954149D01*
X110023279Y-105954149D02*
X110803865Y-106163306D01*
X110803865Y-106163306D02*
X110267754Y-106472830D01*
X109479078Y-105773472D02*
X108901728Y-106106805D01*
X108901728Y-106106805D02*
X109772882Y-106758545D01*
X107557866Y-80871219D02*
X107891199Y-80395028D01*
X108129294Y-80871219D02*
X108129294Y-79871219D01*
X108129294Y-79871219D02*
X107748342Y-79871219D01*
X107748342Y-79871219D02*
X107653104Y-79918838D01*
X107653104Y-79918838D02*
X107605485Y-79966457D01*
X107605485Y-79966457D02*
X107557866Y-80061695D01*
X107557866Y-80061695D02*
X107557866Y-80204552D01*
X107557866Y-80204552D02*
X107605485Y-80299790D01*
X107605485Y-80299790D02*
X107653104Y-80347409D01*
X107653104Y-80347409D02*
X107748342Y-80395028D01*
X107748342Y-80395028D02*
X108129294Y-80395028D01*
X106605485Y-80871219D02*
X107176913Y-80871219D01*
X106891199Y-80871219D02*
X106891199Y-79871219D01*
X106891199Y-79871219D02*
X106986437Y-80014076D01*
X106986437Y-80014076D02*
X107081675Y-80109314D01*
X107081675Y-80109314D02*
X107176913Y-80156933D01*
X156159104Y-103925019D02*
X156159104Y-104734542D01*
X156159104Y-104734542D02*
X156111485Y-104829780D01*
X156111485Y-104829780D02*
X156063866Y-104877400D01*
X156063866Y-104877400D02*
X155968628Y-104925019D01*
X155968628Y-104925019D02*
X155778152Y-104925019D01*
X155778152Y-104925019D02*
X155682914Y-104877400D01*
X155682914Y-104877400D02*
X155635295Y-104829780D01*
X155635295Y-104829780D02*
X155587676Y-104734542D01*
X155587676Y-104734542D02*
X155587676Y-103925019D01*
X154682914Y-104258352D02*
X154682914Y-104925019D01*
X154921009Y-103877400D02*
X155159104Y-104591685D01*
X155159104Y-104591685D02*
X154540057Y-104591685D01*
X111128980Y-100576142D02*
X111176600Y-100528523D01*
X111176600Y-100528523D02*
X111224219Y-100385666D01*
X111224219Y-100385666D02*
X111224219Y-100290428D01*
X111224219Y-100290428D02*
X111176600Y-100147571D01*
X111176600Y-100147571D02*
X111081361Y-100052333D01*
X111081361Y-100052333D02*
X110986123Y-100004714D01*
X110986123Y-100004714D02*
X110795647Y-99957095D01*
X110795647Y-99957095D02*
X110652790Y-99957095D01*
X110652790Y-99957095D02*
X110462314Y-100004714D01*
X110462314Y-100004714D02*
X110367076Y-100052333D01*
X110367076Y-100052333D02*
X110271838Y-100147571D01*
X110271838Y-100147571D02*
X110224219Y-100290428D01*
X110224219Y-100290428D02*
X110224219Y-100385666D01*
X110224219Y-100385666D02*
X110271838Y-100528523D01*
X110271838Y-100528523D02*
X110319457Y-100576142D01*
X110319457Y-100957095D02*
X110271838Y-101004714D01*
X110271838Y-101004714D02*
X110224219Y-101099952D01*
X110224219Y-101099952D02*
X110224219Y-101338047D01*
X110224219Y-101338047D02*
X110271838Y-101433285D01*
X110271838Y-101433285D02*
X110319457Y-101480904D01*
X110319457Y-101480904D02*
X110414695Y-101528523D01*
X110414695Y-101528523D02*
X110509933Y-101528523D01*
X110509933Y-101528523D02*
X110652790Y-101480904D01*
X110652790Y-101480904D02*
X111224219Y-100909476D01*
X111224219Y-100909476D02*
X111224219Y-101528523D01*
X110224219Y-101861857D02*
X110224219Y-102480904D01*
X110224219Y-102480904D02*
X110605171Y-102147571D01*
X110605171Y-102147571D02*
X110605171Y-102290428D01*
X110605171Y-102290428D02*
X110652790Y-102385666D01*
X110652790Y-102385666D02*
X110700409Y-102433285D01*
X110700409Y-102433285D02*
X110795647Y-102480904D01*
X110795647Y-102480904D02*
X111033742Y-102480904D01*
X111033742Y-102480904D02*
X111128980Y-102433285D01*
X111128980Y-102433285D02*
X111176600Y-102385666D01*
X111176600Y-102385666D02*
X111224219Y-102290428D01*
X111224219Y-102290428D02*
X111224219Y-102004714D01*
X111224219Y-102004714D02*
X111176600Y-101909476D01*
X111176600Y-101909476D02*
X111128980Y-101861857D01*
X160944781Y-85999341D02*
X160806618Y-86059230D01*
X160806618Y-86059230D02*
X160569429Y-86079981D01*
X160569429Y-86079981D02*
X160470403Y-86040844D01*
X160470403Y-86040844D02*
X160418815Y-85997557D01*
X160418815Y-85997557D02*
X160363076Y-85906831D01*
X160363076Y-85906831D02*
X160354776Y-85811955D01*
X160354776Y-85811955D02*
X160393913Y-85712929D01*
X160393913Y-85712929D02*
X160437201Y-85661341D01*
X160437201Y-85661341D02*
X160527926Y-85605603D01*
X160527926Y-85605603D02*
X160713527Y-85541564D01*
X160713527Y-85541564D02*
X160804253Y-85485826D01*
X160804253Y-85485826D02*
X160847540Y-85434238D01*
X160847540Y-85434238D02*
X160886678Y-85335212D01*
X160886678Y-85335212D02*
X160878377Y-85240336D01*
X160878377Y-85240336D02*
X160822639Y-85149610D01*
X160822639Y-85149610D02*
X160771051Y-85106323D01*
X160771051Y-85106323D02*
X160672025Y-85067186D01*
X160672025Y-85067186D02*
X160434835Y-85087937D01*
X160434835Y-85087937D02*
X160296672Y-85147826D01*
X159960457Y-85129440D02*
X159810423Y-86146386D01*
X159810423Y-86146386D02*
X159558418Y-85451419D01*
X159558418Y-85451419D02*
X159430921Y-86179588D01*
X159430921Y-86179588D02*
X159106576Y-85204145D01*
X158292413Y-86279195D02*
X158861667Y-86229391D01*
X158577040Y-86254293D02*
X158489884Y-85258098D01*
X158489884Y-85258098D02*
X158597210Y-85392111D01*
X158597210Y-85392111D02*
X158700387Y-85478686D01*
X158700387Y-85478686D02*
X158799413Y-85517824D01*
D13*
%TO.C,U2*%
X118240600Y-84929000D02*
X118240600Y-84454000D01*
X118715600Y-84929000D02*
X118240600Y-84929000D01*
X118715600Y-80709000D02*
X118240600Y-80709000D01*
X121985600Y-80709000D02*
X122460600Y-80709000D01*
X122460600Y-84929000D02*
X122460600Y-84454000D01*
X121985600Y-84929000D02*
X122460600Y-84929000D01*
X118240600Y-80709000D02*
X118240600Y-81184000D01*
%TO.C,C5*%
X162812000Y-84220267D02*
X162812000Y-83927733D01*
X163832000Y-84220267D02*
X163832000Y-83927733D01*
%TO.C,C11*%
X120423400Y-106634233D02*
X120423400Y-106926767D01*
X119403400Y-106634233D02*
X119403400Y-106926767D01*
%TO.C,R2*%
X143194300Y-79145676D02*
X143194300Y-79655124D01*
X142149300Y-79145676D02*
X142149300Y-79655124D01*
%TO.C,C21*%
X113332800Y-98318367D02*
X113332800Y-98025833D01*
X114352800Y-98318367D02*
X114352800Y-98025833D01*
%TO.C,C1*%
X158108867Y-102059200D02*
X157816333Y-102059200D01*
X158108867Y-101039200D02*
X157816333Y-101039200D01*
%TO.C,U1*%
X121261400Y-104040200D02*
X121261400Y-103565200D01*
X120786400Y-104040200D02*
X121261400Y-104040200D01*
X120786400Y-99820200D02*
X121261400Y-99820200D01*
X117516400Y-104040200D02*
X117041400Y-104040200D01*
X117516400Y-99820200D02*
X117041400Y-99820200D01*
X117041400Y-104040200D02*
X117041400Y-103565200D01*
X117041400Y-99820200D02*
X117041400Y-100295200D01*
%TO.C,BT1*%
X148434800Y-97305200D02*
X146994800Y-101255200D01*
X148434800Y-96675200D02*
X148434800Y-97305200D01*
X148434800Y-88215200D02*
X148434800Y-90675200D01*
X146354800Y-86135200D02*
X148434800Y-88215200D01*
X142854800Y-86135200D02*
X146354800Y-86135200D01*
X128954800Y-86135200D02*
X132454800Y-86135200D01*
X128954800Y-86135200D02*
X126874800Y-88215200D01*
X126874800Y-97305200D02*
X128314800Y-101255200D01*
X126874800Y-96675200D02*
X126874800Y-97305200D01*
X126874800Y-88215200D02*
X126874800Y-90675200D01*
X143658154Y-102241730D02*
G75*
G03*
X146994800Y-101255200I1306646J1716531D01*
G01*
X128329557Y-101263369D02*
G75*
G03*
X131654800Y-102225199I2015243J738169D01*
G01*
%TO.C,C13*%
X123348533Y-97178400D02*
X123641067Y-97178400D01*
X123348533Y-98198400D02*
X123641067Y-98198400D01*
%TO.C,C6*%
X162308000Y-83928833D02*
X162308000Y-84221367D01*
X161288000Y-83928833D02*
X161288000Y-84221367D01*
%TO.C,C7*%
X161575533Y-81100200D02*
X161868067Y-81100200D01*
X161575533Y-82120200D02*
X161868067Y-82120200D01*
%TO.C,U5*%
X153627800Y-84929000D02*
X154102800Y-84929000D01*
X153627800Y-84454000D02*
X153627800Y-84929000D01*
X157847800Y-84454000D02*
X157847800Y-84929000D01*
X153627800Y-81184000D02*
X153627800Y-80709000D01*
X157847800Y-81184000D02*
X157847800Y-80709000D01*
X153627800Y-80709000D02*
X154102800Y-80709000D01*
X157847800Y-80709000D02*
X157372800Y-80709000D01*
%TO.C,C26*%
X128580933Y-115796600D02*
X128873467Y-115796600D01*
X128580933Y-116816600D02*
X128873467Y-116816600D01*
%TO.C,C20*%
X130231933Y-81227200D02*
X130524467Y-81227200D01*
X130231933Y-82247200D02*
X130524467Y-82247200D01*
%TO.C,C3*%
X154891200Y-87815033D02*
X154891200Y-88107567D01*
X153871200Y-87815033D02*
X153871200Y-88107567D01*
%TO.C,SW2*%
X142006000Y-71004400D02*
X142006000Y-70004400D01*
X142006000Y-70004400D02*
X141006000Y-70004400D01*
X140006000Y-72004400D02*
X140006000Y-74604400D01*
X134006000Y-70054400D02*
X139806000Y-70054400D01*
X133906000Y-76554400D02*
X139906000Y-76554400D01*
X133806000Y-72004400D02*
X133806000Y-74604400D01*
%TO.C,R5*%
X132370300Y-80186624D02*
X132370300Y-79677176D01*
X133415300Y-80186624D02*
X133415300Y-79677176D01*
%TO.C,C18*%
X124716000Y-84664333D02*
X124716000Y-84956867D01*
X123696000Y-84664333D02*
X123696000Y-84956867D01*
%TO.C,J2*%
X120075000Y-74378800D02*
X120075000Y-75181270D01*
X118870000Y-74378800D02*
X120075000Y-74378800D01*
X118870000Y-74378800D02*
X118870000Y-74925329D01*
X118110000Y-74378800D02*
X117350000Y-74378800D01*
X117350000Y-74378800D02*
X117350000Y-75488800D01*
X120075000Y-75796330D02*
X120075000Y-76598800D01*
X118870000Y-76052271D02*
X118870000Y-76598800D01*
X118870000Y-76598800D02*
X120075000Y-76598800D01*
%TO.C,C17*%
X109599000Y-80537267D02*
X109599000Y-80244733D01*
X110619000Y-80537267D02*
X110619000Y-80244733D01*
%TO.C,J1*%
X109261600Y-90639600D02*
X109261600Y-89817130D01*
X114276600Y-90639600D02*
X109261600Y-90639600D01*
X114276600Y-90639600D02*
X114276600Y-90073071D01*
X115036600Y-90639600D02*
X115796600Y-90639600D01*
X115796600Y-90639600D02*
X115796600Y-89509600D01*
X109261600Y-89202070D02*
X109261600Y-88547130D01*
X114276600Y-88946129D02*
X114276600Y-88803071D01*
X114330071Y-88749600D02*
X114473129Y-88749600D01*
X115600071Y-88749600D02*
X115731600Y-88749600D01*
X115731600Y-88749600D02*
X115731600Y-88547130D01*
X109261600Y-87932070D02*
X109261600Y-87109600D01*
X115731600Y-87932070D02*
X115731600Y-87109600D01*
X115731600Y-87109600D02*
X109261600Y-87109600D01*
%TO.C,Y1*%
X124902779Y-100213233D02*
X126811967Y-102122421D01*
X123276433Y-101839579D02*
X124902779Y-100213233D01*
%TO.C,C14*%
X117241367Y-106631200D02*
X116948833Y-106631200D01*
X117241367Y-105611200D02*
X116948833Y-105611200D01*
%TO.C,C12*%
X116198867Y-108307600D02*
X115906333Y-108307600D01*
X116198867Y-107287600D02*
X115906333Y-107287600D01*
%TO.C,C16*%
X125074633Y-104265000D02*
X125367167Y-104265000D01*
X125074633Y-105285000D02*
X125367167Y-105285000D01*
%TO.C,C10*%
X121947400Y-106635333D02*
X121947400Y-106927867D01*
X120927400Y-106635333D02*
X120927400Y-106927867D01*
%TO.C,R3*%
X141644900Y-79145676D02*
X141644900Y-79655124D01*
X140599900Y-79145676D02*
X140599900Y-79655124D01*
%TO.C,kibuzzard-65665C77*%
G36*
X144102931Y-116947950D02*
G01*
X144148969Y-116982875D01*
X144177544Y-117033675D01*
X144191037Y-117092413D01*
X143892587Y-117092413D01*
X143900525Y-117034469D01*
X143925925Y-116984463D01*
X143970375Y-116948744D01*
X144037050Y-116935250D01*
X144102931Y-116947950D01*
G37*
G36*
X142515431Y-116947950D02*
G01*
X142561469Y-116982875D01*
X142590044Y-117033675D01*
X142603537Y-117092413D01*
X142305087Y-117092413D01*
X142313025Y-117034469D01*
X142338425Y-116984463D01*
X142382875Y-116948744D01*
X142449550Y-116935250D01*
X142515431Y-116947950D01*
G37*
G36*
X135371681Y-116947950D02*
G01*
X135417719Y-116982875D01*
X135446294Y-117033675D01*
X135459787Y-117092413D01*
X135161337Y-117092413D01*
X135169275Y-117034469D01*
X135194675Y-116984463D01*
X135239125Y-116948744D01*
X135305800Y-116935250D01*
X135371681Y-116947950D01*
G37*
G36*
X138569700Y-116957078D02*
G01*
X138610975Y-116998750D01*
X138634787Y-117066616D01*
X138642725Y-117159088D01*
X138633398Y-117249972D01*
X138605419Y-117322600D01*
X138556801Y-117370225D01*
X138485562Y-117386100D01*
X138441112Y-117384513D01*
X138398250Y-117379750D01*
X138398250Y-116973350D01*
X138449050Y-116951919D01*
X138509375Y-116943188D01*
X138569700Y-116957078D01*
G37*
G36*
X139347773Y-116956880D02*
G01*
X139395994Y-117002719D01*
X139425164Y-117073561D01*
X139434887Y-117163850D01*
X139425958Y-117254338D01*
X139399169Y-117325775D01*
X139352536Y-117372209D01*
X139284075Y-117387688D01*
X139217201Y-117372209D01*
X139168981Y-117325775D01*
X139139811Y-117254338D01*
X139130087Y-117163850D01*
X139139017Y-117073561D01*
X139165806Y-117002719D01*
X139212439Y-116956880D01*
X139280900Y-116941600D01*
X139347773Y-116956880D01*
G37*
G36*
X137760273Y-116956880D02*
G01*
X137808494Y-117002719D01*
X137837664Y-117073561D01*
X137847387Y-117163850D01*
X137838458Y-117254338D01*
X137811669Y-117325775D01*
X137765036Y-117372209D01*
X137696575Y-117387688D01*
X137629701Y-117372209D01*
X137581481Y-117325775D01*
X137552311Y-117254338D01*
X137542587Y-117163850D01*
X137551517Y-117073561D01*
X137578306Y-117002719D01*
X137624939Y-116956880D01*
X137693400Y-116941600D01*
X137760273Y-116956880D01*
G37*
G36*
X132208984Y-116720739D02*
G01*
X132260975Y-116786819D01*
X132284787Y-116854464D01*
X132299075Y-116939924D01*
X132303837Y-117043200D01*
X132299075Y-117147358D01*
X132284787Y-117233347D01*
X132260975Y-117301169D01*
X132208984Y-117367248D01*
X132138737Y-117389275D01*
X132137150Y-117388784D01*
X132067498Y-117367248D01*
X132015706Y-117301169D01*
X131992335Y-117233347D01*
X131978312Y-117147358D01*
X131973637Y-117043200D01*
X131974356Y-117027325D01*
X132049837Y-117027325D01*
X132074444Y-117101144D01*
X132137150Y-117132100D01*
X132202237Y-117101144D01*
X132226050Y-117027325D01*
X132202237Y-116952713D01*
X132137150Y-116920963D01*
X132074444Y-116952713D01*
X132049837Y-117027325D01*
X131974356Y-117027325D01*
X131978312Y-116939924D01*
X131992335Y-116854464D01*
X132015706Y-116786819D01*
X132067498Y-116720739D01*
X132138737Y-116698713D01*
X132208984Y-116720739D01*
G37*
G36*
X144822861Y-116109346D02*
G01*
X144921384Y-116123960D01*
X145018001Y-116148161D01*
X145111780Y-116181716D01*
X145201819Y-116224301D01*
X145287250Y-116275507D01*
X145367251Y-116334839D01*
X145441051Y-116401728D01*
X145507940Y-116475528D01*
X145567272Y-116555529D01*
X145618478Y-116640960D01*
X145661063Y-116730999D01*
X145694618Y-116824778D01*
X145718819Y-116921395D01*
X145733433Y-117019918D01*
X145738321Y-117119400D01*
X145733433Y-117218882D01*
X145718819Y-117317405D01*
X145694618Y-117414022D01*
X145661063Y-117507801D01*
X145618478Y-117597840D01*
X145567272Y-117683271D01*
X145507940Y-117763272D01*
X145441051Y-117837072D01*
X145367251Y-117903961D01*
X145287250Y-117963293D01*
X145201819Y-118014499D01*
X145111780Y-118057084D01*
X145018001Y-118090639D01*
X144921384Y-118114840D01*
X144822861Y-118129454D01*
X144723379Y-118134342D01*
X144392650Y-118134342D01*
X143983075Y-118134342D01*
X143125825Y-118134342D01*
X142395575Y-118134342D01*
X141558962Y-118134342D01*
X140755687Y-118134342D01*
X140134975Y-118134342D01*
X139280900Y-118134342D01*
X138487150Y-118134342D01*
X137693400Y-118134342D01*
X136598025Y-118134342D01*
X135731250Y-118134342D01*
X135251825Y-118134342D01*
X134727950Y-118134342D01*
X132595937Y-118134342D01*
X132138737Y-118134342D01*
X131008437Y-118134342D01*
X130609975Y-118134342D01*
X130232150Y-118134342D01*
X129901421Y-118134342D01*
X129801939Y-118129454D01*
X129703415Y-118114840D01*
X129606799Y-118090639D01*
X129513019Y-118057084D01*
X129422981Y-118014499D01*
X129337549Y-117963293D01*
X129257549Y-117903960D01*
X129183749Y-117837072D01*
X129116860Y-117763272D01*
X129057528Y-117683271D01*
X129006322Y-117597840D01*
X128963737Y-117507801D01*
X128930182Y-117414022D01*
X128905981Y-117317405D01*
X128895213Y-117244813D01*
X130232150Y-117244813D01*
X130254375Y-117370225D01*
X130322637Y-117469444D01*
X130375025Y-117506750D01*
X130440112Y-117534531D01*
X130518297Y-117551795D01*
X130609975Y-117557550D01*
X130686969Y-117551994D01*
X130764756Y-117538500D01*
X130771032Y-117536913D01*
X131008437Y-117536913D01*
X131649787Y-117536913D01*
X131653756Y-117497225D01*
X131652962Y-117463888D01*
X131645620Y-117387688D01*
X131623594Y-117317838D01*
X131590256Y-117253742D01*
X131548981Y-117194806D01*
X131502150Y-117140434D01*
X131452144Y-117090031D01*
X131402764Y-117043200D01*
X131797425Y-117043200D01*
X131802882Y-117165041D01*
X131819253Y-117270213D01*
X131846538Y-117358716D01*
X131884737Y-117430550D01*
X131951765Y-117501106D01*
X132036432Y-117543439D01*
X132138737Y-117557550D01*
X132241043Y-117543439D01*
X132254095Y-117536913D01*
X132595937Y-117536913D01*
X133237287Y-117536913D01*
X133241256Y-117497225D01*
X133240462Y-117463888D01*
X133233120Y-117387688D01*
X133211094Y-117317838D01*
X133177756Y-117253742D01*
X133136481Y-117194806D01*
X133089650Y-117140434D01*
X133039644Y-117090031D01*
X132989637Y-117042605D01*
X132942806Y-116997163D01*
X132868194Y-116911438D01*
X132838825Y-116827300D01*
X132875337Y-116734431D01*
X132967412Y-116701888D01*
X133064250Y-116724113D01*
X133164262Y-116798725D01*
X133169892Y-116790788D01*
X134167562Y-116790788D01*
X134197130Y-116894570D01*
X134225506Y-116996369D01*
X134253883Y-117095984D01*
X134283450Y-117193219D01*
X134314605Y-117288270D01*
X134347744Y-117381338D01*
X134383264Y-117472222D01*
X134421562Y-117560725D01*
X134481094Y-117670263D01*
X134546181Y-117745669D01*
X134625556Y-117789325D01*
X134727950Y-117803613D01*
X134817644Y-117795675D01*
X134885112Y-117775038D01*
X134848600Y-117611525D01*
X134792244Y-117631369D01*
X134739062Y-117636925D01*
X134646987Y-117598825D01*
X134591425Y-117508338D01*
X134637992Y-117410706D01*
X134684558Y-117304079D01*
X134731125Y-117188456D01*
X134743729Y-117154325D01*
X134972425Y-117154325D01*
X134973219Y-117194013D01*
X134975600Y-117227350D01*
X135459787Y-117227350D01*
X135444706Y-117292636D01*
X135399462Y-117342444D01*
X135330406Y-117373995D01*
X135243887Y-117384513D01*
X135131969Y-117371813D01*
X135042275Y-117346413D01*
X135015287Y-117513100D01*
X135123237Y-117542469D01*
X135251825Y-117554375D01*
X135342114Y-117548223D01*
X135391369Y-117536913D01*
X135731250Y-117536913D01*
X135955087Y-117536913D01*
X136005094Y-117447219D01*
X136070975Y-117348794D01*
X136141619Y-117256719D01*
X136207500Y-117184488D01*
X136207500Y-117536913D01*
X136404350Y-117536913D01*
X136598025Y-117536913D01*
X136793287Y-117536913D01*
X136793287Y-117141625D01*
X136799241Y-117051534D01*
X136817100Y-116990813D01*
X136913937Y-116944775D01*
X136957594Y-116946363D01*
X137002837Y-116951125D01*
X137002837Y-117536913D01*
X137198100Y-117536913D01*
X137198100Y-117162263D01*
X137342562Y-117162263D01*
X137348912Y-117246995D01*
X137367962Y-117323394D01*
X137398522Y-117390664D01*
X137439400Y-117448013D01*
X137490001Y-117494447D01*
X137549731Y-117528975D01*
X137617795Y-117550406D01*
X137693400Y-117557550D01*
X137769005Y-117550406D01*
X137837069Y-117528975D01*
X137896997Y-117494447D01*
X137948194Y-117448013D01*
X137989667Y-117390664D01*
X138020425Y-117323394D01*
X138039475Y-117246995D01*
X138045825Y-117162263D01*
X138039276Y-117078720D01*
X138019631Y-117002719D01*
X137988278Y-116935647D01*
X137946606Y-116878894D01*
X137895211Y-116833253D01*
X137834687Y-116799519D01*
X137766822Y-116778683D01*
X137693400Y-116771738D01*
X137618986Y-116778683D01*
X137551319Y-116799519D01*
X137491391Y-116833253D01*
X137440194Y-116878894D01*
X137398720Y-116935647D01*
X137367962Y-117002719D01*
X137348912Y-117078720D01*
X137342562Y-117162263D01*
X137198100Y-117162263D01*
X137198100Y-116814600D01*
X137139561Y-116800709D01*
X137068719Y-116787613D01*
X136988351Y-116778088D01*
X136901237Y-116774913D01*
X136819878Y-116781064D01*
X136753600Y-116799519D01*
X136660731Y-116869369D01*
X136612312Y-116977319D01*
X136601597Y-117043398D01*
X136598025Y-117116225D01*
X136598025Y-117536913D01*
X136404350Y-117536913D01*
X136404350Y-116468525D01*
X136207500Y-116435188D01*
X138202987Y-116435188D01*
X138202987Y-117514688D01*
X138262916Y-117530563D01*
X138334750Y-117543263D01*
X138411744Y-117551597D01*
X138487150Y-117554375D01*
X138594130Y-117542910D01*
X138682236Y-117508514D01*
X138751469Y-117451188D01*
X138801299Y-117373929D01*
X138831196Y-117279738D01*
X138841162Y-117168613D01*
X138840692Y-117162263D01*
X138930062Y-117162263D01*
X138936412Y-117246995D01*
X138955462Y-117323394D01*
X138986022Y-117390664D01*
X139026900Y-117448013D01*
X139077501Y-117494447D01*
X139137231Y-117528975D01*
X139205295Y-117550406D01*
X139280900Y-117557550D01*
X139356505Y-117550406D01*
X139424569Y-117528975D01*
X139484497Y-117494447D01*
X139535694Y-117448013D01*
X139577167Y-117390664D01*
X139607925Y-117323394D01*
X139626975Y-117246995D01*
X139633325Y-117162263D01*
X139626776Y-117078720D01*
X139607131Y-117002719D01*
X139575778Y-116935647D01*
X139534106Y-116878894D01*
X139482711Y-116833253D01*
X139437852Y-116808250D01*
X139744450Y-116808250D01*
X139779375Y-116989225D01*
X139824619Y-116979700D01*
X139877800Y-116970969D01*
X139930187Y-116965413D01*
X139973050Y-116963825D01*
X140054012Y-116967794D01*
X140134975Y-116982875D01*
X140134975Y-117536913D01*
X140331825Y-117536913D01*
X140331825Y-117513100D01*
X140517562Y-117513100D01*
X140634244Y-117544850D01*
X140755687Y-117554375D01*
X140876337Y-117543263D01*
X140929018Y-117517863D01*
X141320837Y-117517863D01*
X141420850Y-117544056D01*
X141484747Y-117551795D01*
X141558962Y-117554375D01*
X141665126Y-117546834D01*
X141755019Y-117524213D01*
X141829433Y-117488494D01*
X141889162Y-117441663D01*
X141934605Y-117384513D01*
X141966156Y-117317838D01*
X141984611Y-117243622D01*
X141990762Y-117163850D01*
X141989992Y-117154325D01*
X142116175Y-117154325D01*
X142116969Y-117194013D01*
X142119350Y-117227350D01*
X142603537Y-117227350D01*
X142588456Y-117292636D01*
X142543212Y-117342444D01*
X142474156Y-117373995D01*
X142387637Y-117384513D01*
X142275719Y-117371813D01*
X142186025Y-117346413D01*
X142159037Y-117513100D01*
X142266987Y-117542469D01*
X142395575Y-117554375D01*
X142485864Y-117548223D01*
X142566231Y-117529769D01*
X142622472Y-117505163D01*
X142906750Y-117505163D01*
X142928181Y-117516275D01*
X142971837Y-117532944D01*
X143037719Y-117548025D01*
X143125825Y-117554375D01*
X143242506Y-117534333D01*
X143322675Y-117474206D01*
X143369109Y-117375583D01*
X143384587Y-117240050D01*
X143384587Y-117154325D01*
X143703675Y-117154325D01*
X143704469Y-117194013D01*
X143706850Y-117227350D01*
X144191037Y-117227350D01*
X144175956Y-117292636D01*
X144130712Y-117342444D01*
X144061656Y-117373995D01*
X143975137Y-117384513D01*
X143863219Y-117371813D01*
X143773525Y-117346413D01*
X143746537Y-117513100D01*
X143854487Y-117542469D01*
X143983075Y-117554375D01*
X144073364Y-117548223D01*
X144153731Y-117529769D01*
X144223581Y-117499209D01*
X144282319Y-117456744D01*
X144329348Y-117402570D01*
X144364075Y-117336888D01*
X144385506Y-117259497D01*
X144392650Y-117170200D01*
X144385109Y-117077728D01*
X144362487Y-116997163D01*
X144327562Y-116928702D01*
X144283112Y-116872544D01*
X144230328Y-116828689D01*
X144170400Y-116797138D01*
X144106106Y-116778088D01*
X144040225Y-116771738D01*
X143938978Y-116782585D01*
X143855369Y-116815129D01*
X143789400Y-116869369D01*
X143741775Y-116944422D01*
X143713200Y-117039408D01*
X143703675Y-117154325D01*
X143384587Y-117154325D01*
X143384587Y-116606638D01*
X143590962Y-116606638D01*
X143590962Y-116444713D01*
X143189325Y-116444713D01*
X143189325Y-117254338D01*
X143159162Y-117357525D01*
X143082962Y-117384513D01*
X142984537Y-117368638D01*
X142932150Y-117348000D01*
X142906750Y-117505163D01*
X142622472Y-117505163D01*
X142636081Y-117499209D01*
X142694819Y-117456744D01*
X142741848Y-117402570D01*
X142776575Y-117336888D01*
X142798006Y-117259497D01*
X142805150Y-117170200D01*
X142797609Y-117077728D01*
X142774987Y-116997163D01*
X142740062Y-116928702D01*
X142695612Y-116872544D01*
X142642828Y-116828689D01*
X142582900Y-116797138D01*
X142518606Y-116778088D01*
X142452725Y-116771738D01*
X142351478Y-116782585D01*
X142267869Y-116815129D01*
X142201900Y-116869369D01*
X142154275Y-116944422D01*
X142125700Y-117039408D01*
X142116175Y-117154325D01*
X141989992Y-117154325D01*
X141984412Y-117085269D01*
X141965362Y-117011450D01*
X141933216Y-116944577D01*
X141887575Y-116886831D01*
X141828242Y-116839206D01*
X141755019Y-116802694D01*
X141667111Y-116779477D01*
X141563725Y-116771738D01*
X141443075Y-116781263D01*
X141333537Y-116813013D01*
X141376400Y-116970175D01*
X141447044Y-116950331D01*
X141546262Y-116941600D01*
X141662944Y-116958269D01*
X141738350Y-117004306D01*
X141779625Y-117074950D01*
X141792325Y-117163850D01*
X141777839Y-117255925D01*
X141734381Y-117325775D01*
X141655998Y-117369828D01*
X141536737Y-117384513D01*
X141440694Y-117378163D01*
X141349412Y-117357525D01*
X141320837Y-117517863D01*
X140929018Y-117517863D01*
X140965237Y-117500400D01*
X141020800Y-117410706D01*
X141035087Y-117343833D01*
X141039850Y-117259100D01*
X141039850Y-116952713D01*
X141209712Y-116952713D01*
X141209712Y-116790788D01*
X141039850Y-116790788D01*
X141039850Y-116603463D01*
X140844587Y-116571713D01*
X140844587Y-116790788D01*
X140531850Y-116790788D01*
X140531850Y-116952713D01*
X140844587Y-116952713D01*
X140844587Y-117254338D01*
X140836650Y-117321013D01*
X140814425Y-117360700D01*
X140779500Y-117379750D01*
X140733462Y-117384513D01*
X140683456Y-117382925D01*
X140639006Y-117377369D01*
X140594556Y-117365463D01*
X140544550Y-117344825D01*
X140517562Y-117513100D01*
X140331825Y-117513100D01*
X140331825Y-116840000D01*
X140253045Y-116814203D01*
X140172281Y-116793963D01*
X140083580Y-116780866D01*
X139980987Y-116776500D01*
X139935744Y-116778088D01*
X139873037Y-116783644D01*
X139805569Y-116793169D01*
X139744450Y-116808250D01*
X139437852Y-116808250D01*
X139422187Y-116799519D01*
X139354322Y-116778683D01*
X139280900Y-116771738D01*
X139206486Y-116778683D01*
X139138819Y-116799519D01*
X139078891Y-116833253D01*
X139027694Y-116878894D01*
X138986220Y-116935647D01*
X138955462Y-117002719D01*
X138936412Y-117078720D01*
X138930062Y-117162263D01*
X138840692Y-117162263D01*
X138832784Y-117055459D01*
X138807649Y-116959415D01*
X138765756Y-116880481D01*
X138707460Y-116821832D01*
X138633112Y-116786642D01*
X138542712Y-116774913D01*
X138464925Y-116783644D01*
X138398250Y-116808250D01*
X138398250Y-116468525D01*
X138202987Y-116435188D01*
X136207500Y-116435188D01*
X136207500Y-117086063D01*
X136149556Y-117015419D01*
X136092406Y-116938425D01*
X136039225Y-116861431D01*
X135994775Y-116790788D01*
X135759825Y-116790788D01*
X135824912Y-116870163D01*
X135900319Y-116957475D01*
X135978106Y-117043200D01*
X136048750Y-117119400D01*
X135963025Y-117210681D01*
X135917384Y-117264855D01*
X135872537Y-117321013D01*
X135829873Y-117378163D01*
X135790781Y-117435313D01*
X135731250Y-117536913D01*
X135391369Y-117536913D01*
X135422481Y-117529769D01*
X135492331Y-117499209D01*
X135551069Y-117456744D01*
X135598098Y-117402570D01*
X135632825Y-117336888D01*
X135654256Y-117259497D01*
X135661400Y-117170200D01*
X135653859Y-117077728D01*
X135631237Y-116997163D01*
X135596312Y-116928702D01*
X135551862Y-116872544D01*
X135499078Y-116828689D01*
X135439150Y-116797138D01*
X135374856Y-116778088D01*
X135308975Y-116771738D01*
X135207728Y-116782585D01*
X135124119Y-116815129D01*
X135058150Y-116869369D01*
X135010525Y-116944422D01*
X134981950Y-117039408D01*
X134972425Y-117154325D01*
X134743729Y-117154325D01*
X134765256Y-117096034D01*
X134797800Y-116998948D01*
X134828756Y-116897200D01*
X134858125Y-116790788D01*
X134654925Y-116790788D01*
X134622381Y-116916200D01*
X134603530Y-116982875D01*
X134583487Y-117049550D01*
X134562255Y-117115630D01*
X134539831Y-117180519D01*
X134493000Y-117300375D01*
X134459662Y-117180519D01*
X134442597Y-117115828D01*
X134426325Y-117050344D01*
X134410648Y-116984264D01*
X134395369Y-116917788D01*
X134367587Y-116790788D01*
X134167562Y-116790788D01*
X133169892Y-116790788D01*
X133261100Y-116662200D01*
X133192639Y-116604256D01*
X133114256Y-116563775D01*
X133031111Y-116539963D01*
X132948362Y-116532025D01*
X132832475Y-116549488D01*
X132734050Y-116601875D01*
X132665787Y-116689981D01*
X132640387Y-116813013D01*
X132659437Y-116910644D01*
X132710237Y-117001925D01*
X132781675Y-117087650D01*
X132862637Y-117167025D01*
X132910262Y-117212269D01*
X132961062Y-117266244D01*
X133001544Y-117322600D01*
X133018212Y-117374988D01*
X132595937Y-117374988D01*
X132595937Y-117536913D01*
X132254095Y-117536913D01*
X132325710Y-117501106D01*
X132392737Y-117430550D01*
X132430937Y-117358716D01*
X132458222Y-117270213D01*
X132474593Y-117165041D01*
X132480050Y-117043200D01*
X132474494Y-116922748D01*
X132457825Y-116818569D01*
X132430044Y-116730661D01*
X132391150Y-116659025D01*
X132323593Y-116588469D01*
X132239455Y-116546136D01*
X132138737Y-116532025D01*
X132036432Y-116546048D01*
X131951765Y-116588117D01*
X131884737Y-116658231D01*
X131846538Y-116729619D01*
X131819253Y-116817577D01*
X131802882Y-116922104D01*
X131797425Y-117043200D01*
X131402764Y-117043200D01*
X131402137Y-117042605D01*
X131355306Y-116997163D01*
X131280694Y-116911438D01*
X131251325Y-116827300D01*
X131287837Y-116734431D01*
X131379912Y-116701888D01*
X131476750Y-116724113D01*
X131576762Y-116798725D01*
X131673600Y-116662200D01*
X131605139Y-116604256D01*
X131526756Y-116563775D01*
X131443611Y-116539963D01*
X131360862Y-116532025D01*
X131244975Y-116549488D01*
X131146550Y-116601875D01*
X131078287Y-116689981D01*
X131052887Y-116813013D01*
X131071937Y-116910644D01*
X131122737Y-117001925D01*
X131194175Y-117087650D01*
X131275137Y-117167025D01*
X131322762Y-117212269D01*
X131373562Y-117266244D01*
X131414044Y-117322600D01*
X131430712Y-117374988D01*
X131008437Y-117374988D01*
X131008437Y-117536913D01*
X130771032Y-117536913D01*
X130833812Y-117521038D01*
X130883025Y-117503575D01*
X130844925Y-117340063D01*
X130750469Y-117373400D01*
X130686770Y-117386497D01*
X130611562Y-117390863D01*
X130526433Y-117380147D01*
X130471069Y-117348000D01*
X130430587Y-117241638D01*
X130446066Y-117175558D01*
X130492500Y-117132894D01*
X130562747Y-117109677D01*
X130649662Y-117101938D01*
X130709987Y-117101938D01*
X130709987Y-116940013D01*
X130636962Y-116940013D01*
X130576637Y-116933663D01*
X130522662Y-116913025D01*
X130483769Y-116874925D01*
X130468687Y-116814600D01*
X130501231Y-116729669D01*
X130590925Y-116698713D01*
X130701256Y-116716969D01*
X130795712Y-116762213D01*
X130865562Y-116619338D01*
X130752056Y-116561394D01*
X130676848Y-116539367D01*
X130592512Y-116532025D01*
X130515320Y-116537184D01*
X130448844Y-116552663D01*
X130348037Y-116610606D01*
X130289300Y-116698713D01*
X130270250Y-116808250D01*
X130303587Y-116920963D01*
X130392487Y-117003513D01*
X130324820Y-117042803D01*
X130274219Y-117097175D01*
X130242667Y-117165041D01*
X130232150Y-117244813D01*
X128895213Y-117244813D01*
X128891366Y-117218882D01*
X128886479Y-117119400D01*
X128891366Y-117019918D01*
X128905981Y-116921395D01*
X128930182Y-116824778D01*
X128963737Y-116730999D01*
X129006322Y-116640960D01*
X129057528Y-116555529D01*
X129116860Y-116475528D01*
X129183749Y-116401728D01*
X129257549Y-116334840D01*
X129337549Y-116275507D01*
X129422981Y-116224301D01*
X129513019Y-116181716D01*
X129606799Y-116148161D01*
X129703415Y-116123960D01*
X129801939Y-116109346D01*
X129901421Y-116104458D01*
X130232150Y-116104458D01*
X144392650Y-116104458D01*
X144723379Y-116104458D01*
X144822861Y-116109346D01*
G37*
%TO.C,C8*%
X119229600Y-111818033D02*
X119229600Y-112110567D01*
X118209600Y-111818033D02*
X118209600Y-112110567D01*
%TO.C,C22*%
X111783400Y-98318367D02*
X111783400Y-98025833D01*
X112803400Y-98318367D02*
X112803400Y-98025833D01*
%TO.C,C2*%
X153295133Y-98092800D02*
X153587667Y-98092800D01*
X153295133Y-99112800D02*
X153587667Y-99112800D01*
%TO.C,C15*%
X124567733Y-98829400D02*
X124860267Y-98829400D01*
X124567733Y-99849400D02*
X124860267Y-99849400D01*
%TO.C,C25*%
X128582033Y-117320600D02*
X128874567Y-117320600D01*
X128582033Y-118340600D02*
X128874567Y-118340600D01*
%TO.C,L1*%
X127201200Y-104590667D02*
X127201200Y-104248133D01*
X128221200Y-104590667D02*
X128221200Y-104248133D01*
%TO.C,C4*%
X155454133Y-75817000D02*
X155746667Y-75817000D01*
X155454133Y-76837000D02*
X155746667Y-76837000D01*
%TO.C,C19*%
X116249667Y-79377000D02*
X115957133Y-79377000D01*
X116249667Y-78357000D02*
X115957133Y-78357000D01*
%TO.C,C9*%
X123649200Y-108184733D02*
X123649200Y-108477267D01*
X122629200Y-108184733D02*
X122629200Y-108477267D01*
%TO.C,U3*%
X113279200Y-102612000D02*
X115279200Y-102612000D01*
X115279200Y-102612000D02*
X115279200Y-105112000D01*
X115279200Y-105112000D02*
X113279200Y-105112000D01*
X113279200Y-105112000D02*
X113279200Y-102612000D01*
D14*
X115684200Y-102362000D02*
G75*
G03*
X115684200Y-102362000I-155000J0D01*
G01*
D13*
%TO.C,R4*%
X126201700Y-84555876D02*
X126201700Y-85065324D01*
X125156700Y-84555876D02*
X125156700Y-85065324D01*
%TO.C,C24*%
X128557733Y-114247200D02*
X128850267Y-114247200D01*
X128557733Y-115267200D02*
X128850267Y-115267200D01*
%TO.C,L2*%
X119784400Y-112109067D02*
X119784400Y-111766533D01*
X120804400Y-112109067D02*
X120804400Y-111766533D01*
%TO.C,C27*%
X111405071Y-107531139D02*
X111151729Y-107677406D01*
X110895071Y-106647794D02*
X110641729Y-106794061D01*
%TO.C,R1*%
X107238076Y-81316300D02*
X107747524Y-81316300D01*
X107238076Y-82361300D02*
X107747524Y-82361300D01*
%TO.C,U4*%
X154392200Y-103159200D02*
X152592200Y-103159200D01*
X152592200Y-99939200D02*
X155042200Y-99939200D01*
%TO.C,C23*%
X110259400Y-98318367D02*
X110259400Y-98025833D01*
X111279400Y-98318367D02*
X111279400Y-98025833D01*
%TO.C,SW1*%
X163290702Y-88527301D02*
X163359555Y-89314295D01*
X162849865Y-90372745D02*
X157171556Y-90869533D01*
X161356228Y-87642535D02*
X159662697Y-87790700D01*
X161517814Y-91784212D02*
X161336878Y-92010844D01*
X161405383Y-90499121D02*
X161517814Y-91784212D01*
X161336878Y-92010844D02*
X160440302Y-92089284D01*
X160222761Y-91897514D02*
X160440302Y-92089284D01*
X160222761Y-91897514D02*
X160110330Y-90612423D01*
X158367644Y-87904002D02*
X158168405Y-87921433D01*
X156485811Y-89915669D02*
X156416958Y-89128676D01*
%TD*%
M02*
