M48
; DRILL file {KiCad 7.0.7} date Tue Dec 19 22:41:02 2023
; FORMAT={-:-/ absolute / metric / decimal}
; #@! TF.CreationDate,2023-12-19T22:41:02+02:00
; #@! TF.GenerationSoftware,Kicad,Pcbnew,7.0.7
; #@! TF.FileFunction,Plated,1,2,PTH
FMAT,2
METRIC
; #@! TA.AperFunction,Plated,PTH,ViaDrill
T1C0.400
; #@! TA.AperFunction,Plated,PTH,ComponentDrill
T2C0.650
; #@! TA.AperFunction,Plated,PTH,ComponentDrill
T3C1.520
%
G90
G05
T1
X108.077Y-83.16
X108.458Y-88.976
X109.118Y-76.454
X110.847Y-85.05
X111.379Y-78.765
X112.243Y-81.28
X113.259Y-91.084
X113.284Y-102.032
X113.487Y-110.795
X113.665Y-107.518
X113.799Y-105.568
X114.757Y-84.049
X115.141Y-101.466
X115.189Y-80.899
X115.306Y-102.452
X115.875Y-100.127
X116.281Y-84.633
X116.484Y-82.017
X116.962Y-97.29
X117.297Y-79.781
X117.653Y-112.903
X117.743Y-85.827
X117.999Y-98.939
X118.237Y-109.423
X118.559Y-86.405
X118.878Y-73.609
X118.948Y-105.195
X118.969Y-98.692
X119.151Y-101.93
X119.561Y-78.562
X119.609Y-97.717
X119.83Y-112.156
X119.915Y-88.838
X120.095Y-79.51
X120.234Y-98.498
X120.396Y-109.144
X120.553Y-90.29
X121.564Y-100.025
X121.571Y-95.864
X121.632Y-103.39
X122.077Y-90.661
X122.118Y-86.526
X122.202Y-91.812
X122.211Y-87.522
X122.298Y-110.346
X122.405Y-101.549
X122.495Y-105.308
X122.872Y-96.604
X122.977Y-100.678
X123.215Y-87.757
X123.342Y-85.547
X123.342Y-102.794
X123.48Y-93.391
X123.661Y-92.4
X123.906Y-83.254
X124.407Y-89.818
X124.565Y-106.75
X124.773Y-88.888
X124.942Y-82.969
X125.079Y-92.914
X125.134Y-95.584
X126.314Y-103.505
X127.457Y-102.26
X127.737Y-70.993
X127.991Y-85.141
X129.311Y-84.125
X129.692Y-101.752
X130.823Y-75.717
X130.823Y-103.814
X131.369Y-102.387
X132.41Y-82.017
X134.087Y-116.23
X135.814Y-110.744
X136.525Y-67.412
X136.576Y-105.537
X136.652Y-80.67
X137.668Y-93.421
X138.087Y-105.638
X139.09Y-104.765
X139.243Y-62.941
X140.592Y-106.189
X140.767Y-84.379
X141.046Y-77.401
X141.875Y-107.239
X142.519Y-71.069
X142.824Y-77.343
X143.002Y-115.316
X143.231Y-104.318
X143.731Y-81.352
X145.26Y-82.931
X145.542Y-81.458
X145.542Y-101.956
X145.847Y-86.665
X145.898Y-70.714
X145.949Y-84.91
X146.545Y-82.028
X147.276Y-101.202
X148.172Y-84.654
X148.514Y-88.138
X148.996Y-99.339
X149.583Y-82.001
X149.606Y-83.794
X150.165Y-104.064
X150.215Y-79.167
X150.528Y-84.401
X150.583Y-81.991
X151.232Y-92.685
X151.282Y-87.198
X151.613Y-96.368
X152.372Y-79.641
X152.817Y-91.673
X152.937Y-89.723
X153.086Y-84.988
X154.0Y-96.749
X154.076Y-109.093
X154.102Y-104.216
X155.197Y-79.537
X155.463Y-85.874
X155.473Y-96.571
X155.753Y-82.88
X155.918Y-87.307
X156.337Y-96.571
X157.373Y-78.829
X158.347Y-78.601
X158.75Y-80.848
X158.953Y-82.067
X159.532Y-85.661
X160.249Y-87.808
X162.154Y-106.705
X162.433Y-90.322
X162.535Y-86.335
X164.49Y-81.102
X164.49Y-82.779
X165.049Y-88.976
X165.659Y-78.765
X167.945Y-82.575
X171.044Y-77.775
T2
X109.957Y-88.24
X109.957Y-89.51
X111.227Y-88.24
X111.227Y-89.51
X112.497Y-88.24
X112.497Y-89.51
X113.767Y-88.24
X113.767Y-89.51
X115.037Y-88.24
X115.037Y-89.51
X118.11Y-75.489
X119.38Y-75.489
T3
X106.702Y-109.449
T0
M30
