  0
SECTION
  2
HEADER
  9
$ANGBASE
  50
0.0
  9
$ANGDIR
  70
1
  9
$MEASUREMENT
  70
1
  0
ENDSEC
  0
SECTION
  2
TABLES
  0
TABLE
  2
LTYPE
  70
4
  0
LTYPE
  5
40F
  2
CONTINUOUS
  70
0
  3
Solid line
  72
65
  73
0
  40
0.0
  0
LTYPE
  5
410
  2
DASHDOT
 70
0
  3
Dash Dot ____ _ ____ _
 72
65
 73
4
 40
2.0
 49
1.25
 49
-0.25
 49
0.25
 49
-0.25
  0
LTYPE
  5
411
  2
DASHED
 70
0
  3
Dashed __ __ __ __ __
 72
65
 73
2
 40
0.75
 49
0.5
 49
-0.25
  0
LTYPE
  5
43B
  2
DOTTED
 70
0
  3
Dotted .  .  .  .
 72
65
 73
2
 40
0.2
 49
0.0
 49
-0.2
  0
ENDTAB
  0
TABLE
  2
STYLE
  70
4
  0
STYLE
  2
KICAD
  70
0
  40
0
  41
1
  42
1
  50
0
  71
0
  3
isocp.shx
  0
STYLE
  2
KICADB
  70
0
  40
0
  41
1
  42
1
  50
0
  71
0
  3
isocp.shx
  0
STYLE
  2
KICADI
  70
0
  40
0
  41
1
  42
1
  50
15
  71
0
  3
isocp.shx
  0
STYLE
  2
KICADBI
  70
0
  40
0
  41
1
  42
1
  50
15
  71
0
  3
isocp.shx
  0
ENDTAB
  0
TABLE
  2
LAYER
  70
1
  0
LAYER
  2
BLACK
  70
0
  62
7
  6
CONTINUOUS
  0
ENDTAB
  0
ENDSEC
  0
SECTION
  2
ENTITIES
0
LINE
8
BLACK
6
CONTINUOUS
10
107.877
20
-82.9596
11
108.277
21
-83.3596
0
LINE
8
BLACK
6
CONTINUOUS
10
108.277
20
-82.9596
11
107.877
21
-83.3596
0
LINE
8
BLACK
6
CONTINUOUS
10
108.258
20
-88.7762
11
108.658
21
-89.1762
0
LINE
8
BLACK
6
CONTINUOUS
10
108.658
20
-88.7762
11
108.258
21
-89.1762
0
LINE
8
BLACK
6
CONTINUOUS
10
108.918
20
-76.254
11
109.318
21
-76.654
0
LINE
8
BLACK
6
CONTINUOUS
10
109.318
20
-76.254
11
108.918
21
-76.654
0
LINE
8
BLACK
6
CONTINUOUS
10
110.647
20
-84.8503
11
111.047
21
-85.2503
0
LINE
8
BLACK
6
CONTINUOUS
10
111.047
20
-84.8503
11
110.647
21
-85.2503
0
LINE
8
BLACK
6
CONTINUOUS
10
111.179
20
-78.5654
11
111.579
21
-78.9654
0
LINE
8
BLACK
6
CONTINUOUS
10
111.579
20
-78.5654
11
111.179
21
-78.9654
0
LINE
8
BLACK
6
CONTINUOUS
10
112.043
20
-81.08
11
112.443
21
-81.48
0
LINE
8
BLACK
6
CONTINUOUS
10
112.443
20
-81.08
11
112.043
21
-81.48
0
LINE
8
BLACK
6
CONTINUOUS
10
113.059
20
-90.8844
11
113.459
21
-91.2844
0
LINE
8
BLACK
6
CONTINUOUS
10
113.459
20
-90.8844
11
113.059
21
-91.2844
0
LINE
8
BLACK
6
CONTINUOUS
10
113.084
20
-101.832
11
113.484
21
-102.232
0
LINE
8
BLACK
6
CONTINUOUS
10
113.484
20
-101.832
11
113.084
21
-102.232
0
LINE
8
BLACK
6
CONTINUOUS
10
113.287
20
-110.595
11
113.687
21
-110.995
0
LINE
8
BLACK
6
CONTINUOUS
10
113.687
20
-110.595
11
113.287
21
-110.995
0
LINE
8
BLACK
6
CONTINUOUS
10
113.465
20
-107.318
11
113.865
21
-107.718
0
LINE
8
BLACK
6
CONTINUOUS
10
113.865
20
-107.318
11
113.465
21
-107.718
0
LINE
8
BLACK
6
CONTINUOUS
10
113.599
20
-105.368
11
113.999
21
-105.768
0
LINE
8
BLACK
6
CONTINUOUS
10
113.999
20
-105.368
11
113.599
21
-105.768
0
LINE
8
BLACK
6
CONTINUOUS
10
114.557
20
-83.8486
11
114.957
21
-84.2486
0
LINE
8
BLACK
6
CONTINUOUS
10
114.957
20
-83.8486
11
114.557
21
-84.2486
0
LINE
8
BLACK
6
CONTINUOUS
10
114.941
20
-101.266
11
115.341
21
-101.666
0
LINE
8
BLACK
6
CONTINUOUS
10
115.341
20
-101.266
11
114.941
21
-101.666
0
LINE
8
BLACK
6
CONTINUOUS
10
114.989
20
-80.699
11
115.389
21
-81.099
0
LINE
8
BLACK
6
CONTINUOUS
10
115.389
20
-80.699
11
114.989
21
-81.099
0
LINE
8
BLACK
6
CONTINUOUS
10
115.106
20
-102.252
11
115.506
21
-102.652
0
LINE
8
BLACK
6
CONTINUOUS
10
115.506
20
-102.252
11
115.106
21
-102.652
0
LINE
8
BLACK
6
CONTINUOUS
10
115.675
20
-99.9268
11
116.075
21
-100.327
0
LINE
8
BLACK
6
CONTINUOUS
10
116.075
20
-99.9268
11
115.675
21
-100.327
0
LINE
8
BLACK
6
CONTINUOUS
10
116.081
20
-84.4328
11
116.481
21
-84.8328
0
LINE
8
BLACK
6
CONTINUOUS
10
116.481
20
-84.4328
11
116.081
21
-84.8328
0
LINE
8
BLACK
6
CONTINUOUS
10
116.284
20
-81.8166
11
116.684
21
-82.2166
0
LINE
8
BLACK
6
CONTINUOUS
10
116.684
20
-81.8166
11
116.284
21
-82.2166
0
LINE
8
BLACK
6
CONTINUOUS
10
116.762
20
-97.0896
11
117.162
21
-97.4896
0
LINE
8
BLACK
6
CONTINUOUS
10
117.162
20
-97.0896
11
116.762
21
-97.4896
0
LINE
8
BLACK
6
CONTINUOUS
10
117.097
20
-79.5814
11
117.497
21
-79.9814
0
LINE
8
BLACK
6
CONTINUOUS
10
117.497
20
-79.5814
11
117.097
21
-79.9814
0
LINE
8
BLACK
6
CONTINUOUS
10
117.453
20
-112.703
11
117.853
21
-113.103
0
LINE
8
BLACK
6
CONTINUOUS
10
117.853
20
-112.703
11
117.453
21
-113.103
0
LINE
8
BLACK
6
CONTINUOUS
10
117.543
20
-85.6266
11
117.943
21
-86.0266
0
LINE
8
BLACK
6
CONTINUOUS
10
117.943
20
-85.6266
11
117.543
21
-86.0266
0
LINE
8
BLACK
6
CONTINUOUS
10
117.799
20
-98.7392
11
118.199
21
-99.1392
0
LINE
8
BLACK
6
CONTINUOUS
10
118.199
20
-98.7392
11
117.799
21
-99.1392
0
LINE
8
BLACK
6
CONTINUOUS
10
118.037
20
-109.223
11
118.437
21
-109.623
0
LINE
8
BLACK
6
CONTINUOUS
10
118.437
20
-109.223
11
118.037
21
-109.623
0
LINE
8
BLACK
6
CONTINUOUS
10
118.359
20
-86.2047
11
118.759
21
-86.6047
0
LINE
8
BLACK
6
CONTINUOUS
10
118.759
20
-86.2047
11
118.359
21
-86.6047
0
LINE
8
BLACK
6
CONTINUOUS
10
118.678
20
-73.4087
11
119.078
21
-73.8087
0
LINE
8
BLACK
6
CONTINUOUS
10
119.078
20
-73.4087
11
118.678
21
-73.8087
0
LINE
8
BLACK
6
CONTINUOUS
10
118.748
20
-104.995
11
119.148
21
-105.395
0
LINE
8
BLACK
6
CONTINUOUS
10
119.148
20
-104.995
11
118.748
21
-105.395
0
LINE
8
BLACK
6
CONTINUOUS
10
118.769
20
-98.4924
11
119.169
21
-98.8924
0
LINE
8
BLACK
6
CONTINUOUS
10
119.169
20
-98.4924
11
118.769
21
-98.8924
0
LINE
8
BLACK
6
CONTINUOUS
10
118.951
20
-101.73
11
119.351
21
-102.13
0
LINE
8
BLACK
6
CONTINUOUS
10
119.351
20
-101.73
11
118.951
21
-102.13
0
LINE
8
BLACK
6
CONTINUOUS
10
119.361
20
-78.3619
11
119.761
21
-78.7619
0
LINE
8
BLACK
6
CONTINUOUS
10
119.761
20
-78.3619
11
119.361
21
-78.7619
0
LINE
8
BLACK
6
CONTINUOUS
10
119.409
20
-97.5166
11
119.809
21
-97.9166
0
LINE
8
BLACK
6
CONTINUOUS
10
119.809
20
-97.5166
11
119.409
21
-97.9166
0
LINE
8
BLACK
6
CONTINUOUS
10
119.63
20
-111.956
11
120.03
21
-112.356
0
LINE
8
BLACK
6
CONTINUOUS
10
120.03
20
-111.956
11
119.63
21
-112.356
0
LINE
8
BLACK
6
CONTINUOUS
10
119.715
20
-88.6385
11
120.115
21
-89.0385
0
LINE
8
BLACK
6
CONTINUOUS
10
120.115
20
-88.6385
11
119.715
21
-89.0385
0
LINE
8
BLACK
6
CONTINUOUS
10
119.895
20
-79.3105
11
120.295
21
-79.7105
0
LINE
8
BLACK
6
CONTINUOUS
10
120.295
20
-79.3105
11
119.895
21
-79.7105
0
LINE
8
BLACK
6
CONTINUOUS
10
120.034
20
-98.2976
11
120.434
21
-98.6976
0
LINE
8
BLACK
6
CONTINUOUS
10
120.434
20
-98.2976
11
120.034
21
-98.6976
0
LINE
8
BLACK
6
CONTINUOUS
10
120.196
20
-108.944
11
120.596
21
-109.344
0
LINE
8
BLACK
6
CONTINUOUS
10
120.596
20
-108.944
11
120.196
21
-109.344
0
LINE
8
BLACK
6
CONTINUOUS
10
120.353
20
-90.0901
11
120.753
21
-90.4901
0
LINE
8
BLACK
6
CONTINUOUS
10
120.753
20
-90.0901
11
120.353
21
-90.4901
0
LINE
8
BLACK
6
CONTINUOUS
10
121.364
20
-99.8252
11
121.764
21
-100.225
0
LINE
8
BLACK
6
CONTINUOUS
10
121.764
20
-99.8252
11
121.364
21
-100.225
0
LINE
8
BLACK
6
CONTINUOUS
10
121.371
20
-95.6637
11
121.771
21
-96.0637
0
LINE
8
BLACK
6
CONTINUOUS
10
121.771
20
-95.6637
11
121.371
21
-96.0637
0
LINE
8
BLACK
6
CONTINUOUS
10
121.432
20
-103.19
11
121.832
21
-103.59
0
LINE
8
BLACK
6
CONTINUOUS
10
121.832
20
-103.19
11
121.432
21
-103.59
0
LINE
8
BLACK
6
CONTINUOUS
10
121.877
20
-90.4613
11
122.277
21
-90.8613
0
LINE
8
BLACK
6
CONTINUOUS
10
122.277
20
-90.4613
11
121.877
21
-90.8613
0
LINE
8
BLACK
6
CONTINUOUS
10
121.918
20
-86.326
11
122.318
21
-86.726
0
LINE
8
BLACK
6
CONTINUOUS
10
122.318
20
-86.326
11
121.918
21
-86.726
0
LINE
8
BLACK
6
CONTINUOUS
10
122.002
20
-91.6117
11
122.402
21
-92.0117
0
LINE
8
BLACK
6
CONTINUOUS
10
122.402
20
-91.6117
11
122.002
21
-92.0117
0
LINE
8
BLACK
6
CONTINUOUS
10
122.011
20
-87.3218
11
122.411
21
-87.7218
0
LINE
8
BLACK
6
CONTINUOUS
10
122.411
20
-87.3218
11
122.011
21
-87.7218
0
LINE
8
BLACK
6
CONTINUOUS
10
122.098
20
-110.146
11
122.498
21
-110.546
0
LINE
8
BLACK
6
CONTINUOUS
10
122.498
20
-110.146
11
122.098
21
-110.546
0
LINE
8
BLACK
6
CONTINUOUS
10
122.205
20
-101.349
11
122.605
21
-101.749
0
LINE
8
BLACK
6
CONTINUOUS
10
122.605
20
-101.349
11
122.205
21
-101.749
0
LINE
8
BLACK
6
CONTINUOUS
10
122.295
20
-105.108
11
122.695
21
-105.508
0
LINE
8
BLACK
6
CONTINUOUS
10
122.695
20
-105.108
11
122.295
21
-105.508
0
LINE
8
BLACK
6
CONTINUOUS
10
122.672
20
-96.4038
11
123.072
21
-96.8038
0
LINE
8
BLACK
6
CONTINUOUS
10
123.072
20
-96.4038
11
122.672
21
-96.8038
0
LINE
8
BLACK
6
CONTINUOUS
10
122.777
20
-100.478
11
123.177
21
-100.878
0
LINE
8
BLACK
6
CONTINUOUS
10
123.177
20
-100.478
11
122.777
21
-100.878
0
LINE
8
BLACK
6
CONTINUOUS
10
123.015
20
-87.557
11
123.415
21
-87.957
0
LINE
8
BLACK
6
CONTINUOUS
10
123.415
20
-87.557
11
123.015
21
-87.957
0
LINE
8
BLACK
6
CONTINUOUS
10
123.142
20
-85.3472
11
123.542
21
-85.7472
0
LINE
8
BLACK
6
CONTINUOUS
10
123.542
20
-85.3472
11
123.142
21
-85.7472
0
LINE
8
BLACK
6
CONTINUOUS
10
123.142
20
-102.594
11
123.542
21
-102.994
0
LINE
8
BLACK
6
CONTINUOUS
10
123.542
20
-102.594
11
123.142
21
-102.994
0
LINE
8
BLACK
6
CONTINUOUS
10
123.28
20
-93.1907
11
123.68
21
-93.5907
0
LINE
8
BLACK
6
CONTINUOUS
10
123.68
20
-93.1907
11
123.28
21
-93.5907
0
LINE
8
BLACK
6
CONTINUOUS
10
123.461
20
-92.2003
11
123.861
21
-92.6003
0
LINE
8
BLACK
6
CONTINUOUS
10
123.861
20
-92.2003
11
123.461
21
-92.6003
0
LINE
8
BLACK
6
CONTINUOUS
10
123.706
20
-83.0535
11
124.106
21
-83.4535
0
LINE
8
BLACK
6
CONTINUOUS
10
124.106
20
-83.0535
11
123.706
21
-83.4535
0
LINE
8
BLACK
6
CONTINUOUS
10
124.207
20
-89.6185
11
124.607
21
-90.0185
0
LINE
8
BLACK
6
CONTINUOUS
10
124.607
20
-89.6185
11
124.207
21
-90.0185
0
LINE
8
BLACK
6
CONTINUOUS
10
124.365
20
-106.55
11
124.765
21
-106.95
0
LINE
8
BLACK
6
CONTINUOUS
10
124.765
20
-106.55
11
124.365
21
-106.95
0
LINE
8
BLACK
6
CONTINUOUS
10
124.573
20
-88.6881
11
124.973
21
-89.0881
0
LINE
8
BLACK
6
CONTINUOUS
10
124.973
20
-88.6881
11
124.573
21
-89.0881
0
LINE
8
BLACK
6
CONTINUOUS
10
124.742
20
-82.7689
11
125.142
21
-83.1689
0
LINE
8
BLACK
6
CONTINUOUS
10
125.142
20
-82.7689
11
124.742
21
-83.1689
0
LINE
8
BLACK
6
CONTINUOUS
10
124.879
20
-92.7141
11
125.279
21
-93.1141
0
LINE
8
BLACK
6
CONTINUOUS
10
125.279
20
-92.7141
11
124.879
21
-93.1141
0
LINE
8
BLACK
6
CONTINUOUS
10
124.934
20
-95.3843
11
125.334
21
-95.7843
0
LINE
8
BLACK
6
CONTINUOUS
10
125.334
20
-95.3843
11
124.934
21
-95.7843
0
LINE
8
BLACK
6
CONTINUOUS
10
126.114
20
-103.305
11
126.514
21
-103.705
0
LINE
8
BLACK
6
CONTINUOUS
10
126.514
20
-103.305
11
126.114
21
-103.705
0
LINE
8
BLACK
6
CONTINUOUS
10
127.257
20
-102.06
11
127.657
21
-102.46
0
LINE
8
BLACK
6
CONTINUOUS
10
127.657
20
-102.06
11
127.257
21
-102.46
0
LINE
8
BLACK
6
CONTINUOUS
10
127.537
20
-70.793
11
127.937
21
-71.193
0
LINE
8
BLACK
6
CONTINUOUS
10
127.937
20
-70.793
11
127.537
21
-71.193
0
LINE
8
BLACK
6
CONTINUOUS
10
127.791
20
-84.9408
11
128.191
21
-85.3408
0
LINE
8
BLACK
6
CONTINUOUS
10
128.191
20
-84.9408
11
127.791
21
-85.3408
0
LINE
8
BLACK
6
CONTINUOUS
10
129.111
20
-83.9248
11
129.511
21
-84.3248
0
LINE
8
BLACK
6
CONTINUOUS
10
129.511
20
-83.9248
11
129.111
21
-84.3248
0
LINE
8
BLACK
6
CONTINUOUS
10
129.492
20
-101.552
11
129.892
21
-101.952
0
LINE
8
BLACK
6
CONTINUOUS
10
129.892
20
-101.552
11
129.492
21
-101.952
0
LINE
8
BLACK
6
CONTINUOUS
10
130.623
20
-75.5174
11
131.023
21
-75.9174
0
LINE
8
BLACK
6
CONTINUOUS
10
131.023
20
-75.5174
11
130.623
21
-75.9174
0
LINE
8
BLACK
6
CONTINUOUS
10
130.623
20
-103.614
11
131.023
21
-104.014
0
LINE
8
BLACK
6
CONTINUOUS
10
131.023
20
-103.614
11
130.623
21
-104.014
0
LINE
8
BLACK
6
CONTINUOUS
10
131.169
20
-102.187
11
131.569
21
-102.587
0
LINE
8
BLACK
6
CONTINUOUS
10
131.569
20
-102.187
11
131.169
21
-102.587
0
LINE
8
BLACK
6
CONTINUOUS
10
132.21
20
-81.8166
11
132.61
21
-82.2166
0
LINE
8
BLACK
6
CONTINUOUS
10
132.61
20
-81.8166
11
132.21
21
-82.2166
0
LINE
8
BLACK
6
CONTINUOUS
10
133.887
20
-116.03
11
134.287
21
-116.43
0
LINE
8
BLACK
6
CONTINUOUS
10
134.287
20
-116.03
11
133.887
21
-116.43
0
LINE
8
BLACK
6
CONTINUOUS
10
135.614
20
-110.544
11
136.014
21
-110.944
0
LINE
8
BLACK
6
CONTINUOUS
10
136.014
20
-110.544
11
135.614
21
-110.944
0
LINE
8
BLACK
6
CONTINUOUS
10
136.325
20
-67.2116
11
136.725
21
-67.6116
0
LINE
8
BLACK
6
CONTINUOUS
10
136.725
20
-67.2116
11
136.325
21
-67.6116
0
LINE
8
BLACK
6
CONTINUOUS
10
136.376
20
-105.337
11
136.776
21
-105.737
0
LINE
8
BLACK
6
CONTINUOUS
10
136.776
20
-105.337
11
136.376
21
-105.737
0
LINE
8
BLACK
6
CONTINUOUS
10
136.452
20
-80.4704
11
136.852
21
-80.8704
0
LINE
8
BLACK
6
CONTINUOUS
10
136.852
20
-80.4704
11
136.452
21
-80.8704
0
LINE
8
BLACK
6
CONTINUOUS
10
137.468
20
-93.2212
11
137.868
21
-93.6212
0
LINE
8
BLACK
6
CONTINUOUS
10
137.868
20
-93.2212
11
137.468
21
-93.6212
0
LINE
8
BLACK
6
CONTINUOUS
10
137.887
20
-105.438
11
138.287
21
-105.838
0
LINE
8
BLACK
6
CONTINUOUS
10
138.287
20
-105.438
11
137.887
21
-105.838
0
LINE
8
BLACK
6
CONTINUOUS
10
138.89
20
-104.565
11
139.29
21
-104.965
0
LINE
8
BLACK
6
CONTINUOUS
10
139.29
20
-104.565
11
138.89
21
-104.965
0
LINE
8
BLACK
6
CONTINUOUS
10
139.043
20
-62.7412
11
139.443
21
-63.1412
0
LINE
8
BLACK
6
CONTINUOUS
10
139.443
20
-62.7412
11
139.043
21
-63.1412
0
LINE
8
BLACK
6
CONTINUOUS
10
140.392
20
-105.989
11
140.792
21
-106.389
0
LINE
8
BLACK
6
CONTINUOUS
10
140.792
20
-105.989
11
140.392
21
-106.389
0
LINE
8
BLACK
6
CONTINUOUS
10
140.567
20
-84.1788
11
140.967
21
-84.5788
0
LINE
8
BLACK
6
CONTINUOUS
10
140.967
20
-84.1788
11
140.567
21
-84.5788
0
LINE
8
BLACK
6
CONTINUOUS
10
140.846
20
-77.2009
11
141.246
21
-77.6009
0
LINE
8
BLACK
6
CONTINUOUS
10
141.246
20
-77.2009
11
140.846
21
-77.6009
0
LINE
8
BLACK
6
CONTINUOUS
10
141.675
20
-107.039
11
142.075
21
-107.439
0
LINE
8
BLACK
6
CONTINUOUS
10
142.075
20
-107.039
11
141.675
21
-107.439
0
LINE
8
BLACK
6
CONTINUOUS
10
142.319
20
-70.8692
11
142.719
21
-71.2692
0
LINE
8
BLACK
6
CONTINUOUS
10
142.719
20
-70.8692
11
142.319
21
-71.2692
0
LINE
8
BLACK
6
CONTINUOUS
10
142.624
20
-77.143
11
143.024
21
-77.543
0
LINE
8
BLACK
6
CONTINUOUS
10
143.024
20
-77.143
11
142.624
21
-77.543
0
LINE
8
BLACK
6
CONTINUOUS
10
142.802
20
-115.116
11
143.202
21
-115.516
0
LINE
8
BLACK
6
CONTINUOUS
10
143.202
20
-115.116
11
142.802
21
-115.516
0
LINE
8
BLACK
6
CONTINUOUS
10
143.031
20
-104.118
11
143.431
21
-104.518
0
LINE
8
BLACK
6
CONTINUOUS
10
143.431
20
-104.118
11
143.031
21
-104.518
0
LINE
8
BLACK
6
CONTINUOUS
10
143.531
20
-81.1523
11
143.931
21
-81.5523
0
LINE
8
BLACK
6
CONTINUOUS
10
143.931
20
-81.1523
11
143.531
21
-81.5523
0
LINE
8
BLACK
6
CONTINUOUS
10
145.06
20
-82.7308
11
145.46
21
-83.1308
0
LINE
8
BLACK
6
CONTINUOUS
10
145.46
20
-82.7308
11
145.06
21
-83.1308
0
LINE
8
BLACK
6
CONTINUOUS
10
145.342
20
-81.2578
11
145.742
21
-81.6578
0
LINE
8
BLACK
6
CONTINUOUS
10
145.742
20
-81.2578
11
145.342
21
-81.6578
0
LINE
8
BLACK
6
CONTINUOUS
10
145.342
20
-101.756
11
145.742
21
-102.156
0
LINE
8
BLACK
6
CONTINUOUS
10
145.742
20
-101.756
11
145.342
21
-102.156
0
LINE
8
BLACK
6
CONTINUOUS
10
145.647
20
-86.4648
11
146.047
21
-86.8648
0
LINE
8
BLACK
6
CONTINUOUS
10
146.047
20
-86.4648
11
145.647
21
-86.8648
0
LINE
8
BLACK
6
CONTINUOUS
10
145.698
20
-70.5136
11
146.098
21
-70.9136
0
LINE
8
BLACK
6
CONTINUOUS
10
146.098
20
-70.5136
11
145.698
21
-70.9136
0
LINE
8
BLACK
6
CONTINUOUS
10
145.749
20
-84.71
11
146.149
21
-85.11
0
LINE
8
BLACK
6
CONTINUOUS
10
146.149
20
-84.71
11
145.749
21
-85.11
0
LINE
8
BLACK
6
CONTINUOUS
10
146.345
20
-81.8277
11
146.745
21
-82.2277
0
LINE
8
BLACK
6
CONTINUOUS
10
146.745
20
-81.8277
11
146.345
21
-82.2277
0
LINE
8
BLACK
6
CONTINUOUS
10
147.076
20
-101.002
11
147.476
21
-101.402
0
LINE
8
BLACK
6
CONTINUOUS
10
147.476
20
-101.002
11
147.076
21
-101.402
0
LINE
8
BLACK
6
CONTINUOUS
10
147.972
20
-84.4543
11
148.372
21
-84.8543
0
LINE
8
BLACK
6
CONTINUOUS
10
148.372
20
-84.4543
11
147.972
21
-84.8543
0
LINE
8
BLACK
6
CONTINUOUS
10
148.314
20
-87.938
11
148.714
21
-88.338
0
LINE
8
BLACK
6
CONTINUOUS
10
148.714
20
-87.938
11
148.314
21
-88.338
0
LINE
8
BLACK
6
CONTINUOUS
10
148.796
20
-99.1394
11
149.196
21
-99.5394
0
LINE
8
BLACK
6
CONTINUOUS
10
149.196
20
-99.1394
11
148.796
21
-99.5394
0
LINE
8
BLACK
6
CONTINUOUS
10
149.383
20
-81.8007
11
149.783
21
-82.2007
0
LINE
8
BLACK
6
CONTINUOUS
10
149.783
20
-81.8007
11
149.383
21
-82.2007
0
LINE
8
BLACK
6
CONTINUOUS
10
149.406
20
-83.594
11
149.806
21
-83.994
0
LINE
8
BLACK
6
CONTINUOUS
10
149.806
20
-83.594
11
149.406
21
-83.994
0
LINE
8
BLACK
6
CONTINUOUS
10
149.965
20
-103.864
11
150.365
21
-104.264
0
LINE
8
BLACK
6
CONTINUOUS
10
150.365
20
-103.864
11
149.965
21
-104.264
0
LINE
8
BLACK
6
CONTINUOUS
10
150.015
20
-78.9675
11
150.415
21
-79.3675
0
LINE
8
BLACK
6
CONTINUOUS
10
150.415
20
-78.9675
11
150.015
21
-79.3675
0
LINE
8
BLACK
6
CONTINUOUS
10
150.328
20
-84.2005
11
150.728
21
-84.6005
0
LINE
8
BLACK
6
CONTINUOUS
10
150.728
20
-84.2005
11
150.328
21
-84.6005
0
LINE
8
BLACK
6
CONTINUOUS
10
150.383
20
-81.7912
11
150.783
21
-82.1912
0
LINE
8
BLACK
6
CONTINUOUS
10
150.783
20
-81.7912
11
150.383
21
-82.1912
0
LINE
8
BLACK
6
CONTINUOUS
10
151.032
20
-92.4846
11
151.432
21
-92.8846
0
LINE
8
BLACK
6
CONTINUOUS
10
151.432
20
-92.4846
11
151.032
21
-92.8846
0
LINE
8
BLACK
6
CONTINUOUS
10
151.082
20
-86.9982
11
151.482
21
-87.3982
0
LINE
8
BLACK
6
CONTINUOUS
10
151.482
20
-86.9982
11
151.082
21
-87.3982
0
LINE
8
BLACK
6
CONTINUOUS
10
151.413
20
-96.1676
11
151.813
21
-96.5676
0
LINE
8
BLACK
6
CONTINUOUS
10
151.813
20
-96.1676
11
151.413
21
-96.5676
0
LINE
8
BLACK
6
CONTINUOUS
10
152.172
20
-79.4411
11
152.572
21
-79.8411
0
LINE
8
BLACK
6
CONTINUOUS
10
152.572
20
-79.4411
11
152.172
21
-79.8411
0
LINE
8
BLACK
6
CONTINUOUS
10
152.617
20
-91.4732
11
153.017
21
-91.8732
0
LINE
8
BLACK
6
CONTINUOUS
10
153.017
20
-91.4732
11
152.617
21
-91.8732
0
LINE
8
BLACK
6
CONTINUOUS
10
152.737
20
-89.5232
11
153.137
21
-89.9232
0
LINE
8
BLACK
6
CONTINUOUS
10
153.137
20
-89.5232
11
152.737
21
-89.9232
0
LINE
8
BLACK
6
CONTINUOUS
10
152.886
20
-84.7884
11
153.286
21
-85.1884
0
LINE
8
BLACK
6
CONTINUOUS
10
153.286
20
-84.7884
11
152.886
21
-85.1884
0
LINE
8
BLACK
6
CONTINUOUS
10
153.8
20
-96.5486
11
154.2
21
-96.9486
0
LINE
8
BLACK
6
CONTINUOUS
10
154.2
20
-96.5486
11
153.8
21
-96.9486
0
LINE
8
BLACK
6
CONTINUOUS
10
153.876
20
-108.893
11
154.276
21
-109.293
0
LINE
8
BLACK
6
CONTINUOUS
10
154.276
20
-108.893
11
153.876
21
-109.293
0
LINE
8
BLACK
6
CONTINUOUS
10
153.902
20
-104.016
11
154.302
21
-104.416
0
LINE
8
BLACK
6
CONTINUOUS
10
154.302
20
-104.016
11
153.902
21
-104.416
0
LINE
8
BLACK
6
CONTINUOUS
10
154.997
20
-79.3366
11
155.397
21
-79.7366
0
LINE
8
BLACK
6
CONTINUOUS
10
155.397
20
-79.3366
11
154.997
21
-79.7366
0
LINE
8
BLACK
6
CONTINUOUS
10
155.263
20
-85.6738
11
155.663
21
-86.0738
0
LINE
8
BLACK
6
CONTINUOUS
10
155.663
20
-85.6738
11
155.263
21
-86.0738
0
LINE
8
BLACK
6
CONTINUOUS
10
155.273
20
-96.3708
11
155.673
21
-96.7708
0
LINE
8
BLACK
6
CONTINUOUS
10
155.673
20
-96.3708
11
155.273
21
-96.7708
0
LINE
8
BLACK
6
CONTINUOUS
10
155.553
20
-82.6802
11
155.953
21
-83.0802
0
LINE
8
BLACK
6
CONTINUOUS
10
155.953
20
-82.6802
11
155.553
21
-83.0802
0
LINE
8
BLACK
6
CONTINUOUS
10
155.718
20
-87.1072
11
156.118
21
-87.5072
0
LINE
8
BLACK
6
CONTINUOUS
10
156.118
20
-87.1072
11
155.718
21
-87.5072
0
LINE
8
BLACK
6
CONTINUOUS
10
156.137
20
-96.3708
11
156.537
21
-96.7708
0
LINE
8
BLACK
6
CONTINUOUS
10
156.537
20
-96.3708
11
156.137
21
-96.7708
0
LINE
8
BLACK
6
CONTINUOUS
10
157.173
20
-78.6289
11
157.573
21
-79.0289
0
LINE
8
BLACK
6
CONTINUOUS
10
157.573
20
-78.6289
11
157.173
21
-79.0289
0
LINE
8
BLACK
6
CONTINUOUS
10
158.147
20
-78.401
11
158.547
21
-78.801
0
LINE
8
BLACK
6
CONTINUOUS
10
158.547
20
-78.401
11
158.147
21
-78.801
0
LINE
8
BLACK
6
CONTINUOUS
10
158.55
20
-80.6482
11
158.95
21
-81.0482
0
LINE
8
BLACK
6
CONTINUOUS
10
158.95
20
-80.6482
11
158.55
21
-81.0482
0
LINE
8
BLACK
6
CONTINUOUS
10
158.753
20
-81.8674
11
159.153
21
-82.2674
0
LINE
8
BLACK
6
CONTINUOUS
10
159.153
20
-81.8674
11
158.753
21
-82.2674
0
LINE
8
BLACK
6
CONTINUOUS
10
159.332
20
-85.4609
11
159.732
21
-85.8609
0
LINE
8
BLACK
6
CONTINUOUS
10
159.732
20
-85.4609
11
159.332
21
-85.8609
0
LINE
8
BLACK
6
CONTINUOUS
10
160.049
20
-87.6078
11
160.449
21
-88.0078
0
LINE
8
BLACK
6
CONTINUOUS
10
160.449
20
-87.6078
11
160.049
21
-88.0078
0
LINE
8
BLACK
6
CONTINUOUS
10
161.954
20
-106.505
11
162.354
21
-106.905
0
LINE
8
BLACK
6
CONTINUOUS
10
162.354
20
-106.505
11
161.954
21
-106.905
0
LINE
8
BLACK
6
CONTINUOUS
10
162.233
20
-90.1224
11
162.633
21
-90.5224
0
LINE
8
BLACK
6
CONTINUOUS
10
162.633
20
-90.1224
11
162.233
21
-90.5224
0
LINE
8
BLACK
6
CONTINUOUS
10
162.335
20
-86.1346
11
162.735
21
-86.5346
0
LINE
8
BLACK
6
CONTINUOUS
10
162.735
20
-86.1346
11
162.335
21
-86.5346
0
LINE
8
BLACK
6
CONTINUOUS
10
164.29
20
-80.9022
11
164.69
21
-81.3022
0
LINE
8
BLACK
6
CONTINUOUS
10
164.69
20
-80.9022
11
164.29
21
-81.3022
0
LINE
8
BLACK
6
CONTINUOUS
10
164.29
20
-82.5786
11
164.69
21
-82.9786
0
LINE
8
BLACK
6
CONTINUOUS
10
164.69
20
-82.5786
11
164.29
21
-82.9786
0
LINE
8
BLACK
6
CONTINUOUS
10
164.849
20
-88.7762
11
165.249
21
-89.1762
0
LINE
8
BLACK
6
CONTINUOUS
10
165.249
20
-88.7762
11
164.849
21
-89.1762
0
LINE
8
BLACK
6
CONTINUOUS
10
165.459
20
-78.5654
11
165.859
21
-78.9654
0
LINE
8
BLACK
6
CONTINUOUS
10
165.859
20
-78.5654
11
165.459
21
-78.9654
0
LINE
8
BLACK
6
CONTINUOUS
10
167.745
20
-82.3754
11
168.145
21
-82.7754
0
LINE
8
BLACK
6
CONTINUOUS
10
168.145
20
-82.3754
11
167.745
21
-82.7754
0
LINE
8
BLACK
6
CONTINUOUS
10
170.844
20
-77.5748
11
171.244
21
-77.9748
0
LINE
8
BLACK
6
CONTINUOUS
10
171.244
20
-77.5748
11
170.844
21
-77.9748
0
CIRCLE
8
BLACK
10
109.957
20
-88.2396
40
0.325
0
CIRCLE
8
BLACK
10
109.957
20
-89.5096
40
0.325
0
CIRCLE
8
BLACK
10
111.227
20
-88.2396
40
0.325
0
CIRCLE
8
BLACK
10
111.227
20
-89.5096
40
0.325
0
CIRCLE
8
BLACK
10
112.497
20
-88.2396
40
0.325
0
CIRCLE
8
BLACK
10
112.497
20
-89.5096
40
0.325
0
CIRCLE
8
BLACK
10
113.767
20
-88.2396
40
0.325
0
CIRCLE
8
BLACK
10
113.767
20
-89.5096
40
0.325
0
CIRCLE
8
BLACK
10
115.037
20
-88.2396
40
0.325
0
CIRCLE
8
BLACK
10
115.037
20
-89.5096
40
0.325
0
CIRCLE
8
BLACK
10
118.11
20
-75.4888
40
0.325
0
CIRCLE
8
BLACK
10
119.38
20
-75.4888
40
0.325
0
LINE
8
BLACK
6
CONTINUOUS
10
106.702
20
-108.689
11
106.702
21
-110.209
0
LINE
8
BLACK
6
CONTINUOUS
10
105.942
20
-109.449
11
107.462
21
-109.449
0
LINE
8
BLACK
6
CONTINUOUS
10
103.279
20
-134.65
11
103.279
21
-132.65
0
LINE
8
BLACK
6
CONTINUOUS
10
103.279
20
-132.65
11
103.755
21
-132.65
0
LINE
8
BLACK
6
CONTINUOUS
10
103.755
20
-132.65
11
104.041
21
-132.745
0
LINE
8
BLACK
6
CONTINUOUS
10
104.041
20
-132.745
11
104.231
21
-132.935
0
LINE
8
BLACK
6
CONTINUOUS
10
104.231
20
-132.935
11
104.326
21
-133.126
0
LINE
8
BLACK
6
CONTINUOUS
10
104.326
20
-133.126
11
104.422
21
-133.507
0
LINE
8
BLACK
6
CONTINUOUS
10
104.422
20
-133.507
11
104.422
21
-133.792
0
LINE
8
BLACK
6
CONTINUOUS
10
104.422
20
-133.792
11
104.326
21
-134.173
0
LINE
8
BLACK
6
CONTINUOUS
10
104.326
20
-134.173
11
104.231
21
-134.364
0
LINE
8
BLACK
6
CONTINUOUS
10
104.231
20
-134.364
11
104.041
21
-134.554
0
LINE
8
BLACK
6
CONTINUOUS
10
104.041
20
-134.554
11
103.755
21
-134.65
0
LINE
8
BLACK
6
CONTINUOUS
10
103.755
20
-134.65
11
103.279
21
-134.65
0
LINE
8
BLACK
6
CONTINUOUS
10
105.279
20
-134.65
11
105.279
21
-133.316
0
LINE
8
BLACK
6
CONTINUOUS
10
105.279
20
-133.697
11
105.374
21
-133.507
0
LINE
8
BLACK
6
CONTINUOUS
10
105.374
20
-133.507
11
105.469
21
-133.411
0
LINE
8
BLACK
6
CONTINUOUS
10
105.469
20
-133.411
11
105.66
21
-133.316
0
LINE
8
BLACK
6
CONTINUOUS
10
105.66
20
-133.316
11
105.85
21
-133.316
0
LINE
8
BLACK
6
CONTINUOUS
10
106.517
20
-134.65
11
106.517
21
-133.316
0
LINE
8
BLACK
6
CONTINUOUS
10
106.517
20
-132.65
11
106.422
21
-132.745
0
LINE
8
BLACK
6
CONTINUOUS
10
106.422
20
-132.745
11
106.517
21
-132.84
0
LINE
8
BLACK
6
CONTINUOUS
10
106.517
20
-132.84
11
106.612
21
-132.745
0
LINE
8
BLACK
6
CONTINUOUS
10
106.612
20
-132.745
11
106.517
21
-132.65
0
LINE
8
BLACK
6
CONTINUOUS
10
106.517
20
-132.65
11
106.517
21
-132.84
0
LINE
8
BLACK
6
CONTINUOUS
10
107.755
20
-134.65
11
107.564
21
-134.554
0
LINE
8
BLACK
6
CONTINUOUS
10
107.564
20
-134.554
11
107.469
21
-134.364
0
LINE
8
BLACK
6
CONTINUOUS
10
107.469
20
-134.364
11
107.469
21
-132.65
0
LINE
8
BLACK
6
CONTINUOUS
10
108.803
20
-134.65
11
108.612
21
-134.554
0
LINE
8
BLACK
6
CONTINUOUS
10
108.612
20
-134.554
11
108.517
21
-134.364
0
LINE
8
BLACK
6
CONTINUOUS
10
108.517
20
-134.364
11
108.517
21
-132.65
0
LINE
8
BLACK
6
CONTINUOUS
10
111.088
20
-134.65
11
111.088
21
-132.65
0
LINE
8
BLACK
6
CONTINUOUS
10
111.088
20
-132.65
11
111.755
21
-134.078
0
LINE
8
BLACK
6
CONTINUOUS
10
111.755
20
-134.078
11
112.422
21
-132.65
0
LINE
8
BLACK
6
CONTINUOUS
10
112.422
20
-132.65
11
112.422
21
-134.65
0
LINE
8
BLACK
6
CONTINUOUS
10
114.231
20
-134.65
11
114.231
21
-133.602
0
LINE
8
BLACK
6
CONTINUOUS
10
114.231
20
-133.602
11
114.136
21
-133.411
0
LINE
8
BLACK
6
CONTINUOUS
10
114.136
20
-133.411
11
113.945
21
-133.316
0
LINE
8
BLACK
6
CONTINUOUS
10
113.945
20
-133.316
11
113.564
21
-133.316
0
LINE
8
BLACK
6
CONTINUOUS
10
113.564
20
-133.316
11
113.374
21
-133.411
0
LINE
8
BLACK
6
CONTINUOUS
10
114.231
20
-134.554
11
114.041
21
-134.65
0
LINE
8
BLACK
6
CONTINUOUS
10
114.041
20
-134.65
11
113.564
21
-134.65
0
LINE
8
BLACK
6
CONTINUOUS
10
113.564
20
-134.65
11
113.374
21
-134.554
0
LINE
8
BLACK
6
CONTINUOUS
10
113.374
20
-134.554
11
113.279
21
-134.364
0
LINE
8
BLACK
6
CONTINUOUS
10
113.279
20
-134.364
11
113.279
21
-134.173
0
LINE
8
BLACK
6
CONTINUOUS
10
113.279
20
-134.173
11
113.374
21
-133.983
0
LINE
8
BLACK
6
CONTINUOUS
10
113.374
20
-133.983
11
113.564
21
-133.888
0
LINE
8
BLACK
6
CONTINUOUS
10
113.564
20
-133.888
11
114.041
21
-133.888
0
LINE
8
BLACK
6
CONTINUOUS
10
114.041
20
-133.888
11
114.231
21
-133.792
0
LINE
8
BLACK
6
CONTINUOUS
10
115.184
20
-133.316
11
115.184
21
-135.316
0
LINE
8
BLACK
6
CONTINUOUS
10
115.184
20
-133.411
11
115.374
21
-133.316
0
LINE
8
BLACK
6
CONTINUOUS
10
115.374
20
-133.316
11
115.755
21
-133.316
0
LINE
8
BLACK
6
CONTINUOUS
10
115.755
20
-133.316
11
115.945
21
-133.411
0
LINE
8
BLACK
6
CONTINUOUS
10
115.945
20
-133.411
11
116.041
21
-133.507
0
LINE
8
BLACK
6
CONTINUOUS
10
116.041
20
-133.507
11
116.136
21
-133.697
0
LINE
8
BLACK
6
CONTINUOUS
10
116.136
20
-133.697
11
116.136
21
-134.269
0
LINE
8
BLACK
6
CONTINUOUS
10
116.136
20
-134.269
11
116.041
21
-134.459
0
LINE
8
BLACK
6
CONTINUOUS
10
116.041
20
-134.459
11
115.945
21
-134.554
0
LINE
8
BLACK
6
CONTINUOUS
10
115.945
20
-134.554
11
115.755
21
-134.65
0
LINE
8
BLACK
6
CONTINUOUS
10
115.755
20
-134.65
11
115.374
21
-134.65
0
LINE
8
BLACK
6
CONTINUOUS
10
115.374
20
-134.65
11
115.184
21
-134.554
0
LINE
8
BLACK
6
CONTINUOUS
10
116.993
20
-134.459
11
117.088
21
-134.554
0
LINE
8
BLACK
6
CONTINUOUS
10
117.088
20
-134.554
11
116.993
21
-134.65
0
LINE
8
BLACK
6
CONTINUOUS
10
116.993
20
-134.65
11
116.898
21
-134.554
0
LINE
8
BLACK
6
CONTINUOUS
10
116.898
20
-134.554
11
116.993
21
-134.459
0
LINE
8
BLACK
6
CONTINUOUS
10
116.993
20
-134.459
11
116.993
21
-134.65
0
LINE
8
BLACK
6
CONTINUOUS
10
116.993
20
-133.411
11
117.088
21
-133.507
0
LINE
8
BLACK
6
CONTINUOUS
10
117.088
20
-133.507
11
116.993
21
-133.602
0
LINE
8
BLACK
6
CONTINUOUS
10
116.993
20
-133.602
11
116.898
21
-133.507
0
LINE
8
BLACK
6
CONTINUOUS
10
116.898
20
-133.507
11
116.993
21
-133.411
0
LINE
8
BLACK
6
CONTINUOUS
10
116.993
20
-133.411
11
116.993
21
-133.602
0
LINE
8
BLACK
6
CONTINUOUS
10
100.271
20
-137.735
11
100.671
21
-138.135
0
LINE
8
BLACK
6
CONTINUOUS
10
100.671
20
-137.735
11
100.271
21
-138.135
0
LINE
8
BLACK
6
CONTINUOUS
10
103.66
20
-136.85
11
103.85
21
-136.85
0
LINE
8
BLACK
6
CONTINUOUS
10
103.85
20
-136.85
11
104.041
21
-136.945
0
LINE
8
BLACK
6
CONTINUOUS
10
104.041
20
-136.945
11
104.136
21
-137.04
0
LINE
8
BLACK
6
CONTINUOUS
10
104.136
20
-137.04
11
104.231
21
-137.23
0
LINE
8
BLACK
6
CONTINUOUS
10
104.231
20
-137.23
11
104.326
21
-137.611
0
LINE
8
BLACK
6
CONTINUOUS
10
104.326
20
-137.611
11
104.326
21
-138.088
0
LINE
8
BLACK
6
CONTINUOUS
10
104.326
20
-138.088
11
104.231
21
-138.469
0
LINE
8
BLACK
6
CONTINUOUS
10
104.231
20
-138.469
11
104.136
21
-138.659
0
LINE
8
BLACK
6
CONTINUOUS
10
104.136
20
-138.659
11
104.041
21
-138.754
0
LINE
8
BLACK
6
CONTINUOUS
10
104.041
20
-138.754
11
103.85
21
-138.85
0
LINE
8
BLACK
6
CONTINUOUS
10
103.85
20
-138.85
11
103.66
21
-138.85
0
LINE
8
BLACK
6
CONTINUOUS
10
103.66
20
-138.85
11
103.469
21
-138.754
0
LINE
8
BLACK
6
CONTINUOUS
10
103.469
20
-138.754
11
103.374
21
-138.659
0
LINE
8
BLACK
6
CONTINUOUS
10
103.374
20
-138.659
11
103.279
21
-138.469
0
LINE
8
BLACK
6
CONTINUOUS
10
103.279
20
-138.469
11
103.184
21
-138.088
0
LINE
8
BLACK
6
CONTINUOUS
10
103.184
20
-138.088
11
103.184
21
-137.611
0
LINE
8
BLACK
6
CONTINUOUS
10
103.184
20
-137.611
11
103.279
21
-137.23
0
LINE
8
BLACK
6
CONTINUOUS
10
103.279
20
-137.23
11
103.374
21
-137.04
0
LINE
8
BLACK
6
CONTINUOUS
10
103.374
20
-137.04
11
103.469
21
-136.945
0
LINE
8
BLACK
6
CONTINUOUS
10
103.469
20
-136.945
11
103.66
21
-136.85
0
LINE
8
BLACK
6
CONTINUOUS
10
105.184
20
-138.659
11
105.279
21
-138.754
0
LINE
8
BLACK
6
CONTINUOUS
10
105.279
20
-138.754
11
105.184
21
-138.85
0
LINE
8
BLACK
6
CONTINUOUS
10
105.184
20
-138.85
11
105.088
21
-138.754
0
LINE
8
BLACK
6
CONTINUOUS
10
105.088
20
-138.754
11
105.184
21
-138.659
0
LINE
8
BLACK
6
CONTINUOUS
10
105.184
20
-138.659
11
105.184
21
-138.85
0
LINE
8
BLACK
6
CONTINUOUS
10
106.993
20
-137.516
11
106.993
21
-138.85
0
LINE
8
BLACK
6
CONTINUOUS
10
106.517
20
-136.754
11
106.041
21
-138.183
0
LINE
8
BLACK
6
CONTINUOUS
10
106.041
20
-138.183
11
107.279
21
-138.183
0
LINE
8
BLACK
6
CONTINUOUS
10
108.422
20
-136.85
11
108.612
21
-136.85
0
LINE
8
BLACK
6
CONTINUOUS
10
108.612
20
-136.85
11
108.803
21
-136.945
0
LINE
8
BLACK
6
CONTINUOUS
10
108.803
20
-136.945
11
108.898
21
-137.04
0
LINE
8
BLACK
6
CONTINUOUS
10
108.898
20
-137.04
11
108.993
21
-137.23
0
LINE
8
BLACK
6
CONTINUOUS
10
108.993
20
-137.23
11
109.088
21
-137.611
0
LINE
8
BLACK
6
CONTINUOUS
10
109.088
20
-137.611
11
109.088
21
-138.088
0
LINE
8
BLACK
6
CONTINUOUS
10
109.088
20
-138.088
11
108.993
21
-138.469
0
LINE
8
BLACK
6
CONTINUOUS
10
108.993
20
-138.469
11
108.898
21
-138.659
0
LINE
8
BLACK
6
CONTINUOUS
10
108.898
20
-138.659
11
108.803
21
-138.754
0
LINE
8
BLACK
6
CONTINUOUS
10
108.803
20
-138.754
11
108.612
21
-138.85
0
LINE
8
BLACK
6
CONTINUOUS
10
108.612
20
-138.85
11
108.422
21
-138.85
0
LINE
8
BLACK
6
CONTINUOUS
10
108.422
20
-138.85
11
108.231
21
-138.754
0
LINE
8
BLACK
6
CONTINUOUS
10
108.231
20
-138.754
11
108.136
21
-138.659
0
LINE
8
BLACK
6
CONTINUOUS
10
108.136
20
-138.659
11
108.041
21
-138.469
0
LINE
8
BLACK
6
CONTINUOUS
10
108.041
20
-138.469
11
107.945
21
-138.088
0
LINE
8
BLACK
6
CONTINUOUS
10
107.945
20
-138.088
11
107.945
21
-137.611
0
LINE
8
BLACK
6
CONTINUOUS
10
107.945
20
-137.611
11
108.041
21
-137.23
0
LINE
8
BLACK
6
CONTINUOUS
10
108.041
20
-137.23
11
108.136
21
-137.04
0
LINE
8
BLACK
6
CONTINUOUS
10
108.136
20
-137.04
11
108.231
21
-136.945
0
LINE
8
BLACK
6
CONTINUOUS
10
108.231
20
-136.945
11
108.422
21
-136.85
0
LINE
8
BLACK
6
CONTINUOUS
10
110.326
20
-136.85
11
110.517
21
-136.85
0
LINE
8
BLACK
6
CONTINUOUS
10
110.517
20
-136.85
11
110.707
21
-136.945
0
LINE
8
BLACK
6
CONTINUOUS
10
110.707
20
-136.945
11
110.803
21
-137.04
0
LINE
8
BLACK
6
CONTINUOUS
10
110.803
20
-137.04
11
110.898
21
-137.23
0
LINE
8
BLACK
6
CONTINUOUS
10
110.898
20
-137.23
11
110.993
21
-137.611
0
LINE
8
BLACK
6
CONTINUOUS
10
110.993
20
-137.611
11
110.993
21
-138.088
0
LINE
8
BLACK
6
CONTINUOUS
10
110.993
20
-138.088
11
110.898
21
-138.469
0
LINE
8
BLACK
6
CONTINUOUS
10
110.898
20
-138.469
11
110.803
21
-138.659
0
LINE
8
BLACK
6
CONTINUOUS
10
110.803
20
-138.659
11
110.707
21
-138.754
0
LINE
8
BLACK
6
CONTINUOUS
10
110.707
20
-138.754
11
110.517
21
-138.85
0
LINE
8
BLACK
6
CONTINUOUS
10
110.517
20
-138.85
11
110.326
21
-138.85
0
LINE
8
BLACK
6
CONTINUOUS
10
110.326
20
-138.85
11
110.136
21
-138.754
0
LINE
8
BLACK
6
CONTINUOUS
10
110.136
20
-138.754
11
110.041
21
-138.659
0
LINE
8
BLACK
6
CONTINUOUS
10
110.041
20
-138.659
11
109.945
21
-138.469
0
LINE
8
BLACK
6
CONTINUOUS
10
109.945
20
-138.469
11
109.85
21
-138.088
0
LINE
8
BLACK
6
CONTINUOUS
10
109.85
20
-138.088
11
109.85
21
-137.611
0
LINE
8
BLACK
6
CONTINUOUS
10
109.85
20
-137.611
11
109.945
21
-137.23
0
LINE
8
BLACK
6
CONTINUOUS
10
109.945
20
-137.23
11
110.041
21
-137.04
0
LINE
8
BLACK
6
CONTINUOUS
10
110.041
20
-137.04
11
110.136
21
-136.945
0
LINE
8
BLACK
6
CONTINUOUS
10
110.136
20
-136.945
11
110.326
21
-136.85
0
LINE
8
BLACK
6
CONTINUOUS
10
111.85
20
-138.85
11
111.85
21
-137.516
0
LINE
8
BLACK
6
CONTINUOUS
10
111.85
20
-137.707
11
111.945
21
-137.611
0
LINE
8
BLACK
6
CONTINUOUS
10
111.945
20
-137.611
11
112.136
21
-137.516
0
LINE
8
BLACK
6
CONTINUOUS
10
112.136
20
-137.516
11
112.422
21
-137.516
0
LINE
8
BLACK
6
CONTINUOUS
10
112.422
20
-137.516
11
112.612
21
-137.611
0
LINE
8
BLACK
6
CONTINUOUS
10
112.612
20
-137.611
11
112.707
21
-137.802
0
LINE
8
BLACK
6
CONTINUOUS
10
112.707
20
-137.802
11
112.707
21
-138.85
0
LINE
8
BLACK
6
CONTINUOUS
10
112.707
20
-137.802
11
112.803
21
-137.611
0
LINE
8
BLACK
6
CONTINUOUS
10
112.803
20
-137.611
11
112.993
21
-137.516
0
LINE
8
BLACK
6
CONTINUOUS
10
112.993
20
-137.516
11
113.279
21
-137.516
0
LINE
8
BLACK
6
CONTINUOUS
10
113.279
20
-137.516
11
113.469
21
-137.611
0
LINE
8
BLACK
6
CONTINUOUS
10
113.469
20
-137.611
11
113.564
21
-137.802
0
LINE
8
BLACK
6
CONTINUOUS
10
113.564
20
-137.802
11
113.564
21
-138.85
0
LINE
8
BLACK
6
CONTINUOUS
10
114.517
20
-138.85
11
114.517
21
-137.516
0
LINE
8
BLACK
6
CONTINUOUS
10
114.517
20
-137.707
11
114.612
21
-137.611
0
LINE
8
BLACK
6
CONTINUOUS
10
114.612
20
-137.611
11
114.803
21
-137.516
0
LINE
8
BLACK
6
CONTINUOUS
10
114.803
20
-137.516
11
115.088
21
-137.516
0
LINE
8
BLACK
6
CONTINUOUS
10
115.088
20
-137.516
11
115.279
21
-137.611
0
LINE
8
BLACK
6
CONTINUOUS
10
115.279
20
-137.611
11
115.374
21
-137.802
0
LINE
8
BLACK
6
CONTINUOUS
10
115.374
20
-137.802
11
115.374
21
-138.85
0
LINE
8
BLACK
6
CONTINUOUS
10
115.374
20
-137.802
11
115.469
21
-137.611
0
LINE
8
BLACK
6
CONTINUOUS
10
115.469
20
-137.611
11
115.66
21
-137.516
0
LINE
8
BLACK
6
CONTINUOUS
10
115.66
20
-137.516
11
115.945
21
-137.516
0
LINE
8
BLACK
6
CONTINUOUS
10
115.945
20
-137.516
11
116.136
21
-137.611
0
LINE
8
BLACK
6
CONTINUOUS
10
116.136
20
-137.611
11
116.231
21
-137.802
0
LINE
8
BLACK
6
CONTINUOUS
10
116.231
20
-137.802
11
116.231
21
-138.85
0
LINE
8
BLACK
6
CONTINUOUS
10
120.136
20
-136.754
11
118.422
21
-139.326
0
LINE
8
BLACK
6
CONTINUOUS
10
122.707
20
-136.85
11
122.898
21
-136.85
0
LINE
8
BLACK
6
CONTINUOUS
10
122.898
20
-136.85
11
123.088
21
-136.945
0
LINE
8
BLACK
6
CONTINUOUS
10
123.088
20
-136.945
11
123.184
21
-137.04
0
LINE
8
BLACK
6
CONTINUOUS
10
123.184
20
-137.04
11
123.279
21
-137.23
0
LINE
8
BLACK
6
CONTINUOUS
10
123.279
20
-137.23
11
123.374
21
-137.611
0
LINE
8
BLACK
6
CONTINUOUS
10
123.374
20
-137.611
11
123.374
21
-138.088
0
LINE
8
BLACK
6
CONTINUOUS
10
123.374
20
-138.088
11
123.279
21
-138.469
0
LINE
8
BLACK
6
CONTINUOUS
10
123.279
20
-138.469
11
123.184
21
-138.659
0
LINE
8
BLACK
6
CONTINUOUS
10
123.184
20
-138.659
11
123.088
21
-138.754
0
LINE
8
BLACK
6
CONTINUOUS
10
123.088
20
-138.754
11
122.898
21
-138.85
0
LINE
8
BLACK
6
CONTINUOUS
10
122.898
20
-138.85
11
122.707
21
-138.85
0
LINE
8
BLACK
6
CONTINUOUS
10
122.707
20
-138.85
11
122.517
21
-138.754
0
LINE
8
BLACK
6
CONTINUOUS
10
122.517
20
-138.754
11
122.422
21
-138.659
0
LINE
8
BLACK
6
CONTINUOUS
10
122.422
20
-138.659
11
122.326
21
-138.469
0
LINE
8
BLACK
6
CONTINUOUS
10
122.326
20
-138.469
11
122.231
21
-138.088
0
LINE
8
BLACK
6
CONTINUOUS
10
122.231
20
-138.088
11
122.231
21
-137.611
0
LINE
8
BLACK
6
CONTINUOUS
10
122.231
20
-137.611
11
122.326
21
-137.23
0
LINE
8
BLACK
6
CONTINUOUS
10
122.326
20
-137.23
11
122.422
21
-137.04
0
LINE
8
BLACK
6
CONTINUOUS
10
122.422
20
-137.04
11
122.517
21
-136.945
0
LINE
8
BLACK
6
CONTINUOUS
10
122.517
20
-136.945
11
122.707
21
-136.85
0
LINE
8
BLACK
6
CONTINUOUS
10
124.231
20
-138.659
11
124.326
21
-138.754
0
LINE
8
BLACK
6
CONTINUOUS
10
124.326
20
-138.754
11
124.231
21
-138.85
0
LINE
8
BLACK
6
CONTINUOUS
10
124.231
20
-138.85
11
124.136
21
-138.754
0
LINE
8
BLACK
6
CONTINUOUS
10
124.136
20
-138.754
11
124.231
21
-138.659
0
LINE
8
BLACK
6
CONTINUOUS
10
124.231
20
-138.659
11
124.231
21
-138.85
0
LINE
8
BLACK
6
CONTINUOUS
10
125.564
20
-136.85
11
125.755
21
-136.85
0
LINE
8
BLACK
6
CONTINUOUS
10
125.755
20
-136.85
11
125.945
21
-136.945
0
LINE
8
BLACK
6
CONTINUOUS
10
125.945
20
-136.945
11
126.041
21
-137.04
0
LINE
8
BLACK
6
CONTINUOUS
10
126.041
20
-137.04
11
126.136
21
-137.23
0
LINE
8
BLACK
6
CONTINUOUS
10
126.136
20
-137.23
11
126.231
21
-137.611
0
LINE
8
BLACK
6
CONTINUOUS
10
126.231
20
-137.611
11
126.231
21
-138.088
0
LINE
8
BLACK
6
CONTINUOUS
10
126.231
20
-138.088
11
126.136
21
-138.469
0
LINE
8
BLACK
6
CONTINUOUS
10
126.136
20
-138.469
11
126.041
21
-138.659
0
LINE
8
BLACK
6
CONTINUOUS
10
126.041
20
-138.659
11
125.945
21
-138.754
0
LINE
8
BLACK
6
CONTINUOUS
10
125.945
20
-138.754
11
125.755
21
-138.85
0
LINE
8
BLACK
6
CONTINUOUS
10
125.755
20
-138.85
11
125.564
21
-138.85
0
LINE
8
BLACK
6
CONTINUOUS
10
125.564
20
-138.85
11
125.374
21
-138.754
0
LINE
8
BLACK
6
CONTINUOUS
10
125.374
20
-138.754
11
125.279
21
-138.659
0
LINE
8
BLACK
6
CONTINUOUS
10
125.279
20
-138.659
11
125.184
21
-138.469
0
LINE
8
BLACK
6
CONTINUOUS
10
125.184
20
-138.469
11
125.088
21
-138.088
0
LINE
8
BLACK
6
CONTINUOUS
10
125.088
20
-138.088
11
125.088
21
-137.611
0
LINE
8
BLACK
6
CONTINUOUS
10
125.088
20
-137.611
11
125.184
21
-137.23
0
LINE
8
BLACK
6
CONTINUOUS
10
125.184
20
-137.23
11
125.279
21
-137.04
0
LINE
8
BLACK
6
CONTINUOUS
10
125.279
20
-137.04
11
125.374
21
-136.945
0
LINE
8
BLACK
6
CONTINUOUS
10
125.374
20
-136.945
11
125.564
21
-136.85
0
LINE
8
BLACK
6
CONTINUOUS
10
128.136
20
-138.85
11
126.993
21
-138.85
0
LINE
8
BLACK
6
CONTINUOUS
10
127.564
20
-138.85
11
127.564
21
-136.85
0
LINE
8
BLACK
6
CONTINUOUS
10
127.564
20
-136.85
11
127.374
21
-137.135
0
LINE
8
BLACK
6
CONTINUOUS
10
127.374
20
-137.135
11
127.184
21
-137.326
0
LINE
8
BLACK
6
CONTINUOUS
10
127.184
20
-137.326
11
126.993
21
-137.421
0
LINE
8
BLACK
6
CONTINUOUS
10
129.945
20
-136.85
11
128.993
21
-136.85
0
LINE
8
BLACK
6
CONTINUOUS
10
128.993
20
-136.85
11
128.898
21
-137.802
0
LINE
8
BLACK
6
CONTINUOUS
10
128.898
20
-137.802
11
128.993
21
-137.707
0
LINE
8
BLACK
6
CONTINUOUS
10
128.993
20
-137.707
11
129.184
21
-137.611
0
LINE
8
BLACK
6
CONTINUOUS
10
129.184
20
-137.611
11
129.66
21
-137.611
0
LINE
8
BLACK
6
CONTINUOUS
10
129.66
20
-137.611
11
129.85
21
-137.707
0
LINE
8
BLACK
6
CONTINUOUS
10
129.85
20
-137.707
11
129.945
21
-137.802
0
LINE
8
BLACK
6
CONTINUOUS
10
129.945
20
-137.802
11
130.041
21
-137.992
0
LINE
8
BLACK
6
CONTINUOUS
10
130.041
20
-137.992
11
130.041
21
-138.469
0
LINE
8
BLACK
6
CONTINUOUS
10
130.041
20
-138.469
11
129.945
21
-138.659
0
LINE
8
BLACK
6
CONTINUOUS
10
129.945
20
-138.659
11
129.85
21
-138.754
0
LINE
8
BLACK
6
CONTINUOUS
10
129.85
20
-138.754
11
129.66
21
-138.85
0
LINE
8
BLACK
6
CONTINUOUS
10
129.66
20
-138.85
11
129.184
21
-138.85
0
LINE
8
BLACK
6
CONTINUOUS
10
129.184
20
-138.85
11
128.993
21
-138.754
0
LINE
8
BLACK
6
CONTINUOUS
10
128.993
20
-138.754
11
128.898
21
-138.659
0
LINE
8
BLACK
6
CONTINUOUS
10
130.707
20
-136.85
11
132.041
21
-136.85
0
LINE
8
BLACK
6
CONTINUOUS
10
132.041
20
-136.85
11
131.184
21
-138.85
0
LINE
8
BLACK
6
CONTINUOUS
10
132.707
20
-136.85
11
132.707
21
-137.23
0
LINE
8
BLACK
6
CONTINUOUS
10
133.469
20
-136.85
11
133.469
21
-137.23
0
LINE
8
BLACK
6
CONTINUOUS
10
136.422
20
-139.611
11
136.326
21
-139.516
0
LINE
8
BLACK
6
CONTINUOUS
10
136.326
20
-139.516
11
136.136
21
-139.23
0
LINE
8
BLACK
6
CONTINUOUS
10
136.136
20
-139.23
11
136.041
21
-139.04
0
LINE
8
BLACK
6
CONTINUOUS
10
136.041
20
-139.04
11
135.945
21
-138.754
0
LINE
8
BLACK
6
CONTINUOUS
10
135.945
20
-138.754
11
135.85
21
-138.278
0
LINE
8
BLACK
6
CONTINUOUS
10
135.85
20
-138.278
11
135.85
21
-137.897
0
LINE
8
BLACK
6
CONTINUOUS
10
135.85
20
-137.897
11
135.945
21
-137.421
0
LINE
8
BLACK
6
CONTINUOUS
10
135.945
20
-137.421
11
136.041
21
-137.135
0
LINE
8
BLACK
6
CONTINUOUS
10
136.041
20
-137.135
11
136.136
21
-136.945
0
LINE
8
BLACK
6
CONTINUOUS
10
136.136
20
-136.945
11
136.326
21
-136.659
0
LINE
8
BLACK
6
CONTINUOUS
10
136.326
20
-136.659
11
136.422
21
-136.564
0
LINE
8
BLACK
6
CONTINUOUS
10
138.231
20
-138.85
11
137.088
21
-138.85
0
LINE
8
BLACK
6
CONTINUOUS
10
137.66
20
-138.85
11
137.66
21
-136.85
0
LINE
8
BLACK
6
CONTINUOUS
10
137.66
20
-136.85
11
137.469
21
-137.135
0
LINE
8
BLACK
6
CONTINUOUS
10
137.469
20
-137.135
11
137.279
21
-137.326
0
LINE
8
BLACK
6
CONTINUOUS
10
137.279
20
-137.326
11
137.088
21
-137.421
0
LINE
8
BLACK
6
CONTINUOUS
10
138.898
20
-136.85
11
140.136
21
-136.85
0
LINE
8
BLACK
6
CONTINUOUS
10
140.136
20
-136.85
11
139.469
21
-137.611
0
LINE
8
BLACK
6
CONTINUOUS
10
139.469
20
-137.611
11
139.755
21
-137.611
0
LINE
8
BLACK
6
CONTINUOUS
10
139.755
20
-137.611
11
139.945
21
-137.707
0
LINE
8
BLACK
6
CONTINUOUS
10
139.945
20
-137.707
11
140.041
21
-137.802
0
LINE
8
BLACK
6
CONTINUOUS
10
140.041
20
-137.802
11
140.136
21
-137.992
0
LINE
8
BLACK
6
CONTINUOUS
10
140.136
20
-137.992
11
140.136
21
-138.469
0
LINE
8
BLACK
6
CONTINUOUS
10
140.136
20
-138.469
11
140.041
21
-138.659
0
LINE
8
BLACK
6
CONTINUOUS
10
140.041
20
-138.659
11
139.945
21
-138.754
0
LINE
8
BLACK
6
CONTINUOUS
10
139.945
20
-138.754
11
139.755
21
-138.85
0
LINE
8
BLACK
6
CONTINUOUS
10
139.755
20
-138.85
11
139.184
21
-138.85
0
LINE
8
BLACK
6
CONTINUOUS
10
139.184
20
-138.85
11
138.993
21
-138.754
0
LINE
8
BLACK
6
CONTINUOUS
10
138.993
20
-138.754
11
138.898
21
-138.659
0
LINE
8
BLACK
6
CONTINUOUS
10
140.803
20
-136.85
11
142.136
21
-136.85
0
LINE
8
BLACK
6
CONTINUOUS
10
142.136
20
-136.85
11
141.279
21
-138.85
0
LINE
8
BLACK
6
CONTINUOUS
10
144.422
20
-138.85
11
144.422
21
-136.85
0
LINE
8
BLACK
6
CONTINUOUS
10
145.279
20
-138.85
11
145.279
21
-137.802
0
LINE
8
BLACK
6
CONTINUOUS
10
145.279
20
-137.802
11
145.184
21
-137.611
0
LINE
8
BLACK
6
CONTINUOUS
10
145.184
20
-137.611
11
144.993
21
-137.516
0
LINE
8
BLACK
6
CONTINUOUS
10
144.993
20
-137.516
11
144.707
21
-137.516
0
LINE
8
BLACK
6
CONTINUOUS
10
144.707
20
-137.516
11
144.517
21
-137.611
0
LINE
8
BLACK
6
CONTINUOUS
10
144.517
20
-137.611
11
144.422
21
-137.707
0
LINE
8
BLACK
6
CONTINUOUS
10
146.517
20
-138.85
11
146.326
21
-138.754
0
LINE
8
BLACK
6
CONTINUOUS
10
146.326
20
-138.754
11
146.231
21
-138.659
0
LINE
8
BLACK
6
CONTINUOUS
10
146.231
20
-138.659
11
146.136
21
-138.469
0
LINE
8
BLACK
6
CONTINUOUS
10
146.136
20
-138.469
11
146.136
21
-137.897
0
LINE
8
BLACK
6
CONTINUOUS
10
146.136
20
-137.897
11
146.231
21
-137.707
0
LINE
8
BLACK
6
CONTINUOUS
10
146.231
20
-137.707
11
146.326
21
-137.611
0
LINE
8
BLACK
6
CONTINUOUS
10
146.326
20
-137.611
11
146.517
21
-137.516
0
LINE
8
BLACK
6
CONTINUOUS
10
146.517
20
-137.516
11
146.803
21
-137.516
0
LINE
8
BLACK
6
CONTINUOUS
10
146.803
20
-137.516
11
146.993
21
-137.611
0
LINE
8
BLACK
6
CONTINUOUS
10
146.993
20
-137.611
11
147.088
21
-137.707
0
LINE
8
BLACK
6
CONTINUOUS
10
147.088
20
-137.707
11
147.184
21
-137.897
0
LINE
8
BLACK
6
CONTINUOUS
10
147.184
20
-137.897
11
147.184
21
-138.469
0
LINE
8
BLACK
6
CONTINUOUS
10
147.184
20
-138.469
11
147.088
21
-138.659
0
LINE
8
BLACK
6
CONTINUOUS
10
147.088
20
-138.659
11
146.993
21
-138.754
0
LINE
8
BLACK
6
CONTINUOUS
10
146.993
20
-138.754
11
146.803
21
-138.85
0
LINE
8
BLACK
6
CONTINUOUS
10
146.803
20
-138.85
11
146.517
21
-138.85
0
LINE
8
BLACK
6
CONTINUOUS
10
148.326
20
-138.85
11
148.136
21
-138.754
0
LINE
8
BLACK
6
CONTINUOUS
10
148.136
20
-138.754
11
148.041
21
-138.564
0
LINE
8
BLACK
6
CONTINUOUS
10
148.041
20
-138.564
11
148.041
21
-136.85
0
LINE
8
BLACK
6
CONTINUOUS
10
149.85
20
-138.754
11
149.66
21
-138.85
0
LINE
8
BLACK
6
CONTINUOUS
10
149.66
20
-138.85
11
149.279
21
-138.85
0
LINE
8
BLACK
6
CONTINUOUS
10
149.279
20
-138.85
11
149.088
21
-138.754
0
LINE
8
BLACK
6
CONTINUOUS
10
149.088
20
-138.754
11
148.993
21
-138.564
0
LINE
8
BLACK
6
CONTINUOUS
10
148.993
20
-138.564
11
148.993
21
-137.802
0
LINE
8
BLACK
6
CONTINUOUS
10
148.993
20
-137.802
11
149.088
21
-137.611
0
LINE
8
BLACK
6
CONTINUOUS
10
149.088
20
-137.611
11
149.279
21
-137.516
0
LINE
8
BLACK
6
CONTINUOUS
10
149.279
20
-137.516
11
149.66
21
-137.516
0
LINE
8
BLACK
6
CONTINUOUS
10
149.66
20
-137.516
11
149.85
21
-137.611
0
LINE
8
BLACK
6
CONTINUOUS
10
149.85
20
-137.611
11
149.945
21
-137.802
0
LINE
8
BLACK
6
CONTINUOUS
10
149.945
20
-137.802
11
149.945
21
-137.992
0
LINE
8
BLACK
6
CONTINUOUS
10
149.945
20
-137.992
11
148.993
21
-138.183
0
LINE
8
BLACK
6
CONTINUOUS
10
150.707
20
-138.754
11
150.898
21
-138.85
0
LINE
8
BLACK
6
CONTINUOUS
10
150.898
20
-138.85
11
151.279
21
-138.85
0
LINE
8
BLACK
6
CONTINUOUS
10
151.279
20
-138.85
11
151.469
21
-138.754
0
LINE
8
BLACK
6
CONTINUOUS
10
151.469
20
-138.754
11
151.564
21
-138.564
0
LINE
8
BLACK
6
CONTINUOUS
10
151.564
20
-138.564
11
151.564
21
-138.469
0
LINE
8
BLACK
6
CONTINUOUS
10
151.564
20
-138.469
11
151.469
21
-138.278
0
LINE
8
BLACK
6
CONTINUOUS
10
151.469
20
-138.278
11
151.279
21
-138.183
0
LINE
8
BLACK
6
CONTINUOUS
10
151.279
20
-138.183
11
150.993
21
-138.183
0
LINE
8
BLACK
6
CONTINUOUS
10
150.993
20
-138.183
11
150.803
21
-138.088
0
LINE
8
BLACK
6
CONTINUOUS
10
150.803
20
-138.088
11
150.707
21
-137.897
0
LINE
8
BLACK
6
CONTINUOUS
10
150.707
20
-137.897
11
150.707
21
-137.802
0
LINE
8
BLACK
6
CONTINUOUS
10
150.707
20
-137.802
11
150.803
21
-137.611
0
LINE
8
BLACK
6
CONTINUOUS
10
150.803
20
-137.611
11
150.993
21
-137.516
0
LINE
8
BLACK
6
CONTINUOUS
10
150.993
20
-137.516
11
151.279
21
-137.516
0
LINE
8
BLACK
6
CONTINUOUS
10
151.279
20
-137.516
11
151.469
21
-137.611
0
LINE
8
BLACK
6
CONTINUOUS
10
152.231
20
-139.611
11
152.326
21
-139.516
0
LINE
8
BLACK
6
CONTINUOUS
10
152.326
20
-139.516
11
152.517
21
-139.23
0
LINE
8
BLACK
6
CONTINUOUS
10
152.517
20
-139.23
11
152.612
21
-139.04
0
LINE
8
BLACK
6
CONTINUOUS
10
152.612
20
-139.04
11
152.707
21
-138.754
0
LINE
8
BLACK
6
CONTINUOUS
10
152.707
20
-138.754
11
152.803
21
-138.278
0
LINE
8
BLACK
6
CONTINUOUS
10
152.803
20
-138.278
11
152.803
21
-137.897
0
LINE
8
BLACK
6
CONTINUOUS
10
152.803
20
-137.897
11
152.707
21
-137.421
0
LINE
8
BLACK
6
CONTINUOUS
10
152.707
20
-137.421
11
152.612
21
-137.135
0
LINE
8
BLACK
6
CONTINUOUS
10
152.612
20
-137.135
11
152.517
21
-136.945
0
LINE
8
BLACK
6
CONTINUOUS
10
152.517
20
-136.945
11
152.326
21
-136.659
0
LINE
8
BLACK
6
CONTINUOUS
10
152.326
20
-136.659
11
152.231
21
-136.564
0
CIRCLE
8
BLACK
10
100.346
20
-140.575
40
0.325
0
LINE
8
BLACK
6
CONTINUOUS
10
103.66
20
-139.49
11
103.85
21
-139.49
0
LINE
8
BLACK
6
CONTINUOUS
10
103.85
20
-139.49
11
104.041
21
-139.585
0
LINE
8
BLACK
6
CONTINUOUS
10
104.041
20
-139.585
11
104.136
21
-139.68
0
LINE
8
BLACK
6
CONTINUOUS
10
104.136
20
-139.68
11
104.231
21
-139.87
0
LINE
8
BLACK
6
CONTINUOUS
10
104.231
20
-139.87
11
104.326
21
-140.251
0
LINE
8
BLACK
6
CONTINUOUS
10
104.326
20
-140.251
11
104.326
21
-140.728
0
LINE
8
BLACK
6
CONTINUOUS
10
104.326
20
-140.728
11
104.231
21
-141.109
0
LINE
8
BLACK
6
CONTINUOUS
10
104.231
20
-141.109
11
104.136
21
-141.299
0
LINE
8
BLACK
6
CONTINUOUS
10
104.136
20
-141.299
11
104.041
21
-141.394
0
LINE
8
BLACK
6
CONTINUOUS
10
104.041
20
-141.394
11
103.85
21
-141.49
0
LINE
8
BLACK
6
CONTINUOUS
10
103.85
20
-141.49
11
103.66
21
-141.49
0
LINE
8
BLACK
6
CONTINUOUS
10
103.66
20
-141.49
11
103.469
21
-141.394
0
LINE
8
BLACK
6
CONTINUOUS
10
103.469
20
-141.394
11
103.374
21
-141.299
0
LINE
8
BLACK
6
CONTINUOUS
10
103.374
20
-141.299
11
103.279
21
-141.109
0
LINE
8
BLACK
6
CONTINUOUS
10
103.279
20
-141.109
11
103.184
21
-140.728
0
LINE
8
BLACK
6
CONTINUOUS
10
103.184
20
-140.728
11
103.184
21
-140.251
0
LINE
8
BLACK
6
CONTINUOUS
10
103.184
20
-140.251
11
103.279
21
-139.87
0
LINE
8
BLACK
6
CONTINUOUS
10
103.279
20
-139.87
11
103.374
21
-139.68
0
LINE
8
BLACK
6
CONTINUOUS
10
103.374
20
-139.68
11
103.469
21
-139.585
0
LINE
8
BLACK
6
CONTINUOUS
10
103.469
20
-139.585
11
103.66
21
-139.49
0
LINE
8
BLACK
6
CONTINUOUS
10
105.184
20
-141.299
11
105.279
21
-141.394
0
LINE
8
BLACK
6
CONTINUOUS
10
105.279
20
-141.394
11
105.184
21
-141.49
0
LINE
8
BLACK
6
CONTINUOUS
10
105.184
20
-141.49
11
105.088
21
-141.394
0
LINE
8
BLACK
6
CONTINUOUS
10
105.088
20
-141.394
11
105.184
21
-141.299
0
LINE
8
BLACK
6
CONTINUOUS
10
105.184
20
-141.299
11
105.184
21
-141.49
0
LINE
8
BLACK
6
CONTINUOUS
10
106.993
20
-139.49
11
106.612
21
-139.49
0
LINE
8
BLACK
6
CONTINUOUS
10
106.612
20
-139.49
11
106.422
21
-139.585
0
LINE
8
BLACK
6
CONTINUOUS
10
106.422
20
-139.585
11
106.326
21
-139.68
0
LINE
8
BLACK
6
CONTINUOUS
10
106.326
20
-139.68
11
106.136
21
-139.966
0
LINE
8
BLACK
6
CONTINUOUS
10
106.136
20
-139.966
11
106.041
21
-140.347
0
LINE
8
BLACK
6
CONTINUOUS
10
106.041
20
-140.347
11
106.041
21
-141.109
0
LINE
8
BLACK
6
CONTINUOUS
10
106.041
20
-141.109
11
106.136
21
-141.299
0
LINE
8
BLACK
6
CONTINUOUS
10
106.136
20
-141.299
11
106.231
21
-141.394
0
LINE
8
BLACK
6
CONTINUOUS
10
106.231
20
-141.394
11
106.422
21
-141.49
0
LINE
8
BLACK
6
CONTINUOUS
10
106.422
20
-141.49
11
106.803
21
-141.49
0
LINE
8
BLACK
6
CONTINUOUS
10
106.803
20
-141.49
11
106.993
21
-141.394
0
LINE
8
BLACK
6
CONTINUOUS
10
106.993
20
-141.394
11
107.088
21
-141.299
0
LINE
8
BLACK
6
CONTINUOUS
10
107.088
20
-141.299
11
107.184
21
-141.109
0
LINE
8
BLACK
6
CONTINUOUS
10
107.184
20
-141.109
11
107.184
21
-140.632
0
LINE
8
BLACK
6
CONTINUOUS
10
107.184
20
-140.632
11
107.088
21
-140.442
0
LINE
8
BLACK
6
CONTINUOUS
10
107.088
20
-140.442
11
106.993
21
-140.347
0
LINE
8
BLACK
6
CONTINUOUS
10
106.993
20
-140.347
11
106.803
21
-140.251
0
LINE
8
BLACK
6
CONTINUOUS
10
106.803
20
-140.251
11
106.422
21
-140.251
0
LINE
8
BLACK
6
CONTINUOUS
10
106.422
20
-140.251
11
106.231
21
-140.347
0
LINE
8
BLACK
6
CONTINUOUS
10
106.231
20
-140.347
11
106.136
21
-140.442
0
LINE
8
BLACK
6
CONTINUOUS
10
106.136
20
-140.442
11
106.041
21
-140.632
0
LINE
8
BLACK
6
CONTINUOUS
10
108.993
20
-139.49
11
108.041
21
-139.49
0
LINE
8
BLACK
6
CONTINUOUS
10
108.041
20
-139.49
11
107.945
21
-140.442
0
LINE
8
BLACK
6
CONTINUOUS
10
107.945
20
-140.442
11
108.041
21
-140.347
0
LINE
8
BLACK
6
CONTINUOUS
10
108.041
20
-140.347
11
108.231
21
-140.251
0
LINE
8
BLACK
6
CONTINUOUS
10
108.231
20
-140.251
11
108.707
21
-140.251
0
LINE
8
BLACK
6
CONTINUOUS
10
108.707
20
-140.251
11
108.898
21
-140.347
0
LINE
8
BLACK
6
CONTINUOUS
10
108.898
20
-140.347
11
108.993
21
-140.442
0
LINE
8
BLACK
6
CONTINUOUS
10
108.993
20
-140.442
11
109.088
21
-140.632
0
LINE
8
BLACK
6
CONTINUOUS
10
109.088
20
-140.632
11
109.088
21
-141.109
0
LINE
8
BLACK
6
CONTINUOUS
10
109.088
20
-141.109
11
108.993
21
-141.299
0
LINE
8
BLACK
6
CONTINUOUS
10
108.993
20
-141.299
11
108.898
21
-141.394
0
LINE
8
BLACK
6
CONTINUOUS
10
108.898
20
-141.394
11
108.707
21
-141.49
0
LINE
8
BLACK
6
CONTINUOUS
10
108.707
20
-141.49
11
108.231
21
-141.49
0
LINE
8
BLACK
6
CONTINUOUS
10
108.231
20
-141.49
11
108.041
21
-141.394
0
LINE
8
BLACK
6
CONTINUOUS
10
108.041
20
-141.394
11
107.945
21
-141.299
0
LINE
8
BLACK
6
CONTINUOUS
10
110.326
20
-139.49
11
110.517
21
-139.49
0
LINE
8
BLACK
6
CONTINUOUS
10
110.517
20
-139.49
11
110.707
21
-139.585
0
LINE
8
BLACK
6
CONTINUOUS
10
110.707
20
-139.585
11
110.803
21
-139.68
0
LINE
8
BLACK
6
CONTINUOUS
10
110.803
20
-139.68
11
110.898
21
-139.87
0
LINE
8
BLACK
6
CONTINUOUS
10
110.898
20
-139.87
11
110.993
21
-140.251
0
LINE
8
BLACK
6
CONTINUOUS
10
110.993
20
-140.251
11
110.993
21
-140.728
0
LINE
8
BLACK
6
CONTINUOUS
10
110.993
20
-140.728
11
110.898
21
-141.109
0
LINE
8
BLACK
6
CONTINUOUS
10
110.898
20
-141.109
11
110.803
21
-141.299
0
LINE
8
BLACK
6
CONTINUOUS
10
110.803
20
-141.299
11
110.707
21
-141.394
0
LINE
8
BLACK
6
CONTINUOUS
10
110.707
20
-141.394
11
110.517
21
-141.49
0
LINE
8
BLACK
6
CONTINUOUS
10
110.517
20
-141.49
11
110.326
21
-141.49
0
LINE
8
BLACK
6
CONTINUOUS
10
110.326
20
-141.49
11
110.136
21
-141.394
0
LINE
8
BLACK
6
CONTINUOUS
10
110.136
20
-141.394
11
110.041
21
-141.299
0
LINE
8
BLACK
6
CONTINUOUS
10
110.041
20
-141.299
11
109.945
21
-141.109
0
LINE
8
BLACK
6
CONTINUOUS
10
109.945
20
-141.109
11
109.85
21
-140.728
0
LINE
8
BLACK
6
CONTINUOUS
10
109.85
20
-140.728
11
109.85
21
-140.251
0
LINE
8
BLACK
6
CONTINUOUS
10
109.85
20
-140.251
11
109.945
21
-139.87
0
LINE
8
BLACK
6
CONTINUOUS
10
109.945
20
-139.87
11
110.041
21
-139.68
0
LINE
8
BLACK
6
CONTINUOUS
10
110.041
20
-139.68
11
110.136
21
-139.585
0
LINE
8
BLACK
6
CONTINUOUS
10
110.136
20
-139.585
11
110.326
21
-139.49
0
LINE
8
BLACK
6
CONTINUOUS
10
111.85
20
-141.49
11
111.85
21
-140.156
0
LINE
8
BLACK
6
CONTINUOUS
10
111.85
20
-140.347
11
111.945
21
-140.251
0
LINE
8
BLACK
6
CONTINUOUS
10
111.945
20
-140.251
11
112.136
21
-140.156
0
LINE
8
BLACK
6
CONTINUOUS
10
112.136
20
-140.156
11
112.422
21
-140.156
0
LINE
8
BLACK
6
CONTINUOUS
10
112.422
20
-140.156
11
112.612
21
-140.251
0
LINE
8
BLACK
6
CONTINUOUS
10
112.612
20
-140.251
11
112.707
21
-140.442
0
LINE
8
BLACK
6
CONTINUOUS
10
112.707
20
-140.442
11
112.707
21
-141.49
0
LINE
8
BLACK
6
CONTINUOUS
10
112.707
20
-140.442
11
112.803
21
-140.251
0
LINE
8
BLACK
6
CONTINUOUS
10
112.803
20
-140.251
11
112.993
21
-140.156
0
LINE
8
BLACK
6
CONTINUOUS
10
112.993
20
-140.156
11
113.279
21
-140.156
0
LINE
8
BLACK
6
CONTINUOUS
10
113.279
20
-140.156
11
113.469
21
-140.251
0
LINE
8
BLACK
6
CONTINUOUS
10
113.469
20
-140.251
11
113.564
21
-140.442
0
LINE
8
BLACK
6
CONTINUOUS
10
113.564
20
-140.442
11
113.564
21
-141.49
0
LINE
8
BLACK
6
CONTINUOUS
10
114.517
20
-141.49
11
114.517
21
-140.156
0
LINE
8
BLACK
6
CONTINUOUS
10
114.517
20
-140.347
11
114.612
21
-140.251
0
LINE
8
BLACK
6
CONTINUOUS
10
114.612
20
-140.251
11
114.803
21
-140.156
0
LINE
8
BLACK
6
CONTINUOUS
10
114.803
20
-140.156
11
115.088
21
-140.156
0
LINE
8
BLACK
6
CONTINUOUS
10
115.088
20
-140.156
11
115.279
21
-140.251
0
LINE
8
BLACK
6
CONTINUOUS
10
115.279
20
-140.251
11
115.374
21
-140.442
0
LINE
8
BLACK
6
CONTINUOUS
10
115.374
20
-140.442
11
115.374
21
-141.49
0
LINE
8
BLACK
6
CONTINUOUS
10
115.374
20
-140.442
11
115.469
21
-140.251
0
LINE
8
BLACK
6
CONTINUOUS
10
115.469
20
-140.251
11
115.66
21
-140.156
0
LINE
8
BLACK
6
CONTINUOUS
10
115.66
20
-140.156
11
115.945
21
-140.156
0
LINE
8
BLACK
6
CONTINUOUS
10
115.945
20
-140.156
11
116.136
21
-140.251
0
LINE
8
BLACK
6
CONTINUOUS
10
116.136
20
-140.251
11
116.231
21
-140.442
0
LINE
8
BLACK
6
CONTINUOUS
10
116.231
20
-140.442
11
116.231
21
-141.49
0
LINE
8
BLACK
6
CONTINUOUS
10
120.136
20
-139.394
11
118.422
21
-141.966
0
LINE
8
BLACK
6
CONTINUOUS
10
122.707
20
-139.49
11
122.898
21
-139.49
0
LINE
8
BLACK
6
CONTINUOUS
10
122.898
20
-139.49
11
123.088
21
-139.585
0
LINE
8
BLACK
6
CONTINUOUS
10
123.088
20
-139.585
11
123.184
21
-139.68
0
LINE
8
BLACK
6
CONTINUOUS
10
123.184
20
-139.68
11
123.279
21
-139.87
0
LINE
8
BLACK
6
CONTINUOUS
10
123.279
20
-139.87
11
123.374
21
-140.251
0
LINE
8
BLACK
6
CONTINUOUS
10
123.374
20
-140.251
11
123.374
21
-140.728
0
LINE
8
BLACK
6
CONTINUOUS
10
123.374
20
-140.728
11
123.279
21
-141.109
0
LINE
8
BLACK
6
CONTINUOUS
10
123.279
20
-141.109
11
123.184
21
-141.299
0
LINE
8
BLACK
6
CONTINUOUS
10
123.184
20
-141.299
11
123.088
21
-141.394
0
LINE
8
BLACK
6
CONTINUOUS
10
123.088
20
-141.394
11
122.898
21
-141.49
0
LINE
8
BLACK
6
CONTINUOUS
10
122.898
20
-141.49
11
122.707
21
-141.49
0
LINE
8
BLACK
6
CONTINUOUS
10
122.707
20
-141.49
11
122.517
21
-141.394
0
LINE
8
BLACK
6
CONTINUOUS
10
122.517
20
-141.394
11
122.422
21
-141.299
0
LINE
8
BLACK
6
CONTINUOUS
10
122.422
20
-141.299
11
122.326
21
-141.109
0
LINE
8
BLACK
6
CONTINUOUS
10
122.326
20
-141.109
11
122.231
21
-140.728
0
LINE
8
BLACK
6
CONTINUOUS
10
122.231
20
-140.728
11
122.231
21
-140.251
0
LINE
8
BLACK
6
CONTINUOUS
10
122.231
20
-140.251
11
122.326
21
-139.87
0
LINE
8
BLACK
6
CONTINUOUS
10
122.326
20
-139.87
11
122.422
21
-139.68
0
LINE
8
BLACK
6
CONTINUOUS
10
122.422
20
-139.68
11
122.517
21
-139.585
0
LINE
8
BLACK
6
CONTINUOUS
10
122.517
20
-139.585
11
122.707
21
-139.49
0
LINE
8
BLACK
6
CONTINUOUS
10
124.231
20
-141.299
11
124.326
21
-141.394
0
LINE
8
BLACK
6
CONTINUOUS
10
124.326
20
-141.394
11
124.231
21
-141.49
0
LINE
8
BLACK
6
CONTINUOUS
10
124.231
20
-141.49
11
124.136
21
-141.394
0
LINE
8
BLACK
6
CONTINUOUS
10
124.136
20
-141.394
11
124.231
21
-141.299
0
LINE
8
BLACK
6
CONTINUOUS
10
124.231
20
-141.299
11
124.231
21
-141.49
0
LINE
8
BLACK
6
CONTINUOUS
10
125.564
20
-139.49
11
125.755
21
-139.49
0
LINE
8
BLACK
6
CONTINUOUS
10
125.755
20
-139.49
11
125.945
21
-139.585
0
LINE
8
BLACK
6
CONTINUOUS
10
125.945
20
-139.585
11
126.041
21
-139.68
0
LINE
8
BLACK
6
CONTINUOUS
10
126.041
20
-139.68
11
126.136
21
-139.87
0
LINE
8
BLACK
6
CONTINUOUS
10
126.136
20
-139.87
11
126.231
21
-140.251
0
LINE
8
BLACK
6
CONTINUOUS
10
126.231
20
-140.251
11
126.231
21
-140.728
0
LINE
8
BLACK
6
CONTINUOUS
10
126.231
20
-140.728
11
126.136
21
-141.109
0
LINE
8
BLACK
6
CONTINUOUS
10
126.136
20
-141.109
11
126.041
21
-141.299
0
LINE
8
BLACK
6
CONTINUOUS
10
126.041
20
-141.299
11
125.945
21
-141.394
0
LINE
8
BLACK
6
CONTINUOUS
10
125.945
20
-141.394
11
125.755
21
-141.49
0
LINE
8
BLACK
6
CONTINUOUS
10
125.755
20
-141.49
11
125.564
21
-141.49
0
LINE
8
BLACK
6
CONTINUOUS
10
125.564
20
-141.49
11
125.374
21
-141.394
0
LINE
8
BLACK
6
CONTINUOUS
10
125.374
20
-141.394
11
125.279
21
-141.299
0
LINE
8
BLACK
6
CONTINUOUS
10
125.279
20
-141.299
11
125.184
21
-141.109
0
LINE
8
BLACK
6
CONTINUOUS
10
125.184
20
-141.109
11
125.088
21
-140.728
0
LINE
8
BLACK
6
CONTINUOUS
10
125.088
20
-140.728
11
125.088
21
-140.251
0
LINE
8
BLACK
6
CONTINUOUS
10
125.088
20
-140.251
11
125.184
21
-139.87
0
LINE
8
BLACK
6
CONTINUOUS
10
125.184
20
-139.87
11
125.279
21
-139.68
0
LINE
8
BLACK
6
CONTINUOUS
10
125.279
20
-139.68
11
125.374
21
-139.585
0
LINE
8
BLACK
6
CONTINUOUS
10
125.374
20
-139.585
11
125.564
21
-139.49
0
LINE
8
BLACK
6
CONTINUOUS
10
126.993
20
-139.68
11
127.088
21
-139.585
0
LINE
8
BLACK
6
CONTINUOUS
10
127.088
20
-139.585
11
127.279
21
-139.49
0
LINE
8
BLACK
6
CONTINUOUS
10
127.279
20
-139.49
11
127.755
21
-139.49
0
LINE
8
BLACK
6
CONTINUOUS
10
127.755
20
-139.49
11
127.945
21
-139.585
0
LINE
8
BLACK
6
CONTINUOUS
10
127.945
20
-139.585
11
128.041
21
-139.68
0
LINE
8
BLACK
6
CONTINUOUS
10
128.041
20
-139.68
11
128.136
21
-139.87
0
LINE
8
BLACK
6
CONTINUOUS
10
128.136
20
-139.87
11
128.136
21
-140.061
0
LINE
8
BLACK
6
CONTINUOUS
10
128.136
20
-140.061
11
128.041
21
-140.347
0
LINE
8
BLACK
6
CONTINUOUS
10
128.041
20
-140.347
11
126.898
21
-141.49
0
LINE
8
BLACK
6
CONTINUOUS
10
126.898
20
-141.49
11
128.136
21
-141.49
0
LINE
8
BLACK
6
CONTINUOUS
10
129.945
20
-139.49
11
128.993
21
-139.49
0
LINE
8
BLACK
6
CONTINUOUS
10
128.993
20
-139.49
11
128.898
21
-140.442
0
LINE
8
BLACK
6
CONTINUOUS
10
128.898
20
-140.442
11
128.993
21
-140.347
0
LINE
8
BLACK
6
CONTINUOUS
10
128.993
20
-140.347
11
129.184
21
-140.251
0
LINE
8
BLACK
6
CONTINUOUS
10
129.184
20
-140.251
11
129.66
21
-140.251
0
LINE
8
BLACK
6
CONTINUOUS
10
129.66
20
-140.251
11
129.85
21
-140.347
0
LINE
8
BLACK
6
CONTINUOUS
10
129.85
20
-140.347
11
129.945
21
-140.442
0
LINE
8
BLACK
6
CONTINUOUS
10
129.945
20
-140.442
11
130.041
21
-140.632
0
LINE
8
BLACK
6
CONTINUOUS
10
130.041
20
-140.632
11
130.041
21
-141.109
0
LINE
8
BLACK
6
CONTINUOUS
10
130.041
20
-141.109
11
129.945
21
-141.299
0
LINE
8
BLACK
6
CONTINUOUS
10
129.945
20
-141.299
11
129.85
21
-141.394
0
LINE
8
BLACK
6
CONTINUOUS
10
129.85
20
-141.394
11
129.66
21
-141.49
0
LINE
8
BLACK
6
CONTINUOUS
10
129.66
20
-141.49
11
129.184
21
-141.49
0
LINE
8
BLACK
6
CONTINUOUS
10
129.184
20
-141.49
11
128.993
21
-141.394
0
LINE
8
BLACK
6
CONTINUOUS
10
128.993
20
-141.394
11
128.898
21
-141.299
0
LINE
8
BLACK
6
CONTINUOUS
10
131.755
20
-139.49
11
131.374
21
-139.49
0
LINE
8
BLACK
6
CONTINUOUS
10
131.374
20
-139.49
11
131.184
21
-139.585
0
LINE
8
BLACK
6
CONTINUOUS
10
131.184
20
-139.585
11
131.088
21
-139.68
0
LINE
8
BLACK
6
CONTINUOUS
10
131.088
20
-139.68
11
130.898
21
-139.966
0
LINE
8
BLACK
6
CONTINUOUS
10
130.898
20
-139.966
11
130.803
21
-140.347
0
LINE
8
BLACK
6
CONTINUOUS
10
130.803
20
-140.347
11
130.803
21
-141.109
0
LINE
8
BLACK
6
CONTINUOUS
10
130.803
20
-141.109
11
130.898
21
-141.299
0
LINE
8
BLACK
6
CONTINUOUS
10
130.898
20
-141.299
11
130.993
21
-141.394
0
LINE
8
BLACK
6
CONTINUOUS
10
130.993
20
-141.394
11
131.184
21
-141.49
0
LINE
8
BLACK
6
CONTINUOUS
10
131.184
20
-141.49
11
131.564
21
-141.49
0
LINE
8
BLACK
6
CONTINUOUS
10
131.564
20
-141.49
11
131.755
21
-141.394
0
LINE
8
BLACK
6
CONTINUOUS
10
131.755
20
-141.394
11
131.85
21
-141.299
0
LINE
8
BLACK
6
CONTINUOUS
10
131.85
20
-141.299
11
131.945
21
-141.109
0
LINE
8
BLACK
6
CONTINUOUS
10
131.945
20
-141.109
11
131.945
21
-140.632
0
LINE
8
BLACK
6
CONTINUOUS
10
131.945
20
-140.632
11
131.85
21
-140.442
0
LINE
8
BLACK
6
CONTINUOUS
10
131.85
20
-140.442
11
131.755
21
-140.347
0
LINE
8
BLACK
6
CONTINUOUS
10
131.755
20
-140.347
11
131.564
21
-140.251
0
LINE
8
BLACK
6
CONTINUOUS
10
131.564
20
-140.251
11
131.184
21
-140.251
0
LINE
8
BLACK
6
CONTINUOUS
10
131.184
20
-140.251
11
130.993
21
-140.347
0
LINE
8
BLACK
6
CONTINUOUS
10
130.993
20
-140.347
11
130.898
21
-140.442
0
LINE
8
BLACK
6
CONTINUOUS
10
130.898
20
-140.442
11
130.803
21
-140.632
0
LINE
8
BLACK
6
CONTINUOUS
10
132.707
20
-139.49
11
132.707
21
-139.87
0
LINE
8
BLACK
6
CONTINUOUS
10
133.469
20
-139.49
11
133.469
21
-139.87
0
LINE
8
BLACK
6
CONTINUOUS
10
136.422
20
-142.251
11
136.326
21
-142.156
0
LINE
8
BLACK
6
CONTINUOUS
10
136.326
20
-142.156
11
136.136
21
-141.87
0
LINE
8
BLACK
6
CONTINUOUS
10
136.136
20
-141.87
11
136.041
21
-141.68
0
LINE
8
BLACK
6
CONTINUOUS
10
136.041
20
-141.68
11
135.945
21
-141.394
0
LINE
8
BLACK
6
CONTINUOUS
10
135.945
20
-141.394
11
135.85
21
-140.918
0
LINE
8
BLACK
6
CONTINUOUS
10
135.85
20
-140.918
11
135.85
21
-140.537
0
LINE
8
BLACK
6
CONTINUOUS
10
135.85
20
-140.537
11
135.945
21
-140.061
0
LINE
8
BLACK
6
CONTINUOUS
10
135.945
20
-140.061
11
136.041
21
-139.775
0
LINE
8
BLACK
6
CONTINUOUS
10
136.041
20
-139.775
11
136.136
21
-139.585
0
LINE
8
BLACK
6
CONTINUOUS
10
136.136
20
-139.585
11
136.326
21
-139.299
0
LINE
8
BLACK
6
CONTINUOUS
10
136.326
20
-139.299
11
136.422
21
-139.204
0
LINE
8
BLACK
6
CONTINUOUS
10
138.231
20
-141.49
11
137.088
21
-141.49
0
LINE
8
BLACK
6
CONTINUOUS
10
137.66
20
-141.49
11
137.66
21
-139.49
0
LINE
8
BLACK
6
CONTINUOUS
10
137.66
20
-139.49
11
137.469
21
-139.775
0
LINE
8
BLACK
6
CONTINUOUS
10
137.469
20
-139.775
11
137.279
21
-139.966
0
LINE
8
BLACK
6
CONTINUOUS
10
137.279
20
-139.966
11
137.088
21
-140.061
0
LINE
8
BLACK
6
CONTINUOUS
10
138.993
20
-139.68
11
139.088
21
-139.585
0
LINE
8
BLACK
6
CONTINUOUS
10
139.088
20
-139.585
11
139.279
21
-139.49
0
LINE
8
BLACK
6
CONTINUOUS
10
139.279
20
-139.49
11
139.755
21
-139.49
0
LINE
8
BLACK
6
CONTINUOUS
10
139.755
20
-139.49
11
139.945
21
-139.585
0
LINE
8
BLACK
6
CONTINUOUS
10
139.945
20
-139.585
11
140.041
21
-139.68
0
LINE
8
BLACK
6
CONTINUOUS
10
140.041
20
-139.68
11
140.136
21
-139.87
0
LINE
8
BLACK
6
CONTINUOUS
10
140.136
20
-139.87
11
140.136
21
-140.061
0
LINE
8
BLACK
6
CONTINUOUS
10
140.136
20
-140.061
11
140.041
21
-140.347
0
LINE
8
BLACK
6
CONTINUOUS
10
140.041
20
-140.347
11
138.898
21
-141.49
0
LINE
8
BLACK
6
CONTINUOUS
10
138.898
20
-141.49
11
140.136
21
-141.49
0
LINE
8
BLACK
6
CONTINUOUS
10
142.517
20
-141.49
11
142.517
21
-139.49
0
LINE
8
BLACK
6
CONTINUOUS
10
143.374
20
-141.49
11
143.374
21
-140.442
0
LINE
8
BLACK
6
CONTINUOUS
10
143.374
20
-140.442
11
143.279
21
-140.251
0
LINE
8
BLACK
6
CONTINUOUS
10
143.279
20
-140.251
11
143.088
21
-140.156
0
LINE
8
BLACK
6
CONTINUOUS
10
143.088
20
-140.156
11
142.803
21
-140.156
0
LINE
8
BLACK
6
CONTINUOUS
10
142.803
20
-140.156
11
142.612
21
-140.251
0
LINE
8
BLACK
6
CONTINUOUS
10
142.612
20
-140.251
11
142.517
21
-140.347
0
LINE
8
BLACK
6
CONTINUOUS
10
144.612
20
-141.49
11
144.422
21
-141.394
0
LINE
8
BLACK
6
CONTINUOUS
10
144.422
20
-141.394
11
144.326
21
-141.299
0
LINE
8
BLACK
6
CONTINUOUS
10
144.326
20
-141.299
11
144.231
21
-141.109
0
LINE
8
BLACK
6
CONTINUOUS
10
144.231
20
-141.109
11
144.231
21
-140.537
0
LINE
8
BLACK
6
CONTINUOUS
10
144.231
20
-140.537
11
144.326
21
-140.347
0
LINE
8
BLACK
6
CONTINUOUS
10
144.326
20
-140.347
11
144.422
21
-140.251
0
LINE
8
BLACK
6
CONTINUOUS
10
144.422
20
-140.251
11
144.612
21
-140.156
0
LINE
8
BLACK
6
CONTINUOUS
10
144.612
20
-140.156
11
144.898
21
-140.156
0
LINE
8
BLACK
6
CONTINUOUS
10
144.898
20
-140.156
11
145.088
21
-140.251
0
LINE
8
BLACK
6
CONTINUOUS
10
145.088
20
-140.251
11
145.184
21
-140.347
0
LINE
8
BLACK
6
CONTINUOUS
10
145.184
20
-140.347
11
145.279
21
-140.537
0
LINE
8
BLACK
6
CONTINUOUS
10
145.279
20
-140.537
11
145.279
21
-141.109
0
LINE
8
BLACK
6
CONTINUOUS
10
145.279
20
-141.109
11
145.184
21
-141.299
0
LINE
8
BLACK
6
CONTINUOUS
10
145.184
20
-141.299
11
145.088
21
-141.394
0
LINE
8
BLACK
6
CONTINUOUS
10
145.088
20
-141.394
11
144.898
21
-141.49
0
LINE
8
BLACK
6
CONTINUOUS
10
144.898
20
-141.49
11
144.612
21
-141.49
0
LINE
8
BLACK
6
CONTINUOUS
10
146.422
20
-141.49
11
146.231
21
-141.394
0
LINE
8
BLACK
6
CONTINUOUS
10
146.231
20
-141.394
11
146.136
21
-141.204
0
LINE
8
BLACK
6
CONTINUOUS
10
146.136
20
-141.204
11
146.136
21
-139.49
0
LINE
8
BLACK
6
CONTINUOUS
10
147.945
20
-141.394
11
147.755
21
-141.49
0
LINE
8
BLACK
6
CONTINUOUS
10
147.755
20
-141.49
11
147.374
21
-141.49
0
LINE
8
BLACK
6
CONTINUOUS
10
147.374
20
-141.49
11
147.184
21
-141.394
0
LINE
8
BLACK
6
CONTINUOUS
10
147.184
20
-141.394
11
147.088
21
-141.204
0
LINE
8
BLACK
6
CONTINUOUS
10
147.088
20
-141.204
11
147.088
21
-140.442
0
LINE
8
BLACK
6
CONTINUOUS
10
147.088
20
-140.442
11
147.184
21
-140.251
0
LINE
8
BLACK
6
CONTINUOUS
10
147.184
20
-140.251
11
147.374
21
-140.156
0
LINE
8
BLACK
6
CONTINUOUS
10
147.374
20
-140.156
11
147.755
21
-140.156
0
LINE
8
BLACK
6
CONTINUOUS
10
147.755
20
-140.156
11
147.945
21
-140.251
0
LINE
8
BLACK
6
CONTINUOUS
10
147.945
20
-140.251
11
148.041
21
-140.442
0
LINE
8
BLACK
6
CONTINUOUS
10
148.041
20
-140.442
11
148.041
21
-140.632
0
LINE
8
BLACK
6
CONTINUOUS
10
148.041
20
-140.632
11
147.088
21
-140.823
0
LINE
8
BLACK
6
CONTINUOUS
10
148.803
20
-141.394
11
148.993
21
-141.49
0
LINE
8
BLACK
6
CONTINUOUS
10
148.993
20
-141.49
11
149.374
21
-141.49
0
LINE
8
BLACK
6
CONTINUOUS
10
149.374
20
-141.49
11
149.564
21
-141.394
0
LINE
8
BLACK
6
CONTINUOUS
10
149.564
20
-141.394
11
149.66
21
-141.204
0
LINE
8
BLACK
6
CONTINUOUS
10
149.66
20
-141.204
11
149.66
21
-141.109
0
LINE
8
BLACK
6
CONTINUOUS
10
149.66
20
-141.109
11
149.564
21
-140.918
0
LINE
8
BLACK
6
CONTINUOUS
10
149.564
20
-140.918
11
149.374
21
-140.823
0
LINE
8
BLACK
6
CONTINUOUS
10
149.374
20
-140.823
11
149.088
21
-140.823
0
LINE
8
BLACK
6
CONTINUOUS
10
149.088
20
-140.823
11
148.898
21
-140.728
0
LINE
8
BLACK
6
CONTINUOUS
10
148.898
20
-140.728
11
148.803
21
-140.537
0
LINE
8
BLACK
6
CONTINUOUS
10
148.803
20
-140.537
11
148.803
21
-140.442
0
LINE
8
BLACK
6
CONTINUOUS
10
148.803
20
-140.442
11
148.898
21
-140.251
0
LINE
8
BLACK
6
CONTINUOUS
10
148.898
20
-140.251
11
149.088
21
-140.156
0
LINE
8
BLACK
6
CONTINUOUS
10
149.088
20
-140.156
11
149.374
21
-140.156
0
LINE
8
BLACK
6
CONTINUOUS
10
149.374
20
-140.156
11
149.564
21
-140.251
0
LINE
8
BLACK
6
CONTINUOUS
10
150.326
20
-142.251
11
150.422
21
-142.156
0
LINE
8
BLACK
6
CONTINUOUS
10
150.422
20
-142.156
11
150.612
21
-141.87
0
LINE
8
BLACK
6
CONTINUOUS
10
150.612
20
-141.87
11
150.707
21
-141.68
0
LINE
8
BLACK
6
CONTINUOUS
10
150.707
20
-141.68
11
150.803
21
-141.394
0
LINE
8
BLACK
6
CONTINUOUS
10
150.803
20
-141.394
11
150.898
21
-140.918
0
LINE
8
BLACK
6
CONTINUOUS
10
150.898
20
-140.918
11
150.898
21
-140.537
0
LINE
8
BLACK
6
CONTINUOUS
10
150.898
20
-140.537
11
150.803
21
-140.061
0
LINE
8
BLACK
6
CONTINUOUS
10
150.803
20
-140.061
11
150.707
21
-139.775
0
LINE
8
BLACK
6
CONTINUOUS
10
150.707
20
-139.775
11
150.612
21
-139.585
0
LINE
8
BLACK
6
CONTINUOUS
10
150.612
20
-139.585
11
150.422
21
-139.299
0
LINE
8
BLACK
6
CONTINUOUS
10
150.422
20
-139.299
11
150.326
21
-139.204
0
LINE
8
BLACK
6
CONTINUOUS
10
99.911
20
-142.455
11
99.911
21
-143.975
0
LINE
8
BLACK
6
CONTINUOUS
10
99.151
20
-143.215
11
100.671
21
-143.215
0
LINE
8
BLACK
6
CONTINUOUS
10
104.326
20
-144.13
11
103.184
21
-144.13
0
LINE
8
BLACK
6
CONTINUOUS
10
103.755
20
-144.13
11
103.755
21
-142.13
0
LINE
8
BLACK
6
CONTINUOUS
10
103.755
20
-142.13
11
103.564
21
-142.415
0
LINE
8
BLACK
6
CONTINUOUS
10
103.564
20
-142.415
11
103.374
21
-142.606
0
LINE
8
BLACK
6
CONTINUOUS
10
103.374
20
-142.606
11
103.184
21
-142.701
0
LINE
8
BLACK
6
CONTINUOUS
10
105.184
20
-143.939
11
105.279
21
-144.034
0
LINE
8
BLACK
6
CONTINUOUS
10
105.279
20
-144.034
11
105.184
21
-144.13
0
LINE
8
BLACK
6
CONTINUOUS
10
105.184
20
-144.13
11
105.088
21
-144.034
0
LINE
8
BLACK
6
CONTINUOUS
10
105.088
20
-144.034
11
105.184
21
-143.939
0
LINE
8
BLACK
6
CONTINUOUS
10
105.184
20
-143.939
11
105.184
21
-144.13
0
LINE
8
BLACK
6
CONTINUOUS
10
107.088
20
-142.13
11
106.136
21
-142.13
0
LINE
8
BLACK
6
CONTINUOUS
10
106.136
20
-142.13
11
106.041
21
-143.082
0
LINE
8
BLACK
6
CONTINUOUS
10
106.041
20
-143.082
11
106.136
21
-142.987
0
LINE
8
BLACK
6
CONTINUOUS
10
106.136
20
-142.987
11
106.326
21
-142.891
0
LINE
8
BLACK
6
CONTINUOUS
10
106.326
20
-142.891
11
106.803
21
-142.891
0
LINE
8
BLACK
6
CONTINUOUS
10
106.803
20
-142.891
11
106.993
21
-142.987
0
LINE
8
BLACK
6
CONTINUOUS
10
106.993
20
-142.987
11
107.088
21
-143.082
0
LINE
8
BLACK
6
CONTINUOUS
10
107.088
20
-143.082
11
107.184
21
-143.272
0
LINE
8
BLACK
6
CONTINUOUS
10
107.184
20
-143.272
11
107.184
21
-143.749
0
LINE
8
BLACK
6
CONTINUOUS
10
107.184
20
-143.749
11
107.088
21
-143.939
0
LINE
8
BLACK
6
CONTINUOUS
10
107.088
20
-143.939
11
106.993
21
-144.034
0
LINE
8
BLACK
6
CONTINUOUS
10
106.993
20
-144.034
11
106.803
21
-144.13
0
LINE
8
BLACK
6
CONTINUOUS
10
106.803
20
-144.13
11
106.326
21
-144.13
0
LINE
8
BLACK
6
CONTINUOUS
10
106.326
20
-144.13
11
106.136
21
-144.034
0
LINE
8
BLACK
6
CONTINUOUS
10
106.136
20
-144.034
11
106.041
21
-143.939
0
LINE
8
BLACK
6
CONTINUOUS
10
107.945
20
-142.32
11
108.041
21
-142.225
0
LINE
8
BLACK
6
CONTINUOUS
10
108.041
20
-142.225
11
108.231
21
-142.13
0
LINE
8
BLACK
6
CONTINUOUS
10
108.231
20
-142.13
11
108.707
21
-142.13
0
LINE
8
BLACK
6
CONTINUOUS
10
108.707
20
-142.13
11
108.898
21
-142.225
0
LINE
8
BLACK
6
CONTINUOUS
10
108.898
20
-142.225
11
108.993
21
-142.32
0
LINE
8
BLACK
6
CONTINUOUS
10
108.993
20
-142.32
11
109.088
21
-142.51
0
LINE
8
BLACK
6
CONTINUOUS
10
109.088
20
-142.51
11
109.088
21
-142.701
0
LINE
8
BLACK
6
CONTINUOUS
10
109.088
20
-142.701
11
108.993
21
-142.987
0
LINE
8
BLACK
6
CONTINUOUS
10
108.993
20
-142.987
11
107.85
21
-144.13
0
LINE
8
BLACK
6
CONTINUOUS
10
107.85
20
-144.13
11
109.088
21
-144.13
0
LINE
8
BLACK
6
CONTINUOUS
10
110.326
20
-142.13
11
110.517
21
-142.13
0
LINE
8
BLACK
6
CONTINUOUS
10
110.517
20
-142.13
11
110.707
21
-142.225
0
LINE
8
BLACK
6
CONTINUOUS
10
110.707
20
-142.225
11
110.803
21
-142.32
0
LINE
8
BLACK
6
CONTINUOUS
10
110.803
20
-142.32
11
110.898
21
-142.51
0
LINE
8
BLACK
6
CONTINUOUS
10
110.898
20
-142.51
11
110.993
21
-142.891
0
LINE
8
BLACK
6
CONTINUOUS
10
110.993
20
-142.891
11
110.993
21
-143.368
0
LINE
8
BLACK
6
CONTINUOUS
10
110.993
20
-143.368
11
110.898
21
-143.749
0
LINE
8
BLACK
6
CONTINUOUS
10
110.898
20
-143.749
11
110.803
21
-143.939
0
LINE
8
BLACK
6
CONTINUOUS
10
110.803
20
-143.939
11
110.707
21
-144.034
0
LINE
8
BLACK
6
CONTINUOUS
10
110.707
20
-144.034
11
110.517
21
-144.13
0
LINE
8
BLACK
6
CONTINUOUS
10
110.517
20
-144.13
11
110.326
21
-144.13
0
LINE
8
BLACK
6
CONTINUOUS
10
110.326
20
-144.13
11
110.136
21
-144.034
0
LINE
8
BLACK
6
CONTINUOUS
10
110.136
20
-144.034
11
110.041
21
-143.939
0
LINE
8
BLACK
6
CONTINUOUS
10
110.041
20
-143.939
11
109.945
21
-143.749
0
LINE
8
BLACK
6
CONTINUOUS
10
109.945
20
-143.749
11
109.85
21
-143.368
0
LINE
8
BLACK
6
CONTINUOUS
10
109.85
20
-143.368
11
109.85
21
-142.891
0
LINE
8
BLACK
6
CONTINUOUS
10
109.85
20
-142.891
11
109.945
21
-142.51
0
LINE
8
BLACK
6
CONTINUOUS
10
109.945
20
-142.51
11
110.041
21
-142.32
0
LINE
8
BLACK
6
CONTINUOUS
10
110.041
20
-142.32
11
110.136
21
-142.225
0
LINE
8
BLACK
6
CONTINUOUS
10
110.136
20
-142.225
11
110.326
21
-142.13
0
LINE
8
BLACK
6
CONTINUOUS
10
111.85
20
-144.13
11
111.85
21
-142.796
0
LINE
8
BLACK
6
CONTINUOUS
10
111.85
20
-142.987
11
111.945
21
-142.891
0
LINE
8
BLACK
6
CONTINUOUS
10
111.945
20
-142.891
11
112.136
21
-142.796
0
LINE
8
BLACK
6
CONTINUOUS
10
112.136
20
-142.796
11
112.422
21
-142.796
0
LINE
8
BLACK
6
CONTINUOUS
10
112.422
20
-142.796
11
112.612
21
-142.891
0
LINE
8
BLACK
6
CONTINUOUS
10
112.612
20
-142.891
11
112.707
21
-143.082
0
LINE
8
BLACK
6
CONTINUOUS
10
112.707
20
-143.082
11
112.707
21
-144.13
0
LINE
8
BLACK
6
CONTINUOUS
10
112.707
20
-143.082
11
112.803
21
-142.891
0
LINE
8
BLACK
6
CONTINUOUS
10
112.803
20
-142.891
11
112.993
21
-142.796
0
LINE
8
BLACK
6
CONTINUOUS
10
112.993
20
-142.796
11
113.279
21
-142.796
0
LINE
8
BLACK
6
CONTINUOUS
10
113.279
20
-142.796
11
113.469
21
-142.891
0
LINE
8
BLACK
6
CONTINUOUS
10
113.469
20
-142.891
11
113.564
21
-143.082
0
LINE
8
BLACK
6
CONTINUOUS
10
113.564
20
-143.082
11
113.564
21
-144.13
0
LINE
8
BLACK
6
CONTINUOUS
10
114.517
20
-144.13
11
114.517
21
-142.796
0
LINE
8
BLACK
6
CONTINUOUS
10
114.517
20
-142.987
11
114.612
21
-142.891
0
LINE
8
BLACK
6
CONTINUOUS
10
114.612
20
-142.891
11
114.803
21
-142.796
0
LINE
8
BLACK
6
CONTINUOUS
10
114.803
20
-142.796
11
115.088
21
-142.796
0
LINE
8
BLACK
6
CONTINUOUS
10
115.088
20
-142.796
11
115.279
21
-142.891
0
LINE
8
BLACK
6
CONTINUOUS
10
115.279
20
-142.891
11
115.374
21
-143.082
0
LINE
8
BLACK
6
CONTINUOUS
10
115.374
20
-143.082
11
115.374
21
-144.13
0
LINE
8
BLACK
6
CONTINUOUS
10
115.374
20
-143.082
11
115.469
21
-142.891
0
LINE
8
BLACK
6
CONTINUOUS
10
115.469
20
-142.891
11
115.66
21
-142.796
0
LINE
8
BLACK
6
CONTINUOUS
10
115.66
20
-142.796
11
115.945
21
-142.796
0
LINE
8
BLACK
6
CONTINUOUS
10
115.945
20
-142.796
11
116.136
21
-142.891
0
LINE
8
BLACK
6
CONTINUOUS
10
116.136
20
-142.891
11
116.231
21
-143.082
0
LINE
8
BLACK
6
CONTINUOUS
10
116.231
20
-143.082
11
116.231
21
-144.13
0
LINE
8
BLACK
6
CONTINUOUS
10
120.136
20
-142.034
11
118.422
21
-144.606
0
LINE
8
BLACK
6
CONTINUOUS
10
122.707
20
-142.13
11
122.898
21
-142.13
0
LINE
8
BLACK
6
CONTINUOUS
10
122.898
20
-142.13
11
123.088
21
-142.225
0
LINE
8
BLACK
6
CONTINUOUS
10
123.088
20
-142.225
11
123.184
21
-142.32
0
LINE
8
BLACK
6
CONTINUOUS
10
123.184
20
-142.32
11
123.279
21
-142.51
0
LINE
8
BLACK
6
CONTINUOUS
10
123.279
20
-142.51
11
123.374
21
-142.891
0
LINE
8
BLACK
6
CONTINUOUS
10
123.374
20
-142.891
11
123.374
21
-143.368
0
LINE
8
BLACK
6
CONTINUOUS
10
123.374
20
-143.368
11
123.279
21
-143.749
0
LINE
8
BLACK
6
CONTINUOUS
10
123.279
20
-143.749
11
123.184
21
-143.939
0
LINE
8
BLACK
6
CONTINUOUS
10
123.184
20
-143.939
11
123.088
21
-144.034
0
LINE
8
BLACK
6
CONTINUOUS
10
123.088
20
-144.034
11
122.898
21
-144.13
0
LINE
8
BLACK
6
CONTINUOUS
10
122.898
20
-144.13
11
122.707
21
-144.13
0
LINE
8
BLACK
6
CONTINUOUS
10
122.707
20
-144.13
11
122.517
21
-144.034
0
LINE
8
BLACK
6
CONTINUOUS
10
122.517
20
-144.034
11
122.422
21
-143.939
0
LINE
8
BLACK
6
CONTINUOUS
10
122.422
20
-143.939
11
122.326
21
-143.749
0
LINE
8
BLACK
6
CONTINUOUS
10
122.326
20
-143.749
11
122.231
21
-143.368
0
LINE
8
BLACK
6
CONTINUOUS
10
122.231
20
-143.368
11
122.231
21
-142.891
0
LINE
8
BLACK
6
CONTINUOUS
10
122.231
20
-142.891
11
122.326
21
-142.51
0
LINE
8
BLACK
6
CONTINUOUS
10
122.326
20
-142.51
11
122.422
21
-142.32
0
LINE
8
BLACK
6
CONTINUOUS
10
122.422
20
-142.32
11
122.517
21
-142.225
0
LINE
8
BLACK
6
CONTINUOUS
10
122.517
20
-142.225
11
122.707
21
-142.13
0
LINE
8
BLACK
6
CONTINUOUS
10
124.231
20
-143.939
11
124.326
21
-144.034
0
LINE
8
BLACK
6
CONTINUOUS
10
124.326
20
-144.034
11
124.231
21
-144.13
0
LINE
8
BLACK
6
CONTINUOUS
10
124.231
20
-144.13
11
124.136
21
-144.034
0
LINE
8
BLACK
6
CONTINUOUS
10
124.136
20
-144.034
11
124.231
21
-143.939
0
LINE
8
BLACK
6
CONTINUOUS
10
124.231
20
-143.939
11
124.231
21
-144.13
0
LINE
8
BLACK
6
CONTINUOUS
10
125.564
20
-142.13
11
125.755
21
-142.13
0
LINE
8
BLACK
6
CONTINUOUS
10
125.755
20
-142.13
11
125.945
21
-142.225
0
LINE
8
BLACK
6
CONTINUOUS
10
125.945
20
-142.225
11
126.041
21
-142.32
0
LINE
8
BLACK
6
CONTINUOUS
10
126.041
20
-142.32
11
126.136
21
-142.51
0
LINE
8
BLACK
6
CONTINUOUS
10
126.136
20
-142.51
11
126.231
21
-142.891
0
LINE
8
BLACK
6
CONTINUOUS
10
126.231
20
-142.891
11
126.231
21
-143.368
0
LINE
8
BLACK
6
CONTINUOUS
10
126.231
20
-143.368
11
126.136
21
-143.749
0
LINE
8
BLACK
6
CONTINUOUS
10
126.136
20
-143.749
11
126.041
21
-143.939
0
LINE
8
BLACK
6
CONTINUOUS
10
126.041
20
-143.939
11
125.945
21
-144.034
0
LINE
8
BLACK
6
CONTINUOUS
10
125.945
20
-144.034
11
125.755
21
-144.13
0
LINE
8
BLACK
6
CONTINUOUS
10
125.755
20
-144.13
11
125.564
21
-144.13
0
LINE
8
BLACK
6
CONTINUOUS
10
125.564
20
-144.13
11
125.374
21
-144.034
0
LINE
8
BLACK
6
CONTINUOUS
10
125.374
20
-144.034
11
125.279
21
-143.939
0
LINE
8
BLACK
6
CONTINUOUS
10
125.279
20
-143.939
11
125.184
21
-143.749
0
LINE
8
BLACK
6
CONTINUOUS
10
125.184
20
-143.749
11
125.088
21
-143.368
0
LINE
8
BLACK
6
CONTINUOUS
10
125.088
20
-143.368
11
125.088
21
-142.891
0
LINE
8
BLACK
6
CONTINUOUS
10
125.088
20
-142.891
11
125.184
21
-142.51
0
LINE
8
BLACK
6
CONTINUOUS
10
125.184
20
-142.51
11
125.279
21
-142.32
0
LINE
8
BLACK
6
CONTINUOUS
10
125.279
20
-142.32
11
125.374
21
-142.225
0
LINE
8
BLACK
6
CONTINUOUS
10
125.374
20
-142.225
11
125.564
21
-142.13
0
LINE
8
BLACK
6
CONTINUOUS
10
128.041
20
-142.13
11
127.088
21
-142.13
0
LINE
8
BLACK
6
CONTINUOUS
10
127.088
20
-142.13
11
126.993
21
-143.082
0
LINE
8
BLACK
6
CONTINUOUS
10
126.993
20
-143.082
11
127.088
21
-142.987
0
LINE
8
BLACK
6
CONTINUOUS
10
127.088
20
-142.987
11
127.279
21
-142.891
0
LINE
8
BLACK
6
CONTINUOUS
10
127.279
20
-142.891
11
127.755
21
-142.891
0
LINE
8
BLACK
6
CONTINUOUS
10
127.755
20
-142.891
11
127.945
21
-142.987
0
LINE
8
BLACK
6
CONTINUOUS
10
127.945
20
-142.987
11
128.041
21
-143.082
0
LINE
8
BLACK
6
CONTINUOUS
10
128.041
20
-143.082
11
128.136
21
-143.272
0
LINE
8
BLACK
6
CONTINUOUS
10
128.136
20
-143.272
11
128.136
21
-143.749
0
LINE
8
BLACK
6
CONTINUOUS
10
128.136
20
-143.749
11
128.041
21
-143.939
0
LINE
8
BLACK
6
CONTINUOUS
10
128.041
20
-143.939
11
127.945
21
-144.034
0
LINE
8
BLACK
6
CONTINUOUS
10
127.945
20
-144.034
11
127.755
21
-144.13
0
LINE
8
BLACK
6
CONTINUOUS
10
127.755
20
-144.13
11
127.279
21
-144.13
0
LINE
8
BLACK
6
CONTINUOUS
10
127.279
20
-144.13
11
127.088
21
-144.034
0
LINE
8
BLACK
6
CONTINUOUS
10
127.088
20
-144.034
11
126.993
21
-143.939
0
LINE
8
BLACK
6
CONTINUOUS
10
129.088
20
-144.13
11
129.469
21
-144.13
0
LINE
8
BLACK
6
CONTINUOUS
10
129.469
20
-144.13
11
129.66
21
-144.034
0
LINE
8
BLACK
6
CONTINUOUS
10
129.66
20
-144.034
11
129.755
21
-143.939
0
LINE
8
BLACK
6
CONTINUOUS
10
129.755
20
-143.939
11
129.945
21
-143.653
0
LINE
8
BLACK
6
CONTINUOUS
10
129.945
20
-143.653
11
130.041
21
-143.272
0
LINE
8
BLACK
6
CONTINUOUS
10
130.041
20
-143.272
11
130.041
21
-142.51
0
LINE
8
BLACK
6
CONTINUOUS
10
130.041
20
-142.51
11
129.945
21
-142.32
0
LINE
8
BLACK
6
CONTINUOUS
10
129.945
20
-142.32
11
129.85
21
-142.225
0
LINE
8
BLACK
6
CONTINUOUS
10
129.85
20
-142.225
11
129.66
21
-142.13
0
LINE
8
BLACK
6
CONTINUOUS
10
129.66
20
-142.13
11
129.279
21
-142.13
0
LINE
8
BLACK
6
CONTINUOUS
10
129.279
20
-142.13
11
129.088
21
-142.225
0
LINE
8
BLACK
6
CONTINUOUS
10
129.088
20
-142.225
11
128.993
21
-142.32
0
LINE
8
BLACK
6
CONTINUOUS
10
128.993
20
-142.32
11
128.898
21
-142.51
0
LINE
8
BLACK
6
CONTINUOUS
10
128.898
20
-142.51
11
128.898
21
-142.987
0
LINE
8
BLACK
6
CONTINUOUS
10
128.898
20
-142.987
11
128.993
21
-143.177
0
LINE
8
BLACK
6
CONTINUOUS
10
128.993
20
-143.177
11
129.088
21
-143.272
0
LINE
8
BLACK
6
CONTINUOUS
10
129.088
20
-143.272
11
129.279
21
-143.368
0
LINE
8
BLACK
6
CONTINUOUS
10
129.279
20
-143.368
11
129.66
21
-143.368
0
LINE
8
BLACK
6
CONTINUOUS
10
129.66
20
-143.368
11
129.85
21
-143.272
0
LINE
8
BLACK
6
CONTINUOUS
10
129.85
20
-143.272
11
129.945
21
-143.177
0
LINE
8
BLACK
6
CONTINUOUS
10
129.945
20
-143.177
11
130.041
21
-142.987
0
LINE
8
BLACK
6
CONTINUOUS
10
131.184
20
-142.987
11
130.993
21
-142.891
0
LINE
8
BLACK
6
CONTINUOUS
10
130.993
20
-142.891
11
130.898
21
-142.796
0
LINE
8
BLACK
6
CONTINUOUS
10
130.898
20
-142.796
11
130.803
21
-142.606
0
LINE
8
BLACK
6
CONTINUOUS
10
130.803
20
-142.606
11
130.803
21
-142.51
0
LINE
8
BLACK
6
CONTINUOUS
10
130.803
20
-142.51
11
130.898
21
-142.32
0
LINE
8
BLACK
6
CONTINUOUS
10
130.898
20
-142.32
11
130.993
21
-142.225
0
LINE
8
BLACK
6
CONTINUOUS
10
130.993
20
-142.225
11
131.184
21
-142.13
0
LINE
8
BLACK
6
CONTINUOUS
10
131.184
20
-142.13
11
131.564
21
-142.13
0
LINE
8
BLACK
6
CONTINUOUS
10
131.564
20
-142.13
11
131.755
21
-142.225
0
LINE
8
BLACK
6
CONTINUOUS
10
131.755
20
-142.225
11
131.85
21
-142.32
0
LINE
8
BLACK
6
CONTINUOUS
10
131.85
20
-142.32
11
131.945
21
-142.51
0
LINE
8
BLACK
6
CONTINUOUS
10
131.945
20
-142.51
11
131.945
21
-142.606
0
LINE
8
BLACK
6
CONTINUOUS
10
131.945
20
-142.606
11
131.85
21
-142.796
0
LINE
8
BLACK
6
CONTINUOUS
10
131.85
20
-142.796
11
131.755
21
-142.891
0
LINE
8
BLACK
6
CONTINUOUS
10
131.755
20
-142.891
11
131.564
21
-142.987
0
LINE
8
BLACK
6
CONTINUOUS
10
131.564
20
-142.987
11
131.184
21
-142.987
0
LINE
8
BLACK
6
CONTINUOUS
10
131.184
20
-142.987
11
130.993
21
-143.082
0
LINE
8
BLACK
6
CONTINUOUS
10
130.993
20
-143.082
11
130.898
21
-143.177
0
LINE
8
BLACK
6
CONTINUOUS
10
130.898
20
-143.177
11
130.803
21
-143.368
0
LINE
8
BLACK
6
CONTINUOUS
10
130.803
20
-143.368
11
130.803
21
-143.749
0
LINE
8
BLACK
6
CONTINUOUS
10
130.803
20
-143.749
11
130.898
21
-143.939
0
LINE
8
BLACK
6
CONTINUOUS
10
130.898
20
-143.939
11
130.993
21
-144.034
0
LINE
8
BLACK
6
CONTINUOUS
10
130.993
20
-144.034
11
131.184
21
-144.13
0
LINE
8
BLACK
6
CONTINUOUS
10
131.184
20
-144.13
11
131.564
21
-144.13
0
LINE
8
BLACK
6
CONTINUOUS
10
131.564
20
-144.13
11
131.755
21
-144.034
0
LINE
8
BLACK
6
CONTINUOUS
10
131.755
20
-144.034
11
131.85
21
-143.939
0
LINE
8
BLACK
6
CONTINUOUS
10
131.85
20
-143.939
11
131.945
21
-143.749
0
LINE
8
BLACK
6
CONTINUOUS
10
131.945
20
-143.749
11
131.945
21
-143.368
0
LINE
8
BLACK
6
CONTINUOUS
10
131.945
20
-143.368
11
131.85
21
-143.177
0
LINE
8
BLACK
6
CONTINUOUS
10
131.85
20
-143.177
11
131.755
21
-143.082
0
LINE
8
BLACK
6
CONTINUOUS
10
131.755
20
-143.082
11
131.564
21
-142.987
0
LINE
8
BLACK
6
CONTINUOUS
10
132.707
20
-142.13
11
132.707
21
-142.51
0
LINE
8
BLACK
6
CONTINUOUS
10
133.469
20
-142.13
11
133.469
21
-142.51
0
LINE
8
BLACK
6
CONTINUOUS
10
136.422
20
-144.891
11
136.326
21
-144.796
0
LINE
8
BLACK
6
CONTINUOUS
10
136.326
20
-144.796
11
136.136
21
-144.51
0
LINE
8
BLACK
6
CONTINUOUS
10
136.136
20
-144.51
11
136.041
21
-144.32
0
LINE
8
BLACK
6
CONTINUOUS
10
136.041
20
-144.32
11
135.945
21
-144.034
0
LINE
8
BLACK
6
CONTINUOUS
10
135.945
20
-144.034
11
135.85
21
-143.558
0
LINE
8
BLACK
6
CONTINUOUS
10
135.85
20
-143.558
11
135.85
21
-143.177
0
LINE
8
BLACK
6
CONTINUOUS
10
135.85
20
-143.177
11
135.945
21
-142.701
0
LINE
8
BLACK
6
CONTINUOUS
10
135.945
20
-142.701
11
136.041
21
-142.415
0
LINE
8
BLACK
6
CONTINUOUS
10
136.041
20
-142.415
11
136.136
21
-142.225
0
LINE
8
BLACK
6
CONTINUOUS
10
136.136
20
-142.225
11
136.326
21
-141.939
0
LINE
8
BLACK
6
CONTINUOUS
10
136.326
20
-141.939
11
136.422
21
-141.844
0
LINE
8
BLACK
6
CONTINUOUS
10
138.231
20
-144.13
11
137.088
21
-144.13
0
LINE
8
BLACK
6
CONTINUOUS
10
137.66
20
-144.13
11
137.66
21
-142.13
0
LINE
8
BLACK
6
CONTINUOUS
10
137.66
20
-142.13
11
137.469
21
-142.415
0
LINE
8
BLACK
6
CONTINUOUS
10
137.469
20
-142.415
11
137.279
21
-142.606
0
LINE
8
BLACK
6
CONTINUOUS
10
137.279
20
-142.606
11
137.088
21
-142.701
0
LINE
8
BLACK
6
CONTINUOUS
10
140.612
20
-144.13
11
140.612
21
-142.13
0
LINE
8
BLACK
6
CONTINUOUS
10
141.469
20
-144.13
11
141.469
21
-143.082
0
LINE
8
BLACK
6
CONTINUOUS
10
141.469
20
-143.082
11
141.374
21
-142.891
0
LINE
8
BLACK
6
CONTINUOUS
10
141.374
20
-142.891
11
141.184
21
-142.796
0
LINE
8
BLACK
6
CONTINUOUS
10
141.184
20
-142.796
11
140.898
21
-142.796
0
LINE
8
BLACK
6
CONTINUOUS
10
140.898
20
-142.796
11
140.707
21
-142.891
0
LINE
8
BLACK
6
CONTINUOUS
10
140.707
20
-142.891
11
140.612
21
-142.987
0
LINE
8
BLACK
6
CONTINUOUS
10
142.707
20
-144.13
11
142.517
21
-144.034
0
LINE
8
BLACK
6
CONTINUOUS
10
142.517
20
-144.034
11
142.422
21
-143.939
0
LINE
8
BLACK
6
CONTINUOUS
10
142.422
20
-143.939
11
142.326
21
-143.749
0
LINE
8
BLACK
6
CONTINUOUS
10
142.326
20
-143.749
11
142.326
21
-143.177
0
LINE
8
BLACK
6
CONTINUOUS
10
142.326
20
-143.177
11
142.422
21
-142.987
0
LINE
8
BLACK
6
CONTINUOUS
10
142.422
20
-142.987
11
142.517
21
-142.891
0
LINE
8
BLACK
6
CONTINUOUS
10
142.517
20
-142.891
11
142.707
21
-142.796
0
LINE
8
BLACK
6
CONTINUOUS
10
142.707
20
-142.796
11
142.993
21
-142.796
0
LINE
8
BLACK
6
CONTINUOUS
10
142.993
20
-142.796
11
143.184
21
-142.891
0
LINE
8
BLACK
6
CONTINUOUS
10
143.184
20
-142.891
11
143.279
21
-142.987
0
LINE
8
BLACK
6
CONTINUOUS
10
143.279
20
-142.987
11
143.374
21
-143.177
0
LINE
8
BLACK
6
CONTINUOUS
10
143.374
20
-143.177
11
143.374
21
-143.749
0
LINE
8
BLACK
6
CONTINUOUS
10
143.374
20
-143.749
11
143.279
21
-143.939
0
LINE
8
BLACK
6
CONTINUOUS
10
143.279
20
-143.939
11
143.184
21
-144.034
0
LINE
8
BLACK
6
CONTINUOUS
10
143.184
20
-144.034
11
142.993
21
-144.13
0
LINE
8
BLACK
6
CONTINUOUS
10
142.993
20
-144.13
11
142.707
21
-144.13
0
LINE
8
BLACK
6
CONTINUOUS
10
144.517
20
-144.13
11
144.326
21
-144.034
0
LINE
8
BLACK
6
CONTINUOUS
10
144.326
20
-144.034
11
144.231
21
-143.844
0
LINE
8
BLACK
6
CONTINUOUS
10
144.231
20
-143.844
11
144.231
21
-142.13
0
LINE
8
BLACK
6
CONTINUOUS
10
146.041
20
-144.034
11
145.85
21
-144.13
0
LINE
8
BLACK
6
CONTINUOUS
10
145.85
20
-144.13
11
145.469
21
-144.13
0
LINE
8
BLACK
6
CONTINUOUS
10
145.469
20
-144.13
11
145.279
21
-144.034
0
LINE
8
BLACK
6
CONTINUOUS
10
145.279
20
-144.034
11
145.184
21
-143.844
0
LINE
8
BLACK
6
CONTINUOUS
10
145.184
20
-143.844
11
145.184
21
-143.082
0
LINE
8
BLACK
6
CONTINUOUS
10
145.184
20
-143.082
11
145.279
21
-142.891
0
LINE
8
BLACK
6
CONTINUOUS
10
145.279
20
-142.891
11
145.469
21
-142.796
0
LINE
8
BLACK
6
CONTINUOUS
10
145.469
20
-142.796
11
145.85
21
-142.796
0
LINE
8
BLACK
6
CONTINUOUS
10
145.85
20
-142.796
11
146.041
21
-142.891
0
LINE
8
BLACK
6
CONTINUOUS
10
146.041
20
-142.891
11
146.136
21
-143.082
0
LINE
8
BLACK
6
CONTINUOUS
10
146.136
20
-143.082
11
146.136
21
-143.272
0
LINE
8
BLACK
6
CONTINUOUS
10
146.136
20
-143.272
11
145.184
21
-143.463
0
LINE
8
BLACK
6
CONTINUOUS
10
146.803
20
-144.891
11
146.898
21
-144.796
0
LINE
8
BLACK
6
CONTINUOUS
10
146.898
20
-144.796
11
147.088
21
-144.51
0
LINE
8
BLACK
6
CONTINUOUS
10
147.088
20
-144.51
11
147.184
21
-144.32
0
LINE
8
BLACK
6
CONTINUOUS
10
147.184
20
-144.32
11
147.279
21
-144.034
0
LINE
8
BLACK
6
CONTINUOUS
10
147.279
20
-144.034
11
147.374
21
-143.558
0
LINE
8
BLACK
6
CONTINUOUS
10
147.374
20
-143.558
11
147.374
21
-143.177
0
LINE
8
BLACK
6
CONTINUOUS
10
147.374
20
-143.177
11
147.279
21
-142.701
0
LINE
8
BLACK
6
CONTINUOUS
10
147.279
20
-142.701
11
147.184
21
-142.415
0
LINE
8
BLACK
6
CONTINUOUS
10
147.184
20
-142.415
11
147.088
21
-142.225
0
LINE
8
BLACK
6
CONTINUOUS
10
147.088
20
-142.225
11
146.898
21
-141.939
0
LINE
8
BLACK
6
CONTINUOUS
10
146.898
20
-141.939
11
146.803
21
-141.844
  0
ENDSEC
  0
EOF
