%TF.GenerationSoftware,KiCad,Pcbnew,7.0.7*%
%TF.CreationDate,2023-12-19T22:40:54+02:00*%
%TF.ProjectId,snowflake,736e6f77-666c-4616-9b65-2e6b69636164,rev?*%
%TF.SameCoordinates,Original*%
%TF.FileFunction,Profile,NP*%
%FSLAX46Y46*%
G04 Gerber Fmt 4.6, Leading zero omitted, Abs format (unit mm)*
G04 Created by KiCad (PCBNEW 7.0.7) date 2023-12-19 22:40:54*
%MOMM*%
%LPD*%
G01*
G04 APERTURE LIST*
%TA.AperFunction,Profile*%
%ADD10C,0.100000*%
%TD*%
G04 APERTURE END LIST*
D10*
%TO.C,Ref\u002A\u002A*%
X100721000Y-111677700D02*
X100726300Y-111502000D01*
X100726300Y-111502000D02*
X100749000Y-111333000D01*
X100733200Y-111858400D02*
X100721000Y-111677700D01*
X100749000Y-111333000D02*
X100788700Y-111166500D01*
X100762800Y-112041300D02*
X100733200Y-111858400D01*
X100788700Y-111166500D02*
X100917000Y-110820000D01*
X100809600Y-112223600D02*
X100762800Y-112041300D01*
X100858000Y-75685800D02*
X100890000Y-75375300D01*
X100871000Y-76045700D02*
X100858000Y-75685800D01*
X100873600Y-112402400D02*
X100809600Y-112223600D01*
X100890000Y-75375300D02*
X100964300Y-75108900D01*
X100917000Y-110820000D02*
X101107100Y-110419800D01*
X100930300Y-76457500D02*
X100871000Y-76045700D01*
X100954700Y-112574800D02*
X100873600Y-112402400D01*
X100964300Y-75108900D02*
X101078000Y-74881500D01*
X101030700Y-76912400D02*
X100930300Y-76457500D01*
X101052900Y-112737900D02*
X100954700Y-112574800D01*
X101078000Y-74881500D02*
X101228100Y-74687900D01*
X101107100Y-110419800D02*
X101354800Y-109923000D01*
X101165300Y-77399100D02*
X101030700Y-76912400D01*
X101168000Y-112889000D02*
X101052900Y-112737900D01*
X101228100Y-74687900D02*
X101411900Y-74522700D01*
X101300800Y-113025800D02*
X101168000Y-112889000D01*
X101327200Y-77905900D02*
X101165300Y-77399100D01*
X101354800Y-109923000D02*
X102007400Y-108585600D01*
X101411900Y-74522700D02*
X101626400Y-74380700D01*
X101456000Y-113149400D02*
X101300800Y-113025800D01*
X101626400Y-74380700D02*
X101868800Y-74256800D01*
X101639000Y-113261500D02*
X101456000Y-113149400D01*
X101705500Y-78934500D02*
X101327200Y-77905900D01*
X101855300Y-113363800D02*
X101639000Y-113261500D01*
X101868800Y-74256800D02*
X102136800Y-74146400D01*
X102007400Y-108585600D02*
X102406100Y-107820700D01*
X102110400Y-113458000D02*
X101855300Y-113363800D01*
X102110800Y-79906500D02*
X101705500Y-78934500D01*
X102136800Y-74146400D02*
X102430700Y-74047800D01*
X102406100Y-107820700D02*
X102849000Y-107051800D01*
X102409800Y-113545900D02*
X102110400Y-113458000D01*
X102430700Y-74047800D02*
X102751000Y-73960200D01*
X102502700Y-80749700D02*
X102110800Y-79906500D01*
X102698600Y-81123300D02*
X102502700Y-80749700D01*
X102751000Y-73960200D02*
X103098700Y-73882600D01*
X102849000Y-107051800D02*
X103331900Y-106320200D01*
X102900000Y-81469100D02*
X102698600Y-81123300D01*
X103098700Y-73882600D02*
X103878900Y-73753800D01*
X103111100Y-81790000D02*
X102900000Y-81469100D01*
X103163600Y-113709500D02*
X102409800Y-113545900D01*
X103331900Y-106320200D02*
X103585800Y-105976500D01*
X103336100Y-82089200D02*
X103111100Y-81790000D01*
X103579200Y-82369800D02*
X103336100Y-82089200D01*
X103585800Y-105976500D02*
X103846500Y-105651200D01*
X103844500Y-82634700D02*
X103579200Y-82369800D01*
X103846500Y-105651200D02*
X104112600Y-105346900D01*
X103878900Y-73753800D02*
X104777400Y-73653900D01*
X104112600Y-105346900D02*
X104383000Y-105066400D01*
X104134800Y-82886300D02*
X103844500Y-82634700D01*
X104137800Y-113863400D02*
X103163600Y-113709500D01*
X104383000Y-105066400D02*
X104656500Y-104812300D01*
X104447000Y-83123900D02*
X104134800Y-82886300D01*
X104656500Y-104812300D02*
X104931900Y-104587300D01*
X104776500Y-83345800D02*
X104447000Y-83123900D01*
X104777400Y-73653900D02*
X105789900Y-73578800D01*
X104931900Y-104587300D02*
X105208500Y-104393100D01*
X105118900Y-83550600D02*
X104776500Y-83345800D01*
X105208500Y-104393100D02*
X105486900Y-104227400D01*
X105262300Y-113996600D02*
X104137800Y-113863400D01*
X105469600Y-83736700D02*
X105118900Y-83550600D01*
X105486900Y-104227400D02*
X105768500Y-104087000D01*
X105768500Y-104087000D02*
X106054500Y-103968600D01*
X105789900Y-73578800D02*
X106869700Y-73537600D01*
X105824000Y-83902600D02*
X105469600Y-83736700D01*
X106054500Y-103968600D02*
X106346100Y-103868900D01*
X106177700Y-84046700D02*
X105824000Y-83902600D01*
X106346100Y-103868900D02*
X106644500Y-103784700D01*
X106444400Y-114092800D02*
X105262300Y-113996600D01*
X106526100Y-84167500D02*
X106177700Y-84046700D01*
X106644500Y-103784700D02*
X107266800Y-103649300D01*
X106865000Y-84264400D02*
X106526100Y-84167500D01*
X106869700Y-73537600D02*
X107959700Y-73542700D01*
X107028000Y-114122000D02*
X106444400Y-114092800D01*
X107191800Y-84340300D02*
X106865000Y-84264400D01*
X107266800Y-103649300D02*
X107921100Y-103539900D01*
X107429000Y-89058000D02*
X107433900Y-88857600D01*
X107433900Y-88857600D02*
X107457200Y-88659600D01*
X107443300Y-89259300D02*
X107429000Y-89058000D01*
X107457200Y-88659600D02*
X107497900Y-88465400D01*
X107478400Y-89459900D02*
X107443300Y-89259300D01*
X107497900Y-88465400D02*
X107555200Y-88276500D01*
X107539000Y-89658800D02*
X107478400Y-89459900D01*
X107555200Y-88276500D02*
X107628200Y-88094600D01*
X107591100Y-114135900D02*
X107028000Y-114122000D01*
X107628200Y-88094600D02*
X107716100Y-87921100D01*
X107630300Y-89854900D02*
X107539000Y-89658800D01*
X107716100Y-87921100D02*
X107817900Y-87757500D01*
X107737900Y-98237400D02*
X107758100Y-98024600D01*
X107741500Y-98468800D02*
X107737900Y-98237400D01*
X107757800Y-90047300D02*
X107630300Y-89854900D01*
X107758100Y-98024600D02*
X107801500Y-97831100D01*
X107769800Y-98717600D02*
X107741500Y-98468800D01*
X107799500Y-84444500D02*
X107191800Y-84340300D01*
X107801500Y-97831100D02*
X107869000Y-97655300D01*
X107817900Y-87757500D02*
X108057500Y-87459900D01*
X107823600Y-98982600D02*
X107769800Y-98717600D01*
X107869000Y-97655300D02*
X107961600Y-97495000D01*
X107903800Y-99262500D02*
X107823600Y-98982600D01*
X107921100Y-103539900D02*
X108566800Y-103447000D01*
X107926800Y-90234800D02*
X107757800Y-90047300D01*
X107959700Y-73542700D02*
X108490800Y-73566500D01*
X107961600Y-97495000D02*
X108080500Y-97347900D01*
X108011400Y-99556200D02*
X107903800Y-99262500D01*
X108057500Y-87459900D02*
X108327400Y-87183000D01*
X108080500Y-97347900D02*
X108226700Y-97211700D01*
X108124500Y-114133000D02*
X107591100Y-114135900D01*
X108142700Y-90416500D02*
X107926800Y-90234800D01*
X108147100Y-99862400D02*
X108011400Y-99556200D01*
X108226700Y-97211700D02*
X108401400Y-97084400D01*
X108311900Y-100179900D02*
X108147100Y-99862400D01*
X108327400Y-87183000D02*
X108605800Y-86901500D01*
X108330500Y-84510700D02*
X107799500Y-84444500D01*
X108401400Y-97084400D02*
X108605700Y-96963500D01*
X108410900Y-90591400D02*
X108142700Y-90416500D01*
X108490800Y-73566500D02*
X109003000Y-73606600D01*
X108505000Y-100506600D02*
X108311900Y-100179900D01*
X108566800Y-103447000D02*
X109153000Y-103364900D01*
X108605700Y-96963500D02*
X108840700Y-96847100D01*
X108605800Y-86901500D02*
X108870500Y-86590000D01*
X108627800Y-114113200D02*
X108124500Y-114133000D01*
X108719000Y-100837000D02*
X108505000Y-100506600D01*
X108736700Y-90758400D02*
X108410900Y-90591400D01*
X108766100Y-84569600D02*
X108330500Y-84510700D01*
X108840700Y-96847100D02*
X109107500Y-96733200D01*
X108870500Y-86590000D02*
X109101400Y-86233400D01*
X109003000Y-73606600D02*
X109490700Y-73664400D01*
X109091900Y-84649400D02*
X108766100Y-84569600D01*
X109101400Y-86233400D02*
X109284900Y-85856100D01*
X109102900Y-114077100D02*
X108627800Y-114113200D01*
X109107500Y-96733200D02*
X109406700Y-96622500D01*
X109123800Y-90916500D02*
X108736700Y-90758400D01*
X109153000Y-103364900D02*
X109629000Y-103287700D01*
X109173200Y-101483900D02*
X108719000Y-100837000D01*
X109214500Y-84702700D02*
X109091900Y-84649400D01*
X109284900Y-85856100D02*
X109409000Y-85492900D01*
X109311400Y-84767400D02*
X109214500Y-84702700D01*
X109383600Y-84845500D02*
X109311400Y-84767400D01*
X109406700Y-96622500D02*
X110105500Y-96414300D01*
X109409000Y-85492900D02*
X109445100Y-85327400D01*
X109432100Y-84938700D02*
X109383600Y-84845500D01*
X109445100Y-85327400D02*
X109461800Y-85178300D01*
X109457900Y-85049100D02*
X109432100Y-84938700D01*
X109461800Y-85178300D02*
X109457900Y-85049100D01*
X109490700Y-73664400D02*
X109953100Y-73741300D01*
X109551700Y-114025200D02*
X109102900Y-114077100D01*
X109568800Y-91065100D02*
X109123800Y-90916500D01*
X109602100Y-102069800D02*
X109173200Y-101483900D01*
X109629000Y-103287700D02*
X109810800Y-103248400D01*
X109810800Y-103248400D02*
X109952200Y-103203800D01*
X109933300Y-102544500D02*
X109602100Y-102069800D01*
X109952200Y-103203800D02*
X110052700Y-103149000D01*
X109953100Y-73741300D02*
X110391000Y-73839000D01*
X109976200Y-113958000D02*
X109551700Y-114025200D01*
X110041100Y-102726200D02*
X109933300Y-102544500D01*
X110052700Y-103149000D02*
X110112200Y-103078800D01*
X110066700Y-91203400D02*
X109568800Y-91065100D01*
X110105500Y-96414300D02*
X110942700Y-96230400D01*
X110106700Y-102872400D02*
X110041100Y-102726200D01*
X110112200Y-103078800D02*
X110130300Y-102988300D01*
X110130300Y-102988300D02*
X110106700Y-102872400D01*
X110378400Y-113876000D02*
X109976200Y-113958000D01*
X110391000Y-73839000D02*
X110805300Y-73958700D01*
X110612400Y-91330700D02*
X110066700Y-91203400D01*
X110760000Y-113779600D02*
X110378400Y-113876000D01*
X110805300Y-73958700D02*
X111196600Y-74101900D01*
X110942700Y-96230400D02*
X111924000Y-96078800D01*
X111123200Y-113669500D02*
X110760000Y-113779600D01*
X111196600Y-74101900D02*
X111565800Y-74270000D01*
X111201000Y-91446400D02*
X110612400Y-91330700D01*
X111469100Y-113546200D02*
X111123200Y-113669500D01*
X111565800Y-74270000D02*
X111913600Y-74464500D01*
X111797300Y-113411600D02*
X111469100Y-113546200D01*
X111827400Y-91549600D02*
X111201000Y-91446400D01*
X111913600Y-74464500D02*
X112240800Y-74686800D01*
X111924000Y-96078800D02*
X113038600Y-95964700D01*
X112106400Y-113267800D02*
X111797300Y-113411600D01*
X112240800Y-74686800D02*
X112548100Y-74936100D01*
X112395200Y-113116600D02*
X112106400Y-113267800D01*
X112486500Y-91639700D02*
X111827400Y-91549600D01*
X112548100Y-74936100D02*
X112836200Y-75202200D01*
X112662600Y-112960200D02*
X112395200Y-113116600D01*
X112836200Y-75202200D02*
X113357900Y-75735800D01*
X112907100Y-112800600D02*
X112662600Y-112960200D01*
X113038600Y-95964700D02*
X114210400Y-95883000D01*
X113127700Y-112639700D02*
X112907100Y-112800600D01*
X113173200Y-91716100D02*
X112486500Y-91639700D01*
X113323100Y-112479700D02*
X113127700Y-112639700D01*
X113357900Y-75735800D02*
X113811800Y-76188900D01*
X113492800Y-112322000D02*
X113323100Y-112479700D01*
X113639400Y-112166500D02*
X113492800Y-112322000D01*
X113811800Y-76188900D02*
X114015100Y-76354400D01*
X113876000Y-111859900D02*
X113639400Y-112166500D01*
X114015100Y-76354400D02*
X114203700Y-76462800D01*
X114059000Y-111555100D02*
X113876000Y-111859900D01*
X114203700Y-76462800D02*
X114292800Y-76492100D01*
X114210400Y-95883000D02*
X116356600Y-95784400D01*
X114214400Y-111247500D02*
X114059000Y-111555100D01*
X114292800Y-76492100D02*
X114378800Y-76504900D01*
X114378800Y-76504900D02*
X114462300Y-76501800D01*
X114462300Y-76501800D02*
X114543700Y-76483600D01*
X114510100Y-110646700D02*
X114214400Y-111247500D01*
X114543700Y-76483600D02*
X114702500Y-76405300D01*
X114599400Y-91829400D02*
X113173200Y-91716100D01*
X114652200Y-110401100D02*
X114510100Y-110646700D01*
X114702500Y-76405300D02*
X114859000Y-76275900D01*
X114788500Y-110227300D02*
X114652200Y-110401100D01*
X114854100Y-110175100D02*
X114788500Y-110227300D01*
X114859000Y-76275900D02*
X115017200Y-76101900D01*
X114918200Y-110147800D02*
X114854100Y-110175100D01*
X114981100Y-110145800D02*
X114918200Y-110147800D01*
X115017200Y-76101900D02*
X115180900Y-75889200D01*
X115043000Y-110169400D02*
X114981100Y-110145800D01*
X115104300Y-110218900D02*
X115043000Y-110169400D01*
X115165200Y-110294700D02*
X115104300Y-110218900D01*
X115180900Y-75889200D02*
X115540600Y-75372600D01*
X115287300Y-110526800D02*
X115165200Y-110294700D01*
X115411700Y-110861100D02*
X115287300Y-110526800D01*
X115540600Y-75372600D02*
X115962900Y-74778600D01*
X115541800Y-111265200D02*
X115411700Y-110861100D01*
X115681000Y-111699100D02*
X115541800Y-111265200D01*
X115832600Y-112123300D02*
X115681000Y-111699100D01*
X115962900Y-74778600D02*
X116197300Y-74472500D01*
X116001100Y-112507200D02*
X115832600Y-112123300D01*
X116014200Y-91908100D02*
X114599400Y-91829400D01*
X116194100Y-112857900D02*
X116001100Y-112507200D01*
X116197300Y-74472500D02*
X116445900Y-74171500D01*
X116356600Y-95784400D02*
X117169100Y-95750700D01*
X116420200Y-113191700D02*
X116194100Y-112857900D01*
X116445900Y-74171500D02*
X116707400Y-73884100D01*
X116688300Y-113525100D02*
X116420200Y-113191700D01*
X116707400Y-73884100D02*
X116980800Y-73618700D01*
X116980800Y-73618700D02*
X117265100Y-73383700D01*
X117004100Y-113867100D02*
X116688300Y-113525100D01*
X117169100Y-95750700D02*
X117807200Y-95710900D01*
X117265100Y-73383700D02*
X117559200Y-73187500D01*
X117315700Y-91975700D02*
X116014200Y-91908100D01*
X117362100Y-114197600D02*
X117004100Y-113867100D01*
X117554500Y-114350000D02*
X117362100Y-114197600D01*
X117559200Y-73187500D02*
X117861600Y-73036600D01*
X117754400Y-114489300D02*
X117554500Y-114350000D01*
X117807200Y-95710900D02*
X118316400Y-95650400D01*
X117861600Y-73036600D02*
X118169000Y-72929500D01*
X117960700Y-114612000D02*
X117754400Y-114489300D01*
X118169000Y-72929500D02*
X118478100Y-72863000D01*
X118172500Y-114714800D02*
X117960700Y-114612000D01*
X118316400Y-95650400D02*
X118742100Y-95554900D01*
X118388700Y-114794800D02*
X118172500Y-114714800D01*
X118402000Y-92055400D02*
X117315700Y-91975700D01*
X118478100Y-72863000D02*
X118785200Y-72833600D01*
X118608100Y-114852100D02*
X118388700Y-114794800D01*
X118742100Y-95554900D02*
X119122200Y-95414300D01*
X118785200Y-72833600D02*
X119086800Y-72838000D01*
X118829200Y-114887400D02*
X118608100Y-114852100D01*
X118836100Y-92106600D02*
X118402000Y-92055400D01*
X119050900Y-114901100D02*
X118829200Y-114887400D01*
X119086800Y-72838000D02*
X119379300Y-72872900D01*
X119122200Y-95414300D02*
X119463500Y-95236000D01*
X119199000Y-92166900D02*
X118836100Y-92106600D01*
X119271700Y-114894100D02*
X119050900Y-114901100D01*
X119379300Y-72872900D02*
X119659100Y-72934800D01*
X119463500Y-95236000D02*
X119765500Y-95031900D01*
X119490300Y-114866900D02*
X119271700Y-114894100D01*
X119498600Y-92236400D02*
X119199000Y-92166900D01*
X119659100Y-72934800D02*
X119922800Y-73020500D01*
X119705600Y-114820200D02*
X119490300Y-114866900D01*
X119743100Y-92315200D02*
X119498600Y-92236400D01*
X119765500Y-95031900D02*
X120027300Y-94814100D01*
X119916000Y-114754500D02*
X119705600Y-114820200D01*
X119922800Y-73020500D02*
X120168300Y-73127400D01*
X119940500Y-92403400D02*
X119743100Y-92315200D01*
X120027300Y-94814100D02*
X120247600Y-94591500D01*
X120098800Y-92501300D02*
X119940500Y-92403400D01*
X120120800Y-114670800D02*
X119916000Y-114754500D01*
X120168300Y-73127400D02*
X120399600Y-73256600D01*
X120226100Y-92609000D02*
X120098800Y-92501300D01*
X120247600Y-94591500D02*
X120422800Y-94361100D01*
X120320700Y-114569800D02*
X120120800Y-114670800D01*
X120330300Y-92726500D02*
X120226100Y-92609000D01*
X120399600Y-73256600D02*
X120622000Y-73410100D01*
X120418300Y-92853800D02*
X120330300Y-92726500D01*
X120422800Y-94361100D02*
X120548700Y-94117200D01*
X120491400Y-92989000D02*
X120418300Y-92853800D01*
X120548700Y-94117200D02*
X120591900Y-93988400D01*
X120549700Y-93130200D02*
X120491400Y-92989000D01*
X120591900Y-93988400D02*
X120621100Y-93853900D01*
X120593300Y-93275300D02*
X120549700Y-93130200D01*
X120621100Y-93853900D02*
X120636300Y-93569100D01*
X120622000Y-73410100D02*
X120841200Y-73589900D01*
X120636300Y-93569100D02*
X120593300Y-93275300D01*
X120711000Y-114320200D02*
X120320700Y-114569800D01*
X120841200Y-73589900D02*
X121062600Y-73798100D01*
X121062600Y-73798100D02*
X121291700Y-74036500D01*
X121096600Y-114014100D02*
X120711000Y-114320200D01*
X121291700Y-74036500D02*
X121794900Y-74612100D01*
X121487400Y-113659500D02*
X121096600Y-114014100D01*
X121794900Y-74612100D02*
X123013600Y-76108700D01*
X121890500Y-113263500D02*
X121487400Y-113659500D01*
X122302700Y-112828000D02*
X121890500Y-113263500D01*
X122718200Y-112353700D02*
X122302700Y-112828000D01*
X123013600Y-76108700D02*
X124243900Y-77680200D01*
X123131100Y-111841300D02*
X122718200Y-112353700D01*
X123537100Y-111293100D02*
X123131100Y-111841300D01*
X123937500Y-110716800D02*
X123537100Y-111293100D01*
X124243900Y-77680200D02*
X125200800Y-78916800D01*
X124732600Y-109517200D02*
X123937500Y-110716800D01*
X125130800Y-108917400D02*
X124732600Y-109517200D01*
X125200800Y-78916800D02*
X125594100Y-79394800D01*
X125529000Y-108345200D02*
X125130800Y-108917400D01*
X125594100Y-79394800D02*
X125957600Y-79790500D01*
X125680500Y-69795200D02*
X125694900Y-69481900D01*
X125694900Y-69481900D02*
X125740000Y-69199500D01*
X125696600Y-70139900D02*
X125680500Y-69795200D01*
X125740000Y-69199500D02*
X125815900Y-68947000D01*
X125741900Y-70512000D02*
X125696600Y-70139900D01*
X125815300Y-70906800D02*
X125741900Y-70512000D01*
X125815900Y-68947000D02*
X125922700Y-68723100D01*
X125915300Y-71319400D02*
X125815300Y-70906800D01*
X125922700Y-68723100D02*
X126060500Y-68526600D01*
X125927600Y-107823700D02*
X125529000Y-108345200D01*
X125957600Y-79790500D02*
X126308900Y-80110700D01*
X126040800Y-71745200D02*
X125915300Y-71319400D01*
X126060500Y-68526600D02*
X126229500Y-68356200D01*
X126119200Y-117014600D02*
X126127700Y-116669300D01*
X126127700Y-116669300D02*
X126160600Y-116320800D01*
X126136400Y-117351200D02*
X126119200Y-117014600D01*
X126160600Y-116320800D02*
X126216800Y-115974500D01*
X126180400Y-117673600D02*
X126136400Y-117351200D01*
X126190300Y-72179200D02*
X126040800Y-71745200D01*
X126216800Y-115974500D02*
X126294900Y-115634600D01*
X126229500Y-68356200D02*
X126429600Y-68210700D01*
X126252600Y-117976500D02*
X126180400Y-117673600D01*
X126294900Y-115634600D02*
X126393900Y-115299400D01*
X126308900Y-80110700D02*
X126653600Y-80356600D01*
X126327100Y-107375600D02*
X125927600Y-107823700D01*
X126354200Y-118254200D02*
X126252600Y-117976500D01*
X126362500Y-72616800D02*
X126190300Y-72179200D01*
X126393900Y-115299400D02*
X126512700Y-114966000D01*
X126429600Y-68210700D02*
X126660900Y-68088900D01*
X126486300Y-118501400D02*
X126354200Y-118254200D01*
X126512700Y-114966000D02*
X126650100Y-114631500D01*
X126526300Y-107186800D02*
X126327100Y-107375600D01*
X126556200Y-73053100D02*
X126362500Y-72616800D01*
X126649400Y-118714000D02*
X126486300Y-118501400D01*
X126650100Y-114631500D02*
X126976400Y-113947300D01*
X126653600Y-80356600D02*
X126824400Y-80451500D01*
X126660900Y-68088900D02*
X126922900Y-67989400D01*
X126723700Y-107023900D02*
X126526300Y-107186800D01*
X126769300Y-73483700D02*
X126556200Y-73053100D01*
X126824400Y-80451500D02*
X126994500Y-80527600D01*
X126840200Y-118893900D02*
X126649400Y-118714000D01*
X126918900Y-106886000D02*
X126723700Y-107023900D01*
X126922900Y-67989400D02*
X127212600Y-67910200D01*
X126976400Y-113947300D02*
X127363900Y-113223100D01*
X126994500Y-80527600D02*
X127164500Y-80584900D01*
X126997600Y-73906100D02*
X126769300Y-73483700D01*
X127054500Y-119044400D02*
X126840200Y-118893900D01*
X127111200Y-106772300D02*
X126918900Y-106886000D01*
X127164500Y-80584900D02*
X127334500Y-80623200D01*
X127212600Y-67910200D02*
X127526200Y-67849100D01*
X127288400Y-119168900D02*
X127054500Y-119044400D01*
X127300300Y-106681900D02*
X127111200Y-106772300D01*
X127334500Y-80623200D02*
X127504800Y-80642800D01*
X127363900Y-113223100D02*
X128248800Y-111657500D01*
X127479200Y-74717700D02*
X126997600Y-73906100D01*
X127485700Y-106614100D02*
X127300300Y-106681900D01*
X127504800Y-80642800D02*
X127674200Y-80644600D01*
X127526200Y-67849100D02*
X127859900Y-67804200D01*
X127537700Y-119270500D02*
X127288400Y-119168900D01*
X127666800Y-106568100D02*
X127485700Y-106614100D01*
X127674200Y-80644600D02*
X127841400Y-80629500D01*
X127798400Y-119352600D02*
X127537700Y-119270500D01*
X127841400Y-80629500D02*
X128005200Y-80598800D01*
X127843400Y-106543000D02*
X127666800Y-106568100D01*
X127859900Y-67804200D02*
X128573300Y-67753900D01*
X127960700Y-75470600D02*
X127479200Y-74717700D01*
X128005200Y-80598800D02*
X128317000Y-80494600D01*
X128014700Y-106538000D02*
X127843400Y-106543000D01*
X128180600Y-106552900D02*
X128014700Y-106538000D01*
X128248800Y-111657500D02*
X129044200Y-110232300D01*
X128317000Y-80494600D02*
X128599000Y-80340800D01*
X128337300Y-119471600D02*
X127798400Y-119352600D01*
X128340500Y-106587200D02*
X128180600Y-106552900D01*
X128402100Y-76147800D02*
X127960700Y-75470600D01*
X128494200Y-106640600D02*
X128340500Y-106587200D01*
X128573300Y-67753900D02*
X129322900Y-67742100D01*
X128599000Y-80340800D02*
X128842800Y-80145600D01*
X128641100Y-106712900D02*
X128494200Y-106640600D01*
X128770000Y-76737300D02*
X128402100Y-76147800D01*
X128781100Y-106803700D02*
X128641100Y-106712900D01*
X128842800Y-80145600D02*
X129047700Y-79916300D01*
X128879000Y-119549000D02*
X128337300Y-119471600D01*
X128913500Y-106912700D02*
X128781100Y-106803700D01*
X129038200Y-107039500D02*
X128913500Y-106912700D01*
X129044200Y-110232300D02*
X129322100Y-109681100D01*
X129047700Y-79916300D02*
X129214600Y-79660000D01*
X129059700Y-77248500D02*
X128770000Y-76737300D01*
X129154500Y-107183500D02*
X129038200Y-107039500D01*
X129214600Y-79660000D02*
X129345000Y-79383600D01*
X129261300Y-107342300D02*
X129154500Y-107183500D01*
X129273000Y-77695600D02*
X129059700Y-77248500D01*
X129322100Y-109681100D02*
X129507900Y-109226100D01*
X129322900Y-67742100D02*
X130073100Y-67749700D01*
X129345000Y-79383600D02*
X129438000Y-79093000D01*
X129357100Y-107513200D02*
X129261300Y-107342300D01*
X129412200Y-78093400D02*
X129273000Y-77695600D01*
X129422700Y-119595000D02*
X128879000Y-119549000D01*
X129438000Y-79093000D02*
X129486200Y-78785400D01*
X129440600Y-107693400D02*
X129357100Y-107513200D01*
X129454800Y-78278000D02*
X129412200Y-78093400D01*
X129480600Y-78454300D02*
X129454800Y-78278000D01*
X129486200Y-78785400D02*
X129480600Y-78454300D01*
X129507900Y-109226100D02*
X129567900Y-109022900D01*
X129510400Y-107880400D02*
X129440600Y-107693400D01*
X129565200Y-108071200D02*
X129510400Y-107880400D01*
X129567900Y-109022900D02*
X129606800Y-108829600D01*
X129603500Y-108263300D02*
X129565200Y-108071200D01*
X129606800Y-108829600D02*
X129625300Y-108641500D01*
X129623900Y-108453900D02*
X129603500Y-108263300D01*
X129625300Y-108641500D02*
X129623900Y-108453900D01*
X129974400Y-119616800D02*
X129422700Y-119595000D01*
X130073100Y-67749700D02*
X130763900Y-67748400D01*
X130539900Y-119621200D02*
X129974400Y-119616800D01*
X130763900Y-67748400D02*
X131066400Y-67734900D01*
X131066400Y-67734900D02*
X131329300Y-67707800D01*
X131113500Y-119619000D02*
X130539900Y-119621200D01*
X131177100Y-64255200D02*
X131208700Y-63798400D01*
X131181100Y-64684900D02*
X131177100Y-64255200D01*
X131208700Y-63798400D02*
X131281200Y-63315100D01*
X131215100Y-65086600D02*
X131181100Y-64684900D01*
X131273800Y-65459900D02*
X131215100Y-65086600D01*
X131281200Y-63315100D02*
X131400200Y-62805800D01*
X131329300Y-67707800D02*
X131544400Y-67663300D01*
X131351500Y-65804100D02*
X131273800Y-65459900D01*
X131400200Y-62805800D02*
X131569000Y-62272600D01*
X131443000Y-66118500D02*
X131351500Y-65804100D01*
X131449500Y-123935800D02*
X131456300Y-123505300D01*
X131456300Y-123505300D02*
X131485900Y-123077100D01*
X131467600Y-124362000D02*
X131449500Y-123935800D01*
X131485900Y-123077100D02*
X131536500Y-122657700D01*
X131512500Y-124777400D02*
X131467600Y-124362000D01*
X131536500Y-122657700D02*
X131606100Y-122253500D01*
X131544400Y-67663300D02*
X131703300Y-67597600D01*
X131569000Y-62272600D02*
X131782700Y-61722700D01*
X131585500Y-125176800D02*
X131512500Y-124777400D01*
X131606100Y-122253500D02*
X131692700Y-121871100D01*
X131640200Y-66657300D02*
X131443000Y-66118500D01*
X131643300Y-119635200D02*
X131113500Y-119619000D01*
X131685300Y-125559900D02*
X131585500Y-125176800D01*
X131692700Y-121871100D02*
X131794300Y-121517100D01*
X131703300Y-67597600D02*
X131759500Y-67555700D01*
X131759500Y-67555700D02*
X131800800Y-67507400D01*
X131782700Y-61722700D02*
X132034100Y-61164600D01*
X131794300Y-121517100D02*
X131907900Y-121196600D01*
X131797800Y-67079800D02*
X131640200Y-66657300D01*
X131800800Y-67507400D02*
X131843000Y-67391500D01*
X131809900Y-125927600D02*
X131685300Y-125559900D01*
X131839000Y-67249200D02*
X131797800Y-67079800D01*
X131843000Y-67391500D02*
X131839000Y-67249200D01*
X131872000Y-119659300D02*
X131643300Y-119635200D01*
X131907900Y-121196600D02*
X132025600Y-120909900D01*
X131957200Y-126281000D02*
X131809900Y-125927600D01*
X132025600Y-120909900D02*
X132237700Y-120433500D01*
X132034100Y-61164600D02*
X132316200Y-60606900D01*
X132066000Y-119698700D02*
X131872000Y-119659300D01*
X132125400Y-126621100D02*
X131957200Y-126281000D01*
X132217400Y-119757200D02*
X132066000Y-119698700D01*
X132237700Y-120433500D02*
X132314200Y-120241600D01*
X132312400Y-126948800D02*
X132125400Y-126621100D01*
X132314200Y-120241600D02*
X132359100Y-120079100D01*
X132316200Y-60606900D02*
X132622000Y-60058100D01*
X132318300Y-119838200D02*
X132217400Y-119757200D01*
X132347600Y-119888300D02*
X132318300Y-119838200D01*
X132359100Y-120079100D02*
X132363400Y-119945000D01*
X132363400Y-119945000D02*
X132347600Y-119888300D01*
X132516200Y-127265200D02*
X132312400Y-126948800D01*
X132622000Y-60058100D02*
X132944300Y-59526600D01*
X132734900Y-127571200D02*
X132516200Y-127265200D01*
X132944300Y-59526600D02*
X133276100Y-59021200D01*
X133209300Y-128155700D02*
X132734900Y-127571200D01*
X133276100Y-59021200D02*
X133610300Y-58550200D01*
X133610300Y-58550200D02*
X133940400Y-58120500D01*
X133721600Y-128707400D02*
X133209300Y-128155700D01*
X133940400Y-58120500D02*
X134262300Y-57732300D01*
X134258500Y-129231100D02*
X133721600Y-128707400D01*
X134262300Y-57732300D02*
X134572600Y-57383700D01*
X134572600Y-57383700D02*
X134867700Y-57073200D01*
X134806400Y-129731300D02*
X134258500Y-129231100D01*
X134867700Y-57073200D02*
X135398600Y-56559700D01*
X135351600Y-130208100D02*
X134806400Y-129731300D01*
X135398600Y-56559700D02*
X135827200Y-56178600D01*
X135827200Y-56178600D02*
X136342000Y-55744300D01*
X135879600Y-130642100D02*
X135351600Y-130208100D01*
X136342000Y-55744300D02*
X136570200Y-55585800D01*
X136375700Y-131009200D02*
X135879600Y-130642100D01*
X136570200Y-55585800D02*
X136706900Y-55530200D01*
X136607100Y-131160100D02*
X136375700Y-131009200D01*
X136706900Y-55530200D02*
X136789700Y-55515300D01*
X136789700Y-55515300D02*
X136855400Y-55530200D01*
X136824900Y-131285200D02*
X136607100Y-131160100D01*
X136855400Y-55530200D02*
X137094300Y-55659400D01*
X137028500Y-131381900D02*
X136824900Y-131285200D01*
X137094300Y-55659400D02*
X137094300Y-55659400D01*
X137094300Y-55659400D02*
X137094300Y-55659400D01*
X137094300Y-55659400D02*
X137344300Y-55801400D01*
X137221300Y-131448300D02*
X137028500Y-131381900D01*
X137344300Y-55801400D02*
X137688700Y-56017100D01*
X137408200Y-131483100D02*
X137221300Y-131448300D01*
X137593900Y-131484700D02*
X137408200Y-131483100D01*
X137688700Y-56017100D02*
X138121500Y-56324800D01*
X137783000Y-131451700D02*
X137593900Y-131484700D01*
X137980300Y-131382600D02*
X137783000Y-131451700D01*
X138121500Y-56324800D02*
X138636800Y-56742600D01*
X138190400Y-131276100D02*
X137980300Y-131382600D01*
X138418200Y-131130500D02*
X138190400Y-131276100D01*
X138636800Y-56742600D02*
X139222000Y-57277900D01*
X138666800Y-130945300D02*
X138418200Y-131130500D01*
X138934300Y-130723100D02*
X138666800Y-130945300D01*
X139222000Y-57277900D02*
X139837300Y-57895300D01*
X139511600Y-130182300D02*
X138934300Y-130723100D01*
X139837300Y-57895300D02*
X140436300Y-58548300D01*
X140121800Y-129536200D02*
X139511600Y-130182300D01*
X140436300Y-58548300D02*
X140972500Y-59190800D01*
X140736800Y-128813200D02*
X140121800Y-129536200D01*
X140972500Y-59190800D02*
X141410500Y-59784700D01*
X141329900Y-128042200D02*
X140736800Y-128813200D01*
X141410500Y-59784700D02*
X141757900Y-60325400D01*
X141449000Y-119451200D02*
X141485400Y-119564000D01*
X141453000Y-119365300D02*
X141449000Y-119451200D01*
X141485400Y-119564000D02*
X141562200Y-119705600D01*
X141495900Y-119303200D02*
X141453000Y-119365300D01*
X141504100Y-67234400D02*
X141509000Y-67340100D01*
X141509000Y-67340100D02*
X141540200Y-67433300D01*
X141522700Y-67118200D02*
X141504100Y-67234400D01*
X141540200Y-67433300D02*
X141600400Y-67512300D01*
X141562200Y-66992900D02*
X141522700Y-67118200D01*
X141562200Y-119705600D02*
X141673800Y-119873900D01*
X141576100Y-119262000D02*
X141495900Y-119303200D01*
X141600400Y-67512300D02*
X141691300Y-67576100D01*
X141619800Y-66860500D02*
X141562200Y-66992900D01*
X141673800Y-119873900D02*
X141972800Y-120277200D01*
X141691300Y-67576100D02*
X141812000Y-67625500D01*
X141692300Y-119238600D02*
X141576100Y-119262000D01*
X141757900Y-60325400D02*
X142033400Y-60816500D01*
X141779100Y-66581000D02*
X141619800Y-66860500D01*
X141812000Y-67625500D02*
X141960700Y-67662200D01*
X141842900Y-119229900D02*
X141692300Y-119238600D01*
X141880200Y-127254500D02*
X141329900Y-128042200D01*
X141960700Y-67662200D02*
X142135500Y-67687800D01*
X141972800Y-120277200D02*
X142325500Y-120747300D01*
X142033400Y-60816500D02*
X142255600Y-61261600D01*
X142135500Y-67687800D02*
X142556300Y-67711700D01*
X142194400Y-65965900D02*
X141779100Y-66581000D01*
X142241200Y-119244500D02*
X141842900Y-119229900D01*
X142255600Y-61261600D02*
X142439600Y-61668900D01*
X142325500Y-120747300D02*
X142675200Y-121257800D01*
X142368300Y-126482300D02*
X141880200Y-127254500D01*
X142402100Y-65594300D02*
X142194400Y-65965900D01*
X142439600Y-61668900D02*
X142587000Y-62065000D01*
X142495200Y-65383500D02*
X142402100Y-65594300D01*
X142556300Y-67711700D02*
X143060000Y-67709800D01*
X142577300Y-65152400D02*
X142495200Y-65383500D01*
X142587000Y-62065000D02*
X142695900Y-62480900D01*
X142645600Y-64899800D02*
X142577300Y-65152400D01*
X142675200Y-121257800D02*
X142832200Y-121520500D01*
X142695900Y-62480900D02*
X142764300Y-62947800D01*
X142700200Y-64629900D02*
X142645600Y-64899800D01*
X142764300Y-62947800D02*
X142790100Y-63484200D01*
X142770000Y-64059400D02*
X142700200Y-64629900D01*
X142774700Y-125757600D02*
X142368300Y-126482300D01*
X142790100Y-63484200D02*
X142770000Y-64059400D01*
X142832200Y-121520500D02*
X142973200Y-121786100D01*
X142941800Y-125422000D02*
X142774700Y-125757600D01*
X142973200Y-121786100D02*
X143097200Y-122053900D01*
X143060000Y-67709800D02*
X144235900Y-67676700D01*
X143083800Y-125103600D02*
X142941800Y-125422000D01*
X143097200Y-122053900D02*
X143203300Y-122323600D01*
X143201200Y-124799800D02*
X143083800Y-125103600D01*
X143203300Y-122323600D02*
X143290500Y-122594400D01*
X143290500Y-122594400D02*
X143357700Y-122865800D01*
X143294200Y-124508000D02*
X143201200Y-124799800D01*
X143352500Y-119333400D02*
X142241200Y-119244500D01*
X143357700Y-122865800D02*
X143404000Y-123137200D01*
X143363100Y-124225500D02*
X143294200Y-124508000D01*
X143404000Y-123137200D02*
X143428400Y-123408000D01*
X143408300Y-123949800D02*
X143363100Y-124225500D01*
X143428400Y-123408000D02*
X143429900Y-123678200D01*
X143429900Y-123678200D02*
X143408300Y-123949800D01*
X143996500Y-119381700D02*
X143352500Y-119333400D01*
X144235900Y-67676700D02*
X144848200Y-67667600D01*
X144252200Y-78742700D02*
X144263500Y-78921000D01*
X144258000Y-78566700D02*
X144252200Y-78742700D01*
X144263500Y-78921000D02*
X144291800Y-79102300D01*
X144281500Y-78391200D02*
X144258000Y-78566700D01*
X144291800Y-79102300D02*
X144336900Y-79284100D01*
X144323000Y-78214400D02*
X144281500Y-78391200D01*
X144336900Y-79284100D02*
X144398700Y-79462700D01*
X144382800Y-78034700D02*
X144323000Y-78214400D01*
X144398700Y-79462700D02*
X144477000Y-79634600D01*
X144461400Y-77850300D02*
X144382800Y-78034700D01*
X144477000Y-79634600D02*
X144572000Y-79796200D01*
X144513600Y-108136400D02*
X144528000Y-108343000D01*
X144520000Y-107937500D02*
X144513600Y-108136400D01*
X144528000Y-108343000D02*
X144562300Y-108556200D01*
X144548200Y-107747600D02*
X144520000Y-107937500D01*
X144562300Y-108556200D02*
X144615900Y-108775400D01*
X144572000Y-79796200D02*
X144683300Y-79944100D01*
X144599100Y-107567900D02*
X144548200Y-107747600D01*
X144615900Y-108775400D02*
X144688600Y-109002100D01*
X144650900Y-119416700D02*
X143996500Y-119381700D01*
X144673700Y-107399600D02*
X144599100Y-107567900D01*
X144676200Y-77460300D02*
X144461400Y-77850300D01*
X144683300Y-79944100D02*
X144811100Y-80074500D01*
X144688600Y-109002100D02*
X144892900Y-109487600D01*
X144772800Y-107243800D02*
X144673700Y-107399600D01*
X144811100Y-80074500D02*
X144955100Y-80184000D01*
X144848200Y-67667600D02*
X145434900Y-67678100D01*
X144892900Y-109487600D02*
X145177200Y-110030600D01*
X144897300Y-107101800D02*
X144772800Y-107243800D01*
X144955100Y-80184000D02*
X145115200Y-80269700D01*
X144966200Y-77032400D02*
X144676200Y-77460300D01*
X145047400Y-106974500D02*
X144897300Y-107101800D01*
X145115200Y-80269700D02*
X145290200Y-80330900D01*
X145177200Y-110030600D02*
X145543500Y-110649100D01*
X145218900Y-106862500D02*
X145047400Y-106974500D01*
X145283300Y-119428700D02*
X144650900Y-119416700D01*
X145290200Y-80330900D02*
X145479100Y-80367900D01*
X145313400Y-76561600D02*
X144966200Y-77032400D01*
X145407100Y-106765800D02*
X145218900Y-106862500D01*
X145434900Y-67678100D02*
X145970100Y-67717100D01*
X145479100Y-80367900D02*
X145680500Y-80380600D01*
X145543500Y-110649100D02*
X146472900Y-112129800D01*
X145607000Y-106684800D02*
X145407100Y-106765800D01*
X145680500Y-80380600D02*
X145893400Y-80369200D01*
X145695600Y-76044500D02*
X145313400Y-76561600D01*
X145813800Y-106619500D02*
X145607000Y-106684800D01*
X145879000Y-119417600D02*
X145283300Y-119428700D01*
X145893400Y-80369200D02*
X146116400Y-80333700D01*
X145970100Y-67717100D02*
X146448300Y-67786600D01*
X146022700Y-106570200D02*
X145813800Y-106619500D01*
X146090800Y-75477700D02*
X145695600Y-76044500D01*
X146116400Y-80333700D02*
X146348500Y-80274300D01*
X146228600Y-106537200D02*
X146022700Y-106570200D01*
X146348500Y-80274300D02*
X146588400Y-80190900D01*
X146426900Y-106520500D02*
X146228600Y-106537200D01*
X146427500Y-119385400D02*
X145879000Y-119417600D01*
X146448300Y-67786600D02*
X146869600Y-67886500D01*
X146472900Y-112129800D02*
X146960900Y-112952600D01*
X146479000Y-74861200D02*
X146090800Y-75477700D01*
X146588400Y-80190900D02*
X146834700Y-80083800D01*
X146613600Y-106520500D02*
X146426900Y-106520500D01*
X146789800Y-106537900D02*
X146613600Y-106520500D01*
X146834700Y-80083800D02*
X147085500Y-79953400D01*
X146850100Y-74206900D02*
X146479000Y-74861200D01*
X146869600Y-67886500D02*
X147234100Y-68016900D01*
X146918200Y-119334300D02*
X146427500Y-119385400D01*
X146957500Y-106573300D02*
X146789800Y-106537900D01*
X146960900Y-112952600D02*
X147192700Y-113374500D01*
X147085500Y-79953400D02*
X147338800Y-79800200D01*
X147118800Y-106627500D02*
X146957500Y-106573300D01*
X147192700Y-113374500D02*
X147409600Y-113799500D01*
X147196000Y-73530200D02*
X146850100Y-74206900D01*
X147234100Y-68016900D02*
X147542200Y-68177900D01*
X147275800Y-106701300D02*
X147118800Y-106627500D01*
X147338800Y-79800200D02*
X147592300Y-79624600D01*
X147342600Y-119263000D02*
X146918200Y-119334300D01*
X147409600Y-113799500D02*
X147607200Y-114224700D01*
X147430500Y-106795300D02*
X147275800Y-106701300D01*
X147508900Y-72846200D02*
X147196000Y-73530200D01*
X147529400Y-119215400D02*
X147342600Y-119263000D01*
X147542200Y-68177900D02*
X147796700Y-68370600D01*
X147585000Y-106910300D02*
X147430500Y-106795300D01*
X147592300Y-79624600D02*
X147844100Y-79427200D01*
X147607200Y-114224700D02*
X147784700Y-114647000D01*
X147699600Y-119156900D02*
X147529400Y-119215400D01*
X147741500Y-107047000D02*
X147585000Y-106910300D01*
X147781100Y-72170600D02*
X147508900Y-72846200D01*
X147784700Y-114647000D02*
X147942100Y-115063100D01*
X147796700Y-68370600D02*
X148000900Y-68596400D01*
X147844100Y-79427200D02*
X148091900Y-79208500D01*
X147853100Y-119085100D02*
X147699600Y-119156900D01*
X147942100Y-115063100D02*
X148079600Y-115469900D01*
X147990100Y-118998000D02*
X147853100Y-119085100D01*
X148000900Y-68596400D02*
X148158200Y-68856600D01*
X148006300Y-71520700D02*
X147781100Y-72170600D01*
X148069500Y-107390000D02*
X147741500Y-107047000D01*
X148079600Y-115469900D02*
X148197000Y-115864100D01*
X148091900Y-79208500D02*
X148333600Y-78969000D01*
X148110800Y-118893000D02*
X147990100Y-118998000D01*
X148158200Y-68856600D02*
X148270300Y-69154100D01*
X148178600Y-70914500D02*
X148006300Y-71520700D01*
X148197000Y-115864100D02*
X148294500Y-116242700D01*
X148215200Y-118768200D02*
X148110800Y-118893000D01*
X148270300Y-69154100D02*
X148308400Y-69319600D01*
X148292100Y-70369900D02*
X148178600Y-70914500D01*
X148294500Y-116242700D02*
X148372000Y-116602400D01*
X148303400Y-118621400D02*
X148215200Y-118768200D01*
X148308400Y-69319600D02*
X148333600Y-69498200D01*
X148333600Y-69498200D02*
X148342600Y-69899800D01*
X148333600Y-78969000D02*
X148567200Y-78709100D01*
X148342600Y-69899800D02*
X148292100Y-70369900D01*
X148372000Y-116602400D02*
X148429700Y-116940000D01*
X148374900Y-118452100D02*
X148303400Y-118621400D01*
X148429400Y-118259700D02*
X148374900Y-118452100D01*
X148429700Y-116940000D02*
X148467500Y-117252900D01*
X148437400Y-107837500D02*
X148069500Y-107390000D01*
X148466400Y-118044000D02*
X148429400Y-118259700D01*
X148467500Y-117252900D02*
X148485900Y-117541000D01*
X148485400Y-117804500D02*
X148466400Y-118044000D01*
X148485900Y-117541000D02*
X148485400Y-117804500D01*
X148567200Y-78709100D02*
X148791800Y-78429500D01*
X148791800Y-78429500D02*
X149011500Y-78131000D01*
X149011500Y-78131000D02*
X149457000Y-77481500D01*
X149387700Y-109105000D02*
X148437400Y-107837500D01*
X149457000Y-77481500D02*
X149946300Y-76768500D01*
X149946300Y-76768500D02*
X150220500Y-76390600D01*
X150220500Y-76390600D02*
X150521500Y-75999800D01*
X150521500Y-75999800D02*
X150852400Y-75598300D01*
X150680500Y-110839200D02*
X149387700Y-109105000D01*
X150852400Y-75598300D02*
X151207300Y-75192400D01*
X151207300Y-75192400D02*
X151956900Y-74398200D01*
X151360500Y-111726000D02*
X150680500Y-110839200D01*
X151956900Y-74398200D02*
X152705800Y-73678200D01*
X151991900Y-112517300D02*
X151360500Y-111726000D01*
X152535500Y-113149600D02*
X151991900Y-112517300D01*
X152705800Y-73678200D02*
X153059900Y-73364900D01*
X153008700Y-113630100D02*
X152535500Y-113149600D01*
X153059900Y-73364900D02*
X153389600Y-73093000D01*
X153228800Y-113821300D02*
X153008700Y-113630100D01*
X153389600Y-73093000D02*
X153689100Y-72868300D01*
X153443100Y-113983900D02*
X153228800Y-113821300D01*
X153655600Y-114121000D02*
X153443100Y-113983900D01*
X153689100Y-72868300D02*
X153961400Y-72690100D01*
X153864900Y-93516900D02*
X153874600Y-93736900D01*
X153870300Y-114235900D02*
X153655600Y-114121000D01*
X153872500Y-93302700D02*
X153864900Y-93516900D01*
X153874600Y-93736900D02*
X153903000Y-93958100D01*
X153896800Y-93098700D02*
X153872500Y-93302700D01*
X153903000Y-93958100D02*
X153951100Y-94175500D01*
X153939200Y-92906100D02*
X153896800Y-93098700D01*
X153951100Y-94175500D02*
X154020300Y-94384400D01*
X153961400Y-72690100D02*
X154211400Y-72555600D01*
X154001800Y-92725700D02*
X153939200Y-92906100D01*
X154020300Y-94384400D02*
X154111800Y-94579900D01*
X154086700Y-92558400D02*
X154001800Y-92725700D01*
X154089900Y-114331200D02*
X153870300Y-114235900D01*
X154111800Y-94579900D02*
X154226800Y-94757300D01*
X154195700Y-92404600D02*
X154086700Y-92558400D01*
X154211400Y-72555600D02*
X154444500Y-72462400D01*
X154226800Y-94757300D02*
X154366600Y-94911600D01*
X154313400Y-114408400D02*
X154089900Y-114331200D01*
X154331000Y-92265300D02*
X154195700Y-92404600D01*
X154366600Y-94911600D02*
X154532200Y-95039400D01*
X154444500Y-72462400D02*
X154665600Y-72407900D01*
X154494500Y-92141200D02*
X154331000Y-92265300D01*
X154532200Y-95039400D02*
X154724900Y-95142300D01*
X154538400Y-114468700D02*
X154313400Y-114408400D01*
X154665600Y-72407900D02*
X154879900Y-72389600D01*
X154688300Y-92032900D02*
X154494500Y-92141200D01*
X154724900Y-95142300D02*
X154945600Y-95223300D01*
X154762500Y-114513000D02*
X154538400Y-114468700D01*
X154879900Y-72389600D02*
X155092600Y-72404800D01*
X154914200Y-91940700D02*
X154688300Y-92032900D01*
X154945600Y-95223300D02*
X155195400Y-95285300D01*
X155092600Y-72404800D02*
X155308800Y-72451100D01*
X155173500Y-91862900D02*
X154914200Y-91940700D01*
X155195400Y-95285300D02*
X155475400Y-95331300D01*
X155199200Y-114558100D02*
X154762500Y-114513000D01*
X155308800Y-72451100D02*
X155532400Y-72526000D01*
X155467300Y-91797200D02*
X155173500Y-91862900D01*
X155475400Y-95331300D02*
X155786600Y-95364300D01*
X155532400Y-72526000D02*
X155762700Y-72628600D01*
X155605100Y-114552500D02*
X155199200Y-114558100D01*
X155762700Y-72628600D02*
X155997700Y-72758000D01*
X155786600Y-95364300D02*
X156506900Y-95402800D01*
X155791700Y-114532600D02*
X155605100Y-114552500D01*
X155796800Y-91741300D02*
X155467300Y-91797200D01*
X155969100Y-114498600D02*
X155791700Y-114532600D01*
X155997700Y-72758000D02*
X156235600Y-72913300D01*
X156140600Y-114446900D02*
X155969100Y-114498600D01*
X156235600Y-72913300D02*
X156474500Y-73093800D01*
X156309300Y-114373800D02*
X156140600Y-114446900D01*
X156474500Y-73093800D02*
X156712400Y-73298500D01*
X156478400Y-114275900D02*
X156309300Y-114373800D01*
X156506900Y-95402800D02*
X158322800Y-95443000D01*
X156567500Y-91650100D02*
X155796800Y-91741300D01*
X156650900Y-114149400D02*
X156478400Y-114275900D01*
X156712400Y-73298500D02*
X156947400Y-73526800D01*
X156830100Y-113990900D02*
X156650900Y-114149400D01*
X156947400Y-73526800D02*
X157177600Y-73777700D01*
X157019000Y-113796700D02*
X156830100Y-113990900D01*
X157177600Y-73777700D02*
X157401200Y-74049400D01*
X157401200Y-74049400D02*
X157616900Y-74336300D01*
X157429300Y-113302500D02*
X157019000Y-113796700D01*
X157494600Y-91571400D02*
X156567500Y-91650100D01*
X157616900Y-74336300D02*
X158019400Y-74929000D01*
X157858300Y-112716100D02*
X157429300Y-113302500D01*
X158019400Y-74929000D02*
X158375100Y-75502600D01*
X158272900Y-112102500D02*
X157858300Y-112716100D01*
X158322800Y-95443000D02*
X159372700Y-95478200D01*
X158375100Y-75502600D02*
X158674100Y-76003600D01*
X158639800Y-111526900D02*
X158272900Y-112102500D01*
X158674100Y-76003600D02*
X158914400Y-76383000D01*
X158914400Y-76383000D02*
X159021700Y-76516400D01*
X158934600Y-111045700D02*
X158639800Y-111526900D01*
X159021700Y-76516400D02*
X159126900Y-76607400D01*
X159126900Y-76607400D02*
X159234900Y-76652300D01*
X159167600Y-110682200D02*
X158934600Y-111045700D01*
X159234900Y-76652300D02*
X159350600Y-76647400D01*
X159266800Y-110549200D02*
X159167600Y-110682200D01*
X159350600Y-76647400D02*
X159478800Y-76589000D01*
X159357600Y-110451100D02*
X159266800Y-110549200D01*
X159372700Y-95478200D02*
X160483000Y-95545000D01*
X159442300Y-110389800D02*
X159357600Y-110451100D01*
X159478800Y-76589000D02*
X159624500Y-76473600D01*
X159523500Y-110367100D02*
X159442300Y-110389800D01*
X159603400Y-110384000D02*
X159523500Y-110367100D01*
X159624500Y-76473600D02*
X159791600Y-76299900D01*
X159684800Y-110437800D02*
X159603400Y-110384000D01*
X159750800Y-91396100D02*
X157494600Y-91571400D01*
X159770700Y-110525000D02*
X159684800Y-110437800D01*
X159791600Y-76299900D02*
X159981100Y-76076800D01*
X159863700Y-110642200D02*
X159770700Y-110525000D01*
X159981100Y-76076800D02*
X160427400Y-75527700D01*
X160083100Y-110952300D02*
X159863700Y-110642200D01*
X160365700Y-111340000D02*
X160083100Y-110952300D01*
X160427400Y-75527700D02*
X160684200Y-75224500D01*
X160483000Y-95545000D02*
X161622300Y-95655800D01*
X160684200Y-75224500D02*
X160963600Y-74917300D01*
X160732700Y-111775900D02*
X160365700Y-111340000D01*
X160952400Y-112001000D02*
X160732700Y-111775900D01*
X160955400Y-91287200D02*
X159750800Y-91396100D01*
X160963600Y-74917300D02*
X161265500Y-74617400D01*
X161198500Y-112224900D02*
X160952400Y-112001000D01*
X161265500Y-74617400D02*
X161590100Y-74336200D01*
X161472600Y-112442800D02*
X161198500Y-112224900D01*
X161590100Y-74336200D02*
X161937300Y-74083100D01*
X161622300Y-95655800D02*
X162736700Y-95808500D01*
X161776200Y-112650400D02*
X161472600Y-112442800D01*
X161937300Y-74083100D02*
X162306300Y-73859100D01*
X162111000Y-112843000D02*
X161776200Y-112650400D01*
X162119300Y-91157300D02*
X160955400Y-91287200D01*
X162306300Y-73859100D02*
X162696700Y-73663500D01*
X162478500Y-113016100D02*
X162111000Y-112843000D01*
X162696700Y-73663500D02*
X163107600Y-73495300D01*
X162736700Y-95808500D02*
X163767000Y-95997100D01*
X162879500Y-113166100D02*
X162478500Y-113016100D01*
X163107600Y-73495300D02*
X163538400Y-73353800D01*
X163181700Y-91000600D02*
X162119300Y-91157300D01*
X163311200Y-113293500D02*
X162879500Y-113166100D01*
X163538400Y-73353800D02*
X163988400Y-73238000D01*
X163665300Y-90909700D02*
X163181700Y-91000600D01*
X163767000Y-95997100D02*
X164232000Y-96103000D01*
X163769700Y-113399900D02*
X163311200Y-113293500D01*
X163876500Y-102680100D02*
X163892700Y-102746900D01*
X163892700Y-102746900D02*
X163955400Y-102795700D01*
X163903200Y-102594100D02*
X163876500Y-102680100D01*
X163955400Y-102795700D02*
X164062800Y-102829400D01*
X163968300Y-102488400D02*
X163903200Y-102594100D01*
X163988400Y-73238000D02*
X164456800Y-73147100D01*
X164062800Y-102829400D02*
X164399500Y-102866800D01*
X164066900Y-102362400D02*
X163968300Y-102488400D01*
X164113800Y-90809000D02*
X163665300Y-90909700D01*
X164232000Y-96103000D02*
X164653700Y-96215700D01*
X164251400Y-113486800D02*
X163769700Y-113399900D01*
X164298400Y-84585300D02*
X164300400Y-84705600D01*
X164300400Y-84705600D02*
X164323300Y-84835800D01*
X164319400Y-84476000D02*
X164298400Y-84585300D01*
X164323300Y-84835800D02*
X164365100Y-84974700D01*
X164364800Y-84378600D02*
X164319400Y-84476000D01*
X164365100Y-84974700D02*
X164497000Y-85273700D01*
X164399500Y-102866800D02*
X164878900Y-102888700D01*
X164433100Y-84292500D02*
X164364800Y-84378600D01*
X164456800Y-73147100D02*
X164943000Y-73080200D01*
X164497000Y-85273700D02*
X164679500Y-85593300D01*
X164522300Y-84217000D02*
X164433100Y-84292500D01*
X164524600Y-90697500D02*
X164113800Y-90809000D01*
X164630200Y-84151100D02*
X164522300Y-84217000D01*
X164653700Y-96215700D02*
X165026300Y-96334800D01*
X164679500Y-85593300D02*
X164896000Y-85924200D01*
X164703300Y-101645600D02*
X164066900Y-102362400D01*
X164752500Y-113555700D02*
X164251400Y-113486800D01*
X164878900Y-102888700D02*
X165476800Y-102924500D01*
X164893500Y-84044800D02*
X164630200Y-84151100D01*
X164894900Y-90574000D02*
X164524600Y-90697500D01*
X164896000Y-85924200D02*
X165130000Y-86256800D01*
X164943000Y-73080200D02*
X165445400Y-73036200D01*
X165026300Y-96334800D02*
X165350900Y-96461000D01*
X165101700Y-101156900D02*
X164703300Y-101645600D01*
X165130000Y-86256800D02*
X165584000Y-86889900D01*
X165206200Y-83967000D02*
X164893500Y-84044800D01*
X165222300Y-90437400D02*
X164894900Y-90574000D01*
X165269300Y-113608100D02*
X164752500Y-113555700D01*
X165350900Y-96461000D02*
X165630200Y-96595600D01*
X165445400Y-73036200D02*
X165959000Y-73013200D01*
X165476800Y-102924500D02*
X166165600Y-103000300D01*
X165504100Y-90286800D02*
X165222300Y-90437400D01*
X165506400Y-100605600D02*
X165101700Y-101156900D01*
X165551000Y-83910800D02*
X165206200Y-83967000D01*
X165584000Y-86889900D02*
X165933400Y-87435000D01*
X165630200Y-96595600D02*
X165866900Y-96739700D01*
X165738700Y-90121600D02*
X165504100Y-90286800D01*
X165866900Y-96739700D02*
X166063700Y-96894500D01*
X165882200Y-100022200D02*
X165506400Y-100605600D01*
X165911200Y-83869500D02*
X165551000Y-83910800D01*
X165929100Y-89943400D02*
X165738700Y-90121600D01*
X165933400Y-87435000D02*
X166064300Y-87677200D01*
X165959000Y-73013200D02*
X166478000Y-73009000D01*
X166048400Y-99728000D02*
X165882200Y-100022200D01*
X166063700Y-96894500D02*
X166223400Y-97061100D01*
X166064300Y-87677200D02*
X166168300Y-87904300D01*
X166078800Y-89754800D02*
X165929100Y-89943400D01*
X166165600Y-103000300D02*
X166903100Y-103127100D01*
X166168300Y-87904300D02*
X166247200Y-88119900D01*
X166191800Y-89557900D02*
X166078800Y-89754800D01*
X166194100Y-99437300D02*
X166048400Y-99728000D01*
X166223400Y-97061100D02*
X166348600Y-97240600D01*
X166247200Y-88119900D02*
X166303000Y-88327800D01*
X166271800Y-89355200D02*
X166191800Y-89557900D01*
X166303000Y-88327800D02*
X166337400Y-88531800D01*
X166316000Y-99152900D02*
X166194100Y-99437300D01*
X166322700Y-89149000D02*
X166271800Y-89355200D01*
X166334900Y-113669500D02*
X165269300Y-113608100D01*
X166337400Y-88531800D02*
X166352100Y-88735500D01*
X166348200Y-88941700D02*
X166322700Y-89149000D01*
X166348600Y-97240600D02*
X166442000Y-97434300D01*
X166352100Y-88735500D02*
X166348200Y-88941700D01*
X166413100Y-98876000D02*
X166316000Y-99152900D01*
X166442000Y-97434300D02*
X166506200Y-97642800D01*
X166478000Y-73009000D02*
X166996600Y-73021300D01*
X166484900Y-98607700D02*
X166413100Y-98876000D01*
X166506200Y-97642800D02*
X166541900Y-97865600D01*
X166530700Y-98349100D02*
X166484900Y-98607700D01*
X166541900Y-97865600D02*
X166549900Y-98101400D01*
X166549900Y-98101400D02*
X166530700Y-98349100D01*
X166609200Y-83804000D02*
X165911200Y-83869500D01*
X166903100Y-103127100D02*
X167275700Y-103211900D01*
X166996600Y-73021300D02*
X168008900Y-73086900D01*
X167193600Y-83723400D02*
X166609200Y-83804000D01*
X167275700Y-103211900D02*
X167643300Y-103312300D01*
X167417800Y-113681900D02*
X166334900Y-113669500D01*
X167643300Y-103312300D02*
X168000100Y-103429200D01*
X167675600Y-83609500D02*
X167193600Y-83723400D01*
X167890800Y-83536600D02*
X167675600Y-83609500D01*
X168000100Y-103429200D02*
X168340500Y-103563500D01*
X168008900Y-73086900D02*
X168949100Y-73192500D01*
X168095800Y-83451200D02*
X167890800Y-83536600D01*
X168340500Y-103563500D02*
X168659900Y-103715900D01*
X168485700Y-113651100D02*
X167417800Y-113681900D01*
X168494900Y-83237500D02*
X168095800Y-83451200D01*
X168659900Y-103715900D02*
X168959100Y-103885400D01*
X168907000Y-82955400D02*
X168494900Y-83237500D01*
X168949100Y-73192500D02*
X169780400Y-73323600D01*
X168959100Y-103885400D02*
X169240100Y-104071200D01*
X169120700Y-82782300D02*
X168907000Y-82955400D01*
X169240100Y-104071200D02*
X169505000Y-104272000D01*
X169339500Y-82584000D02*
X169120700Y-82782300D01*
X169505000Y-104272000D02*
X169755800Y-104486800D01*
X169505900Y-113581400D02*
X168485700Y-113651100D01*
X169563600Y-82357600D02*
X169339500Y-82584000D01*
X169755800Y-104486800D02*
X169994300Y-104714400D01*
X169780400Y-73323600D02*
X170505300Y-73477500D01*
X169793000Y-82100300D02*
X169563600Y-82357600D01*
X169994300Y-104714400D02*
X170443200Y-105204100D01*
X170027900Y-81809200D02*
X169793000Y-82100300D01*
X170268300Y-81481500D02*
X170027900Y-81809200D01*
X170443200Y-105204100D02*
X170865500Y-105735000D01*
X170445700Y-113477400D02*
X169505900Y-113581400D01*
X170505300Y-73477500D02*
X171136200Y-73654900D01*
X170513900Y-81115800D02*
X170268300Y-81481500D01*
X170762200Y-80717600D02*
X170513900Y-81115800D01*
X170865500Y-105735000D02*
X171266000Y-106311300D01*
X171136200Y-73654900D02*
X171685500Y-73856100D01*
X171255800Y-79851100D02*
X170762200Y-80717600D01*
X171266000Y-106311300D02*
X171647400Y-106940100D01*
X171275400Y-113340700D02*
X170445700Y-113477400D01*
X171643600Y-113257300D02*
X171275400Y-113340700D01*
X171647400Y-106940100D02*
X172012100Y-107628300D01*
X171685500Y-73856100D02*
X171932700Y-73966300D01*
X171726500Y-78937400D02*
X171255800Y-79851100D01*
X171932700Y-73966300D02*
X172159800Y-74085700D01*
X171978400Y-113161900D02*
X171643600Y-113257300D01*
X172012100Y-107628300D02*
X172359600Y-108375300D01*
X172151600Y-78031800D02*
X171726500Y-78937400D01*
X172159800Y-74085700D02*
X172364000Y-74217400D01*
X172278200Y-113052900D02*
X171978400Y-113161900D01*
X172359600Y-108375300D02*
X172676500Y-109149600D01*
X172364000Y-74217400D02*
X172542600Y-74364400D01*
X172508400Y-77183100D02*
X172151600Y-78031800D01*
X172541100Y-112928800D02*
X172278200Y-113052900D01*
X172542600Y-74364400D02*
X172692800Y-74529900D01*
X172654300Y-76787200D02*
X172508400Y-77183100D01*
X172676500Y-109149600D02*
X172946200Y-109912200D01*
X172692800Y-74529900D02*
X172811800Y-74717000D01*
X172765600Y-112788200D02*
X172541100Y-112928800D01*
X172774600Y-76412900D02*
X172654300Y-76787200D01*
X172811800Y-74717000D02*
X172896800Y-74928700D01*
X172866600Y-76062000D02*
X172774600Y-76412900D01*
X172896800Y-74928700D02*
X172945000Y-75168200D01*
X172927600Y-75736300D02*
X172866600Y-76062000D01*
X172945000Y-75168200D02*
X172954600Y-75437800D01*
X172946200Y-109912200D02*
X173152000Y-110624100D01*
X172949900Y-112629400D02*
X172765600Y-112788200D01*
X172954600Y-75437800D02*
X172927600Y-75736300D01*
X173093100Y-112451200D02*
X172949900Y-112629400D01*
X173152000Y-110624100D02*
X173225600Y-110949700D01*
X173197200Y-112253000D02*
X173093100Y-112451200D01*
X173225600Y-110949700D02*
X173276500Y-111253100D01*
X173264800Y-112034500D02*
X173197200Y-112253000D01*
X173276500Y-111253100D02*
X173301800Y-111534900D01*
X173298800Y-111795200D02*
X173264800Y-112034500D01*
X173301800Y-111534900D02*
X173298800Y-111795200D01*
%TD*%
M02*
