<?xml version="1.0" encoding="UTF-8" standalone="no"?>
<!-- Created with Inkscape (http://www.inkscape.org/) -->

<svg
   width="100.0mm"
   height="100.0mm"
   viewBox="0 0 100.0 100.0"
   version="1.1"
   id="svg5"
   sodipodi:docname="snowflake.svg"
   xml:space="preserve"
   inkscape:version="1.2.2 (732a01da63, 2022-12-09)"
   xmlns:inkscape="http://www.inkscape.org/namespaces/inkscape"
   xmlns:sodipodi="http://sodipodi.sourceforge.net/DTD/sodipodi-0.dtd"
   xmlns="http://www.w3.org/2000/svg"
   xmlns:svg="http://www.w3.org/2000/svg"><sodipodi:namedview
     id="namedview7"
     pagecolor="#505050"
     bordercolor="#eeeeee"
     borderopacity="1"
     inkscape:showpageshadow="0"
     inkscape:pageopacity="0"
     inkscape:pagecheckerboard="0"
     inkscape:deskcolor="#505050"
     inkscape:document-units="mm"
     showgrid="false"
     inkscape:zoom="2.2097881"
     inkscape:cx="142.09507"
     inkscape:cy="194.13626"
     inkscape:window-width="1827"
     inkscape:window-height="1057"
     inkscape:window-x="85"
     inkscape:window-y="-8"
     inkscape:window-maximized="1"
     inkscape:current-layer="g192" /><defs
     id="defs2" /><g
     inkscape:label="[fixed] BG"
     inkscape:groupmode="layer"
     sodipodi:insensitive="true"
     id="g190"><rect
       x="0"
       y="0"
       width="100.0"
       height="100.0"
       style="fill:#FFFFFF;fill-opacity:1;stroke:none"
       id="rect188"
       inkscape:label="rect188" /></g><g
     inkscape:label="Edge.Cuts"
     inkscape:groupmode="layer"
     id="g192"><path
       style="color:#000000;fill:#171717;-inkscape-stroke:none"
       d="m 49.822266,14.181641 -0.253907,0.01563 -0.246093,0.04101 -0.234375,0.0625 -0.230469,0.08203 -0.398438,0.201171 -0.367187,0.25 -0.333985,0.275391 -0.58789,0.5625 -0.607422,0.603516 -0.605469,0.621093 -0.59375,0.638672 -0.574219,0.660156 -0.544921,0.683594 -0.498047,0.705078 -0.232422,0.367188 -0.216797,0.371094 -0.201172,0.378906 -0.185547,0.392578 -0.123047,0.318359 -0.09375,0.328125 -0.06445,0.328125 -0.04102,0.326172 -0.02148,0.324219 -0.0078,0.320312 0.01953,0.621094 0.05078,0.355469 0.101563,0.365234 0.132812,0.351563 0.15625,0.34375 0.320313,0.611328 0.267578,0.476562 0.09766,0.222657 0.0625,0.179687 -0.125,0.0098 -0.400391,-0.01367 -0.65625,-0.04492 -0.810546,-0.04492 -0.898438,-0.01367 -0.470703,0.01563 -0.46875,0.03516 -0.464844,0.05859 -0.455078,0.08984 -0.4375,0.125 -0.417969,0.166016 -0.376953,0.214843 -0.185547,0.136719 -0.167968,0.148438 -0.152344,0.166015 -0.134766,0.183594 -0.115234,0.199219 -0.09375,0.214844 -0.07422,0.230468 -0.05273,0.228516 -0.03125,0.226562 -0.01563,0.232422 0.02148,0.429688 0.07031,0.419922 0.105468,0.40625 0.13086,0.390625 0.285156,0.738281 0.332031,0.767578 0.376953,0.744141 0.408203,0.716797 0.435547,0.697265 0.458985,0.681641 0.474609,0.671875 0.970703,1.324219 0.117188,0.171875 0.0957,0.169921 0.08008,0.173829 0.06641,0.173828 0.04687,0.175781 0.03125,0.171875 0.01367,0.169922 -0.0039,0.162109 -0.02344,0.15625 -0.03906,0.148438 -0.05859,0.142578 -0.07617,0.134765 -0.09766,0.13086 -0.123047,0.125 -0.150391,0.117187 -0.18164,0.111328 -0.189453,0.08984 -0.191407,0.06836 -0.191406,0.04492 -0.191406,0.02734 -0.193359,0.0078 -0.19336,-0.01172 -0.191406,-0.0293 -0.191406,-0.04492 -0.1875,-0.06055 -0.185547,-0.07813 -0.179688,-0.0918 -0.173828,-0.107421 -0.166015,-0.117188 -0.158204,-0.130859 -0.148437,-0.140625 -0.138672,-0.152344 -0.251953,-0.306641 -0.248047,-0.324218 -0.496094,-0.701172 -1,-1.513672 -0.53125,-0.773438 -0.566406,-0.757812 -0.306641,-0.373047 -0.318359,-0.359375 -0.335937,-0.347656 -0.357422,-0.332032 -0.523438,-0.425781 -0.285156,-0.203125 -0.292969,-0.1875 -0.30664,-0.173828 -0.316407,-0.160156 -0.332031,-0.144531 -0.347656,-0.13086 -0.240235,-0.07227 -0.24414,-0.04883 -0.244141,-0.02539 -0.238281,-0.0039 -0.234375,0.01758 -0.240234,0.03906 -0.429688,0.123047 -0.412109,0.185547 -0.384766,0.234375 -0.359375,0.269531 -0.333984,0.298828 -0.3125,0.31836 -0.289063,0.330078 -0.267578,0.335937 -0.248047,0.333985 -0.419922,0.623047 -0.326172,0.517578 -0.226562,0.333984 -0.136719,0.169922 -0.103515,-0.119141 -0.386719,-0.433593 -0.445313,-0.462891 -0.507812,-0.46875 -0.28711,-0.234375 -0.302734,-0.228516 -0.322266,-0.216797 -0.34375,-0.207031 -0.367187,-0.191406 -0.390625,-0.177734 -0.40625,-0.148438 -0.408203,-0.111328 -0.40625,-0.07813 -0.400391,-0.05078 -0.40039,-0.0293 -0.398438,-0.01367 -0.794922,-0.0059 -1.439453,0.01563 -1.396484,0.05664 -0.703125,0.05273 -0.705078,0.07031 -0.71875,0.08984 -0.732422,0.113281 -0.796875,0.126953 -0.427735,0.08008 -0.43164,0.103516 -0.429688,0.144531 -0.402343,0.191406 -0.205079,0.13086 -0.185546,0.144531 -0.1738286,0.167969 -0.1582031,0.193359 -0.1425782,0.236328 -0.097656,0.251953 -0.056641,0.257813 -0.019531,0.255859 0.00977,0.251953 0.035156,0.253907 0.1210937,0.46289 0.1660157,0.447266 0.1855468,0.416016 0.3359379,0.71875 0.292968,0.667968 0.322266,0.6875 0.349609,0.695313 0.382813,0.691406 0.419922,0.679688 0.460937,0.65625 0.50586,0.625 0.27539,0.302734 0.289063,0.291016 0.345703,0.304687 0.365234,0.273438 0.382813,0.242187 0.40039,0.208984 0.414063,0.181641 0.427734,0.15625 0.44336,0.128906 0.460937,0.111328 0.558594,0.09961 0.595703,0.06836 0.597656,0.02734 0.554688,-0.02539 0.492187,-0.06445 -0.0293,0.06445 -0.169922,0.257813 -0.451171,0.572265 -0.564454,0.701172 -0.289062,0.375 -0.271484,0.378907 -0.242188,0.375 -0.199219,0.363281 -0.162109,0.376953 -0.123047,0.390625 -0.07227,0.404297 -0.0059,0.404297 0.0293,0.222656 0.04883,0.212891 0.07422,0.207031 0.09766,0.203125 0.123047,0.197265 0.148437,0.185547 0.173829,0.175782 0.193359,0.162109 0.28125,0.199219 0.292969,0.179687 0.302734,0.164063 0.314453,0.144531 0.326172,0.130859 0.337891,0.119141 0.685547,0.189453 0.716796,0.146484 0.736329,0.103516 0.751953,0.07031 0.757812,0.03906 0.761719,0.01563 0.757812,-0.0039 1.470704,-0.04102 1.376953,-0.05664 1.226562,-0.03125 0.482422,0.0098 0.478516,0.03516 0.457031,0.07227 0.201172,0.04883 0.1875,0.0625 0.169922,0.07227 0.148437,0.08203 0.125,0.0918 0.103516,0.101562 0.08594,0.111329 0.06836,0.126953 0.05273,0.15039 0.03125,0.179688 0.0059,0.193359 -0.02344,0.177735 -0.05273,0.169921 -0.07813,0.164063 -0.107422,0.160156 -0.134766,0.154297 -0.162109,0.148438 -0.1875,0.140625 -0.210938,0.128906 -0.228515,0.117187 -0.246094,0.105469 -0.257813,0.08789 -0.265625,0.07422 -0.271484,0.05664 -0.273438,0.04102 -0.273437,0.02344 -1.001953,0.03125 -1,0.002 -2.00586,-0.01758 -1.013671,0.01563 -1.021485,0.05078 -0.519531,0.04687 -0.523438,0.0625 -0.52539,0.08203 -0.527344,0.101562 -0.732422,0.16211 -0.384765,0.09961 -0.382813,0.121094 -0.378906,0.148437 -0.365235,0.181641 -0.347656,0.228515 -0.308594,0.273438 -0.158203,0.181641 -0.132812,0.185546 -0.111328,0.191407 -0.08789,0.197265 -0.06641,0.201172 -0.04883,0.214844 -0.0332,0.396484 0.0332,0.402344 0.08594,0.390625 0.128906,0.380859 0.164063,0.367188 0.1875,0.355469 0.207031,0.345703 0.433594,0.640625 0.78125,1.05664 0.08008,0.125 0.0332,0.06836 0.04883,0.166015 0.05273,0.158204 -0.132813,0.02344 -0.351562,0.02148 h -0.710938 l -0.388672,0.0078 -0.386718,0.03125 -0.572266,0.09766 -0.558594,0.146485 -0.537109,0.191406 -0.513672,0.234375 -0.488281,0.27539 -0.455078,0.316407 -0.423828,0.351562 -0.394532,0.382813 -0.365234,0.40625 -0.339844,0.427734 -0.316406,0.443359 -0.292969,0.455079 -0.271484,0.464843 -0.25586,0.472657 -0.458984,0.933593 -0.40625,0.910157 -0.365234,0.849609 -0.28125,0.644531 -0.1425785,0.369141 -0.1230469,0.392578 -0.080078,0.40625 -0.021484,0.224609 v 0.220703 l 0.023437,0.22461 0.048828,0.226562 0.080078,0.222657 0.1152344,0.222656 0.1835937,0.248047 0.224609,0.214843 0.248047,0.179688 0.269532,0.148437 0.28125,0.123047 0.300781,0.105469 0.601562,0.15625 0.617188,0.109375 0.601562,0.08008 1.042969,0.121094 0.882813,0.119141 0.919921,0.109375 0.939453,0.08594 0.949219,0.04883 0.947266,-0.0039 0.478515,-0.02539 0.470704,-0.04492 0.46875,-0.06445 0.46289,-0.08789 0.457031,-0.111328 0.451172,-0.138672 0.279297,-0.107422 0.279297,-0.132813 0.279297,-0.15625 0.279297,-0.173828 0.535156,-0.384765 0.513672,-0.427735 0.474609,-0.447265 0.417969,-0.447266 0.347656,-0.427734 0.25,-0.376954 0.167969,-0.279296 0.07422,-0.103516 0.125,0.166016 0.18164,0.310546 0.273438,0.544922 0.349609,0.671875 0.205078,0.365235 0.22461,0.36914 0.246094,0.369141 0.269531,0.359375 0.296875,0.341797 0.324219,0.314453 0.355468,0.283203 0.38086,0.230469 0.216797,0.09961 0.21875,0.08203 0.226562,0.0625 0.234375,0.04297 0.240234,0.02148 h 0.248047 l 0.253907,-0.02539 0.253906,-0.04687 0.314453,-0.08398 0.304687,-0.103516 0.300782,-0.123047 0.298828,-0.140625 0.564453,-0.318359 0.546875,-0.376953 0.523437,-0.421875 0.5,-0.460938 0.476563,-0.492187 0.451172,-0.515625 0.427734,-0.53125 0.404297,-0.541016 0.376953,-0.542969 0.351563,-0.539062 0.322265,-0.527344 0.296875,-0.509766 0.492188,-0.914062 0.226562,-0.404297 0.263672,-0.378906 0.136719,-0.166016 0.150391,-0.160156 0.15625,-0.144531 0.164062,-0.126954 0.169922,-0.107421 0.177734,-0.08984 0.185547,-0.06836 0.19336,-0.04883 0.203125,-0.02344 0.21875,-0.002 0.234375,0.0293 0.251953,0.05859 0.207031,0.07422 0.171875,0.0918 0.146484,0.105469 0.123047,0.121093 0.103516,0.134766 0.08789,0.148438 0.07031,0.164062 0.05273,0.177734 0.03906,0.189454 0.02148,0.195312 0.0059,0.201172 -0.0098,0.203125 -0.02344,0.201172 -0.03711,0.195312 -0.04687,0.1875 -0.05469,0.166016 -0.117188,0.263672 -0.150391,0.263672 -0.18164,0.267578 -0.205078,0.271484 -0.453125,0.5625 L 40,71.732422 l -0.21875,0.300781 -0.609375,0.9375 -0.558594,0.962891 -0.501953,0.986328 -0.443359,1.001953 -0.113282,0.296875 -0.0957,0.298828 -0.07617,0.300781 -0.06055,0.308594 -0.07031,0.599609 -0.0078,0.605469 0.02148,0.242188 0.04492,0.230468 0.06836,0.220704 0.08984,0.207031 0.111328,0.193359 0.128906,0.179688 0.144532,0.164062 0.164062,0.154297 0.339844,0.25 0.382812,0.205078 0.410157,0.164063 0.427734,0.126953 0.441406,0.09766 0.449219,0.06836 0.451172,0.04687 0.445312,0.02539 0.435547,0.0059 0.421875,-0.0078 0.738281,-0.04883 0.695313,-0.04297 0.544922,-0.01367 -0.002,0.0098 -0.09375,0.230469 -0.103516,0.197265 -0.140625,0.240235 -0.296875,0.519531 -0.183594,0.390625 -0.152343,0.394531 -0.123047,0.400391 -0.08594,0.410156 -0.04883,0.417969 -0.0059,0.423828 0.04102,0.427734 0.08984,0.427735 0.115234,0.376953 0.142579,0.36914 0.166015,0.367188 0.189453,0.363281 0.207032,0.357422 0.226562,0.359375 0.486328,0.689453 0.527344,0.669922 0.546875,0.640625 0.548828,0.605469 0.525391,0.55664 0.621093,0.679688 0.367188,0.388672 0.408203,0.390625 0.441406,0.359375 0.248047,0.166015 0.253906,0.146485 0.267579,0.125 0.28125,0.0957 0.296875,0.06445 0.304687,0.02539 0.275391,-0.01367 0.263672,-0.04492 0.253906,-0.06836 0.242187,-0.09375 0.228516,-0.111328 0.222656,-0.128906 0.396485,-0.279297 0.363281,-0.310547 0.330078,-0.316406 0.5625,-0.578125 1.142578,-1.175781 0.570313,-0.626953 0.550781,-0.646485 0.511719,-0.671875 0.240234,-0.349609 0.226562,-0.355469 0.208985,-0.361328 0.191406,-0.369141 0.169922,-0.378906 0.148437,-0.384765 0.125,-0.388672 0.09961,-0.40625 0.0625,-0.427735 0.0059,-0.435547 -0.05664,-0.511718 -0.09766,-0.507813 -0.140625,-0.501953 -0.183593,-0.490234 -0.191407,-0.388672 -0.228515,-0.382813 -0.4375,-0.648437 -0.123047,-0.195313 0.101562,-0.0039 0.421875,0.01367 1.501953,0.142578 0.865235,0.05273 0.449219,0.0098 0.449218,-0.01172 0.447266,-0.0332 0.439453,-0.0625 0.427734,-0.09766 0.414063,-0.136719 0.392578,-0.1875 0.355469,-0.236328 0.173828,-0.152344 0.15625,-0.160156 0.142578,-0.177734 0.130859,-0.195313 0.101563,-0.199219 0.07617,-0.208984 0.05273,-0.212891 0.0332,-0.220703 0.0098,-0.408203 -0.04102,-0.410156 -0.07422,-0.394531 -0.0918,-0.375 -0.19336,-0.66211 -0.146484,-0.455078 -0.167969,-0.453125 -0.1875,-0.443359 -0.205078,-0.433594 -0.220703,-0.425781 -0.236328,-0.419922 -0.503906,-0.810547 -0.542969,-0.791016 -0.570313,-0.77539 -1.166015,-1.50586 -0.109375,-0.15625 -0.0918,-0.160156 -0.07422,-0.169922 -0.06055,-0.175781 -0.04102,-0.179687 -0.02344,-0.179688 -0.0059,-0.173828 0.01563,-0.169922 0.0332,-0.158203 0.05078,-0.146484 0.07227,-0.136719 0.08984,-0.125 0.113282,-0.113281 0.142578,-0.103516 0.171875,-0.0918 0.216797,-0.07813 0.195312,-0.04883 0.203125,-0.03516 0.205078,-0.01953 0.207032,-0.0039 0.207031,0.01172 0.205078,0.02344 0.203125,0.03906 0.199219,0.05273 0.191406,0.06445 0.1875,0.07617 0.177734,0.08984 0.167969,0.09961 0.15625,0.111329 0.146484,0.121093 0.132813,0.128907 0.123047,0.140625 0.335937,0.441406 0.324219,0.460937 0.636719,0.966797 0.636719,0.994141 0.667968,0.992187 0.363282,0.492188 0.382812,0.478515 0.412109,0.462891 0.44336,0.445313 0.480469,0.421875 0.519531,0.394531 0.566406,0.361328 0.611328,0.324219 0.242188,0.105468 0.240234,0.08008 0.240234,0.06055 0.238282,0.03711 0.236328,0.01758 0.232422,-0.002 0.226562,-0.02148 0.232422,-0.04102 0.416016,-0.123047 0.40039,-0.179688 0.373047,-0.224609 0.34961,-0.259766 0.322265,-0.287109 0.300781,-0.306641 L 73.111328,74 l 0.253906,-0.326172 0.230469,-0.326172 0.210938,-0.322265 0.341796,-0.587891 0.214844,-0.414063 0.230469,-0.398437 0.101562,-0.138672 0.08203,-0.08594 0.03125,-0.01953 0.0293,0.002 0.03711,0.01367 0.03516,0.02148 0.03906,0.0332 0.144531,0.179687 0.167969,0.246094 0.380859,0.496094 0.46875,0.533203 0.265625,0.269531 0.273438,0.253906 0.287109,0.234375 0.296875,0.207032 0.541016,0.30664 0.5625,0.251953 0.580078,0.201172 0.595703,0.15625 0.607422,0.113282 0.613281,0.07617 0.621094,0.04102 0.625,0.01172 0.625,-0.01367 0.623047,-0.03516 0.621093,-0.05469 0.615235,-0.07031 1.195312,-0.167969 1.134766,-0.1875 0.90039,-0.125 0.492188,-0.07617 0.503906,-0.105469 0.490235,-0.148437 0.25,-0.103516 0.236328,-0.121094 0.226562,-0.146484 0.210938,-0.171875 0.189453,-0.203125 0.166015,-0.236328 0.111329,-0.226563 0.07813,-0.234375 0.04102,-0.236328 0.01367,-0.234375 -0.01172,-0.230468 -0.03125,-0.232422 -0.105468,-0.421875 -0.142579,-0.410157 -0.160156,-0.380859 -0.292969,-0.662109 -0.382812,-0.898438 -0.431641,-0.949219 -0.240234,-0.486328 -0.257813,-0.484375 -0.277343,-0.480468 -0.300782,-0.470704 -0.324218,-0.460937 -0.351563,-0.443359 -0.382812,-0.421875 -0.41211,-0.398438 -0.447265,-0.365234 -0.480469,-0.333985 -0.519531,-0.291015 -0.556641,-0.246094 -0.449219,-0.148438 -0.447265,-0.107421 -0.445313,-0.07422 -0.445312,-0.04492 -0.857422,-0.03711 -0.847656,-0.0098 h -0.3125 l -0.195313,-0.01172 0.0039,-0.01953 0.04297,-0.09961 0.06836,-0.123047 0.08594,-0.128907 0.208984,-0.269531 0.53125,-0.623047 0.541016,-0.669922 0.257812,-0.365234 0.234375,-0.380859 0.201172,-0.402344 0.154297,-0.419922 0.109375,-0.443359 0.05078,-0.427735 0.002,-0.230468 -0.01758,-0.21875 -0.03711,-0.220704 -0.0625,-0.214843 -0.08594,-0.210938 -0.113282,-0.203125 -0.136718,-0.191406 -0.16211,-0.181641 L 82.289062,56.417969 82.082031,56.263672 81.851562,56.123047 81.599609,55.996094 81.046875,55.763672 80.470703,55.5625 79.875,55.390625 l -0.613281,-0.144531 -0.626953,-0.119141 -0.636719,-0.0957 -0.646485,-0.07422 -0.65039,-0.05273 -0.652344,-0.03516 -0.654297,-0.01758 -1.285156,0.01172 -1.244141,0.05859 -1.160156,0.09766 -0.488281,0.02344 -0.488281,-0.02539 -0.230469,-0.03125 -0.228516,-0.04492 -0.222656,-0.05859 -0.208984,-0.07031 -0.19336,-0.08398 -0.177734,-0.0957 -0.158203,-0.105468 -0.136719,-0.117188 -0.117188,-0.126953 -0.09766,-0.136719 -0.07813,-0.148437 -0.05859,-0.167969 -0.03125,-0.152344 -0.01172,-0.152343 0.0059,-0.152344 0.02344,-0.150391 0.04297,-0.148437 0.05859,-0.144532 0.07617,-0.140625 0.0918,-0.136718 0.109375,-0.128907 0.126953,-0.121093 0.140625,-0.111328 0.15625,-0.09961 0.171875,-0.08789 0.183594,-0.07422 0.197265,-0.05859 0.212891,-0.04297 0.359375,-0.03906 0.373047,-0.01563 0.384765,0.0039 0.388672,0.01953 0.785157,0.07031 0.759765,0.08203 0.720703,0.04297 0.703125,-0.0078 1.390625,-0.08008 0.820313,-0.06836 0.818359,-0.105469 0.806641,-0.136719 0.796875,-0.164062 0.732422,-0.175781 0.388672,-0.109375 0.390625,-0.13086 0.382812,-0.15625 0.371094,-0.189453 0.349609,-0.230469 0.308594,-0.273437 0.164062,-0.19336 0.134766,-0.197265 0.109375,-0.205078 0.08203,-0.212891 0.05664,-0.216797 0.03125,-0.21875 0.0098,-0.216797 -0.01172,-0.226562 -0.07422,-0.410156 -0.132812,-0.408204 -0.177735,-0.396484 -0.210937,-0.380859 -0.234375,-0.369141 -0.253907,-0.355469 -0.511718,-0.648437 -0.478516,-0.5625 -0.367187,-0.439453 -0.179688,-0.261719 0.240234,-0.01172 0.523438,-0.0039 0.595703,-0.01172 0.658203,-0.04687 0.363281,-0.04883 0.375,-0.06641 0.388672,-0.0918 0.40625,-0.119141 0.419922,-0.148437 0.439453,-0.185547 0.503907,-0.259766 0.470703,-0.298828 0.435547,-0.333984 0.402343,-0.361328 0.371094,-0.388672 0.341797,-0.408203 0.316406,-0.425782 0.291016,-0.4375 0.269531,-0.447265 0.251953,-0.455078 0.451172,-0.904297 L 89.28125,38 l 0.371094,-0.839844 0.308593,-0.664062 0.164063,-0.378907 0.148437,-0.404296 0.111329,-0.416016 0.03906,-0.226563 0.01953,-0.226562 -0.002,-0.230469 -0.02734,-0.232422 -0.05859,-0.232422 -0.0918,-0.228515 -0.136719,-0.236328 -0.162109,-0.208985 -0.183594,-0.18164 -0.201172,-0.154297 -0.210937,-0.13086 -0.226563,-0.111328 -0.441406,-0.158203 -0.458985,-0.111328 -0.453125,-0.08008 -0.851562,-0.125 -1.332031,-0.199219 -1.357422,-0.158203 -0.685547,-0.05859 -0.679688,-0.04492 -0.677734,-0.02539 -0.673828,-0.0078 -0.980469,0.02539 -0.509765,0.03906 -0.507813,0.0625 -0.505859,0.0918 -0.501953,0.125 -0.490235,0.167969 -0.470703,0.210938 -0.34375,0.189453 -0.3125,0.201172 -0.285156,0.21289 -0.267578,0.220703 -0.457032,0.44336 -0.392578,0.443359 -0.642578,0.791016 -0.277344,0.310547 -0.175781,-0.248047 -0.134765,-0.205078 -0.144532,-0.257813 -0.287109,-0.513672 -0.363281,-0.576172 -0.431641,-0.58789 -0.25,-0.294922 -0.263672,-0.28125 -0.28125,-0.267578 -0.302734,-0.25 -0.322266,-0.22461 -0.345703,-0.197265 -0.365234,-0.160157 -0.386719,-0.11914 -0.40625,-0.06836 -0.417969,-0.01367 -0.271484,0.02344 -0.259766,0.04687 -0.251953,0.06641 -0.25,0.08398 -0.455078,0.207031 -0.427734,0.255859 -0.398438,0.283203 -0.365234,0.296875 -0.333985,0.298829 -0.304687,0.289062 -0.34375,0.347656 -0.326172,0.359375 -0.304688,0.365235 -0.291015,0.371093 -0.535156,0.744141 -0.503907,0.75 -0.488281,0.740234 -0.492187,0.72461 -0.521485,0.703125 -0.273437,0.333984 -0.285157,0.326172 -0.166015,0.169922 -0.181641,0.160156 -0.197265,0.150391 -0.210938,0.138672 -0.21875,0.125 -0.226562,0.109375 -0.230469,0.08789 -0.230469,0.06836 -0.230469,0.04687 -0.222656,0.02344 h -0.21875 l -0.207031,-0.02539 -0.199219,-0.05078 -0.189453,-0.07813 -0.181641,-0.105468 -0.177734,-0.140625 -0.136719,-0.142579 -0.105469,-0.140625 -0.07813,-0.140625 -0.05469,-0.140625 -0.0332,-0.142578 -0.01367,-0.15039 0.0039,-0.15625 0.02148,-0.164063 0.04102,-0.169922 0.05859,-0.175781 0.07422,-0.179687 0.08789,-0.175782 0.222657,-0.367187 0.265625,-0.355469 L 59.75,36.0625 l 0.669922,-0.894531 0.644531,-0.939453 0.306641,-0.490235 0.289062,-0.496094 0.269531,-0.505859 0.246094,-0.513672 0.216797,-0.521484 0.1875,-0.529297 0.152344,-0.535156 0.113281,-0.542969 0.07031,-0.546875 0.02148,-0.550781 -0.01172,-0.21875 -0.03516,-0.214844 -0.05469,-0.207031 -0.07422,-0.199219 -0.09375,-0.189453 -0.117188,-0.1875 -0.261719,-0.3125 -0.320312,-0.273438 -0.365234,-0.226562 -0.402344,-0.179688 -0.433594,-0.132812 -0.484375,-0.09375 -0.494141,-0.05469 -0.498046,-0.02344 h -0.5 l -0.972657,0.03125 -0.9375,0.0293 -0.273437,0.01367 -0.25586,0.0293 -0.408203,0.04297 -0.109375,-0.002 -0.01172,-0.002 0.01758,-0.05078 0.08984,-0.191407 0.113282,-0.191406 0.146484,-0.259765 0.164063,-0.330079 0.320312,-0.75 0.150391,-0.410156 0.125,-0.402344 0.0957,-0.386718 0.05469,-0.361328 0.0098,-0.53125 -0.04883,-0.517579 -0.105469,-0.507812 -0.152344,-0.494141 -0.193359,-0.480468 -0.232422,-0.466797 -0.261719,-0.453125 -0.289062,-0.441407 -0.3125,-0.429687 -0.330078,-0.419922 -0.689453,-0.796875 -0.710938,-0.753906 -0.685547,-0.701172 -0.505859,-0.542969 -0.28711,-0.30664 -0.318359,-0.310547 -0.347656,-0.296875 -0.376953,-0.261719 -0.212891,-0.119141 -0.21875,-0.09961 -0.228516,-0.07813 -0.238281,-0.05664 -0.27539,-0.03516 z m 0.01758,1 0.167968,0.0059 0.177735,0.02344 0.136719,0.03125 0.136718,0.04687 0.138672,0.06445 0.134766,0.07422 0.292969,0.203125 0.285156,0.244141 0.279297,0.273437 0.273437,0.289063 0.509766,0.548828 0.689453,0.705078 0.6875,0.730469 0.662109,0.763672 0.304688,0.386719 0.285156,0.394531 0.261719,0.398437 0.232422,0.400391 0.201172,0.404297 0.164062,0.40625 0.125,0.40625 0.08398,0.408203 0.03906,0.408203 -0.0078,0.408203 -0.03906,0.25 -0.07617,0.3125 -0.109375,0.351563 -0.132812,0.361328 -0.298829,0.701172 -0.140625,0.28125 -0.126953,0.226562 -0.130859,0.220703 -0.142578,0.296875 -0.06055,0.199219 -0.02148,0.144531 -0.285157,0.183594 0.541016,0.839844 0.175781,-0.113281 0.179688,0.101562 0.289062,0.06055 0.267578,0.0039 0.466797,-0.04883 0.230469,-0.02539 0.234375,-0.01172 0.929687,-0.0293 0.955079,-0.03125 h 0.460937 l 0.445313,0.02148 0.421875,0.04492 0.390625,0.07617 0.322265,0.09961 0.285156,0.126953 0.244141,0.150391 0.199219,0.169922 0.162109,0.195312 0.05469,0.08789 0.05078,0.101563 0.03906,0.103515 0.0293,0.109375 0.01758,0.113281 0.0059,0.121094 -0.01758,0.460938 -0.05859,0.46289 -0.09766,0.46875 -0.134766,0.470703 -0.167969,0.47461 -0.197265,0.472656 -0.22461,0.472656 -0.25,0.46875 -0.271484,0.466797 -0.287109,0.457031 -0.621094,0.904297 -0.648438,0.867188 -0.662109,0.830078 -0.302734,0.40625 -0.271485,0.445312 L 57.601562,37.375 57.5,37.621094 l -0.08398,0.251953 -0.0625,0.259765 -0.03516,0.267579 -0.0078,0.271484 0.02734,0.275391 0.06445,0.27539 0.103515,0.271485 0.144532,0.259765 0.183593,0.248047 0.226563,0.234375 0.285156,0.224609 0.304688,0.179688 0.318359,0.128906 0.328125,0.08398 0.330078,0.04102 h 0.330078 l 0.326172,-0.0332 0.320313,-0.06445 0.3125,-0.09375 0.302734,-0.117188 0.292969,-0.140625 0.28125,-0.158203 0.265625,-0.177734 0.251953,-0.193359 0.234375,-0.205079 0.210937,-0.214843 0.316407,-0.361328 0.298828,-0.367188 0.546875,-0.736328 0.509765,-0.748047 0.490235,-0.744141 0.490234,-0.732421 0.515625,-0.714844 0.267578,-0.341797 0.28125,-0.337891 0.298828,-0.328125 0.316407,-0.320312 0.28125,-0.267578 0.30664,-0.273438 0.322266,-0.263672 0.33789,-0.240234 0.347657,-0.205078 0.361328,-0.164063 0.167969,-0.05859 0.177734,-0.04687 0.175781,-0.03125 0.169922,-0.01367 0.289063,0.0078 0.27539,0.04687 0.269531,0.08203 0.263672,0.117188 0.257813,0.148437 0.253906,0.175782 0.244141,0.203125 0.236328,0.222656 0.224609,0.240234 0.210938,0.25 0.392578,0.533203 0.330078,0.521485 0.273437,0.49414 0.164063,0.28711 0.162109,0.248047 0.265625,0.376953 0.09766,0.148437 0.07422,0.142578 0.05859,0.15625 0.05273,0.22461 0.972657,-0.232422 -0.04883,-0.207031 0.05469,-0.04492 0.185547,-0.173828 0.328125,-0.365235 0.644531,-0.794922 0.351563,-0.398437 0.402343,-0.388672 0.216797,-0.179687 0.236328,-0.175782 0.259766,-0.166015 0.277344,-0.154297 0.388672,-0.173828 0.40625,-0.138672 0.429687,-0.109375 0.445313,-0.08008 0.457031,-0.05469 0.460937,-0.03516 0.935547,-0.02539 0.642578,0.0078 0.650391,0.02539 0.658203,0.04102 0.658203,0.05859 1.328125,0.152344 1.316407,0.197265 0.83789,0.125 0.408203,0.07031 0.375,0.0918 0.339844,0.123046 0.134766,0.06445 0.125,0.07813 0.109375,0.08398 0.09375,0.0918 0.08008,0.103515 0.06836,0.117188 0.03906,0.09766 0.02539,0.105469 0.01367,0.115234 0.002,0.126953 -0.01367,0.136719 -0.02344,0.142578 -0.08789,0.326172 -0.123047,0.335938 -0.148437,0.341797 -0.304688,0.660156 -0.373046,0.84375 -0.394532,0.867187 -0.433593,0.869141 -0.232422,0.419922 -0.248047,0.412109 -0.265625,0.398438 -0.283203,0.380859 -0.302735,0.359375 -0.322265,0.337891 -0.345703,0.310547 -0.369141,0.283203 -0.394531,0.25 -0.429688,0.220703 -0.378906,0.160156 -0.365234,0.130859 -0.351563,0.103516 -0.337891,0.07813 -0.326171,0.05859 -0.308594,0.04102 -0.603516,0.04297 -0.564453,0.01172 -0.539062,0.0039 -0.513672,0.02539 -0.263672,0.0332 -0.777344,0.160156 0.205078,0.648438 -0.07617,0.164062 0.15625,0.07422 0.03711,0.101562 0.15625,0.314454 0.248047,0.357421 0.398437,0.476563 0.470703,0.554687 0.484375,0.615235 0.22461,0.314453 0.205078,0.320312 0.175781,0.316407 0.138672,0.308593 0.09375,0.292969 0.05078,0.28125 0.0059,0.117188 -0.0039,0.117187 -0.01758,0.113281 -0.02734,0.107422 -0.04102,0.105469 -0.05469,0.105469 -0.07031,0.103515 -0.08594,0.09961 -0.205078,0.18164 -0.242187,0.160157 -0.283204,0.144531 -0.314453,0.126953 -0.33789,0.113281 -0.345703,0.09766 -0.697266,0.167968 -0.765625,0.158203 -0.769531,0.13086 -0.775391,0.09961 -0.785156,0.06445 -1.355469,0.07813 -0.642578,0.0078 -0.664063,-0.03906 -0.74414,-0.08008 -0.8125,-0.07422 -0.427735,-0.02148 -0.43164,-0.0059 -0.435547,0.01953 -0.433594,0.04883 -0.300781,0.05859 -0.285156,0.08594 -0.271485,0.107422 -0.255859,0.132813 -0.238281,0.152343 -0.216797,0.171875 -0.197266,0.189454 -0.175781,0.207031 -0.152344,0.222656 -0.126953,0.234375 -0.101562,0.248047 -0.07227,0.257812 -0.04102,0.265625 -0.01172,0.271485 0.02344,0.27539 0.05664,0.275391 0.103515,0.298828 0.142578,0.273438 0.175782,0.248047 0.203125,0.21875 0.226562,0.191406 0.244141,0.164062 0.257812,0.138672 0.269532,0.117188 0.279296,0.09375 0.28711,0.07617 0.291015,0.05664 0.298829,0.04102 0.580078,0.03125 0.55664,-0.02734 1.160157,-0.09766 1.207031,-0.05859 1.246094,-0.0098 0.623046,0.01758 0.625,0.0332 0.621094,0.05078 0.613281,0.07031 0.601563,0.08984 0.585937,0.111328 0.56836,0.132813 0.544922,0.158203 0.519531,0.181641 0.492187,0.207031 0.183594,0.09375 0.158203,0.0957 0.132813,0.09766 0.109375,0.09961 0.08984,0.09961 0.07031,0.09961 0.05664,0.103516 0.04492,0.105469 0.03125,0.113281 0.02148,0.119141 0.0098,0.128906 v 0.128906 l -0.03906,0.314453 -0.08008,0.330078 -0.117188,0.314453 -0.15625,0.314454 -0.195312,0.316406 -0.220703,0.3125 -0.513672,0.636719 -0.535156,0.628906 -0.246094,0.318359 -0.126953,0.189453 -0.113281,0.201172 -0.09375,0.216797 -0.0625,0.246094 -0.0059,0.283203 0.0039,0.01367 -0.126953,-0.02344 -0.02734,0.142578 0.208984,0.03906 0.03516,0.105469 0.158203,0.21875 0.183594,0.15625 0.205078,0.101562 0.210938,0.05469 0.328125,0.01953 h 0.33789 l 0.822266,0.0098 0.8125,0.03516 0.386719,0.03906 0.380859,0.0625 0.371094,0.08984 0.361328,0.119141 0.46875,0.207031 0.4375,0.246094 0.410156,0.283203 0.382813,0.314453 0.359375,0.345703 0.33789,0.373047 0.314453,0.398437 0.294922,0.416016 0.275391,0.433594 0.259766,0.447265 0.242187,0.455079 0.226563,0.457031 0.417968,0.923828 0.38086,0.894531 0.292968,0.660156 0.144532,0.34375 0.117187,0.335938 0.08008,0.324219 0.01953,0.138672 0.0059,0.132812 -0.0059,0.123047 -0.01953,0.109375 -0.0332,0.09766 -0.04492,0.0918 -0.08203,0.117188 -0.09766,0.103515 -0.117188,0.0957 -0.134765,0.08789 -0.15625,0.08008 -0.166016,0.06836 -0.400391,0.123047 -0.435546,0.08984 -0.458985,0.07031 -0.90625,0.126953 -1.134765,0.1875 -1.171875,0.164062 -0.587891,0.06836 -0.59375,0.05078 -0.589844,0.03516 -0.58789,0.01172 -0.578125,-0.01172 -0.570313,-0.03711 -0.556641,-0.06836 -0.541015,-0.101562 -0.523438,-0.136719 -0.501953,-0.175781 -0.480469,-0.214844 -0.458984,-0.257812 -0.226562,-0.158204 -0.232422,-0.191406 -0.236328,-0.21875 -0.226563,-0.230469 -0.429687,-0.488281 -0.34375,-0.449219 -0.175782,-0.253906 -0.220703,-0.27539 -0.171875,-0.154297 -0.154297,-0.0918 0.04883,-0.0098 -0.06055,-0.291015 -0.980469,0.201171 0.01172,0.06055 -0.232422,0.150391 -0.208985,0.216797 -0.173828,0.238281 -0.267578,0.462891 -0.212891,0.410156 -0.318359,0.546875 -0.185547,0.287109 -0.207031,0.291016 -0.224609,0.287109 -0.238282,0.277344 -0.253906,0.259766 -0.265625,0.234375 -0.273437,0.205078 -0.28125,0.167969 -0.283204,0.128906 -0.298828,0.08789 -0.134765,0.02344 -0.146485,0.01367 -0.148437,0.002 -0.150391,-0.01172 -0.154297,-0.02344 -0.160156,-0.03906 -0.162109,-0.05664 -0.167969,-0.07227 -0.541016,-0.285156 -0.498047,-0.31836 -0.458984,-0.347656 -0.427734,-0.376953 -0.400391,-0.400391 -0.375,-0.423828 -0.355469,-0.445312 -0.33789,-0.457032 -0.650391,-0.964843 -0.632812,-0.988282 -0.650391,-0.988281 -0.34375,-0.488281 -0.367188,-0.480469 -0.171875,-0.199219 -0.191406,-0.185546 -0.207031,-0.171875 -0.220703,-0.154297 -0.230469,-0.136719 -0.242187,-0.121094 -0.25,-0.105469 -0.257813,-0.08594 -0.265625,-0.07031 -0.269531,-0.05078 -0.273438,-0.0332 -0.277343,-0.01367 -0.279297,0.0059 -0.279297,0.02539 -0.277344,0.04687 -0.28125,0.07031 -0.330078,0.121093 -0.300781,0.158204 -0.261719,0.191406 -0.222656,0.224609 -0.179688,0.246094 -0.138672,0.265625 -0.09766,0.275391 -0.06055,0.283203 -0.02344,0.285156 0.0059,0.285156 0.03711,0.279297 0.06445,0.275391 0.08984,0.265625 0.115235,0.255859 0.136718,0.242188 0.152344,0.216796 1.171875,1.515625 0.554688,0.751954 0.521484,0.757812 0.478516,0.773438 0.21875,0.386718 0.203125,0.392578 0.189453,0.400391 0.169922,0.402344 0.152343,0.410156 0.134766,0.421875 0.183594,0.628906 0.08203,0.328125 0.06055,0.322266 0.0293,0.304687 -0.0059,0.28711 -0.01758,0.113281 -0.02734,0.113281 -0.03711,0.09961 -0.04883,0.0957 -0.07422,0.111328 -0.08398,0.103516 -0.09375,0.09766 -0.09375,0.08203 -0.242188,0.162109 -0.271484,0.128907 -0.308594,0.103515 -0.341797,0.07617 -0.367187,0.05273 -0.386719,0.0293 -0.402344,0.0078 -0.408203,-0.0059 -0.826172,-0.05273 -1.515625,-0.142578 -0.492187,-0.01758 -0.314453,0.01563 h -0.234375 l -0.316406,-0.04883 -0.05273,-0.01758 -0.01758,-0.02539 -0.142578,-0.119141 -0.121094,-0.05078 -0.394531,0.917969 -0.01367,-0.0059 -0.08008,-0.06641 0.02344,0.03516 0.09961,0.105468 0.160156,0.105469 0.240234,0.07617 -0.109375,0.06055 0.16211,0.294922 0.302734,0.472656 0.427735,0.636719 0.195312,0.326172 0.152344,0.30664 0.15039,0.402344 0.117188,0.421875 0.08398,0.425781 0.04297,0.410156 -0.0039,0.310547 -0.04492,0.314453 -0.08008,0.324219 -0.105469,0.328125 -0.128906,0.333985 -0.146485,0.328125 -0.169921,0.324218 -0.185547,0.324219 -0.205078,0.320313 -0.216797,0.314453 -0.480469,0.630859 -0.521484,0.615234 -0.548829,0.59961 -1.130859,1.167969 -0.550781,0.564453 -0.294922,0.285156 -0.308594,0.261719 -0.320312,0.226562 -0.152344,0.08789 -0.158203,0.07617 -0.15625,0.06055 -0.15625,0.04297 -0.154297,0.02539 -0.154297,0.0078 -0.173828,-0.01367 -0.173828,-0.03906 -0.177735,-0.06055 -0.18164,-0.08398 -0.183594,-0.105469 -0.181641,-0.123047 -0.376953,-0.304687 -0.359375,-0.34375 -0.34375,-0.365235 -0.621093,-0.68164 -0.523438,-0.554688 -0.53125,-0.585937 -0.525391,-0.613282 -0.498046,-0.634765 -0.457032,-0.648438 -0.203125,-0.320312 -0.185547,-0.322266 -0.166015,-0.318359 -0.144531,-0.316406 -0.119141,-0.310547 -0.0918,-0.298828 -0.06836,-0.328125 -0.0293,-0.320313 0.0039,-0.318359 0.03711,-0.31836 0.06641,-0.322265 0.09961,-0.324219 0.126953,-0.326172 0.152344,-0.322266 0.273437,-0.482421 0.150391,-0.25586 0.136719,-0.261719 0.130859,-0.318359 0.08008,-0.273437 0.03711,-0.208985 0.109375,-0.03125 -0.275391,-0.960937 -0.224609,0.06445 -0.201172,0.03711 -0.21875,0.02148 -0.246094,0.0098 -0.591797,0.01367 -0.716797,0.04492 -0.716797,0.04883 -0.378906,0.0059 -0.398437,-0.0059 -0.404297,-0.02344 -0.402344,-0.04102 -0.392578,-0.06055 -0.375,-0.08203 -0.349609,-0.103516 -0.314454,-0.126953 -0.271484,-0.146484 -0.234375,-0.169922 -0.08594,-0.08203 -0.08203,-0.0918 -0.06836,-0.0957 -0.05859,-0.101563 -0.04687,-0.107422 -0.03516,-0.115234 -0.02539,-0.126953 -0.01172,-0.138672 0.0078,-0.503906 0.05859,-0.507813 0.04687,-0.242187 0.06445,-0.248047 0.07813,-0.246094 0.09375,-0.246094 0.421875,-0.951172 0.476562,-0.9375 0.53125,-0.917968 0.582032,-0.892579 0.191406,-0.263671 0.214844,-0.273438 0.460937,-0.570312 0.230469,-0.304688 0.216797,-0.320312 0.195312,-0.339844 0.15625,-0.357422 0.08203,-0.244141 0.06445,-0.251953 0.04883,-0.261719 0.03125,-0.269531 0.01172,-0.27539 -0.0078,-0.279297 -0.03125,-0.28125 -0.05664,-0.28125 -0.08398,-0.275391 -0.115234,-0.269531 -0.150391,-0.259766 -0.1875,-0.242187 -0.224609,-0.21875 -0.261719,-0.191407 -0.296875,-0.15625 -0.328125,-0.11914 -0.363281,-0.08594 -0.34961,-0.04102 -0.33789,0.002 -0.324219,0.03906 -0.308594,0.07617 -0.289062,0.107422 -0.271485,0.136719 -0.251953,0.160156 -0.232422,0.181641 -0.214843,0.195312 -0.197266,0.210938 -0.185547,0.224609 -0.3125,0.451172 -0.255859,0.453125 -0.488282,0.908203 -0.28125,0.486328 -0.310546,0.503906 -0.335938,0.515625 -0.359375,0.517579 -0.380859,0.511718 -0.404297,0.5 -0.421875,0.482422 -0.439453,0.453125 -0.455078,0.419922 -0.46875,0.376953 -0.478516,0.330078 -0.492188,0.279297 -0.240234,0.113281 -0.248047,0.09961 -0.248047,0.08398 -0.246093,0.06641 -0.171875,0.0332 -0.16211,0.01563 h -0.154297 l -0.15039,-0.01367 -0.146485,-0.02539 -0.142578,-0.04102 -0.140625,-0.05078 -0.130859,-0.0625 -0.28125,-0.169922 -0.265625,-0.210937 -0.25586,-0.25 -0.246093,-0.283203 -0.232422,-0.310547 -0.220703,-0.326172 -0.203125,-0.335938 -0.189453,-0.335937 -0.337891,-0.652344 -0.285156,-0.568359 -0.228516,-0.390625 -0.234375,-0.304688 -0.214844,-0.226562 0.04102,-0.25586 -0.376953,-0.06055 -0.22461,-0.212891 -0.140625,0.152344 -0.24414,-0.03906 -0.05859,0.367188 -0.0625,0.06641 -0.171875,0.208984 -0.179687,0.251953 -0.177735,0.292969 -0.210937,0.31836 L 24.076172,72 23.703125,72.396484 23.273437,72.800781 22.8125,73.1875 l -0.480469,0.34375 -0.232422,0.144531 -0.228515,0.126953 -0.21875,0.105469 -0.208985,0.08203 -0.388672,0.119141 -0.402343,0.09766 -0.41211,0.07813 -0.423828,0.05664 -0.429687,0.04102 -0.433594,0.02344 -0.894531,0.0039 -0.902344,-0.04492 -0.904297,-0.08398 -0.898437,-0.107422 -0.884766,-0.119141 -1.044922,-0.121093 -0.570312,-0.07617 -0.558594,-0.09961 -0.523438,-0.134765 -0.224609,-0.07813 -0.205078,-0.08984 -0.175781,-0.09766 -0.144532,-0.103516 -0.111328,-0.107422 -0.08789,-0.117187 -0.04687,-0.08984 -0.03516,-0.101562 -0.02344,-0.107422 -0.01172,-0.115235 v -0.126953 l 0.01172,-0.126953 0.06055,-0.300781 0.09766,-0.3125 0.123047,-0.31836 0.273437,-0.626953 0.363282,-0.845703 0.394531,-0.884765 0.443359,-0.900391 0.238282,-0.439453 0.253906,-0.431641 0.269531,-0.419922 0.285156,-0.404297 0.304688,-0.380859 0.322265,-0.359375 0.341797,-0.330078 0.361328,-0.300781 0.382813,-0.265625 0.408203,-0.230469 0.435547,-0.197266 0.458984,-0.164062 0.472656,-0.125 0.484375,-0.08203 0.316407,-0.02539 0.347656,-0.0078 h 0.730469 l 0.4375,-0.02734 0.361328,-0.0625 0.294922,-0.09375 0.125,-0.05273 0.08594,0.03711 0.929688,-0.173828 -0.511719,-0.712891 -0.257813,-0.193359 -0.04492,-0.05664 -0.02344,-0.03906 -0.04102,-0.128906 -0.07031,-0.234375 -0.0957,-0.191406 -0.128906,-0.201172 -0.78711,-1.066406 -0.40625,-0.59961 -0.179687,-0.298828 -0.158203,-0.300781 -0.13086,-0.296875 -0.09766,-0.285156 -0.06055,-0.271485 -0.01953,-0.251953 0.01953,-0.24414 0.02148,-0.09766 0.03711,-0.107421 0.04687,-0.105469 0.06055,-0.105469 0.07422,-0.103516 0.08789,-0.09961 0.205078,-0.181641 0.236328,-0.15625 0.273438,-0.136718 0.304687,-0.119141 0.328125,-0.103516 0.341797,-0.08789 0.701172,-0.15625 0.496094,-0.0957 0.490234,-0.07617 0.490235,-0.05859 0.486328,-0.04297 0.984375,-0.05078 0.984375,-0.01367 1.998047,0.01758 1.021484,-0.002 1.042969,-0.0332 0.330078,-0.02734 0.333984,-0.04883 0.332031,-0.07031 0.326172,-0.08984 0.320313,-0.111328 0.310547,-0.13086 0.296875,-0.152343 0.28125,-0.175782 0.263672,-0.195312 0.240234,-0.220703 0.214844,-0.246094 0.179687,-0.269531 0.144531,-0.296875 0.09766,-0.320313 0.04492,-0.339843 -0.0098,-0.351563 -0.06055,-0.326172 -0.101562,-0.298828 -0.144532,-0.269531 -0.179687,-0.236328 -0.208985,-0.201172 -0.230468,-0.167969 -0.246094,-0.136719 -0.257813,-0.109375 -0.263671,-0.08789 -0.277344,-0.06836 -0.542969,-0.08594 -0.548828,-0.04102 -0.53125,-0.0098 -1.255859,0.03125 -1.376954,0.05664 -1.453125,0.04102 -0.734375,0.0039 -0.732421,-0.01563 -0.72461,-0.03711 -0.707031,-0.06641 -0.683594,-0.0957 -0.652344,-0.132812 -0.61914,-0.171875 -0.285156,-0.09961 -0.279297,-0.113281 -0.265625,-0.123047 -0.251953,-0.134765 -0.238282,-0.146485 -0.222656,-0.15625 -0.125,-0.107422 -0.103516,-0.103515 -0.08203,-0.103516 -0.06445,-0.101562 -0.04883,-0.101563 -0.03711,-0.103515 -0.02539,-0.107422 -0.01172,-0.101563 0.0039,-0.253906 0.04687,-0.261719 0.08789,-0.28125 0.123047,-0.287109 0.158203,-0.289063 0.208984,-0.322265 0.248047,-0.345703 0.273438,-0.355469 0.558594,-0.695313 0.482421,-0.609375 0.238282,-0.363281 0.144531,-0.326172 0.07422,-0.27539 0.01367,-0.08203 0.371093,-0.0918 0.478516,-0.138671 0.996094,-1.150391 -1.40625,0.220703 -0.263672,0.06055 -0.441406,0.101562 -0.5,0.08594 -0.898438,0.117187 -0.466797,0.02148 -0.517578,-0.02344 -0.529297,-0.06055 -0.5,-0.08984 -0.408203,-0.0957 -0.388672,-0.115235 -0.371093,-0.134765 -0.34961,-0.152344 -0.333984,-0.175781 -0.316406,-0.199219 -0.300782,-0.22461 -0.289062,-0.257812 -0.251953,-0.253906 -0.242188,-0.263672 -0.464844,-0.574219 -0.423828,-0.605469 -0.392578,-0.634765 -0.361328,-0.652344 -0.333984,-0.664063 -0.310547,-0.666015 -0.294922,-0.667969 -0.335938,-0.71875 -0.169921,-0.380859 -0.136719,-0.369141 -0.09375,-0.357422 -0.01953,-0.148437 -0.0059,-0.144532 0.0098,-0.126953 0.02344,-0.113281 0.04102,-0.101562 0.05859,-0.09961 0.07617,-0.09375 0.09375,-0.08984 0.105468,-0.08203 0.113282,-0.07227 0.292968,-0.140625 0.332032,-0.109375 0.365234,-0.08984 0.386719,-0.07227 0.783203,-0.123047 0.714844,-0.111328 0.691406,-0.08789 0.679687,-0.06641 0.673828,-0.04883 1.365235,-0.05664 1.416015,-0.01563 0.771485,0.0059 0.365234,0.01172 0.355469,0.02734 0.34375,0.04297 0.335937,0.06445 0.330078,0.08984 0.332032,0.121094 0.330078,0.15039 0.314453,0.164063 0.296875,0.179687 0.28125,0.189454 0.265625,0.199218 0.248047,0.203125 0.464844,0.427735 0.412109,0.427734 0.369141,0.414063 0.333984,0.384765 0.300781,0.330078 0.164063,-0.15039 0.248047,0.208984 0.269531,-0.318359 0.236328,-0.269532 0.242187,-0.300781 0.259766,-0.382812 0.326172,-0.517578 0.400391,-0.59375 0.222656,-0.302735 0.242187,-0.302734 0.25586,-0.291016 0.267578,-0.27539 0.279297,-0.248047 0.285156,-0.214844 0.291016,-0.175781 0.291015,-0.13086 0.304688,-0.08789 0.136718,-0.02148 0.146485,-0.01172 0.148437,0.002 0.152344,0.01758 0.154297,0.03125 0.164062,0.04687 0.289063,0.109375 0.28125,0.123047 0.271484,0.136718 0.261719,0.150391 0.251953,0.160156 0.238281,0.169922 0.470704,0.382813 0.314453,0.292968 0.302734,0.3125 0.291016,0.328125 0.279297,0.341797 0.542968,0.722657 0.513672,0.75 1.003906,1.519531 0.515625,0.728515 0.269532,0.353516 0.28125,0.341797 0.18164,0.197266 0.199219,0.189453 0.210938,0.173828 0.224609,0.160156 0.236328,0.144531 0.248047,0.126953 0.255859,0.107422 0.265625,0.08594 0.273438,0.06641 0.279297,0.04102 0.285156,0.01563 0.289062,-0.01172 0.291016,-0.03906 0.291016,-0.07031 0.287109,-0.101563 0.283203,-0.134765 0.279297,-0.169922 0.246094,-0.193359 0.21289,-0.214844 0.177735,-0.234375 0.140625,-0.25 0.105469,-0.261719 0.07227,-0.267578 0.03906,-0.271484 0.0059,-0.271485 -0.01953,-0.271484 -0.04883,-0.265625 -0.07031,-0.261719 -0.0957,-0.253906 L 41.933594,37 41.798828,36.763672 41.650391,36.542969 40.673828,35.210937 40.208984,34.554687 39.767578,33.896484 39.349609,33.230469 38.964844,32.554687 38.613281,31.859375 38.300781,31.136719 38.03125,30.4375 37.917969,30.099609 37.832031,29.771484 37.779297,29.453125 37.763672,29.138672 37.773437,29 l 0.01953,-0.146484 0.0332,-0.146485 0.04687,-0.142578 0.04883,-0.113281 0.06055,-0.103516 0.07031,-0.09375 0.08203,-0.08984 0.0957,-0.08594 0.101562,-0.07422 0.265625,-0.15039 0.304688,-0.123047 0.349609,-0.09961 0.380859,-0.07422 0.40625,-0.05273 0.421875,-0.03125 0.425782,-0.01367 0.853515,0.01172 0.783203,0.04492 0.667969,0.04687 0.476563,0.01367 0.36914,-0.0293 0.289063,-0.07227 0.0625,-0.02344 0.101562,0.08789 0.185547,0.07813 0.386719,-0.921875 -0.03516,-0.01563 -0.08789,-0.07617 -0.07617,-0.08008 -0.05078,-0.07227 -0.04297,-0.08008 -0.04102,-0.09375 -0.0957,-0.261719 -0.128906,-0.296875 -0.283203,-0.507813 -0.302734,-0.574218 -0.128907,-0.28711 -0.107421,-0.28125 -0.07031,-0.257812 -0.03516,-0.236328 -0.01758,-0.541016 0.0059,-0.271484 0.01953,-0.269532 0.0332,-0.263671 0.05078,-0.25586 0.06836,-0.24414 0.09375,-0.240235 0.160156,-0.33789 0.179688,-0.339844 0.197265,-0.337891 0.210938,-0.332031 0.466797,-0.660156 0.511719,-0.644532 0.548828,-0.632812 0.576172,-0.617188 0.591796,-0.605468 0.59375,-0.591797 0.556641,-0.53125 0.269531,-0.224609 0.273438,-0.185547 0.287109,-0.144532 0.132813,-0.04687 0.144531,-0.03906 0.150391,-0.02344 z M 20.263672,62.777344 20.003906,63.21875 20,63.207031 20.164062,62.796875 Z"
       id="path243" /></g><g
     inkscape:label="B.Cu"
     inkscape:groupmode="layer"
     id="g194" /><g
     inkscape:label="B.Mask"
     inkscape:groupmode="layer"
     id="g196" /><g
     inkscape:label="B.SilkS"
     inkscape:groupmode="layer"
     id="g198" /><g
     inkscape:label="F.Cu"
     inkscape:groupmode="layer"
     id="g200" /><g
     inkscape:label="F.Mask"
     inkscape:groupmode="layer"
     id="g202" /><g
     inkscape:label="F.SilkS"
     inkscape:groupmode="layer"
     id="g204" /><g
     inkscape:label="Dwgs.User"
     inkscape:groupmode="layer"
     id="g206" /><g
     inkscape:label="Drill"
     inkscape:groupmode="layer"
     id="g208" /></svg>
