<?xml version="1.0" encoding="UTF-8" standalone="no"?>
<!-- Created with Inkscape (http://www.inkscape.org/) -->

<svg
   width="100.0mm"
   height="100.0mm"
   viewBox="0 0 100.0 100.0"
   version="1.1"
   id="svg425"
   sodipodi:docname="snowflake_man.svg"
   xml:space="preserve"
   inkscape:version="1.2.2 (732a01da63, 2022-12-09)"
   xmlns:inkscape="http://www.inkscape.org/namespaces/inkscape"
   xmlns:sodipodi="http://sodipodi.sourceforge.net/DTD/sodipodi-0.dtd"
   xmlns="http://www.w3.org/2000/svg"
   xmlns:svg="http://www.w3.org/2000/svg"><sodipodi:namedview
     id="namedview427"
     pagecolor="#505050"
     bordercolor="#eeeeee"
     borderopacity="1"
     inkscape:showpageshadow="0"
     inkscape:pageopacity="0"
     inkscape:pagecheckerboard="0"
     inkscape:deskcolor="#505050"
     inkscape:document-units="mm"
     showgrid="false"
     inkscape:zoom="1.5625561"
     inkscape:cx="74.237334"
     inkscape:cy="179.83354"
     inkscape:window-width="1827"
     inkscape:window-height="1057"
     inkscape:window-x="85"
     inkscape:window-y="-8"
     inkscape:window-maximized="1"
     inkscape:current-layer="g554" /><defs
     id="defs422"><inkscape:path-effect
       effect="bspline"
       id="path-effect3342"
       is_visible="true"
       lpeversion="1"
       weight="33.333333"
       steps="2"
       helper_size="0"
       apply_no_weight="true"
       apply_with_weight="true"
       only_selected="false" /><inkscape:path-effect
       effect="skeletal"
       id="path-effect3282"
       is_visible="true"
       lpeversion="1"
       pattern="M 0,4.9921383 C 0,2.236478 2.236478,0 4.9921383,0 c 2.7556604,0 4.9921384,2.236478 4.9921384,4.9921383 0,2.7556604 -2.236478,4.9921384 -4.9921384,4.9921384 C 2.236478,9.9842767 0,7.7477987 0,4.9921383 Z"
       copytype="single_stretched"
       prop_scale="1"
       scale_y_rel="false"
       spacing="0"
       normal_offset="0"
       tang_offset="0"
       prop_units="false"
       vertical_pattern="false"
       hide_knot="false"
       fuse_tolerance="0" /><inkscape:path-effect
       effect="bspline"
       id="path-effect3280"
       is_visible="true"
       lpeversion="1"
       weight="33.333333"
       steps="2"
       helper_size="0"
       apply_no_weight="true"
       apply_with_weight="true"
       only_selected="false" /><inkscape:path-effect
       effect="spiro"
       id="path-effect2864"
       is_visible="true"
       lpeversion="1" /><inkscape:path-effect
       effect="spiro"
       id="path-effect2860"
       is_visible="true"
       lpeversion="1" /><inkscape:path-effect
       effect="spiro"
       id="path-effect2856"
       is_visible="true"
       lpeversion="1" /><inkscape:path-effect
       effect="spiro"
       id="path-effect2852"
       is_visible="true"
       lpeversion="1" /><inkscape:path-effect
       effect="spiro"
       id="path-effect2848"
       is_visible="true"
       lpeversion="1" /><inkscape:path-effect
       effect="spiro"
       id="path-effect2844"
       is_visible="true"
       lpeversion="1" /><inkscape:path-effect
       effect="spiro"
       id="path-effect2840"
       is_visible="true"
       lpeversion="1" /><inkscape:path-effect
       effect="spiro"
       id="path-effect2836"
       is_visible="true"
       lpeversion="1" /><inkscape:path-effect
       effect="spiro"
       id="path-effect2832"
       is_visible="true"
       lpeversion="1" /><inkscape:path-effect
       effect="spiro"
       id="path-effect2828"
       is_visible="true"
       lpeversion="1" /><inkscape:path-effect
       effect="spiro"
       id="path-effect2824"
       is_visible="true"
       lpeversion="1" /><inkscape:path-effect
       effect="spiro"
       id="path-effect2820"
       is_visible="true"
       lpeversion="1" /><inkscape:path-effect
       effect="spiro"
       id="path-effect2712"
       is_visible="true"
       lpeversion="1" /><inkscape:path-effect
       effect="spiro"
       id="path-effect2708"
       is_visible="true"
       lpeversion="1" /><inkscape:path-effect
       effect="spiro"
       id="path-effect2704"
       is_visible="true"
       lpeversion="1" /><inkscape:path-effect
       effect="spiro"
       id="path-effect2700"
       is_visible="true"
       lpeversion="1" /><inkscape:path-effect
       effect="spiro"
       id="path-effect2696"
       is_visible="true"
       lpeversion="1" /><inkscape:path-effect
       effect="spiro"
       id="path-effect2692"
       is_visible="true"
       lpeversion="1" /><inkscape:path-effect
       effect="spiro"
       id="path-effect2666"
       is_visible="true"
       lpeversion="1" /><inkscape:path-effect
       effect="spiro"
       id="path-effect2660"
       is_visible="true"
       lpeversion="1" /><inkscape:path-effect
       effect="spiro"
       id="path-effect2656"
       is_visible="true"
       lpeversion="1" /><inkscape:path-effect
       effect="spiro"
       id="path-effect2650"
       is_visible="true"
       lpeversion="1" /><inkscape:path-effect
       effect="spiro"
       id="path-effect2645"
       is_visible="true"
       lpeversion="1" /><inkscape:path-effect
       effect="spiro"
       id="path-effect2639"
       is_visible="true"
       lpeversion="1" /><inkscape:path-effect
       effect="spiro"
       id="path-effect2635"
       is_visible="true"
       lpeversion="1" /><inkscape:path-effect
       effect="spiro"
       id="path-effect2629"
       is_visible="true"
       lpeversion="1" /></defs><g
     inkscape:label="[fixed] BG"
     inkscape:groupmode="layer"
     id="g554"
     style="display:inline"><rect
       x="0"
       y="0"
       width="100"
       height="100"
       style="fill:#ffffff;fill-opacity:1;stroke:none"
       id="rect552" /></g><g
     inkscape:label="Edge.Cuts"
     inkscape:groupmode="layer"
     id="g556"><path
       style="fill:none;stroke:#000000;stroke-width:0.264583px;stroke-linecap:butt;stroke-linejoin:miter;stroke-opacity:1"
       d="m 50.264492,12.085819 c 0.267786,0.148248 0.803044,0.444571 1.542511,1.083133 0.739467,0.638562 1.683159,1.61923 2.335733,2.448258 0.652574,0.829028 1.014085,1.506324 1.283016,2.070755 0.26893,0.56443 0.445309,1.015961 0.508737,1.686188 0.06343,0.670227 0.01404,1.559178 -0.187038,2.204626 -0.201081,0.645449 -0.553839,1.047594 -0.798116,1.428646 -0.244278,0.381053 -0.380025,0.740867 -0.17878,0.931293 0.201246,0.190427 0.739138,0.211593 1.459624,0.19747 0.720487,-0.01412 1.623547,-0.06351 2.37497,-0.03172 0.751424,0.03178 1.351113,0.144668 1.799112,0.338789 0.447999,0.194122 0.744316,0.469274 0.92411,0.839703 0.179794,0.370429 0.24329,0.836069 0.133884,1.513321 -0.109407,0.677253 -0.391612,1.566202 -0.783186,2.476311 -0.391573,0.910108 -0.892491,1.841391 -1.418099,2.631554 -0.525609,0.790164 -1.075913,1.439241 -1.414584,1.982578 -0.33867,0.543337 -0.465663,0.980756 -0.412651,1.460653 0.05301,0.479897 0.285834,1.002099 0.691581,1.263043 0.405747,0.260944 0.984269,0.260944 1.633258,0.0069 0.64899,-0.254073 1.368614,-0.76216 1.978852,-1.481803 0.610238,-0.719643 1.111153,-1.650924 1.954299,-2.709279 0.843147,-1.058355 2.028414,-2.243623 2.868088,-2.906847 0.839673,-0.663225 1.333534,-0.804328 1.919195,-0.641922 0.585661,0.162406 1.262957,0.628046 1.868759,1.326583 0.605802,0.698537 1.140199,1.629818 1.496507,2.225989 0.356308,0.59617 0.534482,0.857213 0.950411,0.469943 0.415929,-0.387269 1.069834,-1.422577 1.965633,-2.137366 0.895799,-0.71479 2.033235,-1.108902 3.352864,-1.256036 1.319629,-0.147133 2.821245,-0.04736 4.006122,0.112317 1.184876,0.159676 2.052918,0.379181 2.73639,0.663615 0.683473,0.284433 1.18235,0.633647 1.259496,1.312113 0.07715,0.678467 -0.267078,1.686195 -0.793409,2.863548 -0.52633,1.177353 -1.234734,2.524317 -1.883254,3.449695 -0.64852,0.925378 -1.237193,1.429243 -1.773427,1.755998 -0.536234,0.326755 -1.020141,0.476417 -1.885674,0.566523 -0.865533,0.09011 -2.112722,0.120606 -2.289826,0.672031 -0.177105,0.551425 0.715883,1.623443 1.264603,2.413914 0.54872,0.790471 0.753259,1.299323 0.768134,1.845533 0.01488,0.546211 -0.159731,1.129895 -0.84808,1.551348 -0.688349,0.421454 -1.890638,0.680869 -3.384793,0.87046 -1.494155,0.189592 -3.280129,0.309322 -4.624638,0.414085 -1.344508,0.104763 -2.247474,0.19456 -2.806373,0.461535 -0.558899,0.266975 -0.773415,0.710973 -0.815762,1.269829 -0.04235,0.558856 0.08736,1.232337 0.494075,1.608861 0.406715,0.376524 1.090173,0.456344 2.140325,0.491247 1.050153,0.0349 2.46696,0.02492 3.976121,0.142186 1.509162,0.117263 3.110552,0.361713 4.170689,0.670679 1.060136,0.308965 1.578967,0.682259 1.788332,1.218572 0.209365,0.536312 0.10959,1.2356 -0.247926,2.002984 -0.357515,0.767385 -0.979499,1.612173 -1.490833,2.208313 -0.511334,0.596139 -0.915424,0.948253 -0.81054,1.10138 0.104885,0.153128 0.718501,0.107266 1.584106,0.177591 0.865605,0.07032 1.983086,0.256759 2.863613,0.638993 0.880528,0.382235 1.524076,0.960042 2.10275,1.640612 0.578673,0.680571 1.092515,1.463806 1.568916,2.424177 0.476401,0.960371 0.915412,2.097806 1.13985,2.995781 0.224439,0.897974 0.234415,1.556491 -0.202031,2.005331 -0.436446,0.44884 -1.319455,0.6883 -2.504286,0.847962 -1.184832,0.159661 -2.671481,0.239481 -4.110757,0.19211 -1.439276,-0.04737 -2.831138,-0.221977 -3.856371,-0.653403 -1.025233,-0.431426 -1.683749,-1.119874 -2.112846,-1.676111 -0.429098,-0.556236 -0.628648,-0.98028 -0.842206,-0.972901 -0.213558,0.0074 -0.440909,0.446388 -0.883677,1.159784 -0.442768,0.713396 -1.100931,1.701168 -1.620751,2.269841 -0.51982,0.568673 -0.901447,0.718336 -1.413977,0.755796 -0.512529,0.03746 -1.156077,-0.03737 -1.734799,-0.316641 -0.578722,-0.279269 -1.092564,-0.763178 -1.878345,-1.718537 -0.78578,-0.955358 -1.843396,-2.382142 -2.604201,-3.412346 -0.760805,-1.030203 -1.224759,-1.663775 -1.646271,-2.05798 -0.421512,-0.394205 -0.800657,-0.548856 -1.314591,-0.526495 -0.513934,0.02236 -1.162473,0.221912 -1.52951,0.581248 -0.367037,0.359335 -0.452355,0.878165 -0.335016,1.454434 0.117339,0.576269 0.43713,1.209842 0.9812,2.092873 0.54407,0.883031 1.312337,2.015478 1.866047,3.150459 0.55371,1.134981 0.892945,2.272417 1.020097,3.140437 0.127152,0.86802 0.04234,1.466671 -0.214485,1.828228 -0.256828,0.361556 -0.685861,0.486275 -1.296964,0.566116 -0.611103,0.07984 -1.404313,0.114762 -2.267374,0.08235 -0.863062,-0.03241 -1.795959,-0.132183 -2.409613,-0.172117 -0.613654,-0.03993 -0.90799,-0.01998 -0.755821,0.319419 0.152168,0.339396 0.750817,0.99791 1.189774,1.693883 0.438957,0.695974 0.718328,1.429323 0.753162,2.150144 0.03483,0.720822 -0.174693,1.429225 -0.653626,2.349626 -0.478933,0.9204 -1.227246,2.052847 -2.037922,3.055583 -0.810677,1.002736 -1.68371,1.875769 -2.318649,2.317278 -0.63494,0.441509 -1.032016,0.451486 -1.593254,0.154765 -0.561239,-0.296721 -1.286634,-0.90036 -2.01853,-1.553897 -0.731895,-0.653537 -1.470229,-1.356949 -2.071445,-2.160135 -0.601216,-0.803186 -1.065169,-1.706149 -1.222411,-2.793775 -0.157242,-1.087625 -0.0076,-2.359757 0.28178,-3.260351 0.289359,-0.900593 0.718392,-1.429401 0.523958,-1.678862 -0.194434,-0.249461 -1.012589,-0.219529 -1.778377,-0.217026 -0.765787,0.0025 -1.479177,-0.02244 -2.202547,-0.149618 -0.723369,-0.127175 -1.456717,-0.356658 -1.850987,-0.970206 -0.394271,-0.613548 -0.449147,-1.6113 -0.269579,-2.526848 0.179569,-0.915548 0.593636,-1.748672 1.147113,-2.751456 0.553477,-1.002784 1.246322,-2.17514 1.680351,-2.99079 0.434029,-0.815651 0.609226,-1.274616 0.579682,-1.778407 -0.02954,-0.503791 -0.264017,-1.052555 -0.58571,-1.414339 -0.321694,-0.361784 -0.730772,-0.536391 -1.194846,-0.496572 -0.464074,0.03982 -0.982904,0.294244 -1.516302,0.832603 -0.533397,0.538358 -1.063182,1.333482 -1.594501,2.141687 -0.531319,0.808204 -1.05514,1.615929 -1.601408,2.324097 -0.546267,0.708167 -1.114985,1.316796 -1.643788,1.818162 -0.528803,0.501367 -1.017702,0.895478 -1.571355,1.095044 -0.553654,0.199566 -1.172257,0.204556 -1.743481,-0.03977 -0.571224,-0.244329 -1.095043,-0.738216 -1.484216,-1.189685 -0.389173,-0.451469 -0.643599,-0.860547 -0.855684,-1.401843 -0.212085,-0.541295 -0.381703,-1.214779 -0.545341,-1.596494 -0.163638,-0.381714 -0.321522,-0.471512 -0.498811,-0.299421 -0.177289,0.172091 -0.373607,0.606113 -0.574041,1.020182 -0.200433,0.414068 -0.404973,0.808181 -0.891327,1.232163 -0.486354,0.423983 -1.254623,0.87796 -2.199952,1.189773 -0.945329,0.311812 -2.067798,0.481429 -3.532009,0.466493 -1.46421,-0.01494 -3.270138,-0.214486 -4.427543,-0.42646 -1.157405,-0.211975 -1.666257,-0.436469 -1.995639,-0.82053 -0.329382,-0.384061 -0.479045,-0.927835 -0.441693,-1.386931 0.03735,-0.459096 0.261846,-0.833251 0.628528,-1.579075 0.366682,-0.745823 0.875535,-1.863304 1.494175,-2.871106 0.61864,-1.007801 1.346997,-1.905776 2.082958,-2.46457 0.735961,-0.558794 1.479286,-0.7783 2.334915,-0.937931 0.85563,-0.159631 1.823447,-0.259406 2.36213,-0.361669 0.538682,-0.102263 0.648435,-0.207028 0.304312,-0.743193 -0.344124,-0.536164 -1.142323,-1.503981 -1.621341,-2.364557 -0.479018,-0.860575 -0.638658,-1.613876 -0.553877,-2.155323 0.08478,-0.541446 0.41404,-0.870704 1.082644,-1.177546 0.668605,-0.306842 1.676333,-0.591201 3.083245,-0.768287 1.406913,-0.177085 3.212842,-0.246928 4.432623,-0.294323 1.219781,-0.04739 1.853352,-0.07234 2.385548,-0.229503 0.532195,-0.157166 0.963181,-0.446514 1.285125,-0.740814 0.321944,-0.294301 0.534927,-0.593625 0.593868,-0.960181 0.05894,-0.366556 -0.03626,-0.800577 -0.290784,-1.127419 -0.25452,-0.326841 -0.668588,-0.546348 -1.928318,-0.671151 -1.259729,-0.124804 -3.364982,-0.154737 -5.228788,-0.339298 -1.863806,-0.18456 -3.486094,-0.523795 -4.436543,-0.957704 -0.950449,-0.433909 -1.228876,-0.962718 -1.293365,-1.499093 -0.06449,-0.536375 0.08517,-1.08015 0.374583,-1.501819 0.289409,-0.421669 0.718442,-0.720994 1.052643,-1.167415 0.334201,-0.446422 0.573661,-1.040084 0.591297,-1.411714 0.01764,-0.371629 -0.186904,-0.521292 -0.695788,-0.608701 -0.508884,-0.08741 -1.32205,-0.112352 -2.239988,-0.402097 -0.917938,-0.289744 -1.940632,-0.844431 -2.681551,-1.532829 -0.740919,-0.688398 -1.199884,-1.510607 -1.733725,-2.72818 -0.533841,-1.217573 -1.142468,-2.830431 -1.239812,-3.860786 -0.09734,-1.030356 0.316724,-1.477854 0.997821,-1.788938 0.681096,-0.311084 1.628959,-0.485691 2.908639,-0.602915 1.279679,-0.117224 2.891046,-0.177089 4.225605,-0.04732 1.334559,0.129765 2.392175,0.449046 3.237736,1.08025 0.845561,0.631203 1.479132,1.574077 1.962929,1.776005 0.483797,0.201927 0.818044,-0.336859 1.336897,-1.090197 0.518853,-0.753339 1.222267,-1.721158 2.018584,-2.185138 0.796316,-0.46398 1.685173,-0.424069 2.363656,-0.167012 0.678482,0.257057 1.146566,0.730989 1.872006,1.591591 0.725441,0.860602 1.708226,2.107791 2.44907,3.068154 0.740844,0.960364 1.239719,1.633845 1.713709,2.110231 0.473989,0.476386 0.922977,0.755756 1.376902,0.832783 0.453926,0.07703 0.91289,-0.04805 1.2645,-0.282479 0.35161,-0.23443 0.596057,-0.578296 0.745944,-0.957158 0.149887,-0.378862 0.204329,-0.786363 0.06723,-1.290198 -0.137095,-0.503834 -0.466353,-1.100808 -1.010127,-1.945599 -0.543775,-0.84479 -1.302064,-1.937325 -1.845915,-3.094746 -0.543852,-1.157422 -0.873109,-2.379665 -0.875666,-3.257827 -0.0026,-0.878162 0.321712,-1.411958 0.980398,-1.706346 0.658685,-0.294388 1.651448,-0.349264 2.661983,-0.346754 1.010535,0.0025 2.03875,0.06237 2.380453,-0.144526 0.341702,-0.2069 -0.0031,-0.680832 -0.260336,-1.47906 -0.25728,-0.798228 -0.426898,-1.920698 -0.04279,-3.312709 0.384104,-1.392011 1.321989,-3.053267 2.210046,-4.255638 0.888057,-1.202372 1.726168,-1.945696 2.21696,-2.371628 0.490792,-0.425932 0.634219,-0.534438 0.742977,-0.592764 0.108759,-0.05833 0.182649,-0.06648 0.219481,-0.07054 0.03683,-0.0041 0.03683,-0.0041 0.30462,0.144186 z"
       id="path3340"
       inkscape:path-effect="#path-effect3342"
       inkscape:original-d="m 49.996706,11.937571 c 0.535522,0.296587 1.070779,0.59291 1.605775,0.888968 0.943993,0.980971 1.887685,1.961639 2.831134,2.942061 0.361791,0.677587 0.723302,1.354883 1.084556,2.031927 0.176652,0.451813 0.353031,0.903344 0.529148,1.354618 -0.04912,0.889251 -0.09851,1.778201 -0.148161,2.666904 -0.352507,0.402425 -0.705266,0.804569 -1.058294,1.206457 -0.135488,0.360092 -0.271235,0.719906 -0.407249,1.079461 0.538176,0.02143 1.076068,0.0426 1.613704,0.0635 0.903362,-0.04912 1.806422,-0.09851 2.709236,-0.148161 0.599979,0.113151 1.199668,0.226034 1.799103,0.338654 0.296592,0.275427 0.59291,0.550578 0.888968,0.82547 0.06377,0.465924 0.127259,0.931565 0.190492,1.39695 -0.281953,0.889251 -0.564158,1.778201 -0.846635,2.666905 -0.500671,0.931582 -1.001588,1.862865 -1.50278,2.793899 -0.550058,0.649364 -1.100363,1.29844 -1.650939,1.947265 -0.126736,0.4377 -0.253728,0.875119 -0.380987,1.312285 0.233092,0.522483 0.465915,1.044684 0.698473,1.566627 0.578813,2.65e-4 1.157335,2.65e-4 1.735606,0 0.719921,-0.507844 1.439545,-1.015931 2.158923,-1.524296 0.501201,-0.931053 1.002118,-1.862333 1.502778,-2.7939 1.185579,-1.18505 2.370847,-2.370317 3.555873,-3.555872 0.494146,-0.140843 0.988007,-0.281946 1.481614,-0.423318 0.677587,0.465923 1.354881,0.931566 2.031926,1.39695 0.534683,0.931584 1.06908,1.862865 1.603224,2.793899 0.178445,0.261316 0.356619,0.522359 0.534532,0.78314 0.654196,-1.035087 1.308103,-2.070393 1.961756,-3.105988 1.137745,-0.393862 2.275181,-0.787974 3.412374,-1.182357 1.501939,0.100044 3.003555,0.199819 4.504933,0.299331 0.868344,0.219779 1.736386,0.439282 2.604183,0.658529 0.499157,0.349491 0.998034,0.698704 1.496655,1.047658 -0.343974,1.008033 -0.688197,2.015762 -1.032693,3.023245 -0.708168,1.34728 -1.416571,2.694244 -2.125252,4.040968 -0.588431,0.504151 -1.177105,1.008015 -1.766054,1.511623 -0.483664,0.149934 -0.967571,0.299596 -1.451756,0.448998 -1.246973,0.03076 -2.494161,0.06126 -3.741637,0.0915 0.893287,1.072322 1.786274,2.14434 2.679012,3.216111 0.204812,0.509138 0.409351,1.01799 0.61363,1.526588 -0.17435,0.583972 -0.348956,1.167656 -0.52383,1.751086 -1.202073,0.259691 -2.404361,0.519107 -3.60694,0.778262 -1.785779,0.119999 -3.571753,0.239731 -5.358027,0.359198 -0.902734,0.09006 -1.805699,0.179864 -2.708947,0.269396 -0.214259,0.444283 -0.428776,0.88828 -0.643562,1.332024 0.129977,0.673774 0.259686,1.347255 0.389131,2.020485 0.683752,0.08009 1.36721,0.159909 2.050417,0.239466 1.417127,-0.0097 2.833934,-0.01968 4.250503,-0.02994 1.601718,0.244724 3.203109,0.489173 4.804264,0.733362 0.519115,0.373573 1.037947,0.746866 1.556523,1.119902 -0.09952,0.699582 -0.19929,1.39887 -0.299332,2.097907 -0.618365,0.833422 -1.236972,1.680697 -1.855853,2.520649 -0.403839,0.35239 -0.807929,0.704503 -1.212292,1.056359 0.613908,-0.0456 1.227524,-0.09146 1.840886,-0.137588 1.117791,0.186708 2.235272,0.373142 3.352509,0.559316 0.64384,0.578096 1.287389,1.155903 1.930686,1.733457 0.514128,0.783529 1.02797,1.566765 1.541555,2.349749 0.439293,1.137745 0.878303,2.275181 1.317059,3.412373 0.01024,0.658807 0.02021,1.317324 0.02993,1.975586 -0.88278,0.239736 -1.765789,0.479194 -2.64908,0.718396 -1.486442,0.08009 -2.973091,0.159907 -4.460033,0.239464 -1.391653,-0.17435 -2.783515,-0.348956 -4.17567,-0.52383 -0.658278,-0.68821 -1.316792,-1.376659 -1.975586,-2.065385 -0.199292,-0.423796 -0.398843,-0.847839 -0.598662,-1.272156 -0.227094,0.439293 -0.454445,0.878303 -0.682067,1.317056 -0.657926,0.988078 -1.31609,1.97585 -1.974532,2.963378 -0.381378,0.149934 -0.763005,0.299596 -1.144905,0.448998 -0.643311,-0.07457 -1.286859,-0.149402 -1.930686,-0.224499 -0.513598,-0.483664 -1.02744,-0.967573 -1.541555,-1.451755 -1.057394,-1.426576 -2.11501,-2.85336 -3.17291,-4.280435 -0.463708,-0.633333 -0.927663,-1.266904 -1.39189,-1.900753 -0.378897,-0.154393 -0.758042,-0.309044 -1.137457,-0.463963 -0.648301,0.199821 -1.29684,0.399373 -1.945654,0.598662 -0.08506,0.519115 -0.170375,1.037945 -0.25596,1.55652 0.320066,0.633862 0.639858,1.267434 0.95939,1.900753 0.768561,1.132758 1.536829,2.265204 2.304848,3.397409 0.339514,1.137745 0.678749,2.275181 1.017726,3.412374 -0.08455,0.59894 -0.169358,1.197591 -0.254432,1.795989 -0.428786,0.124986 -0.857819,0.249705 -1.287124,0.374163 -0.79298,0.03519 -1.58619,0.07011 -2.379683,0.104764 -0.932667,-0.09951 -1.865564,-0.199289 -2.798744,-0.299331 -0.294085,0.02021 -0.58842,0.04018 -0.883028,0.05987 0.598939,0.658808 1.197588,1.317321 1.795986,1.975586 0.279646,0.733639 0.559017,1.466988 0.838128,2.200084 -0.209272,0.708695 -0.418798,1.417098 -0.628594,2.12525 -0.74808,1.132758 -1.496393,2.265204 -2.244984,3.397409 -0.872802,0.873331 -1.745835,1.746364 -2.619148,2.619147 -0.396824,0.01024 -0.7939,0.02021 -1.191246,0.02993 -0.72516,-0.603399 -1.450555,-1.207037 -2.17623,-1.810954 -0.7381,-0.703178 -1.476433,-1.406591 -2.215049,-2.110282 -0.463709,-0.902738 -0.927661,-1.805702 -1.391889,-2.708947 0.149932,-1.271919 0.299596,-2.544051 0.448996,-3.816472 0.429315,-0.528566 0.858348,-1.057373 1.287123,-1.586455 -0.817922,0.0302 -1.636077,0.06013 -2.454515,0.0898 -0.713156,-0.02469 -1.426546,-0.04963 -2.140217,-0.07484 -0.733111,-0.229227 -1.466459,-0.458708 -2.200085,-0.688462 -0.05461,-0.997524 -0.10949,-1.995276 -0.164632,-2.99331 0.414348,-0.83289 0.828416,-1.666013 1.242224,-2.499416 0.69314,-1.172139 1.385986,-2.344494 2.07858,-3.517141 0.175469,-0.458718 0.350666,-0.917683 0.525603,-1.376923 -0.234217,-0.548518 -0.468688,-1.097283 -0.703429,-1.646319 -0.408829,-0.17435 -0.817907,-0.348957 -1.227257,-0.52383 -0.518588,0.254701 -1.037418,0.509127 -1.556522,0.763293 -0.538544,0.828432 -1.077328,1.61756 -1.616387,2.425944 -0.523577,0.808021 -1.047396,1.615747 -1.571491,2.423221 -0.568475,0.608917 -1.137192,1.217546 -1.706186,1.825921 -0.488654,0.39439 -0.977551,0.788503 -1.466723,1.182357 -0.618366,0.0053 -1.23697,0.01024 -1.855854,0.01497 -0.523573,-0.493641 -1.047393,-0.987528 -1.571487,-1.48169 -0.254172,-0.408829 -0.508598,-0.817907 -0.763294,-1.227257 -0.16936,-0.673243 -0.338979,-1.346727 -0.508863,-2.020485 -0.157625,-0.08954 -0.31551,-0.179335 -0.473659,-0.269399 -0.196062,0.434303 -0.39238,0.868325 -0.588966,1.302091 -0.204284,0.394391 -0.408823,0.788504 -0.613629,1.182357 -0.768034,0.45426 -1.536302,0.908238 -2.30485,1.361959 -1.12225,0.169889 -2.244719,0.339505 -3.367475,0.508862 -1.805736,-0.199295 -3.611664,-0.398843 -5.417893,-0.598662 -0.508609,-0.22424 -1.017462,-0.448733 -1.526589,-0.673497 -0.149404,-0.543531 -0.299067,-1.087305 -0.448997,-1.631355 0.224768,-0.373906 0.449261,-0.748061 0.673495,-1.122489 0.509138,-1.117261 1.017991,-2.234742 1.526589,-3.352509 0.728651,-0.897747 1.457009,-1.795722 2.185117,-2.693979 0.743618,-0.21925 1.486943,-0.438756 2.230017,-0.65853 0.968121,-0.09952 1.935939,-0.199289 2.903512,-0.299331 0.110021,-0.104502 0.219774,-0.209267 0.329264,-0.314298 -0.797968,-0.967592 -1.596168,-1.935409 -2.394649,-2.903511 -0.159382,-0.753068 -0.319022,-1.506369 -0.47893,-2.25995 0.329535,-0.329006 0.658793,-0.658264 0.987793,-0.987792 1.008033,-0.284107 2.015761,-0.568466 3.023244,-0.853094 1.806265,-0.06958 3.612194,-0.139425 5.417893,-0.209534 0.633863,-0.02468 1.267434,-0.04962 1.900754,-0.07483 0.431265,-0.289094 0.86225,-0.578443 1.292979,-0.868061 0.213257,-0.299072 0.426238,-0.598397 0.638961,-0.897993 -0.09494,-0.433774 -0.190149,-0.867794 -0.285621,-1.302089 -0.413816,-0.219249 -0.827884,-0.438756 -1.242224,-0.658529 -2.105072,-0.02967 -4.210325,-0.0596 -6.315886,-0.0898 -1.622089,-0.338984 -3.244377,-0.678219 -4.866963,-1.017725 -0.278172,-0.528563 -0.556598,-1.057373 -0.835294,-1.586455 0.149933,-0.54353 0.299595,-1.087305 0.448996,-1.631354 0.429315,-0.299072 0.858348,-0.598398 1.287124,-0.897993 0.239734,-0.593421 0.479194,-1.187083 0.718395,-1.781022 C 22.649646,41.233123 22.445108,41.083459 22.2403,40.93353 21.427365,40.90884 20.614199,40.8839 19.800751,40.8587 18.778281,40.304255 17.755587,39.749569 16.732607,39.194608 16.273888,38.37263 15.814923,37.550421 15.355684,36.72793 c -0.608387,-1.61266 -1.217015,-3.225517 -1.825919,-4.838671 0.414347,-0.447249 0.828414,-0.894747 1.242224,-1.342517 0.948165,-0.17435 1.896028,-0.348957 2.843645,-0.52383 1.611696,-0.0596 3.223063,-0.119468 4.834198,-0.179599 1.057922,0.319558 2.115538,0.638839 3.17291,0.95786 0.633861,0.943176 1.267431,1.88605 1.900751,2.828679 0.334526,-0.538541 0.668772,-1.077328 1.00276,-1.616387 0.703707,-0.967592 1.407121,-1.935412 2.110285,-2.903514 0.889159,0.04018 1.778016,0.08009 2.66663,0.119735 0.468365,0.474212 0.936448,0.948145 1.404273,1.42182 0.983089,1.247503 1.965873,2.494693 2.948411,3.74164 0.49916,0.673774 0.998035,1.347255 1.496655,2.020485 0.449271,0.279646 0.898258,0.559017 1.346991,0.838129 0.459248,-0.124818 0.918213,-0.249891 1.376924,-0.375235 0.244724,-0.343617 0.489172,-0.687483 0.733361,-1.031624 0.05514,-0.413816 0.110019,-0.821259 0.164632,-1.232283 -0.329007,-0.596734 -0.658265,-1.193708 -0.987793,-1.79096 -0.758057,-1.092316 -1.516345,-2.184852 -2.274916,-3.277677 -0.329007,-1.222028 -0.658265,-2.444271 -0.987793,-3.666805 0.324546,-0.533553 0.648814,-1.06735 0.972825,-1.601421 0.993066,-0.05461 1.985828,-0.109491 2.978346,-0.164633 1.028523,0.06013 2.056738,0.119997 3.084711,0.179599 -0.344506,-0.473686 -0.689264,-0.947617 -1.034293,-1.421823 -0.16936,-1.122249 -0.338977,-2.244719 -0.508863,-3.367475 0.938186,-1.661056 1.876073,-3.322311 2.813711,-4.983863 0.838409,-0.743089 1.67652,-1.486413 2.514383,-2.230017 0.143696,-0.108245 0.287124,-0.21675 0.430287,-0.325522 0.07416,-0.0079 0.148053,-0.01603 0.221684,-0.02445 z" /></g><g
     inkscape:label="B.Cu"
     inkscape:groupmode="layer"
     id="g558" /><g
     inkscape:label="B.Mask"
     inkscape:groupmode="layer"
     id="g560" /><g
     inkscape:label="B.SilkS"
     inkscape:groupmode="layer"
     id="g562" /><g
     inkscape:label="F.Cu"
     inkscape:groupmode="layer"
     id="g564" /><g
     inkscape:label="F.Mask"
     inkscape:groupmode="layer"
     id="g566" /><g
     inkscape:label="F.SilkS"
     inkscape:groupmode="layer"
     id="g568"><g
       id="g2545"
       transform="matrix(1.2356033,0,0,1.1257309,-5.6561625,6.4185458)"><g
         id="g1670"
         transform="matrix(1,0,0,1.0266446,0,-0.32145606)"><path
           style="fill:none;stroke:#000000;stroke-width:0.8;stroke-linecap:butt;stroke-linejoin:miter;stroke-dasharray:none;stroke-opacity:1"
           d="M 45.041049,12.064566 V 30.944555"
           id="path874" /><path
           style="fill:none;stroke:#000000;stroke-width:0.8;stroke-linecap:butt;stroke-linejoin:miter;stroke-dasharray:none;stroke-opacity:1"
           d="m 48.233516,12.699544 c -0.09961,1.11642 -0.996386,2.17824 -3.15372,3.15372"
           id="path876"
           sodipodi:nodetypes="cc" /><path
           style="fill:none;stroke:#000000;stroke-width:0.8;stroke-linecap:butt;stroke-linejoin:miter;stroke-dasharray:none;stroke-opacity:1"
           d="m 41.848582,12.699544 c 0.09961,1.11642 0.996386,2.17824 3.15372,3.15372"
           id="path975"
           sodipodi:nodetypes="cc" /><path
           style="fill:none;stroke:#000000;stroke-width:0.8;stroke-linecap:butt;stroke-linejoin:miter;stroke-dasharray:none;stroke-opacity:1"
           d="m 48.214316,16.438649 c -0.09901,1.646654 -0.990394,3.212778 -3.134753,4.651554"
           id="path977"
           sodipodi:nodetypes="cc" /><path
           style="fill:none;stroke:#000000;stroke-width:0.8;stroke-linecap:butt;stroke-linejoin:miter;stroke-dasharray:none;stroke-opacity:1"
           d="m 41.867782,16.438649 c 0.09901,1.646654 0.990394,3.212778 3.134753,4.651554"
           id="path979"
           sodipodi:nodetypes="cc" /><path
           style="fill:none;stroke:#000000;stroke-width:0.8;stroke-linecap:butt;stroke-linejoin:miter;stroke-dasharray:none;stroke-opacity:1"
           d="m 48.199523,21.291955 c -0.09855,2.153238 -0.985777,4.201171 -3.12014,6.082578"
           id="path981"
           sodipodi:nodetypes="cc" /><path
           style="fill:none;stroke:#000000;stroke-width:0.8;stroke-linecap:butt;stroke-linejoin:miter;stroke-dasharray:none;stroke-opacity:1"
           d="m 41.882575,21.291955 c 0.09855,2.153238 0.985777,4.201171 3.12014,6.082578"
           id="path983"
           sodipodi:nodetypes="cc" /></g><g
         id="g1107"
         transform="translate(26.039363,17.886668)"
         style="stroke-width:0.8;stroke-dasharray:none"><path
           sodipodi:type="star"
           style="fill:none;stroke:#000000;stroke-width:0.8;stroke-linecap:round;stroke-linejoin:round;stroke-dasharray:none"
           id="path1039"
           inkscape:flatsided="true"
           sodipodi:sides="6"
           sodipodi:cx="19.006983"
           sodipodi:cy="20.827251"
           sodipodi:r1="7.269372"
           sodipodi:r2="6.2954607"
           sodipodi:arg1="0.52359878"
           sodipodi:arg2="1.0471976"
           inkscape:rounded="0"
           inkscape:randomized="0"
           d="m 25.302444,24.461937 -6.295461,3.634686 -6.295461,-3.634686 0,-7.269372 6.295461,-3.634686 6.295461,3.634686 z" /><path
           sodipodi:type="star"
           style="fill:none;stroke:#000000;stroke-width:1.20227;stroke-linecap:round;stroke-linejoin:round;stroke-dasharray:none"
           id="path1043"
           inkscape:flatsided="true"
           sodipodi:sides="6"
           sodipodi:cx="19.006983"
           sodipodi:cy="20.827251"
           sodipodi:r1="7.269372"
           sodipodi:r2="6.2954607"
           sodipodi:arg1="0.52359878"
           sodipodi:arg2="1.0471976"
           inkscape:rounded="0"
           inkscape:randomized="0"
           d="m 25.302444,24.461937 -6.295461,3.634686 -6.295461,-3.634686 0,-7.269372 6.295461,-3.634686 6.295461,3.634686 z"
           transform="matrix(0.66540907,0,0,0.66540907,6.359564,6.9686094)" /></g><g
         id="g1686"
         transform="matrix(1,0,0,-1.0266446,0.0052968,77.749295)"><path
           style="fill:none;stroke:#000000;stroke-width:0.8;stroke-linecap:butt;stroke-linejoin:miter;stroke-dasharray:none;stroke-opacity:1"
           d="M 45.041049,12.064566 V 30.944555"
           id="path1672" /><path
           style="fill:none;stroke:#000000;stroke-width:0.8;stroke-linecap:butt;stroke-linejoin:miter;stroke-dasharray:none;stroke-opacity:1"
           d="m 48.233516,12.699544 c -0.09961,1.11642 -0.996386,2.17824 -3.15372,3.15372"
           id="path1674"
           sodipodi:nodetypes="cc" /><path
           style="fill:none;stroke:#000000;stroke-width:0.8;stroke-linecap:butt;stroke-linejoin:miter;stroke-dasharray:none;stroke-opacity:1"
           d="m 41.848582,12.699544 c 0.09961,1.11642 0.996386,2.17824 3.15372,3.15372"
           id="path1676"
           sodipodi:nodetypes="cc" /><path
           style="fill:none;stroke:#000000;stroke-width:0.8;stroke-linecap:butt;stroke-linejoin:miter;stroke-dasharray:none;stroke-opacity:1"
           d="m 48.214316,16.438649 c -0.09901,1.646654 -0.990394,3.212778 -3.134753,4.651554"
           id="path1678"
           sodipodi:nodetypes="cc" /><path
           style="fill:none;stroke:#000000;stroke-width:0.8;stroke-linecap:butt;stroke-linejoin:miter;stroke-dasharray:none;stroke-opacity:1"
           d="m 41.867782,16.438649 c 0.09901,1.646654 0.990394,3.212778 3.134753,4.651554"
           id="path1680"
           sodipodi:nodetypes="cc" /><path
           style="fill:none;stroke:#000000;stroke-width:0.8;stroke-linecap:butt;stroke-linejoin:miter;stroke-dasharray:none;stroke-opacity:1"
           d="m 48.199523,21.291955 c -0.09855,2.153238 -0.985777,4.201171 -3.12014,6.082578"
           id="path1682"
           sodipodi:nodetypes="cc" /><path
           style="fill:none;stroke:#000000;stroke-width:0.8;stroke-linecap:butt;stroke-linejoin:miter;stroke-dasharray:none;stroke-opacity:1"
           d="m 41.882575,21.291955 c 0.09855,2.153238 0.985777,4.201171 3.12014,6.082578"
           id="path1684"
           sodipodi:nodetypes="cc" /></g><g
         id="g2444"
         transform="matrix(0.5,0.8660254,-0.8891003,0.5133223,56.327476,-19.812755)"><path
           style="fill:none;stroke:#000000;stroke-width:0.8;stroke-linecap:butt;stroke-linejoin:miter;stroke-dasharray:none;stroke-opacity:1"
           d="M 45.041049,12.064566 V 30.944555"
           id="path2430" /><path
           style="fill:none;stroke:#000000;stroke-width:0.8;stroke-linecap:butt;stroke-linejoin:miter;stroke-dasharray:none;stroke-opacity:1"
           d="m 48.233516,12.699544 c -0.09961,1.11642 -0.996386,2.17824 -3.15372,3.15372"
           id="path2432"
           sodipodi:nodetypes="cc" /><path
           style="fill:none;stroke:#000000;stroke-width:0.8;stroke-linecap:butt;stroke-linejoin:miter;stroke-dasharray:none;stroke-opacity:1"
           d="m 41.848582,12.699544 c 0.09961,1.11642 0.996386,2.17824 3.15372,3.15372"
           id="path2434"
           sodipodi:nodetypes="cc" /><path
           style="fill:none;stroke:#000000;stroke-width:0.8;stroke-linecap:butt;stroke-linejoin:miter;stroke-dasharray:none;stroke-opacity:1"
           d="m 48.214316,16.438649 c -0.09901,1.646654 -0.990394,3.212778 -3.134753,4.651554"
           id="path2436"
           sodipodi:nodetypes="cc" /><path
           style="fill:none;stroke:#000000;stroke-width:0.8;stroke-linecap:butt;stroke-linejoin:miter;stroke-dasharray:none;stroke-opacity:1"
           d="m 41.867782,16.438649 c 0.09901,1.646654 0.990394,3.212778 3.134753,4.651554"
           id="path2438"
           sodipodi:nodetypes="cc" /><path
           style="fill:none;stroke:#000000;stroke-width:0.8;stroke-linecap:butt;stroke-linejoin:miter;stroke-dasharray:none;stroke-opacity:1"
           d="m 48.199523,21.291955 c -0.09855,2.153238 -0.985777,4.201171 -3.12014,6.082578"
           id="path2440"
           sodipodi:nodetypes="cc" /><path
           style="fill:none;stroke:#000000;stroke-width:0.8;stroke-linecap:butt;stroke-linejoin:miter;stroke-dasharray:none;stroke-opacity:1"
           d="m 41.882575,21.291955 c 0.09855,2.153238 0.985777,4.201171 3.12014,6.082578"
           id="path2442"
           sodipodi:nodetypes="cc" /></g><g
         id="g2460"
         transform="matrix(0.5,0.8660254,0.8891003,-0.5133223,-11.28113,19.227208)"><path
           style="fill:none;stroke:#000000;stroke-width:0.8;stroke-linecap:butt;stroke-linejoin:miter;stroke-dasharray:none;stroke-opacity:1"
           d="M 45.041049,12.064566 V 30.944555"
           id="path2446" /><path
           style="fill:none;stroke:#000000;stroke-width:0.8;stroke-linecap:butt;stroke-linejoin:miter;stroke-dasharray:none;stroke-opacity:1"
           d="m 48.233516,12.699544 c -0.09961,1.11642 -0.996386,2.17824 -3.15372,3.15372"
           id="path2448"
           sodipodi:nodetypes="cc" /><path
           style="fill:none;stroke:#000000;stroke-width:0.8;stroke-linecap:butt;stroke-linejoin:miter;stroke-dasharray:none;stroke-opacity:1"
           d="m 41.848582,12.699544 c 0.09961,1.11642 0.996386,2.17824 3.15372,3.15372"
           id="path2450"
           sodipodi:nodetypes="cc" /><path
           style="fill:none;stroke:#000000;stroke-width:0.8;stroke-linecap:butt;stroke-linejoin:miter;stroke-dasharray:none;stroke-opacity:1"
           d="m 48.214316,16.438649 c -0.09901,1.646654 -0.990394,3.212778 -3.134753,4.651554"
           id="path2452"
           sodipodi:nodetypes="cc" /><path
           style="fill:none;stroke:#000000;stroke-width:0.8;stroke-linecap:butt;stroke-linejoin:miter;stroke-dasharray:none;stroke-opacity:1"
           d="m 41.867782,16.438649 c 0.09901,1.646654 0.990394,3.212778 3.134753,4.651554"
           id="path2454"
           sodipodi:nodetypes="cc" /><path
           style="fill:none;stroke:#000000;stroke-width:0.8;stroke-linecap:butt;stroke-linejoin:miter;stroke-dasharray:none;stroke-opacity:1"
           d="m 48.199523,21.291955 c -0.09855,2.153238 -0.985777,4.201171 -3.12014,6.082578"
           id="path2456"
           sodipodi:nodetypes="cc" /><path
           style="fill:none;stroke:#000000;stroke-width:0.8;stroke-linecap:butt;stroke-linejoin:miter;stroke-dasharray:none;stroke-opacity:1"
           d="m 41.882575,21.291955 c 0.09855,2.153238 0.985777,4.201171 3.12014,6.082578"
           id="path2458"
           sodipodi:nodetypes="cc" /></g><g
         id="g2476"
         transform="matrix(-0.5,0.8660254,-0.8891003,-0.5133223,101.37117,19.222621)"><path
           style="fill:none;stroke:#000000;stroke-width:0.8;stroke-linecap:butt;stroke-linejoin:miter;stroke-dasharray:none;stroke-opacity:1"
           d="M 45.041049,12.064566 V 30.944555"
           id="path2462" /><path
           style="fill:none;stroke:#000000;stroke-width:0.8;stroke-linecap:butt;stroke-linejoin:miter;stroke-dasharray:none;stroke-opacity:1"
           d="m 48.233516,12.699544 c -0.09961,1.11642 -0.996386,2.17824 -3.15372,3.15372"
           id="path2464"
           sodipodi:nodetypes="cc" /><path
           style="fill:none;stroke:#000000;stroke-width:0.8;stroke-linecap:butt;stroke-linejoin:miter;stroke-dasharray:none;stroke-opacity:1"
           d="m 41.848582,12.699544 c 0.09961,1.11642 0.996386,2.17824 3.15372,3.15372"
           id="path2466"
           sodipodi:nodetypes="cc" /><path
           style="fill:none;stroke:#000000;stroke-width:0.8;stroke-linecap:butt;stroke-linejoin:miter;stroke-dasharray:none;stroke-opacity:1"
           d="m 48.214316,16.438649 c -0.09901,1.646654 -0.990394,3.212778 -3.134753,4.651554"
           id="path2468"
           sodipodi:nodetypes="cc" /><path
           style="fill:none;stroke:#000000;stroke-width:0.8;stroke-linecap:butt;stroke-linejoin:miter;stroke-dasharray:none;stroke-opacity:1"
           d="m 41.867782,16.438649 c 0.09901,1.646654 0.990394,3.212778 3.134753,4.651554"
           id="path2470"
           sodipodi:nodetypes="cc" /><path
           style="fill:none;stroke:#000000;stroke-width:0.8;stroke-linecap:butt;stroke-linejoin:miter;stroke-dasharray:none;stroke-opacity:1"
           d="m 48.199523,21.291955 c -0.09855,2.153238 -0.985777,4.201171 -3.12014,6.082578"
           id="path2472"
           sodipodi:nodetypes="cc" /><path
           style="fill:none;stroke:#000000;stroke-width:0.8;stroke-linecap:butt;stroke-linejoin:miter;stroke-dasharray:none;stroke-opacity:1"
           d="m 41.882575,21.291955 c 0.09855,2.153238 0.985777,4.201171 3.12014,6.082578"
           id="path2474"
           sodipodi:nodetypes="cc" /></g><g
         id="g2492"
         transform="matrix(-0.5,0.8660254,0.8891003,0.5133223,33.75727,-19.808168)"><path
           style="fill:none;stroke:#000000;stroke-width:0.8;stroke-linecap:butt;stroke-linejoin:miter;stroke-dasharray:none;stroke-opacity:1"
           d="M 45.041049,12.064566 V 30.944555"
           id="path2478" /><path
           style="fill:none;stroke:#000000;stroke-width:0.8;stroke-linecap:butt;stroke-linejoin:miter;stroke-dasharray:none;stroke-opacity:1"
           d="m 48.233516,12.699544 c -0.09961,1.11642 -0.996386,2.17824 -3.15372,3.15372"
           id="path2480"
           sodipodi:nodetypes="cc" /><path
           style="fill:none;stroke:#000000;stroke-width:0.8;stroke-linecap:butt;stroke-linejoin:miter;stroke-dasharray:none;stroke-opacity:1"
           d="m 41.848582,12.699544 c 0.09961,1.11642 0.996386,2.17824 3.15372,3.15372"
           id="path2482"
           sodipodi:nodetypes="cc" /><path
           style="fill:none;stroke:#000000;stroke-width:0.8;stroke-linecap:butt;stroke-linejoin:miter;stroke-dasharray:none;stroke-opacity:1"
           d="m 48.214316,16.438649 c -0.09901,1.646654 -0.990394,3.212778 -3.134753,4.651554"
           id="path2484"
           sodipodi:nodetypes="cc" /><path
           style="fill:none;stroke:#000000;stroke-width:0.8;stroke-linecap:butt;stroke-linejoin:miter;stroke-dasharray:none;stroke-opacity:1"
           d="m 41.867782,16.438649 c 0.09901,1.646654 0.990394,3.212778 3.134753,4.651554"
           id="path2486"
           sodipodi:nodetypes="cc" /><path
           style="fill:none;stroke:#000000;stroke-width:0.8;stroke-linecap:butt;stroke-linejoin:miter;stroke-dasharray:none;stroke-opacity:1"
           d="m 48.199523,21.291955 c -0.09855,2.153238 -0.985777,4.201171 -3.12014,6.082578"
           id="path2488"
           sodipodi:nodetypes="cc" /><path
           style="fill:none;stroke:#000000;stroke-width:0.8;stroke-linecap:butt;stroke-linejoin:miter;stroke-dasharray:none;stroke-opacity:1"
           d="m 41.882575,21.291955 c 0.09855,2.153238 0.985777,4.201171 3.12014,6.082578"
           id="path2490"
           sodipodi:nodetypes="cc" /></g></g></g><g
     inkscape:label="Dwgs.User"
     inkscape:groupmode="layer"
     id="g570" /><g
     inkscape:label="Drill"
     inkscape:groupmode="layer"
     id="g572" /></svg>
